<svg class="main-svg" xmlns="http://www.w3.org/2000/svg" xmlns:xlink="http://www.w3.org/1999/xlink" width="1400" height="500" style="" viewBox="0 0 1400 500"><rect x="0" y="0" width="1400" height="500" style="fill: rgb(255, 255, 255); fill-opacity: 1;"/><defs id="defs-f8b3e6"><g class="clips"><clipPath id="clipf8b3e6xyplot" class="plotclip"><rect width="1147" height="395"/></clipPath><clipPath class="axesclip" id="clipf8b3e6x"><rect x="80" y="0" width="1147" height="500"/></clipPath><clipPath class="axesclip" id="clipf8b3e6y"><rect x="0" y="50" width="1400" height="395"/></clipPath><clipPath class="axesclip" id="clipf8b3e6xy"><rect x="80" y="50" width="1147" height="395"/></clipPath></g><g class="gradients"/></defs><g class="bglayer"><rect class="bg" x="80" y="50" width="1147" height="395" style="fill: rgb(0, 0, 0); fill-opacity: 0; stroke-width: 0;"/></g><g class="layer-below"><g class="imagelayer"/><g class="shapelayer"/></g><g class="cartesianlayer"><g class="subplot xy"><g class="layer-subplot"><g class="shapelayer"/><g class="imagelayer"/></g><g class="gridlayer"><g class="x"><path class="xgrid crisp" transform="translate(193.78,0)" d="M0,50v395" style="stroke: rgb(255, 255, 255); stroke-opacity: 1; stroke-width: 1px;"/><path class="xgrid crisp" transform="translate(308.71000000000004,0)" d="M0,50v395" style="stroke: rgb(255, 255, 255); stroke-opacity: 1; stroke-width: 1px;"/><path class="xgrid crisp" transform="translate(423.64,0)" d="M0,50v395" style="stroke: rgb(255, 255, 255); stroke-opacity: 1; stroke-width: 1px;"/><path class="xgrid crisp" transform="translate(538.5699999999999,0)" d="M0,50v395" style="stroke: rgb(255, 255, 255); stroke-opacity: 1; stroke-width: 1px;"/><path class="xgrid crisp" transform="translate(653.5,0)" d="M0,50v395" style="stroke: rgb(255, 255, 255); stroke-opacity: 1; stroke-width: 1px;"/><path class="xgrid crisp" transform="translate(768.43,0)" d="M0,50v395" style="stroke: rgb(255, 255, 255); stroke-opacity: 1; stroke-width: 1px;"/><path class="xgrid crisp" transform="translate(883.36,0)" d="M0,50v395" style="stroke: rgb(255, 255, 255); stroke-opacity: 1; stroke-width: 1px;"/><path class="xgrid crisp" transform="translate(998.29,0)" d="M0,50v395" style="stroke: rgb(255, 255, 255); stroke-opacity: 1; stroke-width: 1px;"/><path class="xgrid crisp" transform="translate(1113.22,0)" d="M0,50v395" style="stroke: rgb(255, 255, 255); stroke-opacity: 1; stroke-width: 1px;"/></g><g class="y"><path class="ygrid crisp" transform="translate(0,380.32)" d="M80,0h1147" style="stroke: rgb(255, 255, 255); stroke-opacity: 1; stroke-width: 1px;"/><path class="ygrid crisp" transform="translate(0,315.64)" d="M80,0h1147" style="stroke: rgb(255, 255, 255); stroke-opacity: 1; stroke-width: 1px;"/><path class="ygrid crisp" transform="translate(0,250.96)" d="M80,0h1147" style="stroke: rgb(255, 255, 255); stroke-opacity: 1; stroke-width: 1px;"/><path class="ygrid crisp" transform="translate(0,186.29)" d="M80,0h1147" style="stroke: rgb(255, 255, 255); stroke-opacity: 1; stroke-width: 1px;"/><path class="ygrid crisp" transform="translate(0,121.61)" d="M80,0h1147" style="stroke: rgb(255, 255, 255); stroke-opacity: 1; stroke-width: 1px;"/><path class="ygrid crisp" transform="translate(0,56.93)" d="M80,0h1147" style="stroke: rgb(255, 255, 255); stroke-opacity: 1; stroke-width: 1px;"/></g></g><g class="zerolinelayer"/><path class="xlines-below"/><path class="ylines-below"/><g class="overlines-below"/><g class="xaxislayer-below"/><g class="yaxislayer-below"/><g class="overaxes-below"/><g class="plot" transform="translate(80, 50)" clip-path="url('#clipf8b3e6xyplot')"><g class="scatterlayer mlayer"><g class="trace scatter trace186c92" style="stroke-miterlimit: 2;"><g class="fills"><g><path class="js-fill" d="M1147,395L0,395L0,395L9.21,394.62L11.52,394.19L20.73,392.44L23.03,392.52L36.85,393.66L39.15,393.63L48.37,393.96L50.67,393.56L62.19,391.53L64.49,391.53L76.01,392.67L78.31,392.18L82.92,390.9L85.22,390.88L89.83,392.63L92.13,393.68L96.73,394.79L99.04,394.94L115.16,394.76L117.46,394.55L133.59,392.87L135.89,392.19L140.5,391.48L142.8,391.81L152.01,394.03L154.32,394.04L163.53,393.2L165.83,392.92L172.74,391.91L175.04,391.32L179.65,390.92L181.95,391.19L186.56,391.27L188.86,390.82L195.77,389.8L198.08,389.95L209.59,390.92L211.9,391.76L216.5,393.02L218.81,393.24L223.41,393.03L225.71,392.42L234.93,388.79L237.23,388.67L246.44,390.39L248.75,390.76L257.96,391.69L260.26,391.51L267.17,390.29L269.48,389.4L274.08,387.33L276.39,386.9L294.81,389L297.11,389.33L301.72,388.94L304.02,388.46L310.93,388.1L313.24,388.1L317.84,386.91L320.15,386.14L324.75,386.23L327.06,386.65L331.66,386.31L333.97,385.79L343.18,384L345.48,384.08L357,384.59L359.3,384.55L366.21,382.79L368.51,383.33L373.12,385L375.42,384.83L382.33,383.4L384.64,383.55L391.55,382.86L393.85,382.69L398.46,381.4L400.76,379.91L403.06,378.84L405.37,378.95L409.97,380.83L412.28,380.61L426.09,372.37L428.4,371.99L435.31,372.03L437.61,370.56L442.22,367.1L444.52,366.55L456.04,367.91L458.34,367.54L462.95,364.97L465.25,363.02L469.86,360.33L472.16,359.61L476.77,356.92L479.07,354.78L485.98,348.87L488.28,347.98L490.58,347.07L492.89,345.12L497.49,336.4L499.8,331.25L502.1,327.26L504.4,324.83L509.01,322.83L511.31,321.96L518.22,318.35L520.53,318.11L522.83,317.76L525.13,315.87L529.74,306.42L532.04,301.19L536.65,293.99L538.95,290.71L541.26,285.58L543.56,277.85L548.16,261.27L550.47,256.21L552.77,251.94L555.07,245.15L557.38,233.62L559.68,217.04L564.29,167.11L566.59,128.57L571.2,38.37L573.5,19.75L575.8,35.53L578.11,75.77L582.71,154.94L585.02,178.71L589.62,211.55L591.93,224.49L596.53,240.74L598.84,247.18L608.05,279L610.35,282.65L612.65,285.93L614.96,290.69L624.17,316.45L626.47,321.17L637.99,340.92L640.29,343.29L644.9,344.24L647.2,344.2L651.81,344.66L654.11,345.63L665.63,354.64L667.93,355.37L674.84,354.97L677.14,356.02L697.87,373.88L700.18,374.2L704.78,373.19L707.09,371.66L711.69,367.71L714,367.05L716.3,368.03L718.6,370.16L720.91,372.27L723.21,373.3L727.82,373.07L730.12,373.94L737.03,379.72L739.33,379.81L746.24,376.57L748.54,376.67L757.76,379.93L760.06,379.96L764.67,380.21L766.97,380.88L773.88,382.98L776.18,383.24L780.79,385.13L783.09,386.93L787.7,390.27L790,390.58L792.31,389.45L794.61,387.18L799.21,382.75L801.52,382.26L803.82,383.16L806.12,384.89L810.73,388.26L813.03,389.12L817.64,388.84L819.94,388.3L824.55,387.17L826.85,386.03L833.76,381.47L836.07,381.07L840.67,382.72L842.98,384.19L847.58,385.73L849.89,385.55L854.49,385.34L856.8,385.77L861.4,386.55L863.7,386.37L870.61,384.58L872.92,384.9L877.52,387.9L879.83,389.63L884.43,391.16L886.74,391.15L895.95,390.24L898.25,389.29L902.86,387.66L905.16,387.48L909.77,388.63L912.07,389.8L918.98,392.81L921.29,393.07L928.19,392.1L930.5,391.61L937.41,390.92L939.71,391.3L946.62,392.08L948.92,392.1L955.83,391.32L958.14,390.97L965.05,391.09L967.35,391.39L976.56,392.52L978.87,392.4L990.38,391.37L992.68,390.82L1001.9,389.13L1004.2,389.42L1013.41,392.34L1015.72,392.61L1029.54,394.15L1031.84,394.12L1036.45,393.19L1038.75,392.38L1043.36,391.46L1045.66,391.69L1059.48,394.18L1061.78,394.23L1070.99,393.13L1073.3,392.38L1080.21,390.13L1082.51,390.39L1091.72,393.03L1094.03,393.31L1105.54,394.02L1107.85,393.98L1119.36,393.89L1121.66,393.96L1130.88,393.67L1133.18,394.08L1140.09,394.59L1142.39,394.29L1147,393.59" style="fill: rgb(215, 48, 39); fill-opacity: 0.5; stroke-width: 0;"/></g></g><g class="errorbars"/><g class="lines"><path class="js-line" d="M0,395L9.21,394.62L11.52,394.19L20.73,392.44L23.03,392.52L36.85,393.66L39.15,393.63L48.37,393.96L50.67,393.56L62.19,391.53L64.49,391.53L76.01,392.67L78.31,392.18L82.92,390.9L85.22,390.88L89.83,392.63L92.13,393.68L96.73,394.79L99.04,394.94L115.16,394.76L117.46,394.55L133.59,392.87L135.89,392.19L140.5,391.48L142.8,391.81L152.01,394.03L154.32,394.04L163.53,393.2L165.83,392.92L172.74,391.91L175.04,391.32L179.65,390.92L181.95,391.19L186.56,391.27L188.86,390.82L195.77,389.8L198.08,389.95L209.59,390.92L211.9,391.76L216.5,393.02L218.81,393.24L223.41,393.03L225.71,392.42L234.93,388.79L237.23,388.67L246.44,390.39L248.75,390.76L257.96,391.69L260.26,391.51L267.17,390.29L269.48,389.4L274.08,387.33L276.39,386.9L294.81,389L297.11,389.33L301.72,388.94L304.02,388.46L310.93,388.1L313.24,388.1L317.84,386.91L320.15,386.14L324.75,386.23L327.06,386.65L331.66,386.31L333.97,385.79L343.18,384L345.48,384.08L357,384.59L359.3,384.55L366.21,382.79L368.51,383.33L373.12,385L375.42,384.83L382.33,383.4L384.64,383.55L391.55,382.86L393.85,382.69L398.46,381.4L400.76,379.91L403.06,378.84L405.37,378.95L409.97,380.83L412.28,380.61L426.09,372.37L428.4,371.99L435.31,372.03L437.61,370.56L442.22,367.1L444.52,366.55L456.04,367.91L458.34,367.54L462.95,364.97L465.25,363.02L469.86,360.33L472.16,359.61L476.77,356.92L479.07,354.78L485.98,348.87L488.28,347.98L490.58,347.07L492.89,345.12L497.49,336.4L499.8,331.25L502.1,327.26L504.4,324.83L509.01,322.83L511.31,321.96L518.22,318.35L520.53,318.11L522.83,317.76L525.13,315.87L529.74,306.42L532.04,301.19L536.65,293.99L538.95,290.71L541.26,285.58L543.56,277.85L548.16,261.27L550.47,256.21L552.77,251.94L555.07,245.15L557.38,233.62L559.68,217.04L564.29,167.11L566.59,128.57L571.2,38.37L573.5,19.75L575.8,35.53L578.11,75.77L582.71,154.94L585.02,178.71L589.62,211.55L591.93,224.49L596.53,240.74L598.84,247.18L608.05,279L610.35,282.65L612.65,285.93L614.96,290.69L624.17,316.45L626.47,321.17L637.99,340.92L640.29,343.29L644.9,344.24L647.2,344.2L651.81,344.66L654.11,345.63L665.63,354.64L667.93,355.37L674.84,354.97L677.14,356.02L697.87,373.88L700.18,374.2L704.78,373.19L707.09,371.66L711.69,367.71L714,367.05L716.3,368.03L718.6,370.16L720.91,372.27L723.21,373.3L727.82,373.07L730.12,373.94L737.03,379.72L739.33,379.81L746.24,376.57L748.54,376.67L757.76,379.93L760.06,379.96L764.67,380.21L766.97,380.88L773.88,382.98L776.18,383.24L780.79,385.13L783.09,386.93L787.7,390.27L790,390.58L792.31,389.45L794.61,387.18L799.21,382.75L801.52,382.26L803.82,383.16L806.12,384.89L810.73,388.26L813.03,389.12L817.64,388.84L819.94,388.3L824.55,387.17L826.85,386.03L833.76,381.47L836.07,381.07L840.67,382.72L842.98,384.19L847.58,385.73L849.89,385.55L854.49,385.34L856.8,385.77L861.4,386.55L863.7,386.37L870.61,384.58L872.92,384.9L877.52,387.9L879.83,389.63L884.43,391.16L886.74,391.15L895.95,390.24L898.25,389.29L902.86,387.66L905.16,387.48L909.77,388.63L912.07,389.8L918.98,392.81L921.29,393.07L928.19,392.1L930.5,391.61L937.41,390.92L939.71,391.3L946.62,392.08L948.92,392.1L955.83,391.32L958.14,390.97L965.05,391.09L967.35,391.39L976.56,392.52L978.87,392.4L990.38,391.37L992.68,390.82L1001.9,389.13L1004.2,389.42L1013.41,392.34L1015.72,392.61L1029.54,394.15L1031.84,394.12L1036.45,393.19L1038.75,392.38L1043.36,391.46L1045.66,391.69L1059.48,394.18L1061.78,394.23L1070.99,393.13L1073.3,392.38L1080.21,390.13L1082.51,390.39L1091.72,393.03L1094.03,393.31L1105.54,394.02L1107.85,393.98L1119.36,393.89L1121.66,393.96L1130.88,393.67L1133.18,394.08L1140.09,394.59L1142.39,394.29L1147,393.59" style="vector-effect: non-scaling-stroke; fill: none; stroke: rgb(215, 48, 39); stroke-opacity: 0.5; stroke-width: 2px; opacity: 1;"/></g><g class="points"/><g class="text"/></g><g class="trace scatter trace4d8135" style="stroke-miterlimit: 2;"><g class="fills"><g><path class="js-fill" d="M1147,395L0,395L0,394.38L6.91,393.09L9.21,392.39L13.82,391.27L16.12,391.21L23.03,391.68L25.34,391.43L32.24,391.31L34.55,391.61L41.46,391.44L43.76,391.23L50.67,391.93L52.97,392.23L76.01,392.97L78.31,393.16L85.22,393.42L87.52,393.19L96.73,392.12L99.04,392.19L108.25,391.55L110.55,391.34L124.37,390.31L126.68,390.68L131.28,391.23L133.59,391L138.19,390.74L140.5,391.14L147.41,392.18L149.71,392.21L156.62,391.63L158.92,391.22L168.13,390.64L170.44,390.51L179.65,389.03L181.95,388.28L186.56,387.21L188.86,387.32L207.29,390.57L209.59,390.03L221.11,385.57L223.41,385.3L246.44,386.4L248.75,385.94L255.66,384.74L257.96,384.97L267.17,387.82L269.48,387.26L276.39,385.18L278.69,384.97L290.2,384.5L292.51,383.74L301.72,380.77L304.02,380.87L315.54,383.7L317.84,383.2L329.36,377.82L331.66,377.42L336.27,377.85L338.57,379.05L343.18,382.06L345.48,382.77L350.09,381.84L352.39,380.71L357,379.25L359.3,379.54L366.21,381L368.51,380.55L375.42,379.22L377.73,379.09L386.94,377.57L389.24,378.11L393.85,380.02L396.15,380.24L398.46,379.41L400.76,377.51L407.67,369.42L409.97,367.77L412.28,367.15L414.58,367.44L423.79,371.1L426.09,370.94L433,368.54L435.31,368.55L439.91,368.42L442.22,366.87L449.13,359.64L451.43,359.62L458.34,363.13L460.64,362.28L465.25,357.88L467.55,355.24L472.16,351.68L474.46,351.83L479.07,354.29L481.37,354.63L483.67,353.67L485.98,351.86L490.58,348.91L492.89,348.21L497.49,346.19L499.8,344.53L509.01,336.68L511.31,333.53L522.83,315.45L525.13,310.94L532.04,296.99L534.35,294.37L541.26,289.15L543.56,285.94L548.16,275.27L550.47,267.93L557.38,246.24L559.68,239.81L564.29,223.86L566.59,211.73L571.2,181.36L573.5,174.26L575.8,179.31L578.11,193.42L582.71,222.12L585.02,231.88L589.62,247.38L591.93,252.44L596.53,257.39L598.84,261.48L605.74,284.58L608.05,288.33L610.35,288.61L612.65,287.63L614.96,287.93L617.26,290.55L626.47,308.34L628.78,314.43L633.38,327.81L635.69,332.7L640.29,337.96L642.6,339.95L647.2,343.21L649.51,343.38L651.81,342.4L654.11,340.53L658.72,335.71L661.02,334.37L663.33,334.98L665.63,337.54L672.54,349.56L674.84,353.85L679.45,359.89L681.75,360.74L688.66,360.78L690.96,361.47L695.57,362.62L697.87,362.62L704.78,362.68L707.09,363.65L714,368.43L716.3,370.48L720.91,373.25L723.21,373.06L730.12,371.09L732.42,371.25L741.63,371.73L743.94,372.5L755.45,376.62L757.76,376.99L766.97,376.41L769.27,376.35L780.79,377.23L783.09,377.91L790,380.43L792.31,380.45L799.21,379.04L801.52,379.52L810.73,382.35L813.03,382.43L819.94,381.7L822.25,382.08L829.16,383.28L831.46,382.96L838.37,381.97L840.67,382.46L847.58,384.46L849.89,384.72L861.4,384.74L863.7,384.64L877.52,385.12L879.83,385.47L898.25,388.25L900.56,388.15L905.16,386.62L907.47,385.57L912.07,384.59L914.38,384.65L925.89,386.39L928.19,386.94L935.1,387.75L937.41,387.73L944.32,388.73L946.62,389.1L953.53,388.87L955.83,388.6L960.44,388.74L962.74,389.24L971.96,390.94L974.26,390.8L981.17,389.67L983.47,389.86L992.68,391.99L994.99,391.78L1006.5,388.95L1008.81,389.01L1034.14,391.8L1036.45,391.6L1045.66,390.26L1047.96,390.33L1054.87,391.6L1057.17,392.11L1066.39,392.65L1068.69,392.57L1077.9,392.19L1080.21,392.68L1087.12,393.77L1089.42,393.79L1096.33,393.11L1098.63,392.54L1105.54,391.35L1107.85,391.59L1117.06,393L1119.36,392.96L1130.88,392.35L1133.18,392.45L1147,393.28" style="fill: rgb(33, 102, 172); fill-opacity: 0.5; stroke-width: 0;"/></g></g><g class="errorbars"/><g class="lines"><path class="js-line" d="M0,394.38L6.91,393.09L9.21,392.39L13.82,391.27L16.12,391.21L23.03,391.68L25.34,391.43L32.24,391.31L34.55,391.61L41.46,391.44L43.76,391.23L50.67,391.93L52.97,392.23L76.01,392.97L78.31,393.16L85.22,393.42L87.52,393.19L96.73,392.12L99.04,392.19L108.25,391.55L110.55,391.34L124.37,390.31L126.68,390.68L131.28,391.23L133.59,391L138.19,390.74L140.5,391.14L147.41,392.18L149.71,392.21L156.62,391.63L158.92,391.22L168.13,390.64L170.44,390.51L179.65,389.03L181.95,388.28L186.56,387.21L188.86,387.32L207.29,390.57L209.59,390.03L221.11,385.57L223.41,385.3L246.44,386.4L248.75,385.94L255.66,384.74L257.96,384.97L267.17,387.82L269.48,387.26L276.39,385.18L278.69,384.97L290.2,384.5L292.51,383.74L301.72,380.77L304.02,380.87L315.54,383.7L317.84,383.2L329.36,377.82L331.66,377.42L336.27,377.85L338.57,379.05L343.18,382.06L345.48,382.77L350.09,381.84L352.39,380.71L357,379.25L359.3,379.54L366.21,381L368.51,380.55L375.42,379.22L377.73,379.09L386.94,377.57L389.24,378.11L393.85,380.02L396.15,380.24L398.46,379.41L400.76,377.51L407.67,369.42L409.97,367.77L412.28,367.15L414.58,367.44L423.79,371.1L426.09,370.94L433,368.54L435.31,368.55L439.91,368.42L442.22,366.87L449.13,359.64L451.43,359.62L458.34,363.13L460.64,362.28L465.25,357.88L467.55,355.24L472.16,351.68L474.46,351.83L479.07,354.29L481.37,354.63L483.67,353.67L485.98,351.86L490.58,348.91L492.89,348.21L497.49,346.19L499.8,344.53L509.01,336.68L511.31,333.53L522.83,315.45L525.13,310.94L532.04,296.99L534.35,294.37L541.26,289.15L543.56,285.94L548.16,275.27L550.47,267.93L557.38,246.24L559.68,239.81L564.29,223.86L566.59,211.73L571.2,181.36L573.5,174.26L575.8,179.31L578.11,193.42L582.71,222.12L585.02,231.88L589.62,247.38L591.93,252.44L596.53,257.39L598.84,261.48L605.74,284.58L608.05,288.33L610.35,288.61L612.65,287.63L614.96,287.93L617.26,290.55L626.47,308.34L628.78,314.43L633.38,327.81L635.69,332.7L640.29,337.96L642.6,339.95L647.2,343.21L649.51,343.38L651.81,342.4L654.11,340.53L658.72,335.71L661.02,334.37L663.33,334.98L665.63,337.54L672.54,349.56L674.84,353.85L679.45,359.89L681.75,360.74L688.66,360.78L690.96,361.47L695.57,362.62L697.87,362.62L704.78,362.68L707.09,363.65L714,368.43L716.3,370.48L720.91,373.25L723.21,373.06L730.12,371.09L732.42,371.25L741.63,371.73L743.94,372.5L755.45,376.62L757.76,376.99L766.97,376.41L769.27,376.35L780.79,377.23L783.09,377.91L790,380.43L792.31,380.45L799.21,379.04L801.52,379.52L810.73,382.35L813.03,382.43L819.94,381.7L822.25,382.08L829.16,383.28L831.46,382.96L838.37,381.97L840.67,382.46L847.58,384.46L849.89,384.72L861.4,384.74L863.7,384.64L877.52,385.12L879.83,385.47L898.25,388.25L900.56,388.15L905.16,386.62L907.47,385.57L912.07,384.59L914.38,384.65L925.89,386.39L928.19,386.94L935.1,387.75L937.41,387.73L944.32,388.73L946.62,389.1L953.53,388.87L955.83,388.6L960.44,388.74L962.74,389.24L971.96,390.94L974.26,390.8L981.17,389.67L983.47,389.86L992.68,391.99L994.99,391.78L1006.5,388.95L1008.81,389.01L1034.14,391.8L1036.45,391.6L1045.66,390.26L1047.96,390.33L1054.87,391.6L1057.17,392.11L1066.39,392.65L1068.69,392.57L1077.9,392.19L1080.21,392.68L1087.12,393.77L1089.42,393.79L1096.33,393.11L1098.63,392.54L1105.54,391.35L1107.85,391.59L1117.06,393L1119.36,392.96L1130.88,392.35L1133.18,392.45L1147,393.28" style="vector-effect: non-scaling-stroke; fill: none; stroke: rgb(33, 102, 172); stroke-opacity: 0.5; stroke-width: 2px; opacity: 1;"/></g><g class="points"/><g class="text"/></g></g></g><g class="overplot"/><path class="xlines-above crisp" d="M79,445.5H1227" style="fill: none; stroke-width: 1px; stroke: rgb(255, 255, 255); stroke-opacity: 1;"/><path class="ylines-above crisp" d="M79.5,50V445" style="fill: none; stroke-width: 1px; stroke: rgb(255, 255, 255); stroke-opacity: 1;"/><g class="overlines-above"/><g class="xaxislayer-above"><g class="xtick"><text text-anchor="middle" x="0" y="460.4" transform="translate(193.78,0)" style="font-family: 'Open Sans', verdana, arial, sans-serif; font-size: 12px; fill: rgb(42, 63, 95); fill-opacity: 1; white-space: pre;">−80k</text></g><g class="xtick"><text text-anchor="middle" x="0" y="460.4" transform="translate(308.71000000000004,0)" style="font-family: 'Open Sans', verdana, arial, sans-serif; font-size: 12px; fill: rgb(42, 63, 95); fill-opacity: 1; white-space: pre;">−60k</text></g><g class="xtick"><text text-anchor="middle" x="0" y="460.4" transform="translate(423.64,0)" style="font-family: 'Open Sans', verdana, arial, sans-serif; font-size: 12px; fill: rgb(42, 63, 95); fill-opacity: 1; white-space: pre;">−40k</text></g><g class="xtick"><text text-anchor="middle" x="0" y="460.4" transform="translate(538.5699999999999,0)" style="font-family: 'Open Sans', verdana, arial, sans-serif; font-size: 12px; fill: rgb(42, 63, 95); fill-opacity: 1; white-space: pre;">−20k</text></g><g class="xtick"><text text-anchor="middle" x="0" y="460.4" transform="translate(653.5,0)" style="font-family: 'Open Sans', verdana, arial, sans-serif; font-size: 12px; fill: rgb(42, 63, 95); fill-opacity: 1; white-space: pre;">0</text></g><g class="xtick"><text text-anchor="middle" x="0" y="460.4" transform="translate(768.43,0)" style="font-family: 'Open Sans', verdana, arial, sans-serif; font-size: 12px; fill: rgb(42, 63, 95); fill-opacity: 1; white-space: pre;">20k</text></g><g class="xtick"><text text-anchor="middle" x="0" y="460.4" transform="translate(883.36,0)" style="font-family: 'Open Sans', verdana, arial, sans-serif; font-size: 12px; fill: rgb(42, 63, 95); fill-opacity: 1; white-space: pre;">40k</text></g><g class="xtick"><text text-anchor="middle" x="0" y="460.4" transform="translate(998.29,0)" style="font-family: 'Open Sans', verdana, arial, sans-serif; font-size: 12px; fill: rgb(42, 63, 95); fill-opacity: 1; white-space: pre;">60k</text></g><g class="xtick"><text text-anchor="middle" x="0" y="460.4" transform="translate(1113.22,0)" style="font-family: 'Open Sans', verdana, arial, sans-serif; font-size: 12px; fill: rgb(42, 63, 95); fill-opacity: 1; white-space: pre;">80k</text></g></g><g class="yaxislayer-above"><g class="ytick"><text text-anchor="end" x="76.6" y="4.199999999999999" transform="translate(0,445)" style="font-family: 'Open Sans', verdana, arial, sans-serif; font-size: 12px; fill: rgb(42, 63, 95); fill-opacity: 1; white-space: pre;">0</text></g><g class="ytick"><text text-anchor="end" x="76.6" y="4.199999999999999" transform="translate(0,380.32)" style="font-family: 'Open Sans', verdana, arial, sans-serif; font-size: 12px; fill: rgb(42, 63, 95); fill-opacity: 1; white-space: pre;">0.005</text></g><g class="ytick"><text text-anchor="end" x="76.6" y="4.199999999999999" transform="translate(0,315.64)" style="font-family: 'Open Sans', verdana, arial, sans-serif; font-size: 12px; fill: rgb(42, 63, 95); fill-opacity: 1; white-space: pre;">0.01</text></g><g class="ytick"><text text-anchor="end" x="76.6" y="4.199999999999999" transform="translate(0,250.96)" style="font-family: 'Open Sans', verdana, arial, sans-serif; font-size: 12px; fill: rgb(42, 63, 95); fill-opacity: 1; white-space: pre;">0.015</text></g><g class="ytick"><text text-anchor="end" x="76.6" y="4.199999999999999" transform="translate(0,186.29)" style="font-family: 'Open Sans', verdana, arial, sans-serif; font-size: 12px; fill: rgb(42, 63, 95); fill-opacity: 1; white-space: pre;">0.02</text></g><g class="ytick"><text text-anchor="end" x="76.6" y="4.199999999999999" transform="translate(0,121.61)" style="font-family: 'Open Sans', verdana, arial, sans-serif; font-size: 12px; fill: rgb(42, 63, 95); fill-opacity: 1; white-space: pre;">0.025</text></g><g class="ytick"><text text-anchor="end" x="76.6" y="4.199999999999999" transform="translate(0,56.93)" style="font-family: 'Open Sans', verdana, arial, sans-serif; font-size: 12px; fill: rgb(42, 63, 95); fill-opacity: 1; white-space: pre;">0.03</text></g></g><g class="overaxes-above"/></g></g><g class="polarlayer"/><g class="ternarylayer"/><g class="geolayer"/><g class="funnelarealayer"/><g class="pielayer"/><g class="treemaplayer"/><g class="sunburstlayer"/><g class="glimages"/><defs id="topdefs-f8b3e6"><g class="clips"/><clipPath id="legendf8b3e6"><rect width="138" height="48" x="0" y="0"/></clipPath></defs><g class="layer-above"><g class="imagelayer"/><g class="shapelayer"/></g><g class="infolayer"><g class="legend" pointer-events="all" transform="translate(1249.94, 50)"><rect class="bg" shape-rendering="crispEdges" style="stroke: rgb(68, 68, 68); stroke-opacity: 1; fill: rgb(255, 255, 255); fill-opacity: 1; stroke-width: 0px;" width="138" height="48" x="0" y="0"/><g class="scrollbox" transform="translate(0, 0)" clip-path="url('#legendf8b3e6')"><g class="groups"><g class="traces" transform="translate(0, 14.5)" style="opacity: 1;"><text class="legendtext user-select-none" text-anchor="start" x="40" y="4.680000000000001" style="font-family: 'Open Sans', verdana, arial, sans-serif; font-size: 12px; fill: rgb(42, 63, 95); fill-opacity: 1; white-space: pre;">Significant</text><g class="layers"><g class="legendfill"><path class="js-fill" d="M5,-2h30v6h-30z" style="stroke-width: 0; fill: rgb(215, 48, 39); fill-opacity: 0.5;"/></g><g class="legendlines"><path class="js-line" d="M5,-2h30" style="fill: none; stroke: rgb(215, 48, 39); stroke-opacity: 0.5; stroke-width: 2px;"/></g><g class="legendsymbols"><g class="legendpoints"/></g></g><rect class="legendtoggle" pointer-events="all" x="0" y="-9.5" width="132.96875" height="19" style="cursor: pointer; fill: rgb(0, 0, 0); fill-opacity: 0;"/></g><g class="traces" transform="translate(0, 33.5)" style="opacity: 1;"><text class="legendtext user-select-none" text-anchor="start" x="40" y="4.680000000000001" style="font-family: 'Open Sans', verdana, arial, sans-serif; font-size: 12px; fill: rgb(42, 63, 95); fill-opacity: 1; white-space: pre;">Non_significant</text><g class="layers"><g class="legendfill"><path class="js-fill" d="M5,-2h30v6h-30z" style="stroke-width: 0; fill: rgb(33, 102, 172); fill-opacity: 0.5;"/></g><g class="legendlines"><path class="js-line" d="M5,-2h30" style="fill: none; stroke: rgb(33, 102, 172); stroke-opacity: 0.5; stroke-width: 2px;"/></g><g class="legendsymbols"><g class="legendpoints"/></g></g><rect class="legendtoggle" pointer-events="all" x="0" y="-9.5" width="132.96875" height="19" style="cursor: pointer; fill: rgb(0, 0, 0); fill-opacity: 0;"/></g></g></g><rect class="scrollbar" rx="20" ry="3" width="0" height="0" style="fill: rgb(128, 139, 164); fill-opacity: 1;" x="0" y="0"/></g><g class="g-gtitle"/><g class="g-xtitle"><text class="xtitle" x="653.5" y="488.20625" text-anchor="middle" style="font-family: 'Open Sans', verdana, arial, sans-serif; font-size: 14px; fill: rgb(42, 63, 95); opacity: 1; font-weight: normal; white-space: pre;">Distance to closest TSS</text></g><g class="g-ytitle"><text class="ytitle" transform="rotate(-90,16.918750000000003,247.5)" x="16.918750000000003" y="247.5" text-anchor="middle" style="font-family: 'Open Sans', verdana, arial, sans-serif; font-size: 14px; fill: rgb(42, 63, 95); opacity: 1; font-weight: normal; white-space: pre;">CpG Islands density</text></g></g></svg>