<svg class="main-svg" xmlns="http://www.w3.org/2000/svg" xmlns:xlink="http://www.w3.org/1999/xlink" width="1400" height="500" style="" viewBox="0 0 1400 500"><rect x="0" y="0" width="1400" height="500" style="fill: rgb(255, 255, 255); fill-opacity: 1;"/><defs id="defs-06bfbe"><g class="clips"><clipPath id="clip06bfbexyplot" class="plotclip"><rect width="1195" height="395"/></clipPath><clipPath class="axesclip" id="clip06bfbex"><rect x="125" y="0" width="1195" height="500"/></clipPath><clipPath class="axesclip" id="clip06bfbey"><rect x="0" y="50" width="1400" height="395"/></clipPath><clipPath class="axesclip" id="clip06bfbexy"><rect x="125" y="50" width="1195" height="395"/></clipPath></g><g class="gradients"/></defs><g class="bglayer"><rect class="bg" x="125" y="50" width="1195" height="395" style="fill: rgb(0, 0, 0); fill-opacity: 0; stroke-width: 0;"/></g><g class="layer-below"><g class="imagelayer"/><g class="shapelayer"><path data-index="0" fill-rule="evenodd" d="M668.18,445H776.82V50H668.18Z" clip-path="url('#clip06bfbex')" style="opacity: 0.25; stroke: rgb(0, 0, 0); stroke-opacity: 0; fill: rgb(100, 100, 100); fill-opacity: 1; stroke-width: 0px;"/></g></g><g class="cartesianlayer"><g class="subplot xy"><g class="layer-subplot"><g class="shapelayer"/><g class="imagelayer"/></g><g class="gridlayer"><g class="x"/><g class="y"><path class="ygrid crisp" transform="translate(0,425.25)" d="M125,0h1195" style="stroke: rgb(211, 211, 211); stroke-opacity: 1; stroke-width: 1px;"/><path class="ygrid crisp" transform="translate(0,395.63)" d="M125,0h1195" style="stroke: rgb(211, 211, 211); stroke-opacity: 1; stroke-width: 1px;"/><path class="ygrid crisp" transform="translate(0,366)" d="M125,0h1195" style="stroke: rgb(211, 211, 211); stroke-opacity: 1; stroke-width: 1px;"/><path class="ygrid crisp" transform="translate(0,336.38)" d="M125,0h1195" style="stroke: rgb(211, 211, 211); stroke-opacity: 1; stroke-width: 1px;"/><path class="ygrid crisp" transform="translate(0,306.75)" d="M125,0h1195" style="stroke: rgb(211, 211, 211); stroke-opacity: 1; stroke-width: 1px;"/><path class="ygrid crisp" transform="translate(0,277.12)" d="M125,0h1195" style="stroke: rgb(211, 211, 211); stroke-opacity: 1; stroke-width: 1px;"/><path class="ygrid crisp" transform="translate(0,247.5)" d="M125,0h1195" style="stroke: rgb(211, 211, 211); stroke-opacity: 1; stroke-width: 1px;"/><path class="ygrid crisp" transform="translate(0,217.87)" d="M125,0h1195" style="stroke: rgb(211, 211, 211); stroke-opacity: 1; stroke-width: 1px;"/><path class="ygrid crisp" transform="translate(0,188.25)" d="M125,0h1195" style="stroke: rgb(211, 211, 211); stroke-opacity: 1; stroke-width: 1px;"/><path class="ygrid crisp" transform="translate(0,158.62)" d="M125,0h1195" style="stroke: rgb(211, 211, 211); stroke-opacity: 1; stroke-width: 1px;"/><path class="ygrid crisp" transform="translate(0,129)" d="M125,0h1195" style="stroke: rgb(211, 211, 211); stroke-opacity: 1; stroke-width: 1px;"/><path class="ygrid crisp" transform="translate(0,99.37)" d="M125,0h1195" style="stroke: rgb(211, 211, 211); stroke-opacity: 1; stroke-width: 1px;"/></g></g><g class="zerolinelayer"/><path class="xlines-below"/><path class="ylines-below"/><g class="overlines-below"/><g class="xaxislayer-below"/><g class="yaxislayer-below"/><g class="overaxes-below"/><g class="plot" transform="translate(125, 50)" clip-path="url('#clip06bfbexyplot')"><g class="violinlayer mlayer"><g class="trace violins" style="opacity: 1;"><path class="violin" d="M-13.25,375.25L-13.25,375.24Q-8.26,375.23 -5.77,375.23C-3.28,375.23 -0.78,375.22 1.71,375.22C4.2,375.21 6.7,375.21 9.19,375.2C11.68,375.19 14.18,375.19 16.67,375.18C19.16,375.18 21.66,375.17 24.15,375.17C26.64,375.17 29.14,375.16 31.63,375.16C34.12,375.16 36.61,375.17 39.1,375.17C41.59,375.17 44.09,375.18 46.58,375.18C49.07,375.19 51.57,375.19 54.06,375.2C56.55,375.2 59.05,375.21 61.54,375.21C64.03,375.22 66.53,375.22 69.02,375.23C71.51,375.23 74.01,375.24 76.5,375.24C78.99,375.24 81.49,375.24 83.98,375.24C86.47,375.24 88.97,375.25 91.46,375.25C93.95,375.25 96.45,375.25 98.94,375.25C101.43,375.25 103.93,375.25 106.42,375.25C108.91,375.25 111.41,375.25 113.9,375.25C116.39,375.25 118.88,375.25 121.37,375.25C123.86,375.25 126.36,375.24 128.85,375.24C131.34,375.24 133.84,375.24 136.33,375.24C138.82,375.24 141.32,375.23 143.81,375.23C146.3,375.22 148.8,375.22 151.29,375.21C153.78,375.2 156.28,375.2 158.77,375.19C161.26,375.18 163.76,375.17 166.25,375.16C168.74,375.15 171.24,375.14 173.73,375.13C176.22,375.12 178.72,375.1 181.21,375.09C183.7,375.08 186.2,375.07 188.69,375.06C191.18,375.05 193.68,375.04 196.17,375.03C198.66,375.02 201.15,375.02 203.64,375.01C206.13,375 208.63,375 211.12,374.99C213.61,374.98 216.11,374.98 218.6,374.97C221.09,374.96 223.59,374.96 226.08,374.95C228.57,374.94 231.07,374.94 233.56,374.93C236.05,374.92 238.55,374.91 241.04,374.9C243.53,374.89 246.03,374.87 248.52,374.86C251.01,374.85 253.51,374.83 256,374.82C258.49,374.8 260.99,374.79 263.48,374.77C265.97,374.75 268.47,374.74 270.96,374.72C273.45,374.7 275.95,374.68 278.44,374.66C280.93,374.64 283.43,374.63 285.92,374.61C288.41,374.59 290.9,374.57 293.39,374.55C295.88,374.53 298.38,374.51 300.87,374.48C303.36,374.45 305.86,374.42 308.35,374.38C310.84,374.34 313.34,374.3 315.83,374.25C318.32,374.2 320.82,374.13 323.31,374.06C325.8,373.98 328.3,373.89 330.79,373.8C333.28,373.7 335.78,373.6 338.27,373.49C340.76,373.38 343.26,373.26 345.75,373.14C348.24,373.02 350.74,372.89 353.23,372.77C355.72,372.64 358.22,372.52 360.71,372.39C363.2,372.26 365.7,372.14 368.19,372.01C370.68,371.88 373.17,371.76 375.66,371.62C378.15,371.48 380.65,371.33 383.14,371.18C385.63,371.02 388.13,370.86 390.62,370.69C393.11,370.52 395.61,370.34 398.1,370.15C400.59,369.96 403.09,369.75 405.58,369.54C408.07,369.33 410.57,369.12 413.06,368.9C415.55,368.68 418.05,368.44 420.54,368.21C423.03,367.98 425.53,367.74 428.02,367.5C430.51,367.26 433.01,367.02 435.5,366.78C437.99,366.53 440.49,366.28 442.98,366.03C445.47,365.78 447.97,365.54 450.46,365.28C452.95,365.02 455.44,364.76 457.93,364.49C460.42,364.22 462.92,363.95 465.41,363.66C467.9,363.37 470.4,363.08 472.89,362.76C475.38,362.44 477.88,362.11 480.37,361.75C482.86,361.39 485.36,361.01 487.85,360.61C490.35,360.21 492.84,359.78 495.33,359.33C497.83,358.88 500.32,358.41 502.81,357.93C505.3,357.45 507.8,356.95 510.29,356.46C512.78,355.97 515.28,355.46 517.77,354.99C520.26,354.52 522.75,354.05 525.25,353.62C527.74,353.19 530.24,352.78 532.73,352.4C535.22,352.02 537.71,351.68 540.2,351.36C542.69,351.04 545.19,350.76 547.68,350.49C550.17,350.22 552.67,349.97 555.16,349.72C557.65,349.48 560.15,349.25 562.64,349.02C565.13,348.79 567.63,348.57 570.12,348.35C572.61,348.14 575.11,347.93 577.6,347.73C580.09,347.53 582.59,347.33 585.08,347.14C587.57,346.95 590.07,346.78 592.56,346.61C595.05,346.45 597.55,346.28 600.04,346.15C602.53,346.02 605.03,345.91 607.52,345.82C610.01,345.73 612.51,345.66 615,345.63C617.49,345.6 619.98,345.6 622.47,345.63C624.96,345.66 627.46,345.71 629.95,345.79C632.44,345.87 634.94,345.98 637.43,346.1C639.92,346.22 642.42,346.36 644.91,346.5C647.4,346.64 649.9,346.79 652.39,346.95C654.88,347.11 657.38,347.27 659.87,347.44C662.36,347.61 664.86,347.79 667.35,347.99C669.84,348.19 672.34,348.4 674.83,348.64C677.32,348.88 679.82,349.13 682.31,349.41C684.8,349.69 687.3,350 689.79,350.33C692.28,350.66 694.78,351.02 697.27,351.39C699.76,351.77 702.26,352.17 704.75,352.58C707.24,353 709.73,353.43 712.22,353.88C714.71,354.33 717.21,354.79 719.7,355.26C722.19,355.73 724.69,356.22 727.18,356.72C729.67,357.22 732.17,357.73 734.66,358.25C737.15,358.77 739.65,359.3 742.14,359.84C744.63,360.38 747.13,360.93 749.62,361.48C752.11,362.03 754.61,362.58 757.1,363.12C759.59,363.66 762.09,364.2 764.58,364.72C767.07,365.24 769.56,365.74 772.06,366.22C774.55,366.7 777.04,367.15 779.54,367.58C782.03,368.01 784.53,368.41 787.02,368.79C789.51,369.16 792,369.51 794.49,369.83C796.98,370.15 799.48,370.44 801.97,370.71C804.46,370.98 806.96,371.23 809.45,371.46C811.94,371.69 814.44,371.89 816.93,372.08C819.42,372.27 821.92,372.43 824.41,372.59C826.9,372.75 829.4,372.89 831.89,373.02C834.38,373.15 836.88,373.28 839.37,373.39C841.86,373.5 844.36,373.6 846.85,373.7C849.34,373.79 851.84,373.88 854.33,373.96C856.82,374.04 859.32,374.11 861.81,374.17C864.3,374.23 866.8,374.29 869.29,374.34C871.78,374.39 874.27,374.43 876.76,374.47C879.25,374.51 881.75,374.54 884.24,374.57C886.73,374.6 889.23,374.62 891.72,374.65C894.21,374.68 896.71,374.71 899.2,374.73C901.69,374.75 904.19,374.77 906.68,374.79C909.17,374.81 911.67,374.83 914.16,374.85C916.65,374.87 919.15,374.88 921.64,374.89C924.13,374.9 926.63,374.91 929.12,374.92C931.61,374.93 934.11,374.93 936.6,374.94C939.09,374.95 941.59,374.95 944.08,374.96C946.57,374.96 949.07,374.97 951.56,374.97C954.05,374.97 956.54,374.97 959.03,374.98C961.52,374.99 964.02,375 966.51,375.01C969,375.02 971.5,375.03 973.99,375.04C976.48,375.05 978.98,375.06 981.47,375.07C983.96,375.08 986.46,375.09 988.95,375.1C991.44,375.11 993.94,375.12 996.43,375.13C998.92,375.14 1001.42,375.14 1003.91,375.15C1006.4,375.15 1008.9,375.16 1011.39,375.16C1013.88,375.16 1016.38,375.16 1018.87,375.16C1021.36,375.16 1023.86,375.16 1026.35,375.16C1028.84,375.16 1031.34,375.16 1033.83,375.16C1036.32,375.16 1038.81,375.17 1041.3,375.17C1043.79,375.17 1046.29,375.18 1048.78,375.18C1051.27,375.19 1053.77,375.19 1056.26,375.2C1058.75,375.21 1061.25,375.21 1063.74,375.22C1066.23,375.22 1068.73,375.23 1071.22,375.23Q1073.71,375.23 1078.7,375.24L1078.7,375.25" style="vector-effect: non-scaling-stroke; stroke-width: 2px; stroke: rgb(33, 102, 172); stroke-opacity: 1; fill: rgb(33, 102, 172); fill-opacity: 0.5;"/><path class="box" d="M611.03,373.25V363.38M536.17,373.25V363.38H681.2V373.25ZM536.17,373.25H322.65M681.2,373.25H896.25" style="vector-effect: non-scaling-stroke; stroke-width: 2px; stroke: rgb(33, 102, 172); stroke-opacity: 1; fill: rgb(33, 102, 172); fill-opacity: 0.5;"/></g><g class="trace violins" style="opacity: 1;"><path class="violin" d="M16.25,345.63L16.25,345.62Q20.98,345.62 23.34,345.62C25.7,345.62 28.07,345.61 30.43,345.61C32.79,345.61 35.16,345.6 37.52,345.6C39.88,345.6 42.24,345.59 44.6,345.59C46.96,345.59 49.33,345.59 51.69,345.59C54.05,345.59 56.42,345.59 58.78,345.59C61.14,345.59 63.5,345.59 65.86,345.59C68.22,345.59 70.59,345.59 72.95,345.59C75.31,345.59 77.68,345.6 80.04,345.6C82.4,345.6 84.77,345.61 87.13,345.61C89.49,345.61 91.85,345.62 94.21,345.62C96.57,345.62 98.94,345.62 101.3,345.62C103.66,345.62 106.03,345.62 108.39,345.62C110.75,345.62 113.12,345.62 115.48,345.62C117.84,345.62 120.2,345.62 122.56,345.62C124.92,345.62 127.29,345.62 129.65,345.62C132.01,345.62 134.38,345.61 136.74,345.61C139.1,345.61 141.46,345.6 143.82,345.6C146.18,345.59 148.55,345.59 150.91,345.58C153.27,345.57 155.64,345.57 158,345.56C160.36,345.55 162.73,345.54 165.09,345.53C167.45,345.52 169.81,345.52 172.17,345.51C174.53,345.5 176.9,345.5 179.26,345.49C181.62,345.48 183.99,345.47 186.35,345.46C188.71,345.45 191.07,345.44 193.43,345.43C195.79,345.42 198.16,345.41 200.52,345.4C202.88,345.39 205.25,345.38 207.61,345.37C209.97,345.36 212.34,345.35 214.7,345.34C217.06,345.33 219.42,345.32 221.78,345.31C224.14,345.3 226.51,345.28 228.87,345.27C231.23,345.26 233.6,345.24 235.96,345.23C238.32,345.22 240.68,345.2 243.04,345.19C245.4,345.17 247.77,345.16 250.13,345.14C252.49,345.13 254.86,345.11 257.22,345.1C259.58,345.08 261.95,345.07 264.31,345.05C266.67,345.04 269.03,345.02 271.39,345.01C273.75,344.99 276.12,344.98 278.48,344.96C280.84,344.94 283.21,344.93 285.57,344.91C287.93,344.89 290.29,344.87 292.65,344.85C295.01,344.83 297.38,344.8 299.74,344.77C302.1,344.74 304.47,344.71 306.83,344.68C309.19,344.64 311.56,344.61 313.92,344.56C316.28,344.51 318.64,344.46 321,344.4C323.36,344.34 325.73,344.29 328.09,344.22C330.45,344.15 332.82,344.07 335.18,343.99C337.54,343.91 339.9,343.82 342.26,343.73C344.62,343.64 346.99,343.53 349.35,343.43C351.71,343.33 354.08,343.22 356.44,343.11C358.8,343 361.17,342.89 363.53,342.78C365.89,342.67 368.25,342.55 370.61,342.43C372.97,342.31 375.34,342.2 377.7,342.07C380.06,341.94 382.43,341.8 384.79,341.66C387.15,341.51 389.52,341.37 391.88,341.2C394.24,341.04 396.6,340.85 398.96,340.67C401.32,340.49 403.69,340.29 406.05,340.1C408.41,339.91 410.78,339.71 413.14,339.52C415.5,339.33 417.86,339.14 420.22,338.96C422.58,338.78 424.95,338.61 427.31,338.45C429.67,338.29 432.04,338.14 434.4,337.99C436.76,337.85 439.13,337.71 441.49,337.58C443.85,337.45 446.21,337.33 448.57,337.21C450.93,337.09 453.3,336.98 455.66,336.86C458.02,336.74 460.39,336.62 462.75,336.48C465.11,336.35 467.47,336.21 469.83,336.05C472.19,335.89 474.56,335.71 476.92,335.51C479.28,335.31 481.65,335.08 484.01,334.83C486.37,334.57 488.74,334.29 491.1,333.98C493.46,333.67 495.82,333.33 498.18,332.96C500.54,332.59 502.91,332.19 505.27,331.78C507.64,331.36 510,330.92 512.36,330.47C514.72,330.02 517.08,329.55 519.44,329.1C521.8,328.65 524.17,328.2 526.53,327.77C528.89,327.34 531.26,326.93 533.62,326.54C535.98,326.15 538.35,325.78 540.71,325.43C543.07,325.08 545.43,324.76 547.79,324.43C550.15,324.1 552.52,323.78 554.88,323.44C557.24,323.1 559.61,322.75 561.97,322.38C564.33,322.01 566.69,321.6 569.05,321.2C571.41,320.79 573.78,320.37 576.14,319.95C578.5,319.54 580.86,319.1 583.23,318.71C585.59,318.32 587.95,317.93 590.32,317.6C592.68,317.27 595.04,316.97 597.4,316.74C599.76,316.51 602.13,316.32 604.49,316.2C606.85,316.08 609.22,316.01 611.58,316C613.94,315.99 616.3,316.05 618.66,316.14C621.02,316.23 623.39,316.38 625.75,316.56C628.11,316.74 630.48,316.97 632.84,317.21C635.2,317.45 637.57,317.73 639.93,318.02C642.29,318.31 644.65,318.62 647.01,318.93C649.37,319.24 651.74,319.56 654.1,319.88C656.46,320.2 658.83,320.53 661.19,320.85C663.55,321.17 665.92,321.48 668.28,321.79C670.64,322.09 673,322.4 675.36,322.68C677.72,322.97 680.09,323.23 682.45,323.5C684.81,323.77 687.18,324.02 689.54,324.28C691.9,324.54 694.26,324.78 696.62,325.04C698.98,325.3 701.35,325.57 703.71,325.86C706.07,326.15 708.44,326.46 710.8,326.79C713.16,327.12 715.53,327.49 717.89,327.86C720.25,328.24 722.61,328.63 724.97,329.04C727.33,329.45 729.7,329.87 732.06,330.3C734.42,330.73 736.79,331.17 739.15,331.6C741.51,332.03 743.87,332.46 746.23,332.88C748.59,333.3 750.96,333.71 753.32,334.11C755.68,334.51 758.05,334.9 760.41,335.28C762.77,335.66 765.14,336.02 767.5,336.38C769.86,336.74 772.22,337.09 774.58,337.44C776.94,337.79 779.31,338.13 781.67,338.47C784.03,338.81 786.4,339.14 788.76,339.46C791.12,339.78 793.48,340.1 795.84,340.4C798.2,340.7 800.57,341 802.93,341.28C805.29,341.56 807.66,341.82 810.02,342.06C812.38,342.3 814.75,342.53 817.11,342.74C819.47,342.95 821.83,343.13 824.19,343.3C826.55,343.47 828.92,343.62 831.28,343.75C833.64,343.88 836.01,343.99 838.37,344.1C840.73,344.21 843.09,344.3 845.45,344.39C847.81,344.48 850.18,344.55 852.54,344.62C854.9,344.69 857.27,344.75 859.63,344.8C861.99,344.85 864.36,344.9 866.72,344.94C869.08,344.98 871.44,345.01 873.8,345.04C876.16,345.07 878.53,345.09 880.89,345.1C883.25,345.11 885.62,345.11 887.98,345.11C890.34,345.11 892.71,345.11 895.07,345.1C897.43,345.1 899.79,345.08 902.15,345.08C904.51,345.07 906.88,345.07 909.24,345.07C911.6,345.07 913.97,345.07 916.33,345.08C918.69,345.09 921.05,345.1 923.41,345.11C925.77,345.12 928.14,345.14 930.5,345.16C932.86,345.18 935.23,345.2 937.59,345.22C939.95,345.24 942.32,345.26 944.68,345.28C947.04,345.3 949.4,345.32 951.76,345.34C954.12,345.36 956.49,345.37 958.85,345.38C961.21,345.39 963.58,345.4 965.94,345.41C968.3,345.42 970.66,345.43 973.02,345.43C975.38,345.44 977.75,345.44 980.11,345.44C982.47,345.44 984.84,345.45 987.2,345.45C989.56,345.45 991.93,345.46 994.29,345.46C996.65,345.46 999.01,345.46 1001.37,345.46C1003.73,345.46 1006.1,345.47 1008.46,345.47C1010.82,345.47 1013.19,345.48 1015.55,345.48C1017.91,345.48 1020.27,345.49 1022.63,345.49C1024.99,345.49 1027.36,345.5 1029.72,345.5C1032.08,345.51 1034.45,345.51 1036.81,345.52C1039.17,345.52 1041.54,345.52 1043.9,345.53C1046.26,345.53 1048.62,345.55 1050.98,345.55C1053.34,345.56 1055.71,345.56 1058.07,345.56C1060.43,345.56 1062.8,345.57 1065.16,345.57C1067.52,345.57 1069.88,345.58 1072.24,345.58C1074.6,345.58 1076.97,345.59 1079.33,345.59C1081.69,345.59 1084.06,345.6 1086.42,345.6C1088.78,345.6 1091.15,345.61 1093.51,345.61C1095.87,345.61 1098.23,345.61 1100.59,345.61C1102.95,345.61 1105.32,345.62 1107.68,345.62C1110.04,345.62 1112.41,345.62 1114.77,345.62C1117.13,345.62 1119.49,345.62 1121.85,345.62C1124.21,345.62 1126.58,345.62 1128.94,345.62C1131.3,345.62 1133.67,345.62 1136.03,345.62C1138.39,345.62 1140.76,345.62 1143.12,345.62C1145.48,345.62 1147.84,345.62 1150.2,345.62C1152.56,345.62 1154.93,345.62 1157.29,345.62C1159.65,345.62 1162.02,345.62 1164.38,345.62C1166.74,345.62 1169.11,345.62 1171.47,345.62C1173.83,345.62 1176.19,345.62 1178.55,345.62C1180.91,345.62 1183.28,345.62 1185.64,345.62C1188,345.62 1190.37,345.62 1192.73,345.62C1195.09,345.62 1197.45,345.62 1199.81,345.62C1202.17,345.62 1204.54,345.62 1206.9,345.62C1209.26,345.62 1211.63,345.62 1213.99,345.62C1216.35,345.62 1218.72,345.62 1221.08,345.62C1223.44,345.62 1225.8,345.62 1228.16,345.62C1230.52,345.62 1232.89,345.61 1235.25,345.61C1237.61,345.61 1239.98,345.6 1242.34,345.6C1244.7,345.6 1247.06,345.59 1249.42,345.59C1251.78,345.59 1254.15,345.59 1256.51,345.59C1258.87,345.59 1261.24,345.59 1263.6,345.59C1265.96,345.59 1268.33,345.59 1270.69,345.59C1273.05,345.59 1275.41,345.59 1277.77,345.59C1280.13,345.59 1282.5,345.6 1284.86,345.6C1287.22,345.6 1289.59,345.61 1291.95,345.61C1294.31,345.61 1296.67,345.62 1299.03,345.62Q1301.39,345.62 1306.12,345.62L1306.12,345.63" style="vector-effect: non-scaling-stroke; stroke-width: 2px; stroke: rgb(50, 97, 160); stroke-opacity: 1; fill: rgb(50, 97, 160); fill-opacity: 0.5;"/><path class="box" d="M612.44,343.63V333.75M540.86,343.63V333.75H680.06V343.63ZM540.86,343.63H337.04M680.06,343.63H876.8" style="vector-effect: non-scaling-stroke; stroke-width: 2px; stroke: rgb(50, 97, 160); stroke-opacity: 1; fill: rgb(50, 97, 160); fill-opacity: 0.5;"/></g><g class="trace violins" style="opacity: 1;"><path class="violin" d="M51.67,316L51.67,315.99Q56.72,315.99 59.24,315.99C61.77,315.99 64.29,315.99 66.82,315.98C69.34,315.98 71.87,315.97 74.39,315.96C76.91,315.96 79.44,315.95 81.96,315.95C84.48,315.94 87.01,315.94 89.53,315.93C92.05,315.93 94.58,315.92 97.1,315.92C99.62,315.92 102.15,315.92 104.67,315.92C107.2,315.92 109.72,315.92 112.25,315.92C114.77,315.92 117.3,315.93 119.82,315.93C122.34,315.93 124.87,315.94 127.39,315.94C129.91,315.94 132.44,315.95 134.96,315.95C137.48,315.95 140.01,315.96 142.53,315.96C145.06,315.96 147.58,315.96 150.11,315.96C152.63,315.96 155.16,315.95 157.68,315.95C160.2,315.95 162.73,315.94 165.25,315.94C167.77,315.93 170.3,315.93 172.82,315.92C175.34,315.91 177.87,315.9 180.39,315.89C182.91,315.88 185.44,315.87 187.96,315.86C190.49,315.85 193.01,315.84 195.54,315.83C198.06,315.82 200.59,315.8 203.11,315.79C205.63,315.78 208.16,315.76 210.68,315.75C213.2,315.74 215.73,315.72 218.25,315.71C220.77,315.7 223.3,315.69 225.82,315.68C228.35,315.67 230.87,315.66 233.4,315.65C235.92,315.64 238.45,315.63 240.97,315.62C243.49,315.61 246.02,315.6 248.54,315.59C251.06,315.58 253.59,315.56 256.11,315.55C258.63,315.53 261.16,315.52 263.68,315.5C266.2,315.48 268.73,315.46 271.25,315.43C273.78,315.4 276.3,315.37 278.83,315.34C281.35,315.31 283.88,315.27 286.4,315.24C288.92,315.21 291.45,315.17 293.97,315.14C296.49,315.11 299.02,315.07 301.54,315.04C304.06,315.01 306.59,314.98 309.11,314.94C311.64,314.9 314.16,314.85 316.69,314.8C319.21,314.75 321.74,314.69 324.26,314.62C326.78,314.55 329.31,314.47 331.83,314.38C334.35,314.29 336.88,314.18 339.4,314.07C341.92,313.96 344.45,313.83 346.97,313.7C349.49,313.57 352.02,313.43 354.54,313.28C357.07,313.13 359.59,312.98 362.12,312.82C364.64,312.66 367.17,312.5 369.69,312.34C372.21,312.18 374.74,312.01 377.26,311.84C379.78,311.67 382.31,311.5 384.83,311.33C387.35,311.16 389.88,310.98 392.4,310.8C394.93,310.62 397.45,310.45 399.98,310.27C402.5,310.09 405.03,309.91 407.55,309.73C410.07,309.54 412.6,309.35 415.12,309.16C417.64,308.97 420.17,308.77 422.69,308.57C425.21,308.37 427.74,308.16 430.26,307.95C432.78,307.74 435.31,307.53 437.83,307.32C440.36,307.1 442.88,306.88 445.41,306.66C447.93,306.44 450.46,306.21 452.98,305.99C455.5,305.76 458.03,305.54 460.55,305.31C463.07,305.08 465.6,304.84 468.12,304.59C470.64,304.34 473.17,304.09 475.69,303.83C478.22,303.56 480.75,303.29 483.27,303C485.8,302.71 488.32,302.4 490.84,302.08C493.36,301.76 495.89,301.42 498.41,301.07C500.93,300.72 503.46,300.35 505.98,299.98C508.5,299.61 511.03,299.23 513.55,298.87C516.07,298.51 518.59,298.15 521.12,297.81C523.64,297.47 526.17,297.15 528.7,296.85C531.22,296.55 533.75,296.28 536.27,296.02C538.79,295.76 541.32,295.53 543.84,295.29C546.36,295.05 548.89,294.83 551.41,294.59C553.93,294.34 556.46,294.1 558.98,293.82C561.51,293.54 564.04,293.24 566.56,292.93C569.09,292.62 571.61,292.28 574.13,291.95C576.65,291.62 579.18,291.26 581.7,290.93C584.22,290.6 586.75,290.27 589.27,289.97C591.79,289.67 594.32,289.4 596.84,289.15C599.36,288.9 601.89,288.68 604.41,288.48C606.94,288.28 609.46,288.1 611.99,287.93C614.51,287.76 617.04,287.61 619.56,287.47C622.08,287.33 624.61,287.19 627.13,287.07C629.65,286.95 632.18,286.83 634.7,286.73C637.22,286.63 639.75,286.54 642.27,286.48C644.79,286.42 647.32,286.38 649.84,286.38C652.37,286.38 654.9,286.41 657.42,286.5C659.95,286.59 662.47,286.72 664.99,286.91C667.52,287.1 670.04,287.34 672.56,287.63C675.09,287.92 677.61,288.27 680.13,288.65C682.66,289.03 685.18,289.46 687.7,289.91C690.23,290.36 692.76,290.85 695.28,291.34C697.81,291.84 700.33,292.36 702.85,292.88C705.37,293.4 707.9,293.94 710.42,294.47C712.94,295 715.47,295.54 717.99,296.07C720.51,296.61 723.04,297.14 725.56,297.68C728.08,298.21 730.61,298.75 733.13,299.28C735.66,299.81 738.18,300.34 740.71,300.87C743.23,301.4 745.76,301.92 748.28,302.44C750.8,302.96 753.33,303.47 755.85,303.97C758.37,304.47 760.9,304.96 763.42,305.43C765.94,305.9 768.46,306.36 770.99,306.8C773.51,307.24 776.04,307.65 778.57,308.05C781.09,308.45 783.62,308.83 786.14,309.19C788.66,309.55 791.19,309.89 793.71,310.21C796.23,310.53 798.76,310.84 801.28,311.13C803.8,311.41 806.33,311.67 808.85,311.92C811.37,312.16 813.9,312.39 816.42,312.6C818.95,312.81 821.47,312.99 824,313.16C826.52,313.33 829.05,313.49 831.57,313.63C834.09,313.77 836.62,313.9 839.14,314.02C841.66,314.14 844.19,314.26 846.71,314.37C849.23,314.48 851.76,314.58 854.28,314.67C856.81,314.76 859.33,314.85 861.86,314.93C864.38,315.01 866.91,315.08 869.43,315.14C871.95,315.2 874.48,315.25 877,315.29C879.52,315.33 882.05,315.36 884.57,315.39C887.09,315.42 889.62,315.45 892.14,315.47C894.66,315.49 897.19,315.5 899.71,315.52C902.24,315.54 904.76,315.55 907.29,315.57C909.81,315.58 912.34,315.6 914.86,315.61C917.38,315.62 919.91,315.64 922.43,315.65C924.95,315.66 927.48,315.67 930,315.68C932.52,315.69 935.05,315.69 937.57,315.7C940.1,315.71 942.62,315.71 945.15,315.72C947.67,315.72 950.2,315.72 952.72,315.73C955.24,315.74 957.77,315.75 960.29,315.76C962.81,315.77 965.34,315.78 967.86,315.79C970.38,315.8 972.91,315.82 975.43,315.83C977.95,315.84 980.48,315.85 983,315.86C985.53,315.87 988.05,315.88 990.58,315.89C993.1,315.9 995.63,315.9 998.15,315.91C1000.67,315.91 1003.2,315.92 1005.72,315.92C1008.24,315.92 1010.77,315.92 1013.29,315.92C1015.81,315.92 1018.34,315.92 1020.86,315.92C1023.39,315.92 1025.91,315.91 1028.44,315.91C1030.96,315.91 1033.49,315.91 1036.01,315.91C1038.53,315.91 1041.06,315.91 1043.58,315.91C1046.1,315.91 1048.63,315.92 1051.15,315.92C1053.67,315.92 1056.2,315.93 1058.72,315.93C1061.24,315.94 1063.77,315.94 1066.29,315.95C1068.82,315.96 1071.34,315.96 1073.87,315.97C1076.39,315.97 1078.92,315.98 1081.44,315.98Q1083.96,315.98 1089.01,315.99L1089.01,316" style="vector-effect: non-scaling-stroke; stroke-width: 2px; stroke: rgb(66, 92, 148); stroke-opacity: 1; fill: rgb(66, 92, 148); fill-opacity: 0.5;"/><path class="box" d="M617.87,314V304.13M536.94,314V304.13H682.51V314ZM536.94,314H321.56M682.51,314H896.25" style="vector-effect: non-scaling-stroke; stroke-width: 2px; stroke: rgb(66, 92, 148); stroke-opacity: 1; fill: rgb(66, 92, 148); fill-opacity: 0.5;"/></g><g class="trace violins" style="opacity: 1;"><path class="violin" d="M113.24,286.38L113.24,286.37Q118.49,286.36 121.12,286.36C123.74,286.36 126.37,286.35 128.99,286.35C131.61,286.35 134.24,286.34 136.86,286.34C139.49,286.34 142.11,286.34 144.74,286.33C147.36,286.33 149.99,286.32 152.61,286.31C155.24,286.3 157.86,286.3 160.49,286.29C163.11,286.28 165.74,286.27 168.36,286.26C170.99,286.25 173.61,286.25 176.24,286.24C178.86,286.23 181.49,286.22 184.11,286.21C186.73,286.2 189.36,286.19 191.98,286.18C194.61,286.17 197.23,286.16 199.86,286.15C202.48,286.14 205.11,286.13 207.73,286.12C210.36,286.11 212.98,286.1 215.61,286.08C218.23,286.07 220.86,286.05 223.48,286.03C226.11,286.01 228.73,286 231.36,285.98C233.98,285.96 236.61,285.93 239.23,285.91C241.85,285.89 244.48,285.86 247.1,285.84C249.73,285.81 252.35,285.79 254.98,285.76C257.6,285.73 260.23,285.7 262.85,285.68C265.48,285.65 268.1,285.63 270.73,285.61C273.35,285.59 275.98,285.56 278.6,285.54C281.23,285.52 283.85,285.5 286.48,285.48C289.1,285.46 291.73,285.43 294.35,285.41C296.97,285.38 299.6,285.36 302.22,285.33C304.85,285.3 307.47,285.26 310.1,285.22C312.72,285.18 315.35,285.13 317.97,285.07C320.6,285.01 323.22,284.94 325.85,284.86C328.47,284.78 331.1,284.68 333.72,284.57C336.35,284.46 338.97,284.34 341.6,284.2C344.22,284.06 346.85,283.91 349.47,283.75C352.09,283.59 354.72,283.41 357.34,283.23C359.97,283.05 362.59,282.86 365.22,282.66C367.84,282.47 370.47,282.26 373.09,282.06C375.72,281.85 378.34,281.65 380.97,281.43C383.59,281.21 386.22,280.98 388.84,280.75C391.47,280.51 394.09,280.27 396.72,280.02C399.34,279.77 401.97,279.5 404.59,279.24C407.22,278.98 409.84,278.7 412.47,278.44C415.09,278.18 417.72,277.91 420.34,277.66C422.96,277.41 425.59,277.17 428.21,276.96C430.84,276.74 433.46,276.55 436.09,276.37C438.71,276.19 441.34,276.04 443.96,275.88C446.59,275.72 449.21,275.58 451.84,275.42C454.46,275.26 457.09,275.1 459.71,274.9C462.34,274.7 464.97,274.48 467.59,274.22C470.22,273.95 472.84,273.65 475.46,273.31C478.09,272.97 480.71,272.57 483.33,272.16C485.96,271.74 488.59,271.28 491.21,270.82C493.84,270.36 496.45,269.87 499.08,269.42C501.7,268.97 504.33,268.5 506.96,268.1C509.58,267.7 512.2,267.33 514.83,267.02C517.45,266.71 520.08,266.45 522.71,266.23C525.33,266.02 527.96,265.87 530.58,265.73C533.2,265.59 535.83,265.51 538.45,265.39C541.08,265.27 543.71,265.17 546.33,265.02C548.96,264.86 551.58,264.69 554.2,264.46C556.83,264.22 559.46,263.94 562.08,263.61C564.71,263.28 567.33,262.88 569.95,262.47C572.58,262.06 575.2,261.6 577.83,261.16C580.45,260.72 583.07,260.26 585.7,259.85C588.32,259.45 590.94,259.06 593.57,258.73C596.19,258.41 598.82,258.13 601.45,257.9C604.07,257.67 606.69,257.5 609.32,257.36C611.94,257.22 614.57,257.14 617.2,257.06C619.82,256.98 622.45,256.94 625.07,256.9C627.7,256.86 630.32,256.83 632.95,256.8C635.57,256.78 638.2,256.75 640.82,256.75C643.44,256.75 646.07,256.75 648.69,256.78C651.32,256.81 653.94,256.85 656.57,256.93C659.19,257.01 661.82,257.12 664.44,257.26C667.07,257.4 669.7,257.58 672.32,257.78C674.95,257.98 677.57,258.21 680.19,258.46C682.82,258.71 685.44,258.99 688.07,259.27C690.69,259.55 693.32,259.85 695.94,260.16C698.57,260.47 701.2,260.8 703.82,261.15C706.45,261.5 709.07,261.87 711.69,262.27C714.32,262.68 716.94,263.11 719.56,263.58C722.19,264.05 724.82,264.56 727.44,265.09C730.07,265.63 732.69,266.2 735.31,266.79C737.94,267.38 740.56,268 743.19,268.61C745.81,269.22 748.44,269.84 751.06,270.45C753.69,271.06 756.31,271.67 758.94,272.26C761.56,272.85 764.18,273.43 766.81,273.98C769.43,274.53 772.05,275.06 774.68,275.57C777.3,276.08 779.93,276.57 782.56,277.04C785.18,277.51 787.8,277.95 790.43,278.37C793.05,278.79 795.68,279.18 798.31,279.56C800.93,279.94 803.55,280.29 806.18,280.63C808.8,280.97 811.43,281.28 814.06,281.58C816.68,281.87 819.31,282.15 821.93,282.4C824.55,282.65 827.18,282.89 829.8,283.1C832.43,283.31 835.05,283.5 837.68,283.68C840.3,283.86 842.93,284.02 845.55,284.17C848.18,284.32 850.8,284.45 853.43,284.57C856.05,284.69 858.68,284.81 861.3,284.91C863.93,285.01 866.55,285.09 869.18,285.17C871.8,285.25 874.43,285.31 877.05,285.37C879.67,285.43 882.3,285.48 884.92,285.52C887.55,285.56 890.17,285.59 892.8,285.62C895.42,285.65 898.05,285.68 900.67,285.7C903.3,285.72 905.92,285.74 908.55,285.76C911.17,285.78 913.8,285.81 916.42,285.83C919.05,285.85 921.67,285.88 924.3,285.9C926.92,285.92 929.55,285.95 932.17,285.97C934.79,286 937.42,286.03 940.04,286.05C942.67,286.08 945.29,286.1 947.92,286.12C950.54,286.14 953.17,286.15 955.79,286.17C958.42,286.19 961.04,286.2 963.67,286.22C966.29,286.23 968.92,286.25 971.54,286.26C974.17,286.27 976.79,286.27 979.42,286.28C982.04,286.29 984.67,286.3 987.29,286.31C989.92,286.32 992.54,286.31 995.17,286.32C997.79,286.32 1000.42,286.33 1003.04,286.34C1005.66,286.34 1008.29,286.35 1010.91,286.35C1013.54,286.35 1016.16,286.36 1018.79,286.36C1021.41,286.36 1024.04,286.37 1026.66,286.37C1029.29,286.37 1031.91,286.37 1034.54,286.37C1037.16,286.37 1039.79,286.36 1042.41,286.36C1045.04,286.36 1047.66,286.36 1050.29,286.36C1052.91,286.36 1055.54,286.35 1058.16,286.35C1060.78,286.34 1063.41,286.33 1066.03,286.33C1068.66,286.32 1071.28,286.33 1073.91,286.32C1076.53,286.32 1079.16,286.3 1081.78,286.3C1084.41,286.29 1087.03,286.29 1089.66,286.29C1092.28,286.29 1094.91,286.29 1097.53,286.29C1100.16,286.29 1102.78,286.29 1105.41,286.29C1108.03,286.29 1110.66,286.29 1113.28,286.29C1115.9,286.29 1118.53,286.3 1121.15,286.3C1123.78,286.3 1126.4,286.31 1129.03,286.31C1131.65,286.31 1134.28,286.32 1136.9,286.32C1139.53,286.32 1142.15,286.33 1144.78,286.33C1147.4,286.33 1150.03,286.34 1152.65,286.34C1155.28,286.34 1157.9,286.35 1160.53,286.35C1163.15,286.35 1165.78,286.36 1168.4,286.36C1171.02,286.36 1173.65,286.36 1176.27,286.36Q1178.9,286.36 1184.15,286.37L1184.15,286.38" style="vector-effect: non-scaling-stroke; stroke-width: 2px; stroke: rgb(83, 87, 136); stroke-opacity: 1; fill: rgb(83, 87, 136); fill-opacity: 0.5;"/><path class="box" d="M618.68,284.38V274.5M532.05,284.38V274.5H690.44V284.38ZM532.05,284.38H298.64M690.44,284.38H924.77" style="vector-effect: non-scaling-stroke; stroke-width: 2px; stroke: rgb(83, 87, 136); stroke-opacity: 1; fill: rgb(83, 87, 136); fill-opacity: 0.5;"/></g><g class="trace violins" style="opacity: 1;"><path class="violin" d="M34.42,256.75L34.42,256.74Q38.95,256.74 41.22,256.74C43.49,256.74 45.75,256.73 48.02,256.73C50.29,256.73 52.55,256.73 54.82,256.73C57.09,256.73 59.35,256.72 61.62,256.72C63.89,256.72 66.15,256.71 68.42,256.71C70.69,256.71 72.95,256.71 75.22,256.71C77.49,256.71 79.75,256.71 82.02,256.71C84.29,256.71 86.55,256.72 88.82,256.72C91.09,256.72 93.35,256.72 95.62,256.72C97.89,256.72 100.15,256.73 102.42,256.73C104.69,256.73 106.95,256.73 109.22,256.73C111.49,256.73 113.75,256.72 116.02,256.72C118.29,256.72 120.55,256.72 122.82,256.72C125.09,256.72 127.35,256.71 129.62,256.71C131.89,256.71 134.15,256.71 136.42,256.71C138.69,256.71 140.95,256.71 143.22,256.71C145.49,256.71 147.75,256.71 150.02,256.71C152.29,256.71 154.55,256.72 156.82,256.72C159.09,256.72 161.35,256.72 163.62,256.72C165.89,256.72 168.15,256.72 170.42,256.72C172.69,256.72 174.95,256.72 177.22,256.72C179.49,256.72 181.75,256.71 184.02,256.7C186.29,256.69 188.55,256.69 190.82,256.68C193.09,256.67 195.35,256.65 197.62,256.64C199.89,256.63 202.15,256.61 204.42,256.6C206.69,256.59 208.95,256.57 211.22,256.56C213.49,256.55 215.75,256.53 218.02,256.52C220.29,256.51 222.55,256.49 224.82,256.48C227.08,256.47 229.35,256.45 231.61,256.44C233.88,256.43 236.14,256.41 238.41,256.4C240.68,256.39 242.94,256.37 245.21,256.36C247.48,256.35 249.74,256.33 252.01,256.32C254.28,256.3 256.54,256.29 258.81,256.27C261.08,256.25 263.34,256.24 265.61,256.22C267.88,256.2 270.14,256.18 272.41,256.16C274.68,256.14 276.94,256.13 279.21,256.11C281.48,256.09 283.74,256.08 286.01,256.06C288.28,256.05 290.54,256.03 292.81,256.02C295.08,256.01 297.34,255.99 299.61,255.98C301.88,255.96 304.14,255.95 306.41,255.93C308.68,255.91 310.94,255.89 313.21,255.86C315.48,255.83 317.74,255.79 320.01,255.74C322.28,255.69 324.54,255.63 326.81,255.57C329.08,255.51 331.34,255.44 333.61,255.37C335.88,255.3 338.14,255.21 340.41,255.13C342.68,255.05 344.94,254.97 347.21,254.88C349.48,254.79 351.74,254.7 354.01,254.61C356.28,254.52 358.54,254.43 360.81,254.34C363.08,254.24 365.34,254.14 367.61,254.04C369.88,253.93 372.14,253.83 374.41,253.71C376.68,253.59 378.94,253.47 381.21,253.34C383.48,253.21 385.74,253.07 388.01,252.92C390.28,252.77 392.54,252.62 394.81,252.46C397.08,252.3 399.34,252.14 401.61,251.97C403.88,251.8 406.14,251.62 408.41,251.44C410.68,251.26 412.94,251.09 415.21,250.91C417.48,250.74 419.74,250.56 422.01,250.39C424.28,250.22 426.54,250.06 428.81,249.9C431.08,249.74 433.34,249.59 435.61,249.45C437.88,249.31 440.14,249.17 442.41,249.04C444.68,248.91 446.94,248.79 449.21,248.67C451.48,248.55 453.74,248.43 456.01,248.31C458.28,248.19 460.54,248.07 462.81,247.95C465.08,247.82 467.34,247.7 469.61,247.56C471.88,247.42 474.14,247.28 476.41,247.11C478.68,246.94 480.94,246.76 483.21,246.56C485.48,246.36 487.74,246.14 490.01,245.89C492.28,245.64 494.54,245.37 496.81,245.08C499.08,244.79 501.34,244.47 503.61,244.14C505.88,243.81 508.14,243.46 510.41,243.11C512.67,242.76 514.94,242.41 517.2,242.06C519.47,241.71 521.73,241.36 524,241.03C526.27,240.7 528.53,240.38 530.8,240.06C533.07,239.74 535.33,239.44 537.6,239.13C539.87,238.82 542.13,238.51 544.4,238.18C546.67,237.85 548.94,237.52 551.2,237.15C553.47,236.78 555.74,236.39 558,235.96C560.27,235.53 562.54,235.06 564.8,234.58C567.07,234.09 569.33,233.57 571.6,233.05C573.87,232.53 576.13,231.97 578.4,231.46C580.66,230.95 582.93,230.43 585.2,229.97C587.46,229.51 589.73,229.08 592,228.72C594.26,228.36 596.53,228.07 598.8,227.83C601.06,227.6 603.33,227.43 605.6,227.31C607.87,227.19 610.13,227.14 612.4,227.12C614.67,227.1 616.93,227.13 619.2,227.16C621.47,227.19 623.73,227.26 626,227.31C628.27,227.36 630.53,227.42 632.8,227.47C635.07,227.52 637.33,227.56 639.6,227.61C641.87,227.66 644.13,227.71 646.4,227.77C648.67,227.83 650.93,227.89 653.2,227.99C655.47,228.09 657.73,228.2 660,228.35C662.27,228.5 664.53,228.67 666.8,228.88C669.07,229.09 671.33,229.33 673.6,229.59C675.87,229.85 678.13,230.15 680.4,230.46C682.67,230.77 684.93,231.11 687.2,231.46C689.47,231.81 691.73,232.19 694,232.58C696.27,232.97 698.54,233.38 700.8,233.81C703.07,234.24 705.33,234.69 707.6,235.15C709.87,235.61 712.13,236.09 714.4,236.58C716.67,237.07 718.93,237.58 721.2,238.09C723.47,238.6 725.73,239.12 728,239.64C730.27,240.16 732.53,240.67 734.8,241.19C737.07,241.7 739.33,242.22 741.6,242.73C743.87,243.23 746.13,243.73 748.4,244.22C750.67,244.71 752.93,245.19 755.2,245.66C757.47,246.13 759.73,246.59 762,247.03C764.27,247.47 766.53,247.9 768.8,248.31C771.07,248.72 773.33,249.12 775.6,249.5C777.87,249.88 780.13,250.24 782.4,250.58C784.67,250.92 786.93,251.24 789.2,251.55C791.47,251.85 793.73,252.14 796,252.41C798.26,252.68 800.52,252.92 802.79,253.15C805.05,253.38 807.32,253.58 809.59,253.77C811.86,253.96 814.12,254.13 816.39,254.29C818.66,254.45 820.92,254.59 823.19,254.72C825.46,254.85 827.72,254.97 829.99,255.08C832.26,255.19 834.52,255.3 836.79,255.39C839.06,255.48 841.32,255.56 843.59,255.64C845.86,255.72 848.12,255.79 850.39,255.86C852.66,255.93 854.92,255.99 857.19,256.04C859.46,256.09 861.72,256.14 863.99,256.18C866.26,256.22 868.52,256.26 870.79,256.29C873.06,256.32 875.32,256.34 877.59,256.36C879.86,256.38 882.12,256.4 884.39,256.41C886.66,256.42 888.92,256.43 891.19,256.44C893.46,256.45 895.72,256.45 897.99,256.46C900.26,256.46 902.52,256.47 904.79,256.47C907.06,256.47 909.32,256.48 911.59,256.48C913.86,256.48 916.12,256.49 918.39,256.49C920.66,256.49 922.92,256.5 925.19,256.5C927.46,256.5 929.72,256.51 931.99,256.51C934.26,256.52 936.52,256.52 938.79,256.53C941.06,256.53 943.32,256.54 945.59,256.54C947.86,256.54 950.12,256.54 952.39,256.54C954.66,256.54 956.92,256.55 959.19,256.55C961.46,256.55 963.72,256.55 965.99,256.55C968.26,256.55 970.52,256.56 972.79,256.56C975.06,256.56 977.32,256.57 979.59,256.57C981.86,256.57 984.12,256.58 986.39,256.58C988.66,256.58 990.92,256.59 993.19,256.59C995.46,256.6 997.72,256.6 999.99,256.61C1002.26,256.61 1004.52,256.62 1006.79,256.62C1009.06,256.63 1011.32,256.63 1013.59,256.64C1015.86,256.65 1018.12,256.65 1020.39,256.66C1022.66,256.67 1024.92,256.67 1027.19,256.68C1029.46,256.69 1031.72,256.69 1033.99,256.7C1036.26,256.71 1038.52,256.71 1040.79,256.72C1043.06,256.72 1045.32,256.73 1047.59,256.73Q1049.86,256.73 1054.39,256.74L1054.39,256.75" style="vector-effect: non-scaling-stroke; stroke-width: 2px; stroke: rgb(99, 82, 124); stroke-opacity: 1; fill: rgb(99, 82, 124); fill-opacity: 0.5;"/><path class="box" d="M618.68,254.75V244.88M549.39,254.75V244.88H682.3V254.75ZM549.39,254.75H350.08M682.3,254.75H874.09" style="vector-effect: non-scaling-stroke; stroke-width: 2px; stroke: rgb(99, 82, 124); stroke-opacity: 1; fill: rgb(99, 82, 124); fill-opacity: 0.5;"/></g><g class="trace violins" style="opacity: 1;"><path class="violin" d="M46.41,227.12L46.41,227.12Q51.42,227.11 53.93,227.11C56.44,227.11 58.94,227.1 61.45,227.1C63.96,227.1 66.46,227.1 68.97,227.09C71.48,227.08 73.98,227.07 76.49,227.06C79,227.05 81.5,227.05 84.01,227.04C86.52,227.03 89.02,227.02 91.53,227.01C94.04,227 96.54,226.99 99.05,226.98C101.56,226.97 104.06,226.96 106.57,226.95C109.08,226.94 111.58,226.94 114.09,226.93C116.6,226.93 119.1,226.92 121.61,226.92C124.12,226.92 126.62,226.91 129.13,226.91C131.64,226.91 134.14,226.92 136.65,226.92C139.16,226.92 141.66,226.93 144.17,226.93C146.68,226.93 149.18,226.94 151.69,226.94C154.2,226.95 156.7,226.96 159.21,226.96C161.72,226.96 164.22,226.96 166.73,226.96C169.24,226.96 171.74,226.96 174.25,226.96C176.76,226.96 179.26,226.95 181.77,226.94C184.28,226.93 186.78,226.92 189.29,226.91C191.8,226.9 194.3,226.89 196.81,226.88C199.32,226.87 201.82,226.85 204.33,226.83C206.84,226.82 209.34,226.8 211.85,226.79C214.36,226.78 216.86,226.76 219.37,226.75C221.88,226.74 224.38,226.72 226.89,226.71C229.4,226.7 231.9,226.7 234.41,226.69C236.92,226.68 239.43,226.68 241.94,226.67C244.45,226.66 246.95,226.65 249.46,226.64C251.97,226.63 254.47,226.62 256.98,226.6C259.49,226.58 261.99,226.57 264.5,226.54C267.01,226.51 269.51,226.48 272.02,226.44C274.53,226.4 277.03,226.36 279.54,226.31C282.05,226.26 284.55,226.2 287.06,226.14C289.57,226.08 292.07,226.01 294.58,225.94C297.09,225.87 299.59,225.8 302.1,225.72C304.61,225.64 307.11,225.56 309.62,225.48C312.13,225.4 314.63,225.31 317.14,225.23C319.65,225.15 322.15,225.07 324.66,224.98C327.17,224.89 329.67,224.8 332.18,224.71C334.69,224.62 337.19,224.53 339.7,224.43C342.21,224.33 344.71,224.23 347.22,224.12C349.73,224.01 352.23,223.9 354.74,223.79C357.25,223.68 359.75,223.56 362.26,223.45C364.77,223.33 367.27,223.22 369.78,223.1C372.29,222.98 374.79,222.87 377.3,222.75C379.81,222.63 382.31,222.5 384.82,222.37C387.33,222.24 389.83,222.1 392.34,221.96C394.85,221.81 397.35,221.66 399.86,221.5C402.37,221.34 404.87,221.16 407.38,220.98C409.89,220.8 412.39,220.6 414.9,220.4C417.41,220.2 419.91,219.98 422.42,219.78C424.93,219.58 427.43,219.37 429.94,219.18C432.45,218.99 434.95,218.8 437.46,218.62C439.97,218.44 442.47,218.28 444.98,218.12C447.49,217.97 449.99,217.83 452.5,217.69C455.01,217.56 457.51,217.43 460.02,217.31C462.53,217.19 465.03,217.07 467.54,216.95C470.05,216.82 472.55,216.7 475.06,216.56C477.57,216.42 480.07,216.27 482.58,216.1C485.09,215.93 487.59,215.75 490.1,215.55C492.61,215.35 495.11,215.12 497.62,214.88C500.13,214.64 502.63,214.37 505.14,214.09C507.65,213.81 510.15,213.5 512.66,213.18C515.17,212.86 517.67,212.53 520.18,212.19C522.69,211.84 525.19,211.48 527.7,211.11C530.21,210.74 532.71,210.36 535.22,209.95C537.73,209.54 540.24,209.12 542.74,208.67C545.25,208.22 547.76,207.74 550.26,207.24C552.77,206.73 555.28,206.19 557.78,205.64C560.29,205.08 562.79,204.49 565.3,203.91C567.81,203.33 570.31,202.72 572.82,202.15C575.32,201.58 577.83,201.01 580.34,200.51C582.84,200.01 585.35,199.54 587.86,199.15C590.36,198.76 592.87,198.43 595.38,198.18C597.88,197.93 600.39,197.76 602.9,197.65C605.41,197.54 607.91,197.5 610.42,197.5C612.93,197.5 615.43,197.56 617.94,197.62C620.45,197.68 622.95,197.79 625.46,197.87C627.97,197.95 630.47,198.04 632.98,198.12C635.49,198.19 637.99,198.26 640.5,198.32C643.01,198.38 645.51,198.43 648.02,198.49C650.53,198.55 653.03,198.6 655.54,198.69C658.05,198.78 660.55,198.89 663.06,199.05C665.57,199.21 668.08,199.4 670.58,199.63C673.09,199.86 675.6,200.15 678.1,200.45C680.61,200.75 683.11,201.1 685.62,201.45C688.13,201.8 690.63,202.18 693.14,202.54C695.65,202.9 698.15,203.27 700.66,203.61C703.17,203.95 705.67,204.28 708.18,204.59C710.69,204.9 713.19,205.18 715.7,205.47C718.21,205.75 720.71,206.02 723.22,206.3C725.73,206.58 728.23,206.84 730.74,207.14C733.25,207.44 735.76,207.74 738.26,208.08C740.77,208.42 743.28,208.78 745.78,209.18C748.29,209.58 750.8,210.02 753.3,210.47C755.81,210.92 758.32,211.41 760.82,211.9C763.33,212.4 765.83,212.92 768.34,213.44C770.85,213.96 773.35,214.5 775.86,215.01C778.37,215.52 780.87,216.03 783.38,216.52C785.88,217 788.39,217.48 790.9,217.92C793.4,218.36 795.91,218.78 798.42,219.18C800.92,219.57 803.43,219.94 805.94,220.29C808.45,220.64 810.95,220.96 813.46,221.26C815.97,221.56 818.47,221.83 820.98,222.1C823.49,222.36 825.99,222.62 828.5,222.85C831.01,223.08 833.51,223.3 836.02,223.5C838.53,223.7 841.03,223.89 843.54,224.06C846.05,224.23 848.55,224.39 851.06,224.54C853.57,224.68 856.07,224.81 858.58,224.93C861.09,225.05 863.59,225.15 866.1,225.24C868.61,225.33 871.11,225.41 873.62,225.48C876.13,225.55 878.63,225.61 881.14,225.67C883.65,225.73 886.15,225.77 888.66,225.82C891.17,225.87 893.67,225.92 896.18,225.96C898.69,226 901.19,226.04 903.7,226.08C906.21,226.12 908.71,226.16 911.22,226.2C913.73,226.24 916.23,226.29 918.74,226.33C921.25,226.37 923.75,226.41 926.26,226.45C928.77,226.49 931.27,226.54 933.78,226.58C936.29,226.62 938.79,226.65 941.3,226.68C943.81,226.71 946.31,226.75 948.82,226.78C951.33,226.81 953.83,226.83 956.34,226.85C958.85,226.87 961.35,226.88 963.86,226.9C966.37,226.91 968.87,226.93 971.38,226.94C973.89,226.95 976.39,226.95 978.9,226.96C981.41,226.96 983.91,226.97 986.42,226.97C988.93,226.97 991.43,226.98 993.94,226.98C996.45,226.98 998.95,226.98 1001.46,226.98C1003.97,226.98 1006.47,226.99 1008.98,226.99C1011.49,226.99 1013.99,227 1016.5,227C1019.01,227 1021.51,227.01 1024.02,227.01C1026.53,227.01 1029.03,227.02 1031.54,227.02C1034.05,227.02 1036.55,227.03 1039.06,227.03C1041.57,227.03 1044.07,227.03 1046.58,227.03C1049.09,227.03 1051.59,227.03 1054.1,227.03C1056.61,227.03 1059.11,227.04 1061.62,227.04C1064.13,227.04 1066.63,227.04 1069.14,227.04C1071.65,227.04 1074.15,227.04 1076.66,227.04C1079.17,227.04 1081.67,227.04 1084.18,227.04C1086.69,227.04 1089.19,227.04 1091.7,227.04C1094.21,227.04 1096.71,227.05 1099.22,227.05C1101.73,227.05 1104.23,227.05 1106.74,227.05C1109.25,227.05 1111.75,227.06 1114.26,227.07C1116.77,227.07 1119.27,227.08 1121.78,227.08C1124.29,227.08 1126.79,227.09 1129.3,227.09C1131.81,227.09 1134.31,227.1 1136.82,227.1C1139.33,227.1 1141.83,227.11 1144.34,227.11C1146.85,227.11 1149.35,227.11 1151.86,227.11C1154.37,227.11 1156.87,227.12 1159.38,227.12C1161.89,227.12 1164.39,227.11 1166.9,227.11C1169.41,227.11 1171.91,227.11 1174.42,227.11C1176.93,227.11 1179.43,227.1 1181.94,227.1C1184.45,227.1 1186.95,227.09 1189.46,227.09C1191.97,227.09 1194.47,227.09 1196.98,227.09C1199.49,227.09 1201.99,227.08 1204.5,227.08C1207.01,227.08 1209.51,227.09 1212.02,227.09C1214.53,227.09 1217.03,227.09 1219.54,227.09C1222.05,227.09 1224.55,227.1 1227.06,227.1C1229.57,227.1 1232.07,227.11 1234.58,227.11C1237.09,227.11 1239.59,227.11 1242.1,227.11Q1244.61,227.11 1249.62,227.12L1249.62,227.12" style="vector-effect: non-scaling-stroke; stroke-width: 2px; stroke: rgb(116, 77, 112); stroke-opacity: 1; fill: rgb(116, 77, 112); fill-opacity: 0.5;"/><path class="box" d="M623.03,225.12V215.25M548.61,225.12V215.25H696.7V225.12ZM548.61,225.12H329.71M696.7,225.12H914.45" style="vector-effect: non-scaling-stroke; stroke-width: 2px; stroke: rgb(116, 77, 112); stroke-opacity: 1; fill: rgb(116, 77, 112); fill-opacity: 0.5;"/></g><g class="trace violins" style="opacity: 1;"><path class="violin" d="M87.77,197.5L87.77,197.49Q92.58,197.49 94.98,197.49C97.38,197.49 99.79,197.48 102.19,197.48C104.59,197.48 107,197.47 109.4,197.47C111.8,197.46 114.21,197.46 116.61,197.45C119.01,197.45 121.42,197.44 123.82,197.44C126.22,197.43 128.63,197.43 131.03,197.42C133.43,197.41 135.84,197.41 138.24,197.4C140.64,197.39 143.05,197.39 145.45,197.38C147.85,197.38 150.26,197.37 152.66,197.37C155.06,197.37 157.47,197.37 159.87,197.37C162.27,197.37 164.68,197.36 167.08,197.36C169.48,197.36 171.89,197.37 174.29,197.37C176.69,197.37 179.1,197.37 181.5,197.37C183.9,197.37 186.31,197.36 188.71,197.36C191.11,197.35 193.52,197.35 195.92,197.34C198.32,197.33 200.73,197.33 203.13,197.32C205.53,197.31 207.94,197.29 210.34,197.28C212.74,197.27 215.15,197.26 217.55,197.25C219.95,197.24 222.36,197.22 224.76,197.21C227.16,197.2 229.57,197.18 231.97,197.17C234.37,197.16 236.78,197.15 239.18,197.14C241.58,197.13 243.99,197.12 246.39,197.11C248.79,197.1 251.2,197.1 253.6,197.09C256,197.09 258.41,197.08 260.81,197.08C263.21,197.08 265.62,197.07 268.02,197.07C270.42,197.06 272.83,197.06 275.23,197.05C277.63,197.04 280.04,197.03 282.44,197.02C284.84,197 287.25,196.98 289.65,196.96C292.05,196.94 294.46,196.91 296.86,196.88C299.26,196.85 301.67,196.81 304.07,196.78C306.47,196.74 308.88,196.71 311.28,196.67C313.68,196.63 316.09,196.58 318.49,196.53C320.89,196.48 323.3,196.42 325.7,196.36C328.1,196.29 330.51,196.22 332.91,196.14C335.31,196.05 337.72,195.96 340.12,195.85C342.52,195.74 344.93,195.61 347.33,195.48C349.73,195.34 352.14,195.2 354.54,195.04C356.94,194.88 359.35,194.71 361.75,194.54C364.15,194.37 366.56,194.21 368.96,194.04C371.36,193.87 373.77,193.7 376.17,193.54C378.57,193.38 380.98,193.23 383.38,193.08C385.78,192.93 388.19,192.78 390.59,192.64C392.99,192.5 395.4,192.36 397.8,192.22C400.2,192.08 402.61,191.94 405.01,191.8C407.41,191.66 409.82,191.52 412.22,191.37C414.62,191.22 417.03,191.08 419.43,190.92C421.83,190.76 424.24,190.6 426.64,190.43C429.04,190.26 431.45,190.09 433.85,189.91C436.25,189.73 438.66,189.54 441.06,189.35C443.46,189.16 445.87,188.96 448.27,188.76C450.67,188.57 453.08,188.37 455.48,188.18C457.88,187.99 460.29,187.81 462.69,187.64C465.09,187.47 467.5,187.31 469.9,187.15C472.3,186.99 474.71,186.84 477.11,186.69C479.51,186.54 481.92,186.39 484.32,186.23C486.72,186.07 489.13,185.9 491.53,185.71C493.93,185.52 496.34,185.32 498.74,185.1C501.14,184.88 503.55,184.63 505.95,184.38C508.35,184.12 510.76,183.84 513.16,183.57C515.56,183.3 517.97,183.02 520.37,182.74C522.77,182.47 525.18,182.19 527.58,181.92C529.98,181.66 532.39,181.4 534.79,181.15C537.19,180.9 539.6,180.67 542,180.41C544.41,180.15 546.82,179.9 549.22,179.61C551.63,179.32 554.03,179.01 556.43,178.65C558.84,178.29 561.24,177.9 563.64,177.47C566.05,177.04 568.45,176.56 570.85,176.06C573.26,175.56 575.66,175.01 578.06,174.48C580.46,173.95 582.86,173.38 585.27,172.86C587.67,172.34 590.07,171.82 592.48,171.36C594.88,170.9 597.28,170.46 599.69,170.08C602.09,169.7 604.49,169.38 606.9,169.1C609.3,168.83 611.7,168.61 614.11,168.43C616.51,168.25 618.92,168.13 621.32,168.04C623.72,167.95 626.13,167.89 628.53,167.87C630.93,167.85 633.34,167.86 635.74,167.89C638.14,167.92 640.55,167.97 642.95,168.04C645.35,168.12 647.76,168.21 650.16,168.34C652.56,168.47 654.97,168.62 657.37,168.8C659.77,168.99 662.18,169.2 664.58,169.45C666.98,169.7 669.39,169.99 671.79,170.29C674.19,170.59 676.6,170.93 679,171.27C681.4,171.61 683.81,171.97 686.21,172.33C688.61,172.69 691.02,173.05 693.42,173.41C695.82,173.77 698.23,174.12 700.63,174.48C703.03,174.83 705.44,175.18 707.84,175.54C710.24,175.9 712.65,176.26 715.05,176.63C717.45,177 719.86,177.38 722.26,177.78C724.66,178.18 727.07,178.59 729.47,179.02C731.87,179.45 734.28,179.89 736.68,180.35C739.08,180.81 741.49,181.29 743.89,181.77C746.29,182.25 748.7,182.74 751.1,183.24C753.5,183.74 755.91,184.24 758.31,184.75C760.71,185.26 763.12,185.77 765.52,186.28C767.92,186.78 770.33,187.29 772.73,187.78C775.13,188.27 777.53,188.75 779.94,189.21C782.34,189.67 784.74,190.11 787.15,190.52C789.55,190.93 791.95,191.32 794.36,191.68C796.76,192.04 799.17,192.37 801.57,192.67C803.97,192.97 806.38,193.25 808.78,193.5C811.18,193.75 813.59,193.97 815.99,194.17C818.39,194.37 820.8,194.55 823.2,194.72C825.6,194.88 828.01,195.02 830.41,195.16C832.81,195.29 835.22,195.42 837.62,195.53C840.02,195.64 842.43,195.74 844.83,195.84C847.23,195.94 849.64,196.02 852.04,196.11C854.44,196.2 856.85,196.28 859.25,196.36C861.65,196.44 864.06,196.51 866.46,196.58C868.86,196.65 871.27,196.72 873.67,196.78C876.07,196.84 878.48,196.9 880.88,196.95C883.28,197 885.69,197.04 888.09,197.08C890.49,197.12 892.9,197.16 895.3,197.19C897.7,197.22 900.11,197.24 902.51,197.26C904.91,197.28 907.32,197.29 909.72,197.3C912.12,197.31 914.53,197.33 916.93,197.34C919.33,197.35 921.74,197.35 924.14,197.36C926.54,197.37 928.95,197.38 931.35,197.39C933.75,197.4 936.16,197.4 938.56,197.41C940.96,197.42 943.37,197.42 945.77,197.43C948.17,197.44 950.58,197.44 952.98,197.45C955.38,197.45 957.79,197.46 960.19,197.46C962.59,197.46 965,197.46 967.4,197.46C969.8,197.46 972.21,197.46 974.61,197.46C977.01,197.46 979.42,197.45 981.82,197.45C984.22,197.45 986.63,197.44 989.03,197.44C991.43,197.44 993.84,197.44 996.24,197.44C998.64,197.44 1001.05,197.43 1003.45,197.43C1005.85,197.43 1008.26,197.43 1010.66,197.43C1013.06,197.43 1015.47,197.43 1017.87,197.43C1020.27,197.43 1022.68,197.43 1025.08,197.43C1027.48,197.43 1029.89,197.44 1032.29,197.44C1034.69,197.44 1037.1,197.44 1039.5,197.44C1041.9,197.44 1044.31,197.44 1046.71,197.44C1049.11,197.44 1051.52,197.45 1053.92,197.45C1056.32,197.45 1058.73,197.46 1061.13,197.46C1063.53,197.46 1065.94,197.46 1068.34,197.46C1070.74,197.46 1073.15,197.47 1075.55,197.47C1077.95,197.47 1080.36,197.48 1082.76,197.48C1085.16,197.48 1087.57,197.49 1089.97,197.49Q1092.37,197.49 1097.18,197.49L1097.18,197.5" style="vector-effect: non-scaling-stroke; stroke-width: 2px; stroke: rgb(132, 73, 99); stroke-opacity: 1; fill: rgb(132, 73, 99); fill-opacity: 0.5;"/><path class="box" d="M623.46,195.5V185.63M546.44,195.5V185.63H687.52V195.5ZM546.44,195.5H335.96M687.52,195.5H886.91" style="vector-effect: non-scaling-stroke; stroke-width: 2px; stroke: rgb(132, 73, 99); stroke-opacity: 1; fill: rgb(132, 73, 99); fill-opacity: 0.5;"/></g><g class="trace violins" style="opacity: 1;"><path class="violin" d="M-52.64,167.87L-52.64,167.87Q-47.33,167.86 -44.68,167.86C-42.03,167.86 -39.38,167.86 -36.73,167.86C-34.08,167.86 -31.42,167.85 -28.77,167.85C-26.12,167.85 -23.47,167.84 -20.82,167.84C-18.17,167.84 -15.51,167.84 -12.86,167.84C-10.21,167.84 -7.56,167.83 -4.91,167.83C-2.26,167.83 0.4,167.84 3.05,167.84C5.7,167.84 8.35,167.84 11,167.84C13.65,167.84 16.31,167.85 18.96,167.85C21.61,167.85 24.26,167.85 26.91,167.85C29.56,167.85 32.22,167.86 34.87,167.86C37.52,167.86 40.17,167.86 42.82,167.86C45.47,167.86 48.13,167.85 50.78,167.85C53.43,167.85 56.08,167.85 58.73,167.85C61.38,167.85 64.04,167.84 66.69,167.84C69.34,167.84 71.99,167.84 74.64,167.84C77.29,167.84 79.95,167.83 82.6,167.83C85.25,167.83 87.9,167.83 90.55,167.83C93.2,167.83 95.86,167.83 98.51,167.83C101.16,167.83 103.81,167.83 106.46,167.83C109.11,167.83 111.77,167.83 114.42,167.83C117.07,167.83 119.72,167.82 122.37,167.81C125.02,167.8 127.68,167.8 130.33,167.79C132.98,167.78 135.63,167.77 138.28,167.76C140.93,167.75 143.59,167.73 146.24,167.72C148.89,167.71 151.54,167.7 154.19,167.69C156.84,167.68 159.5,167.67 162.15,167.66C164.8,167.65 167.45,167.65 170.1,167.64C172.75,167.63 175.41,167.63 178.06,167.62C180.71,167.62 183.36,167.61 186.01,167.61C188.66,167.6 191.32,167.6 193.97,167.59C196.62,167.58 199.27,167.58 201.92,167.57C204.57,167.56 207.23,167.54 209.88,167.52C212.53,167.5 215.18,167.49 217.83,167.47C220.48,167.45 223.14,167.42 225.79,167.4C228.44,167.37 231.1,167.35 233.75,167.32C236.4,167.3 239.05,167.27 241.7,167.25C244.35,167.23 247.01,167.2 249.66,167.18C252.31,167.16 254.96,167.13 257.61,167.11C260.26,167.08 262.92,167.06 265.57,167.03C268.22,167 270.87,166.96 273.52,166.92C276.17,166.88 278.83,166.83 281.48,166.78C284.13,166.73 286.78,166.67 289.43,166.61C292.08,166.55 294.74,166.48 297.39,166.41C300.04,166.34 302.69,166.26 305.34,166.18C307.99,166.1 310.65,166.02 313.3,165.93C315.95,165.84 318.6,165.75 321.25,165.64C323.9,165.53 326.56,165.42 329.21,165.29C331.86,165.17 334.51,165.03 337.16,164.89C339.81,164.75 342.47,164.59 345.12,164.44C347.77,164.29 350.42,164.13 353.07,163.97C355.72,163.81 358.38,163.64 361.03,163.49C363.68,163.34 366.33,163.19 368.98,163.05C371.63,162.91 374.29,162.77 376.94,162.63C379.59,162.49 382.24,162.36 384.89,162.23C387.54,162.1 390.2,161.97 392.85,161.83C395.5,161.69 398.15,161.55 400.8,161.4C403.45,161.25 406.11,161.09 408.76,160.93C411.41,160.77 414.06,160.6 416.71,160.42C419.36,160.24 422.02,160.05 424.67,159.86C427.32,159.67 429.97,159.48 432.62,159.29C435.27,159.1 437.93,158.91 440.58,158.72C443.23,158.53 445.88,158.34 448.53,158.16C451.18,157.98 453.84,157.8 456.49,157.62C459.14,157.44 461.79,157.27 464.44,157.09C467.09,156.91 469.75,156.73 472.4,156.53C475.05,156.34 477.7,156.14 480.35,155.92C483,155.7 485.66,155.46 488.31,155.21C490.96,154.96 493.61,154.69 496.26,154.4C498.91,154.11 501.57,153.79 504.22,153.47C506.87,153.15 509.52,152.8 512.17,152.46C514.82,152.12 517.48,151.76 520.13,151.41C522.78,151.06 525.43,150.71 528.08,150.37C530.73,150.02 533.39,149.69 536.04,149.34C538.69,148.99 541.34,148.65 543.99,148.29C546.64,147.92 549.3,147.56 551.95,147.15C554.6,146.74 557.25,146.3 559.9,145.83C562.55,145.36 565.21,144.85 567.86,144.34C570.51,143.82 573.16,143.26 575.81,142.74C578.46,142.21 581.11,141.67 583.77,141.19C586.42,140.71 589.06,140.25 591.72,139.87C594.37,139.49 597.02,139.17 599.68,138.93C602.33,138.69 604.98,138.52 607.63,138.41C610.28,138.3 612.94,138.26 615.59,138.25C618.24,138.24 620.89,138.28 623.54,138.32C626.19,138.36 628.85,138.44 631.5,138.5C634.15,138.56 636.8,138.63 639.45,138.69C642.1,138.75 644.76,138.81 647.41,138.87C650.06,138.93 652.71,138.99 655.36,139.06C658.01,139.14 660.67,139.21 663.32,139.32C665.97,139.42 668.62,139.54 671.27,139.69C673.92,139.84 676.58,140.02 679.23,140.24C681.88,140.46 684.53,140.71 687.18,140.99C689.83,141.28 692.49,141.6 695.14,141.95C697.79,142.3 700.44,142.68 703.09,143.08C705.74,143.48 708.4,143.91 711.05,144.33C713.7,144.75 716.35,145.18 719,145.6C721.65,146.02 724.31,146.45 726.96,146.86C729.61,147.27 732.26,147.67 734.91,148.07C737.56,148.47 740.22,148.85 742.87,149.25C745.52,149.65 748.17,150.04 750.82,150.45C753.47,150.86 756.13,151.27 758.78,151.7C761.43,152.13 764.08,152.57 766.73,153.02C769.38,153.47 772.04,153.93 774.69,154.4C777.34,154.87 779.99,155.35 782.64,155.82C785.29,156.29 787.95,156.77 790.6,157.24C793.25,157.7 795.9,158.17 798.55,158.61C801.2,159.05 803.86,159.48 806.51,159.89C809.16,160.3 811.81,160.69 814.46,161.07C817.11,161.44 819.77,161.8 822.42,162.14C825.07,162.48 827.72,162.79 830.37,163.09C833.02,163.39 835.68,163.66 838.33,163.92C840.98,164.17 843.63,164.41 846.28,164.62C848.93,164.83 851.59,165.03 854.24,165.2C856.89,165.37 859.54,165.53 862.19,165.66C864.84,165.79 867.5,165.9 870.15,166C872.8,166.1 875.45,166.19 878.1,166.26C880.75,166.33 883.41,166.39 886.06,166.44C888.71,166.49 891.36,166.53 894.01,166.57C896.66,166.61 899.32,166.65 901.97,166.68C904.62,166.71 907.27,166.74 909.92,166.77C912.57,166.8 915.23,166.83 917.88,166.86C920.53,166.89 923.18,166.93 925.83,166.96C928.48,166.99 931.14,167.03 933.79,167.06C936.44,167.09 939.09,167.12 941.74,167.15C944.39,167.18 947.05,167.22 949.7,167.25C952.35,167.28 955,167.31 957.65,167.34C960.3,167.37 962.96,167.4 965.61,167.43C968.26,167.46 970.91,167.48 973.56,167.51C976.21,167.54 978.87,167.57 981.52,167.59C984.17,167.61 986.82,167.63 989.47,167.65C992.12,167.67 994.78,167.69 997.43,167.7C1000.08,167.71 1002.73,167.72 1005.38,167.72C1008.03,167.73 1010.69,167.73 1013.34,167.73C1015.99,167.73 1018.64,167.73 1021.29,167.73C1023.94,167.73 1026.6,167.73 1029.25,167.73C1031.9,167.73 1034.56,167.73 1037.21,167.73C1039.86,167.73 1042.51,167.74 1045.16,167.74C1047.81,167.74 1050.47,167.74 1053.12,167.75C1055.77,167.75 1058.42,167.76 1061.07,167.77C1063.72,167.78 1066.38,167.78 1069.03,167.79C1071.68,167.79 1074.33,167.8 1076.98,167.8C1079.63,167.8 1082.29,167.81 1084.94,167.81C1087.59,167.81 1090.24,167.81 1092.89,167.81C1095.54,167.81 1098.2,167.82 1100.85,167.82C1103.5,167.82 1106.15,167.82 1108.8,167.82C1111.45,167.82 1114.11,167.81 1116.76,167.81C1119.41,167.81 1122.06,167.81 1124.71,167.81C1127.36,167.81 1130.02,167.82 1132.67,167.82C1135.32,167.82 1137.97,167.82 1140.62,167.82C1143.27,167.82 1145.93,167.82 1148.58,167.82C1151.23,167.82 1153.88,167.83 1156.53,167.83C1159.18,167.83 1161.84,167.84 1164.49,167.84C1167.14,167.84 1169.79,167.85 1172.44,167.85C1175.09,167.85 1177.75,167.86 1180.4,167.86C1183.05,167.86 1185.7,167.86 1188.35,167.86Q1191,167.86 1196.31,167.87L1196.31,167.87" style="vector-effect: non-scaling-stroke; stroke-width: 2px; stroke: rgb(149, 68, 87); stroke-opacity: 1; fill: rgb(149, 68, 87); fill-opacity: 0.5;"/><path class="box" d="M624.12,165.87V156M541.69,165.87V156H698.26V165.87ZM541.69,165.87H306.9M698.26,165.87H927.65" style="vector-effect: non-scaling-stroke; stroke-width: 2px; stroke: rgb(149, 68, 87); stroke-opacity: 1; fill: rgb(149, 68, 87); fill-opacity: 0.5;"/></g><g class="trace violins" style="opacity: 1;"><path class="violin" d="M-111.69,138.25L-111.69,138.24Q-106.7,138.24 -104.21,138.24C-101.72,138.24 -99.23,138.23 -96.74,138.23C-94.25,138.23 -91.75,138.23 -89.26,138.23C-86.77,138.23 -84.28,138.22 -81.79,138.22C-79.3,138.22 -76.8,138.21 -74.31,138.21C-71.82,138.21 -69.33,138.21 -66.84,138.21C-64.35,138.21 -61.85,138.21 -59.36,138.21C-56.87,138.21 -54.38,138.22 -51.89,138.22C-49.4,138.22 -46.9,138.23 -44.41,138.23C-41.92,138.23 -39.43,138.23 -36.94,138.23C-34.45,138.23 -31.95,138.24 -29.46,138.24C-26.97,138.24 -24.48,138.24 -21.99,138.24C-19.5,138.24 -17,138.25 -14.51,138.25C-12.02,138.25 -9.53,138.25 -7.04,138.25C-4.55,138.25 -2.05,138.25 0.44,138.25C2.93,138.25 5.42,138.25 7.91,138.25C10.4,138.25 12.9,138.25 15.39,138.25C17.88,138.25 20.37,138.25 22.86,138.25C25.35,138.25 27.85,138.25 30.34,138.25C32.83,138.25 35.32,138.24 37.81,138.24C40.3,138.24 42.8,138.24 45.29,138.24C47.78,138.24 50.27,138.23 52.76,138.23C55.25,138.23 57.75,138.22 60.24,138.22C62.73,138.22 65.22,138.21 67.71,138.21C70.2,138.2 72.7,138.2 75.19,138.19C77.68,138.19 80.17,138.18 82.66,138.18C85.15,138.18 87.65,138.18 90.14,138.18C92.63,138.18 95.12,138.17 97.61,138.17C100.1,138.17 102.6,138.16 105.09,138.16C107.58,138.16 110.07,138.15 112.56,138.15C115.05,138.15 117.55,138.15 120.04,138.14C122.53,138.14 125.02,138.13 127.51,138.12C130,138.11 132.5,138.1 134.99,138.09C137.48,138.08 139.97,138.07 142.46,138.06C144.95,138.05 147.45,138.04 149.94,138.03C152.43,138.02 154.92,138.01 157.41,138C159.9,137.99 162.4,137.98 164.89,137.97C167.38,137.96 169.87,137.96 172.36,137.95C174.85,137.94 177.35,137.93 179.84,137.92C182.33,137.91 184.82,137.9 187.31,137.9C189.8,137.89 192.3,137.9 194.79,137.89C197.28,137.89 199.77,137.88 202.26,137.87C204.75,137.86 207.25,137.86 209.74,137.85C212.23,137.84 214.72,137.83 217.21,137.82C219.7,137.81 222.2,137.79 224.69,137.77C227.18,137.75 229.67,137.74 232.16,137.72C234.65,137.7 237.15,137.68 239.64,137.66C242.13,137.64 244.62,137.62 247.11,137.61C249.6,137.59 252.1,137.58 254.59,137.57C257.08,137.56 259.57,137.55 262.06,137.55C264.55,137.55 267.05,137.55 269.54,137.55C272.03,137.55 274.52,137.54 277.01,137.54C279.5,137.53 282,137.53 284.49,137.52C286.98,137.51 289.47,137.5 291.96,137.48C294.45,137.46 296.95,137.43 299.44,137.4C301.93,137.37 304.42,137.32 306.91,137.28C309.4,137.23 311.9,137.19 314.39,137.13C316.88,137.08 319.37,137.02 321.86,136.95C324.35,136.88 326.85,136.81 329.34,136.73C331.83,136.65 334.33,136.58 336.82,136.49C339.31,136.4 341.8,136.3 344.29,136.2C346.78,136.1 349.28,135.99 351.77,135.88C354.26,135.77 356.75,135.65 359.24,135.53C361.73,135.41 364.23,135.28 366.72,135.14C369.21,135 371.7,134.86 374.19,134.71C376.68,134.56 379.18,134.4 381.67,134.24C384.16,134.08 386.65,133.91 389.14,133.73C391.63,133.55 394.13,133.37 396.62,133.18C399.11,133 401.6,132.8 404.09,132.62C406.58,132.43 409.08,132.25 411.57,132.07C414.06,131.89 416.55,131.72 419.04,131.56C421.53,131.4 424.03,131.24 426.52,131.09C429.01,130.94 431.5,130.79 433.99,130.65C436.48,130.51 438.98,130.37 441.47,130.23C443.96,130.09 446.45,129.94 448.94,129.79C451.43,129.64 453.93,129.5 456.42,129.35C458.91,129.2 461.4,129.04 463.89,128.88C466.38,128.72 468.88,128.56 471.37,128.39C473.86,128.22 476.35,128.04 478.84,127.86C481.33,127.67 483.83,127.48 486.32,127.28C488.81,127.08 491.3,126.87 493.79,126.65C496.28,126.43 498.78,126.2 501.27,125.96C503.76,125.72 506.25,125.47 508.74,125.22C511.23,124.97 513.73,124.7 516.22,124.44C518.71,124.18 521.2,123.91 523.69,123.65C526.18,123.39 528.68,123.13 531.17,122.86C533.66,122.59 536.15,122.33 538.64,122.05C541.13,121.77 543.63,121.48 546.12,121.16C548.61,120.84 551.1,120.5 553.59,120.11C556.09,119.72 558.58,119.29 561.07,118.82C563.57,118.34 566.05,117.81 568.54,117.26C571.04,116.71 573.53,116.1 576.02,115.51C578.51,114.92 581,114.28 583.49,113.7C585.98,113.12 588.47,112.54 590.97,112.04C593.46,111.54 595.94,111.08 598.44,110.69C600.93,110.3 603.42,109.98 605.92,109.72C608.41,109.46 610.9,109.27 613.39,109.12C615.88,108.97 618.38,108.88 620.87,108.8C623.36,108.72 625.85,108.69 628.34,108.66C630.83,108.63 633.33,108.62 635.82,108.62C638.31,108.62 640.8,108.64 643.29,108.68C645.78,108.72 648.28,108.76 650.77,108.84C653.26,108.92 655.75,109.01 658.24,109.14C660.73,109.27 663.23,109.42 665.72,109.61C668.21,109.8 670.7,110.01 673.19,110.26C675.68,110.51 678.18,110.79 680.67,111.09C683.16,111.39 685.65,111.72 688.14,112.06C690.63,112.4 693.13,112.77 695.62,113.15C698.11,113.53 700.6,113.93 703.09,114.33C705.58,114.73 708.08,115.15 710.57,115.56C713.06,115.97 715.55,116.39 718.04,116.81C720.53,117.23 723.03,117.64 725.52,118.07C728.01,118.49 730.5,118.93 732.99,119.36C735.48,119.8 737.98,120.23 740.47,120.68C742.96,121.13 745.45,121.59 747.94,122.06C750.43,122.53 752.93,123 755.42,123.49C757.91,123.98 760.4,124.48 762.89,124.98C765.38,125.48 767.88,126 770.37,126.5C772.86,127 775.35,127.5 777.84,127.98C780.33,128.46 782.83,128.93 785.32,129.36C787.81,129.79 790.3,130.2 792.79,130.57C795.28,130.94 797.78,131.29 800.27,131.59C802.76,131.89 805.25,132.15 807.74,132.39C810.23,132.63 812.73,132.83 815.22,133.02C817.71,133.21 820.21,133.37 822.7,133.53C825.19,133.69 827.68,133.83 830.17,133.97C832.66,134.11 835.16,134.25 837.65,134.39C840.14,134.53 842.63,134.68 845.12,134.83C847.61,134.98 850.11,135.13 852.6,135.28C855.09,135.43 857.58,135.6 860.07,135.75C862.56,135.91 865.06,136.06 867.55,136.21C870.04,136.35 872.53,136.49 875.02,136.62C877.51,136.75 880.01,136.86 882.5,136.97C884.99,137.07 887.48,137.17 889.97,137.25C892.46,137.33 894.96,137.39 897.45,137.45C899.94,137.5 902.43,137.54 904.92,137.58C907.41,137.62 909.91,137.65 912.4,137.67C914.89,137.69 917.38,137.71 919.87,137.72C922.36,137.74 924.86,137.75 927.35,137.76C929.84,137.77 932.33,137.77 934.82,137.78C937.31,137.79 939.81,137.79 942.3,137.8C944.79,137.81 947.28,137.82 949.77,137.83C952.26,137.84 954.76,137.85 957.25,137.87C959.74,137.88 962.23,137.9 964.72,137.92C967.21,137.94 969.71,137.96 972.2,137.98C974.69,138 977.18,138.01 979.67,138.03C982.16,138.05 984.66,138.07 987.15,138.09C989.64,138.11 992.13,138.13 994.62,138.14C997.11,138.15 999.61,138.16 1002.1,138.17C1004.59,138.18 1007.08,138.19 1009.57,138.2C1012.06,138.21 1014.56,138.22 1017.05,138.22C1019.54,138.22 1022.03,138.22 1024.52,138.22C1027.01,138.22 1029.51,138.22 1032,138.22C1034.49,138.22 1036.98,138.21 1039.47,138.21C1041.96,138.21 1044.46,138.21 1046.95,138.2C1049.44,138.2 1051.93,138.18 1054.42,138.18C1056.91,138.17 1059.41,138.17 1061.9,138.17C1064.39,138.17 1066.88,138.17 1069.37,138.17C1071.86,138.17 1074.36,138.17 1076.85,138.17C1079.34,138.17 1081.83,138.18 1084.32,138.18C1086.81,138.18 1089.31,138.19 1091.8,138.19C1094.29,138.19 1096.78,138.2 1099.27,138.2C1101.76,138.2 1104.26,138.2 1106.75,138.2C1109.24,138.2 1111.73,138.2 1114.22,138.2C1116.71,138.2 1119.21,138.2 1121.7,138.2C1124.19,138.2 1126.68,138.21 1129.17,138.21C1131.66,138.21 1134.16,138.22 1136.65,138.22C1139.14,138.22 1141.63,138.23 1144.12,138.23C1146.61,138.23 1149.11,138.23 1151.6,138.23C1154.09,138.23 1156.58,138.24 1159.07,138.24Q1161.56,138.24 1166.55,138.24L1166.55,138.25" style="vector-effect: non-scaling-stroke; stroke-width: 2px; stroke: rgb(165, 63, 75); stroke-opacity: 1; fill: rgb(165, 63, 75); fill-opacity: 0.5;"/><path class="box" d="M629.55,136.25V126.37M551.13,136.25V126.37H697.01V136.25ZM551.13,136.25H334.76M697.01,136.25H915.8" style="vector-effect: non-scaling-stroke; stroke-width: 2px; stroke: rgb(165, 63, 75); stroke-opacity: 1; fill: rgb(165, 63, 75); fill-opacity: 0.5;"/></g><g class="trace violins" style="opacity: 1;"><path class="violin" d="M92.67,108.62L92.67,108.61Q97.68,108.61 100.19,108.6C102.69,108.6 105.2,108.59 107.7,108.58C110.21,108.57 112.71,108.56 115.22,108.55C117.73,108.54 120.23,108.53 122.74,108.52C125.25,108.51 127.75,108.49 130.26,108.48C132.77,108.47 135.27,108.46 137.78,108.45C140.29,108.44 142.79,108.44 145.3,108.43C147.81,108.43 150.31,108.42 152.82,108.42C155.33,108.42 157.83,108.41 160.34,108.41C162.85,108.41 165.35,108.41 167.86,108.41C170.37,108.41 172.87,108.4 175.38,108.39C177.89,108.38 180.39,108.38 182.9,108.37C185.41,108.36 187.91,108.34 190.42,108.33C192.93,108.32 195.43,108.3 197.94,108.29C200.44,108.28 202.95,108.27 205.45,108.26C207.96,108.25 210.46,108.25 212.97,108.24C215.48,108.24 217.98,108.23 220.49,108.23C223,108.23 225.5,108.24 228.01,108.24C230.52,108.24 233.02,108.24 235.53,108.24C238.04,108.24 240.54,108.24 243.05,108.23C245.56,108.22 248.06,108.21 250.57,108.19C253.08,108.17 255.58,108.16 258.09,108.13C260.6,108.1 263.1,108.07 265.61,108.03C268.12,107.99 270.62,107.95 273.13,107.91C275.64,107.87 278.14,107.82 280.65,107.78C283.16,107.74 285.66,107.69 288.17,107.65C290.67,107.61 293.18,107.56 295.68,107.52C298.19,107.48 300.69,107.45 303.2,107.41C305.71,107.37 308.21,107.34 310.72,107.3C313.23,107.26 315.73,107.22 318.24,107.17C320.75,107.12 323.25,107.07 325.76,107C328.27,106.93 330.77,106.86 333.28,106.76C335.79,106.66 338.29,106.54 340.8,106.41C343.31,106.28 345.81,106.13 348.32,105.97C350.83,105.81 353.33,105.63 355.84,105.45C358.35,105.27 360.85,105.08 363.36,104.9C365.87,104.71 368.37,104.52 370.88,104.34C373.39,104.16 375.89,103.98 378.4,103.81C380.9,103.64 383.41,103.47 385.91,103.32C388.42,103.17 390.92,103.03 393.43,102.89C395.94,102.75 398.44,102.63 400.95,102.5C403.46,102.38 405.96,102.26 408.47,102.14C410.98,102.02 413.48,101.91 415.99,101.79C418.5,101.68 421,101.57 423.51,101.45C426.02,101.33 428.52,101.21 431.03,101.09C433.54,100.97 436.04,100.86 438.55,100.74C441.06,100.62 443.56,100.49 446.07,100.37C448.58,100.25 451.08,100.13 453.59,100.01C456.1,99.89 458.6,99.77 461.11,99.64C463.62,99.51 466.12,99.38 468.63,99.23C471.14,99.08 473.64,98.93 476.15,98.76C478.65,98.59 481.16,98.4 483.66,98.2C486.17,98 488.67,97.79 491.18,97.56C493.69,97.33 496.19,97.07 498.7,96.81C501.21,96.54 503.71,96.26 506.22,95.97C508.73,95.68 511.23,95.38 513.74,95.07C516.25,94.76 518.75,94.44 521.26,94.13C523.77,93.82 526.27,93.51 528.78,93.2C531.29,92.89 533.79,92.59 536.3,92.29C538.81,91.99 541.31,91.7 543.82,91.39C546.33,91.08 548.83,90.78 551.34,90.44C553.85,90.1 556.36,89.74 558.86,89.35C561.37,88.96 563.88,88.53 566.38,88.08C568.89,87.63 571.39,87.13 573.89,86.64C576.4,86.15 578.9,85.63 581.41,85.14C583.92,84.65 586.42,84.16 588.93,83.72C591.43,83.28 593.94,82.86 596.45,82.51C598.95,82.16 601.46,81.86 603.97,81.61C606.47,81.36 608.98,81.17 611.49,81.01C614,80.85 616.5,80.75 619.01,80.64C621.52,80.53 624.02,80.45 626.53,80.36C629.04,80.26 631.54,80.18 634.05,80.07C636.56,79.96 639.06,79.84 641.57,79.72C644.08,79.6 646.58,79.46 649.09,79.35C651.6,79.24 654.1,79.13 656.61,79.07C659.12,79.01 661.62,78.97 664.13,79C666.63,79.03 669.14,79.11 671.64,79.25C674.15,79.39 676.66,79.59 679.16,79.85C681.67,80.11 684.18,80.44 686.68,80.8C689.19,81.16 691.7,81.57 694.2,81.99C696.71,82.42 699.21,82.89 701.72,83.35C704.23,83.81 706.73,84.29 709.24,84.76C711.75,85.23 714.25,85.71 716.76,86.17C719.27,86.63 721.77,87.09 724.28,87.54C726.79,87.99 729.29,88.44 731.8,88.89C734.31,89.34 736.81,89.79 739.32,90.24C741.83,90.69 744.33,91.15 746.84,91.61C749.35,92.08 751.86,92.55 754.36,93.03C756.87,93.51 759.37,94.01 761.87,94.51C764.38,95.01 766.88,95.53 769.39,96.03C771.9,96.53 774.4,97.04 776.91,97.53C779.42,98.02 781.92,98.51 784.43,98.98C786.94,99.45 789.44,99.9 791.95,100.33C794.45,100.76 796.96,101.16 799.47,101.55C801.98,101.93 804.48,102.3 806.99,102.64C809.5,102.98 812,103.31 814.51,103.61C817.02,103.91 819.52,104.19 822.03,104.45C824.54,104.71 827.04,104.95 829.55,105.18C832.06,105.4 834.56,105.61 837.07,105.8C839.58,105.99 842.08,106.16 844.59,106.32C847.09,106.48 849.6,106.62 852.1,106.75C854.61,106.88 857.11,106.99 859.62,107.09C862.13,107.19 864.63,107.27 867.14,107.35C869.65,107.43 872.15,107.51 874.66,107.57C877.17,107.63 879.67,107.68 882.18,107.73C884.69,107.78 887.19,107.83 889.7,107.87C892.21,107.91 894.71,107.95 897.22,107.99C899.73,108.02 902.23,108.05 904.74,108.08C907.25,108.11 909.75,108.13 912.26,108.15C914.77,108.17 917.27,108.19 919.78,108.21C922.29,108.23 924.79,108.25 927.3,108.27C929.81,108.29 932.31,108.3 934.82,108.32C937.33,108.34 939.83,108.35 942.34,108.37C944.84,108.39 947.35,108.41 949.85,108.43C952.36,108.45 954.86,108.46 957.37,108.47C959.88,108.48 962.38,108.5 964.89,108.51C967.4,108.52 969.9,108.53 972.41,108.54C974.92,108.55 977.42,108.55 979.93,108.56C982.44,108.56 984.94,108.57 987.45,108.57C989.96,108.57 992.46,108.57 994.97,108.57C997.48,108.57 999.98,108.58 1002.49,108.58C1005,108.58 1007.5,108.58 1010.01,108.58C1012.52,108.58 1015.02,108.58 1017.53,108.58C1020.04,108.58 1022.54,108.58 1025.05,108.58C1027.56,108.58 1030.06,108.58 1032.57,108.58C1035.07,108.58 1037.58,108.58 1040.08,108.58C1042.59,108.58 1045.09,108.57 1047.6,108.57C1050.11,108.57 1052.61,108.56 1055.12,108.56C1057.63,108.56 1060.13,108.56 1062.64,108.56C1065.15,108.56 1067.65,108.55 1070.16,108.55C1072.67,108.55 1075.17,108.56 1077.68,108.56C1080.19,108.56 1082.69,108.56 1085.2,108.56C1087.71,108.56 1090.21,108.57 1092.72,108.58C1095.23,108.58 1097.73,108.59 1100.24,108.59C1102.75,108.59 1105.25,108.6 1107.76,108.6C1110.27,108.6 1112.77,108.61 1115.28,108.61C1117.79,108.61 1120.29,108.62 1122.8,108.62C1125.31,108.62 1127.81,108.62 1130.32,108.62C1132.82,108.62 1135.33,108.62 1137.83,108.62C1140.34,108.62 1142.84,108.62 1145.35,108.62C1147.86,108.62 1150.36,108.62 1152.87,108.62C1155.38,108.62 1157.88,108.62 1160.39,108.62C1162.9,108.62 1165.4,108.61 1167.91,108.61C1170.42,108.61 1172.92,108.61 1175.43,108.61C1177.94,108.61 1180.44,108.6 1182.95,108.6C1185.46,108.6 1187.96,108.59 1190.47,108.59C1192.98,108.59 1195.48,108.59 1197.99,108.59C1200.5,108.59 1203,108.59 1205.51,108.59C1208.02,108.59 1210.52,108.59 1213.03,108.59C1215.54,108.59 1218.04,108.59 1220.55,108.59C1223.05,108.59 1225.56,108.6 1228.06,108.6C1230.57,108.6 1233.07,108.61 1235.58,108.61C1238.09,108.61 1240.59,108.62 1243.1,108.62Q1245.61,108.62 1250.62,108.62L1250.62,108.62" style="vector-effect: non-scaling-stroke; stroke-width: 2px; stroke: rgb(182, 58, 63); stroke-opacity: 1; fill: rgb(182, 58, 63); fill-opacity: 0.5;"/><path class="box" d="M629.55,106.62V96.75M548.21,106.62V96.75H695.82V106.62ZM548.21,106.62H326.89M695.82,106.62H914.99" style="vector-effect: non-scaling-stroke; stroke-width: 2px; stroke: rgb(182, 58, 63); stroke-opacity: 1; fill: rgb(182, 58, 63); fill-opacity: 0.5;"/></g><g class="trace violins" style="opacity: 1;"><path class="violin" d="M-28.33,79L-28.33,78.99Q-23.08,78.99 -20.45,78.99C-17.83,78.99 -15.2,78.98 -12.58,78.98C-9.95,78.98 -7.33,78.98 -4.7,78.98C-2.08,78.98 0.55,78.97 3.17,78.97C5.8,78.97 8.42,78.96 11.05,78.96C13.68,78.96 16.3,78.96 18.93,78.96C21.55,78.96 24.18,78.95 26.8,78.95C29.43,78.95 32.05,78.95 34.68,78.95C37.3,78.95 39.93,78.94 42.55,78.94C45.18,78.94 47.8,78.94 50.43,78.93C53.06,78.92 55.68,78.91 58.31,78.9C60.93,78.89 63.56,78.87 66.18,78.86C68.81,78.85 71.43,78.83 74.06,78.82C76.69,78.81 79.31,78.79 81.94,78.78C84.56,78.77 87.19,78.75 89.81,78.74C92.44,78.73 95.06,78.72 97.69,78.71C100.31,78.7 102.94,78.7 105.56,78.7C108.19,78.7 110.81,78.7 113.44,78.7C116.07,78.7 118.69,78.71 121.32,78.71C123.94,78.71 126.57,78.72 129.19,78.72C131.82,78.72 134.44,78.73 137.07,78.73C139.7,78.73 142.32,78.73 144.95,78.73C147.57,78.73 150.2,78.73 152.82,78.73C155.45,78.73 158.07,78.72 160.7,78.72C163.32,78.72 165.95,78.72 168.57,78.72C171.2,78.72 173.82,78.72 176.45,78.72C179.08,78.72 181.7,78.73 184.33,78.73C186.95,78.73 189.58,78.73 192.2,78.73C194.83,78.73 197.45,78.73 200.08,78.72C202.7,78.71 205.33,78.7 207.95,78.69C210.58,78.68 213.2,78.66 215.83,78.64C218.46,78.62 221.08,78.59 223.71,78.56C226.33,78.53 228.96,78.49 231.58,78.46C234.21,78.42 236.83,78.39 239.46,78.35C242.09,78.31 244.71,78.26 247.34,78.22C249.96,78.18 252.59,78.14 255.21,78.09C257.84,78.04 260.46,77.99 263.09,77.94C265.71,77.89 268.34,77.83 270.96,77.78C273.59,77.73 276.21,77.67 278.84,77.62C281.47,77.57 284.09,77.51 286.72,77.46C289.34,77.41 291.97,77.36 294.59,77.31C297.22,77.26 299.84,77.21 302.47,77.16C305.1,77.11 307.72,77.06 310.35,77C312.97,76.94 315.6,76.87 318.22,76.79C320.85,76.71 323.47,76.63 326.1,76.53C328.72,76.43 331.35,76.33 333.97,76.21C336.6,76.09 339.22,75.96 341.85,75.83C344.48,75.69 347.1,75.55 349.73,75.4C352.35,75.26 354.98,75.11 357.6,74.96C360.23,74.81 362.85,74.66 365.48,74.51C368.1,74.37 370.73,74.23 373.35,74.09C375.98,73.95 378.6,73.82 381.23,73.69C383.86,73.56 386.48,73.44 389.11,73.31C391.73,73.18 394.36,73.05 396.98,72.92C399.61,72.79 402.23,72.67 404.86,72.54C407.49,72.41 410.11,72.27 412.74,72.14C415.36,72.01 417.99,71.88 420.61,71.75C423.24,71.62 425.86,71.49 428.49,71.36C431.11,71.23 433.74,71.11 436.36,70.98C438.99,70.85 441.61,70.73 444.24,70.59C446.87,70.45 449.49,70.32 452.12,70.16C454.74,70.01 457.37,69.84 459.99,69.66C462.62,69.48 465.24,69.27 467.87,69.06C470.5,68.84 473.12,68.61 475.75,68.37C478.37,68.13 481,67.87 483.62,67.61C486.25,67.35 488.87,67.07 491.5,66.79C494.12,66.51 496.75,66.23 499.37,65.95C502,65.67 504.62,65.38 507.25,65.09C509.88,64.81 512.5,64.53 515.13,64.24C517.75,63.95 520.38,63.66 523,63.37C525.63,63.08 528.25,62.79 530.88,62.49C533.5,62.19 536.13,61.89 538.75,61.57C541.38,61.25 544,60.92 546.63,60.57C549.26,60.22 551.89,59.85 554.51,59.45C557.14,59.05 559.76,58.63 562.38,58.19C565.01,57.74 567.63,57.27 570.26,56.78C572.89,56.29 575.51,55.77 578.14,55.27C580.76,54.77 583.38,54.25 586.01,53.78C588.63,53.31 591.26,52.85 593.89,52.46C596.51,52.07 599.13,51.72 601.76,51.44C604.38,51.16 607.01,50.94 609.64,50.77C612.26,50.6 614.89,50.5 617.52,50.41C620.14,50.32 622.77,50.29 625.39,50.24C628.02,50.19 630.64,50.15 633.27,50.09C635.89,50.03 638.52,49.96 641.14,49.88C643.77,49.8 646.39,49.71 649.02,49.63C651.65,49.55 654.27,49.45 656.9,49.41C659.52,49.37 662.15,49.34 664.77,49.37C667.4,49.4 670.02,49.48 672.65,49.62C675.28,49.76 677.91,49.96 680.53,50.2C683.16,50.44 685.78,50.74 688.4,51.06C691.03,51.38 693.66,51.76 696.28,52.13C698.91,52.5 701.53,52.91 704.15,53.3C706.78,53.7 709.4,54.1 712.03,54.5C714.66,54.9 717.28,55.31 719.91,55.72C722.53,56.13 725.16,56.54 727.78,56.96C730.41,57.38 733.03,57.79 735.66,58.22C738.29,58.65 740.92,59.09 743.54,59.54C746.17,59.99 748.79,60.45 751.41,60.92C754.04,61.39 756.67,61.88 759.29,62.37C761.92,62.87 764.54,63.38 767.16,63.89C769.79,64.4 772.41,64.92 775.04,65.43C777.67,65.95 780.29,66.47 782.92,66.98C785.54,67.49 788.16,67.99 790.79,68.48C793.41,68.97 796.04,69.44 798.67,69.9C801.29,70.36 803.91,70.81 806.54,71.23C809.16,71.65 811.79,72.05 814.42,72.44C817.05,72.82 819.67,73.19 822.3,73.54C824.92,73.88 827.54,74.21 830.17,74.51C832.79,74.81 835.42,75.08 838.05,75.33C840.68,75.57 843.3,75.79 845.93,75.98C848.55,76.17 851.18,76.34 853.8,76.48C856.43,76.63 859.05,76.74 861.68,76.85C864.3,76.96 866.93,77.05 869.55,77.14C872.18,77.23 874.8,77.3 877.43,77.38C880.06,77.46 882.68,77.54 885.31,77.61C887.93,77.68 890.56,77.76 893.18,77.82C895.81,77.89 898.43,77.94 901.06,78C903.69,78.06 906.31,78.12 908.94,78.17C911.56,78.22 914.19,78.26 916.81,78.3C919.44,78.34 922.06,78.37 924.69,78.4C927.31,78.43 929.94,78.45 932.56,78.48C935.19,78.51 937.81,78.54 940.44,78.56C943.07,78.58 945.69,78.6 948.32,78.62C950.94,78.64 953.57,78.65 956.19,78.66C958.82,78.67 961.44,78.69 964.07,78.7C966.69,78.71 969.32,78.72 971.94,78.73C974.57,78.74 977.19,78.75 979.82,78.76C982.45,78.77 985.07,78.77 987.7,78.78C990.32,78.78 992.95,78.79 995.57,78.79C998.2,78.8 1000.82,78.8 1003.45,78.81C1006.08,78.82 1008.7,78.82 1011.33,78.83C1013.95,78.83 1016.58,78.84 1019.2,78.84C1021.83,78.85 1024.45,78.86 1027.08,78.86C1029.7,78.86 1032.33,78.86 1034.95,78.86C1037.58,78.86 1040.2,78.87 1042.83,78.87C1045.46,78.87 1048.08,78.87 1050.71,78.88C1053.33,78.88 1055.96,78.89 1058.58,78.9C1061.21,78.91 1063.83,78.91 1066.46,78.92C1069.09,78.92 1071.71,78.92 1074.34,78.93C1076.96,78.93 1079.59,78.94 1082.21,78.95C1084.84,78.96 1087.46,78.96 1090.09,78.97C1092.71,78.97 1095.34,78.98 1097.96,78.98C1100.59,78.98 1103.21,78.99 1105.84,78.99C1108.47,78.99 1111.09,78.99 1113.72,78.99C1116.34,78.99 1118.97,78.99 1121.59,78.99C1124.22,78.99 1126.84,78.98 1129.47,78.98C1132.09,78.98 1134.72,78.97 1137.34,78.97C1139.97,78.97 1142.59,78.97 1145.22,78.97C1147.85,78.97 1150.47,78.96 1153.1,78.96C1155.72,78.96 1158.35,78.96 1160.97,78.96C1163.6,78.96 1166.22,78.96 1168.85,78.96C1171.48,78.96 1174.1,78.97 1176.73,78.97C1179.35,78.97 1181.98,78.98 1184.6,78.98C1187.23,78.98 1189.85,78.98 1192.48,78.98C1195.1,78.98 1197.73,78.99 1200.35,78.99Q1202.98,78.99 1208.23,78.99L1208.23,79" style="vector-effect: non-scaling-stroke; stroke-width: 2px; stroke: rgb(198, 53, 51); stroke-opacity: 1; fill: rgb(198, 53, 51); fill-opacity: 0.5;"/><path class="box" d="M629.74,77V67.12M547.04,77V67.12H701.44V77ZM547.04,77H315.48M701.44,77H929.93" style="vector-effect: non-scaling-stroke; stroke-width: 2px; stroke: rgb(198, 53, 51); stroke-opacity: 1; fill: rgb(198, 53, 51); fill-opacity: 0.5;"/></g><g class="trace violins" style="opacity: 1;"><path class="violin" d="M3.64,49.37L3.64,49.37Q8.23,49.37 10.52,49.37C12.81,49.37 15.11,49.36 17.4,49.36C19.69,49.36 21.98,49.35 24.27,49.35C26.56,49.35 28.86,49.34 31.15,49.34C33.44,49.34 35.74,49.34 38.03,49.34C40.32,49.34 42.61,49.33 44.9,49.33C47.19,49.33 49.49,49.33 51.78,49.33C54.07,49.33 56.36,49.34 58.65,49.34C60.94,49.34 63.24,49.34 65.53,49.34C67.82,49.34 70.12,49.34 72.41,49.34C74.7,49.34 76.99,49.33 79.28,49.33C81.57,49.33 83.87,49.33 86.16,49.33C88.45,49.33 90.75,49.32 93.04,49.31C95.33,49.31 97.62,49.3 99.91,49.3C102.2,49.3 104.5,49.29 106.79,49.29C109.08,49.29 111.37,49.28 113.66,49.28C115.95,49.28 118.25,49.28 120.54,49.28C122.83,49.28 125.13,49.28 127.42,49.28C129.71,49.28 132,49.29 134.29,49.29C136.58,49.29 138.88,49.3 141.17,49.3C143.46,49.31 145.76,49.31 148.05,49.32C150.34,49.32 152.63,49.33 154.92,49.33C157.21,49.33 159.51,49.34 161.8,49.34C164.09,49.34 166.38,49.35 168.67,49.35C170.96,49.35 173.26,49.35 175.55,49.35C177.84,49.35 180.14,49.34 182.43,49.34C184.72,49.34 187.01,49.34 189.3,49.34C191.59,49.34 193.89,49.33 196.18,49.32C198.47,49.32 200.77,49.32 203.06,49.31C205.35,49.31 207.64,49.3 209.93,49.29C212.22,49.28 214.52,49.28 216.81,49.27C219.1,49.26 221.4,49.24 223.69,49.23C225.98,49.22 228.27,49.21 230.56,49.2C232.85,49.19 235.15,49.17 237.44,49.16C239.73,49.15 242.02,49.13 244.31,49.12C246.6,49.11 248.9,49.09 251.19,49.08C253.48,49.07 255.78,49.05 258.07,49.04C260.36,49.03 262.65,49.01 264.94,49C267.23,48.98 269.53,48.97 271.82,48.95C274.11,48.93 276.41,48.92 278.7,48.9C280.99,48.88 283.28,48.86 285.57,48.84C287.86,48.82 290.16,48.79 292.45,48.76C294.74,48.73 297.03,48.7 299.32,48.66C301.61,48.62 303.91,48.58 306.2,48.54C308.49,48.5 310.79,48.45 313.08,48.4C315.37,48.35 317.66,48.29 319.95,48.23C322.24,48.17 324.54,48.1 326.83,48.04C329.12,47.98 331.42,47.92 333.71,47.85C336,47.78 338.29,47.71 340.58,47.64C342.87,47.57 345.17,47.5 347.46,47.42C349.75,47.34 352.04,47.26 354.33,47.17C356.62,47.08 358.92,46.99 361.21,46.88C363.5,46.77 365.8,46.65 368.09,46.53C370.38,46.41 372.67,46.27 374.96,46.14C377.25,46.01 379.55,45.87 381.84,45.73C384.13,45.59 386.43,45.45 388.72,45.31C391.01,45.17 393.3,45.03 395.59,44.9C397.88,44.77 400.18,44.64 402.47,44.52C404.76,44.4 407.06,44.28 409.35,44.16C411.64,44.05 413.93,43.93 416.22,43.83C418.51,43.72 420.81,43.63 423.1,43.53C425.39,43.43 427.68,43.33 429.97,43.23C432.26,43.12 434.56,43.02 436.85,42.9C439.14,42.78 441.44,42.66 443.73,42.52C446.02,42.38 448.31,42.24 450.6,42.08C452.89,41.92 455.19,41.75 457.48,41.58C459.77,41.41 462.07,41.22 464.36,41.04C466.65,40.86 468.94,40.67 471.23,40.49C473.52,40.31 475.82,40.13 478.11,39.95C480.4,39.77 482.69,39.59 484.98,39.41C487.27,39.23 489.57,39.04 491.86,38.85C494.15,38.65 496.45,38.46 498.74,38.24C501.03,38.03 503.32,37.79 505.61,37.56C507.9,37.32 510.2,37.08 512.49,36.83C514.78,36.58 517.08,36.33 519.37,36.08C521.66,35.83 523.95,35.58 526.24,35.33C528.53,35.08 530.83,34.83 533.12,34.58C535.41,34.33 537.7,34.07 539.99,33.81C542.28,33.54 544.58,33.28 546.87,32.99C549.16,32.7 551.46,32.39 553.75,32.06C556.04,31.72 558.33,31.37 560.62,30.98C562.91,30.59 565.21,30.16 567.5,29.72C569.8,29.27 572.09,28.8 574.38,28.31C576.67,27.82 578.96,27.3 581.25,26.79C583.54,26.28 585.84,25.76 588.13,25.26C590.42,24.76 592.71,24.27 595.01,23.81C597.3,23.36 599.59,22.92 601.88,22.53C604.17,22.14 606.46,21.79 608.76,21.48C611.05,21.17 613.34,20.91 615.63,20.69C617.92,20.47 620.22,20.3 622.51,20.16C624.8,20.02 627.1,19.93 629.39,19.86C631.68,19.79 633.97,19.76 636.26,19.75C638.55,19.74 640.85,19.75 643.14,19.78C645.43,19.81 647.73,19.87 650.02,19.95C652.31,20.03 654.6,20.12 656.89,20.24C659.18,20.36 661.48,20.51 663.77,20.68C666.06,20.85 668.35,21.05 670.64,21.28C672.93,21.51 675.23,21.78 677.52,22.08C679.82,22.38 682.11,22.71 684.4,23.06C686.69,23.41 688.98,23.8 691.27,24.2C693.56,24.6 695.86,25.04 698.15,25.47C700.44,25.91 702.74,26.36 705.03,26.81C707.32,27.26 709.61,27.72 711.9,28.17C714.19,28.62 716.49,29.07 718.78,29.5C721.07,29.93 723.36,30.36 725.65,30.77C727.94,31.18 730.24,31.58 732.53,31.98C734.82,32.38 737.12,32.78 739.41,33.18C741.7,33.58 743.99,33.98 746.28,34.39C748.57,34.8 750.87,35.21 753.16,35.63C755.45,36.05 757.75,36.48 760.04,36.91C762.33,37.34 764.62,37.77 766.91,38.2C769.2,38.63 771.5,39.06 773.79,39.48C776.08,39.9 778.38,40.32 780.67,40.72C782.96,41.12 785.25,41.52 787.54,41.9C789.83,42.28 792.13,42.64 794.42,42.98C796.71,43.32 799,43.64 801.29,43.94C803.58,44.24 805.88,44.53 808.17,44.79C810.46,45.05 812.76,45.28 815.05,45.5C817.34,45.72 819.63,45.91 821.92,46.09C824.21,46.27 826.51,46.42 828.8,46.57C831.09,46.72 833.39,46.85 835.68,46.97C837.97,47.09 840.26,47.21 842.55,47.31C844.84,47.42 847.14,47.51 849.43,47.6C851.72,47.69 854.01,47.78 856.3,47.87C858.59,47.96 860.89,48.04 863.18,48.12C865.47,48.2 867.77,48.28 870.06,48.35C872.35,48.42 874.64,48.5 876.93,48.56C879.22,48.63 881.52,48.69 883.81,48.74C886.1,48.79 888.4,48.84 890.69,48.88C892.98,48.92 895.27,48.96 897.56,48.99C899.85,49.02 902.15,49.04 904.44,49.06C906.73,49.08 909.02,49.1 911.31,49.11C913.6,49.12 915.9,49.13 918.19,49.14C920.48,49.15 922.78,49.15 925.07,49.16C927.36,49.16 929.65,49.17 931.94,49.17C934.23,49.18 936.53,49.18 938.82,49.19C941.11,49.2 943.41,49.21 945.7,49.22C947.99,49.23 950.28,49.24 952.57,49.25C954.86,49.26 957.16,49.26 959.45,49.27C961.74,49.28 964.04,49.28 966.33,49.29C968.62,49.3 970.91,49.31 973.2,49.31C975.49,49.32 977.79,49.32 980.08,49.32C982.37,49.32 984.66,49.32 986.95,49.32C989.24,49.32 991.54,49.33 993.83,49.33C996.12,49.33 998.42,49.33 1000.71,49.33C1003,49.33 1005.29,49.34 1007.58,49.34C1009.87,49.34 1012.17,49.34 1014.46,49.34C1016.75,49.34 1019.05,49.33 1021.34,49.33C1023.63,49.33 1025.92,49.33 1028.21,49.33C1030.5,49.33 1032.8,49.33 1035.09,49.33C1037.38,49.33 1039.67,49.34 1041.96,49.34C1044.25,49.34 1046.55,49.34 1048.84,49.34C1051.13,49.34 1053.43,49.35 1055.72,49.35C1058.01,49.35 1060.3,49.36 1062.59,49.36C1064.88,49.36 1067.18,49.37 1069.47,49.37C1071.76,49.37 1074.06,49.37 1076.35,49.37C1078.64,49.37 1080.93,49.37 1083.22,49.37C1085.51,49.37 1087.81,49.37 1090.1,49.37C1092.39,49.37 1094.68,49.37 1096.97,49.37C1099.26,49.37 1101.56,49.37 1103.85,49.37C1106.14,49.37 1108.44,49.37 1110.73,49.37C1113.02,49.37 1115.31,49.37 1117.6,49.37C1119.89,49.37 1122.19,49.37 1124.48,49.37C1126.77,49.37 1129.07,49.37 1131.36,49.37C1133.65,49.37 1135.94,49.37 1138.23,49.37C1140.52,49.37 1142.82,49.37 1145.11,49.37C1147.4,49.37 1149.7,49.37 1151.99,49.37C1154.28,49.37 1156.57,49.37 1158.86,49.37C1161.15,49.37 1163.45,49.37 1165.74,49.37C1168.03,49.37 1170.32,49.37 1172.61,49.37C1174.9,49.37 1177.2,49.37 1179.49,49.37C1181.78,49.37 1184.08,49.37 1186.37,49.37C1188.66,49.37 1190.95,49.37 1193.24,49.37C1195.53,49.37 1197.83,49.37 1200.12,49.37C1202.41,49.37 1204.71,49.37 1207,49.37C1209.29,49.37 1211.58,49.37 1213.87,49.37C1216.16,49.37 1218.46,49.37 1220.75,49.37C1223.04,49.37 1225.33,49.37 1227.62,49.37C1229.91,49.37 1232.21,49.37 1234.5,49.37C1236.79,49.37 1239.09,49.37 1241.38,49.37C1243.67,49.37 1245.96,49.36 1248.25,49.36C1250.54,49.36 1252.84,49.36 1255.13,49.36C1257.42,49.36 1259.72,49.35 1262.01,49.35C1264.3,49.35 1266.59,49.34 1268.88,49.34C1271.17,49.34 1273.47,49.34 1275.76,49.34C1278.05,49.34 1280.34,49.34 1282.63,49.34C1284.92,49.34 1287.22,49.34 1289.51,49.34C1291.8,49.34 1294.1,49.34 1296.39,49.34C1298.68,49.34 1300.97,49.35 1303.26,49.35C1305.55,49.35 1307.85,49.36 1310.14,49.36C1312.43,49.36 1314.73,49.37 1317.02,49.37Q1319.31,49.37 1323.89,49.37L1323.89,49.37" style="vector-effect: non-scaling-stroke; stroke-width: 2px; stroke: rgb(215, 48, 39); stroke-opacity: 1; fill: rgb(215, 48, 39); fill-opacity: 0.5;"/><path class="box" d="M629.96,47.37V37.5M556.76,47.37V37.5H691.74V47.37ZM556.76,47.37H354.43M691.74,47.37H892.45" style="vector-effect: non-scaling-stroke; stroke-width: 2px; stroke: rgb(215, 48, 39); stroke-opacity: 1; fill: rgb(215, 48, 39); fill-opacity: 0.5;"/></g></g></g><g class="overplot"/><path class="xlines-above crisp" d="M124,445.5H1320" style="fill: none; stroke-width: 1px; stroke: rgb(255, 255, 255); stroke-opacity: 1;"/><path class="ylines-above crisp" d="M124.5,50V445" style="fill: none; stroke-width: 1px; stroke: rgb(255, 255, 255); stroke-opacity: 1;"/><g class="overlines-above"/><g class="xaxislayer-above"><g class="xtick"><text text-anchor="middle" x="0" y="460.4" transform="translate(179.32,0)" style="font-family: 'Open Sans', verdana, arial, sans-serif; font-size: 12px; fill: rgb(42, 63, 95); fill-opacity: 1; white-space: pre;">10</text></g><g class="xtick"><text text-anchor="middle" x="0" y="460.4" transform="translate(450.91,0)" style="font-family: 'Open Sans', verdana, arial, sans-serif; font-size: 12px; fill: rgb(42, 63, 95); fill-opacity: 1; white-space: pre;">5</text></g><g class="xtick"><text text-anchor="middle" x="0" y="460.4" transform="translate(722.5,0)" style="font-family: 'Open Sans', verdana, arial, sans-serif; font-size: 12px; fill: rgb(42, 63, 95); fill-opacity: 1; white-space: pre;">0</text></g><g class="xtick"><text text-anchor="middle" x="0" y="460.4" transform="translate(994.09,0)" style="font-family: 'Open Sans', verdana, arial, sans-serif; font-size: 12px; fill: rgb(42, 63, 95); fill-opacity: 1; white-space: pre;">5</text></g><g class="xtick"><text text-anchor="middle" x="0" y="460.4" transform="translate(1265.68,0)" style="font-family: 'Open Sans', verdana, arial, sans-serif; font-size: 12px; fill: rgb(42, 63, 95); fill-opacity: 1; white-space: pre;">10</text></g></g><g class="yaxislayer-above"><g class="ytick"><text text-anchor="end" x="121.6" y="4.199999999999999" transform="translate(0,425.25)" style="font-family: 'Open Sans', verdana, arial, sans-serif; font-size: 12px; fill: rgb(42, 63, 95); fill-opacity: 1; white-space: pre;">Sample 11-1_A3</text></g><g class="ytick"><text text-anchor="end" x="121.6" y="4.199999999999999" transform="translate(0,395.63)" style="font-family: 'Open Sans', verdana, arial, sans-serif; font-size: 12px; fill: rgb(42, 63, 95); fill-opacity: 1; white-space: pre;">Sample 4-2_B2</text></g><g class="ytick"><text text-anchor="end" x="121.6" y="4.199999999999999" transform="translate(0,366)" style="font-family: 'Open Sans', verdana, arial, sans-serif; font-size: 12px; fill: rgb(42, 63, 95); fill-opacity: 1; white-space: pre;">Sample 80-1_H3</text></g><g class="ytick"><text text-anchor="end" x="121.6" y="4.199999999999999" transform="translate(0,336.38)" style="font-family: 'Open Sans', verdana, arial, sans-serif; font-size: 12px; fill: rgb(42, 63, 95); fill-opacity: 1; white-space: pre;">Sample 7-2_F2</text></g><g class="ytick"><text text-anchor="end" x="121.6" y="4.199999999999999" transform="translate(0,306.75)" style="font-family: 'Open Sans', verdana, arial, sans-serif; font-size: 12px; fill: rgb(42, 63, 95); fill-opacity: 1; white-space: pre;">Sample 79-2_G3</text></g><g class="ytick"><text text-anchor="end" x="121.6" y="4.199999999999999" transform="translate(0,277.12)" style="font-family: 'Open Sans', verdana, arial, sans-serif; font-size: 12px; fill: rgb(42, 63, 95); fill-opacity: 1; white-space: pre;">Sample 134-2_A5</text></g><g class="ytick"><text text-anchor="end" x="121.6" y="4.199999999999999" transform="translate(0,247.5)" style="font-family: 'Open Sans', verdana, arial, sans-serif; font-size: 12px; fill: rgb(42, 63, 95); fill-opacity: 1; white-space: pre;">Sample 69-1_F3</text></g><g class="ytick"><text text-anchor="end" x="121.6" y="4.199999999999999" transform="translate(0,217.87)" style="font-family: 'Open Sans', verdana, arial, sans-serif; font-size: 12px; fill: rgb(42, 63, 95); fill-opacity: 1; white-space: pre;">Sample 117-2_C4</text></g><g class="ytick"><text text-anchor="end" x="121.6" y="4.199999999999999" transform="translate(0,188.25)" style="font-family: 'Open Sans', verdana, arial, sans-serif; font-size: 12px; fill: rgb(42, 63, 95); fill-opacity: 1; white-space: pre;">Sample 131-1_F4</text></g><g class="ytick"><text text-anchor="end" x="121.6" y="4.199999999999999" transform="translate(0,158.62)" style="font-family: 'Open Sans', verdana, arial, sans-serif; font-size: 12px; fill: rgb(42, 63, 95); fill-opacity: 1; white-space: pre;">Sample 7-1_E2</text></g><g class="ytick"><text text-anchor="end" x="121.6" y="4.199999999999999" transform="translate(0,129)" style="font-family: 'Open Sans', verdana, arial, sans-serif; font-size: 12px; fill: rgb(42, 63, 95); fill-opacity: 1; white-space: pre;">Sample 134-1_H4</text></g><g class="ytick"><text text-anchor="end" x="121.6" y="4.199999999999999" transform="translate(0,99.37)" style="font-family: 'Open Sans', verdana, arial, sans-serif; font-size: 12px; fill: rgb(42, 63, 95); fill-opacity: 1; white-space: pre;">Sample 4-1_B2</text></g></g><g class="overaxes-above"/></g></g><g class="polarlayer"/><g class="ternarylayer"/><g class="geolayer"/><g class="funnelarealayer"/><g class="pielayer"/><g class="treemaplayer"/><g class="sunburstlayer"/><g class="glimages"/><defs id="topdefs-06bfbe"><g class="clips"/></defs><g class="layer-above"><g class="imagelayer"/><g class="shapelayer"/></g><g class="infolayer"><g class="g-gtitle"/><g class="g-xtitle"><text class="xtitle" x="722.5" y="488.20625" text-anchor="middle" style="font-family: 'Open Sans', verdana, arial, sans-serif; font-size: 14px; fill: rgb(42, 63, 95); opacity: 1; font-weight: normal; white-space: pre;">CpG median log likelihood ratio</text></g><g class="g-ytitle"/><g class="annotation" data-index="0" style="opacity: 1;"><g class="annotation-text-g" transform="rotate(0,722.5,35.79999999999998)"><g class="cursor-pointer" transform="translate(687, 26)"><rect class="bg" x="0.5" y="0.5" width="70" height="18" style="stroke-width: 1px; stroke: rgb(0, 0, 0); stroke-opacity: 0; fill: rgb(0, 0, 0); fill-opacity: 0;"/><text class="annotation-text" text-anchor="middle" x="35.421875" y="14" style="font-family: 'Open Sans', verdana, arial, sans-serif; font-size: 12px; fill: rgb(100, 100, 100); fill-opacity: 1; white-space: pre;">Ambiguous</text></g></g></g><g class="annotation" data-index="1" style="opacity: 1;"><g class="annotation-text-g" transform="rotate(0,396.59,35.79999999999998)"><g class="cursor-pointer" transform="translate(353, 26)"><rect class="bg" x="0.5" y="0.5" width="87" height="18" style="stroke-width: 1px; stroke: rgb(0, 0, 0); stroke-opacity: 0; fill: rgb(0, 0, 0); fill-opacity: 0;"/><text class="annotation-text" text-anchor="middle" x="44.1875" y="14" style="font-family: 'Open Sans', verdana, arial, sans-serif; font-size: 12px; fill: rgb(33, 102, 172); fill-opacity: 1; white-space: pre;">Unmethylated</text></g></g></g><g class="annotation" data-index="2" style="opacity: 1;"><g class="annotation-text-g" transform="rotate(0,1048.4099999999999,35.79999999999998)"><g class="cursor-pointer" transform="translate(1013, 26)"><rect class="bg" x="0.5" y="0.5" width="69" height="18" style="stroke-width: 1px; stroke: rgb(0, 0, 0); stroke-opacity: 0; fill: rgb(0, 0, 0); fill-opacity: 0;"/><text class="annotation-text" text-anchor="middle" x="35.21875" y="14" style="font-family: 'Open Sans', verdana, arial, sans-serif; font-size: 12px; fill: rgb(215, 48, 39); fill-opacity: 1; white-space: pre;">Methylated</text></g></g></g></g></svg>