<svg class="main-svg" xmlns="http://www.w3.org/2000/svg" xmlns:xlink="http://www.w3.org/1999/xlink" width="1400" height="500" style="" viewBox="0 0 1400 500"><rect x="0" y="0" width="1400" height="500" style="fill: rgb(255, 255, 255); fill-opacity: 1;"/><defs id="defs-1511d1"><g class="clips"><clipPath id="clip1511d1xyplot" class="plotclip"><rect width="1197" height="397"/></clipPath><clipPath class="axesclip" id="clip1511d1x"><rect x="123" y="0" width="1197" height="500"/></clipPath><clipPath class="axesclip" id="clip1511d1y"><rect x="0" y="50" width="1400" height="397"/></clipPath><clipPath class="axesclip" id="clip1511d1xy"><rect x="123" y="50" width="1197" height="397"/></clipPath></g><g class="gradients"/></defs><g class="bglayer"><rect class="bg" x="123" y="50" width="1197" height="397" style="fill: rgb(0, 0, 0); fill-opacity: 0; stroke-width: 0;"/></g><g class="layer-below"><g class="imagelayer"/><g class="shapelayer"><path data-index="0" fill-rule="evenodd" d="M667.09,447H775.91V50H667.09Z" clip-path="url('#clip1511d1x')" style="opacity: 0.25; stroke: rgb(0, 0, 0); stroke-opacity: 0; fill: rgb(100, 100, 100); fill-opacity: 1; stroke-width: 0px;"/></g></g><g class="cartesianlayer"><g class="subplot xy"><g class="layer-subplot"><g class="shapelayer"/><g class="imagelayer"/></g><g class="gridlayer"><g class="x"/><g class="y"><path class="ygrid crisp" transform="translate(0,427.15)" d="M123,0h1197" style="stroke: rgb(211, 211, 211); stroke-opacity: 1; stroke-width: 1px;"/><path class="ygrid crisp" transform="translate(0,397.38)" d="M123,0h1197" style="stroke: rgb(211, 211, 211); stroke-opacity: 1; stroke-width: 1px;"/><path class="ygrid crisp" transform="translate(0,367.6)" d="M123,0h1197" style="stroke: rgb(211, 211, 211); stroke-opacity: 1; stroke-width: 1px;"/><path class="ygrid crisp" transform="translate(0,337.83)" d="M123,0h1197" style="stroke: rgb(211, 211, 211); stroke-opacity: 1; stroke-width: 1px;"/><path class="ygrid crisp" transform="translate(0,308.05)" d="M123,0h1197" style="stroke: rgb(211, 211, 211); stroke-opacity: 1; stroke-width: 1px;"/><path class="ygrid crisp" transform="translate(0,278.28)" d="M123,0h1197" style="stroke: rgb(211, 211, 211); stroke-opacity: 1; stroke-width: 1px;"/><path class="ygrid crisp" transform="translate(0,248.5)" d="M123,0h1197" style="stroke: rgb(211, 211, 211); stroke-opacity: 1; stroke-width: 1px;"/><path class="ygrid crisp" transform="translate(0,218.73)" d="M123,0h1197" style="stroke: rgb(211, 211, 211); stroke-opacity: 1; stroke-width: 1px;"/><path class="ygrid crisp" transform="translate(0,188.95)" d="M123,0h1197" style="stroke: rgb(211, 211, 211); stroke-opacity: 1; stroke-width: 1px;"/><path class="ygrid crisp" transform="translate(0,159.18)" d="M123,0h1197" style="stroke: rgb(211, 211, 211); stroke-opacity: 1; stroke-width: 1px;"/><path class="ygrid crisp" transform="translate(0,129.4)" d="M123,0h1197" style="stroke: rgb(211, 211, 211); stroke-opacity: 1; stroke-width: 1px;"/><path class="ygrid crisp" transform="translate(0,99.63)" d="M123,0h1197" style="stroke: rgb(211, 211, 211); stroke-opacity: 1; stroke-width: 1px;"/></g></g><g class="zerolinelayer"/><path class="xlines-below"/><path class="ylines-below"/><g class="overlines-below"/><g class="xaxislayer-below"/><g class="yaxislayer-below"/><g class="overaxes-below"/><g class="plot" transform="translate(123, 50)" clip-path="url('#clip1511d1xyplot')"><g class="violinlayer mlayer"><g class="trace violins" style="opacity: 1;"><path class="violin" d="M-13.27,377.15L-13.27,377.14Q-8.28,377.13 -5.78,377.13C-3.28,377.12 -0.79,377.12 1.71,377.11C4.21,377.11 6.7,377.1 9.2,377.1C11.7,377.09 14.2,377.09 16.7,377.08C19.2,377.08 21.69,377.07 24.19,377.07C26.69,377.07 29.18,377.06 31.68,377.06C34.18,377.06 36.67,377.07 39.17,377.07C41.67,377.07 44.16,377.08 46.66,377.08C49.16,377.09 51.65,377.09 54.15,377.1C56.65,377.1 59.14,377.11 61.64,377.11C64.14,377.12 66.64,377.12 69.14,377.13C71.64,377.13 74.13,377.14 76.63,377.14C79.13,377.14 81.62,377.14 84.12,377.14C86.62,377.14 89.11,377.15 91.61,377.15C94.11,377.15 96.6,377.15 99.1,377.15C101.6,377.15 104.09,377.15 106.59,377.15C109.09,377.15 111.59,377.15 114.09,377.15C116.59,377.15 119.08,377.15 121.58,377.15C124.08,377.15 126.57,377.14 129.07,377.14C131.57,377.14 134.06,377.14 136.56,377.14C139.06,377.14 141.55,377.13 144.05,377.13C146.55,377.12 149.04,377.12 151.54,377.11C154.04,377.1 156.54,377.1 159.04,377.09C161.54,377.08 164.03,377.07 166.53,377.06C169.03,377.05 171.52,377.04 174.02,377.03C176.52,377.02 179.01,377 181.51,376.99C184.01,376.98 186.5,376.97 189,376.96C191.5,376.95 193.99,376.94 196.49,376.93C198.99,376.92 201.49,376.92 203.99,376.91C206.49,376.9 208.98,376.9 211.48,376.89C213.98,376.88 216.47,376.88 218.97,376.87C221.47,376.86 223.96,376.86 226.46,376.85C228.96,376.84 231.45,376.83 233.95,376.82C236.45,376.81 238.94,376.81 241.44,376.8C243.94,376.79 246.44,376.77 248.94,376.76C251.44,376.75 253.93,376.73 256.43,376.72C258.93,376.7 261.42,376.69 263.92,376.67C266.42,376.65 268.91,376.63 271.41,376.61C273.91,376.59 276.4,376.58 278.9,376.56C281.4,376.54 283.89,376.52 286.39,376.5C288.89,376.48 291.39,376.46 293.89,376.44C296.39,376.42 298.88,376.4 301.38,376.37C303.88,376.34 306.37,376.32 308.87,376.28C311.37,376.24 313.86,376.19 316.36,376.14C318.86,376.08 321.35,376.02 323.85,375.95C326.35,375.88 328.84,375.79 331.34,375.7C333.84,375.6 336.33,375.49 338.83,375.38C341.33,375.27 343.83,375.15 346.33,375.03C348.83,374.91 351.32,374.78 353.82,374.66C356.32,374.53 358.81,374.41 361.31,374.28C363.81,374.15 366.3,374.03 368.8,373.9C371.3,373.77 373.79,373.64 376.29,373.5C378.79,373.36 381.28,373.21 383.78,373.06C386.28,372.9 388.78,372.74 391.28,372.57C393.78,372.4 396.27,372.21 398.77,372.02C401.27,371.83 403.76,371.63 406.26,371.42C408.76,371.21 411.25,370.98 413.75,370.76C416.25,370.54 418.74,370.31 421.24,370.08C423.74,369.85 426.23,369.6 428.73,369.36C431.23,369.12 433.73,368.88 436.23,368.63C438.73,368.39 441.22,368.14 443.72,367.89C446.22,367.64 448.71,367.39 451.21,367.13C453.71,366.87 456.2,366.61 458.7,366.34C461.2,366.07 463.69,365.8 466.19,365.51C468.69,365.22 471.18,364.92 473.68,364.6C476.18,364.28 478.68,363.94 481.18,363.58C483.68,363.22 486.18,362.83 488.67,362.43C491.17,362.02 493.67,361.6 496.16,361.15C498.66,360.7 501.15,360.22 503.65,359.74C506.15,359.26 508.64,358.75 511.14,358.26C513.64,357.77 516.13,357.27 518.63,356.79C521.13,356.32 523.63,355.84 526.13,355.41C528.63,354.98 531.12,354.57 533.62,354.19C536.11,353.81 538.61,353.46 541.11,353.14C543.6,352.82 546.1,352.54 548.6,352.26C551.1,351.99 553.59,351.74 556.09,351.49C558.59,351.24 561.08,351.01 563.58,350.78C566.08,350.55 568.58,350.34 571.08,350.12C573.58,349.91 576.07,349.69 578.57,349.49C581.07,349.29 583.56,349.09 586.06,348.9C588.56,348.71 591.05,348.53 593.55,348.36C596.05,348.2 598.54,348.04 601.04,347.91C603.54,347.78 606.03,347.66 608.53,347.57C611.03,347.48 613.53,347.41 616.03,347.38C618.53,347.35 621.02,347.35 623.52,347.38C626.02,347.41 628.51,347.46 631.01,347.54C633.51,347.62 636,347.73 638.5,347.85C641,347.97 643.49,348.11 645.99,348.25C648.49,348.39 650.98,348.55 653.48,348.71C655.98,348.87 658.47,349.03 660.97,349.2C663.47,349.37 665.97,349.55 668.47,349.75C670.97,349.95 673.46,350.16 675.96,350.4C678.46,350.64 680.95,350.9 683.45,351.18C685.95,351.46 688.44,351.77 690.94,352.1C693.44,352.43 695.93,352.79 698.43,353.17C700.93,353.55 703.42,353.95 705.92,354.37C708.42,354.79 710.92,355.22 713.42,355.67C715.92,356.12 718.41,356.59 720.91,357.06C723.41,357.54 725.9,358.02 728.4,358.52C730.9,359.02 733.39,359.54 735.89,360.06C738.39,360.58 740.88,361.12 743.38,361.66C745.88,362.2 748.37,362.76 750.87,363.31C753.37,363.86 755.87,364.42 758.37,364.96C760.87,365.5 763.36,366.04 765.86,366.56C768.36,367.08 770.85,367.59 773.35,368.07C775.84,368.55 778.34,369.01 780.84,369.44C783.33,369.87 785.83,370.28 788.33,370.66C790.82,371.04 793.32,371.38 795.82,371.7C798.32,372.02 800.82,372.32 803.32,372.59C805.82,372.86 808.31,373.11 810.81,373.34C813.31,373.57 815.8,373.77 818.3,373.96C820.8,374.15 823.29,374.32 825.79,374.48C828.29,374.64 830.78,374.78 833.28,374.91C835.78,375.04 838.27,375.17 840.77,375.28C843.27,375.39 845.77,375.49 848.27,375.59C850.77,375.68 853.26,375.77 855.76,375.85C858.26,375.93 860.75,376 863.25,376.06C865.75,376.12 868.24,376.18 870.74,376.23C873.24,376.28 875.73,376.32 878.23,376.36C880.73,376.4 883.22,376.44 885.72,376.47C888.22,376.5 890.72,376.52 893.22,376.55C895.72,376.57 898.21,376.6 900.71,376.62C903.21,376.64 905.7,376.67 908.2,376.69C910.7,376.71 913.19,376.73 915.69,376.75C918.19,376.77 920.68,376.78 923.18,376.79C925.68,376.8 928.17,376.81 930.67,376.82C933.17,376.83 935.66,376.83 938.16,376.84C940.66,376.85 943.16,376.85 945.66,376.86C948.16,376.86 950.65,376.87 953.15,376.87C955.65,376.87 958.14,376.87 960.64,376.88C963.14,376.89 965.63,376.9 968.13,376.91C970.63,376.92 973.12,376.93 975.62,376.94C978.12,376.95 980.61,376.96 983.11,376.97C985.61,376.98 988.11,376.99 990.61,377C993.11,377.01 995.6,377.02 998.1,377.03C1000.6,377.04 1003.09,377.04 1005.59,377.05C1008.09,377.05 1010.58,377.06 1013.08,377.06C1015.58,377.06 1018.07,377.06 1020.57,377.06C1023.07,377.06 1025.56,377.06 1028.06,377.06C1030.56,377.06 1033.06,377.06 1035.56,377.06C1038.06,377.06 1040.55,377.07 1043.05,377.07C1045.55,377.07 1048.04,377.08 1050.54,377.08C1053.04,377.09 1055.53,377.09 1058.03,377.1C1060.53,377.11 1063.02,377.11 1065.52,377.12C1068.02,377.12 1070.51,377.13 1073.01,377.13Q1075.51,377.13 1080.51,377.14L1080.51,377.15" style="vector-effect: non-scaling-stroke; stroke-width: 2px; stroke: rgb(33, 102, 172); stroke-opacity: 1; fill: rgb(33, 102, 172); fill-opacity: 0.5;"/><path class="box" d="M612.05,375.15V365.23M537.07,375.15V365.23H682.34V375.15ZM537.07,375.15H323.19M682.34,375.15H897.75" style="vector-effect: non-scaling-stroke; stroke-width: 2px; stroke: rgb(33, 102, 172); stroke-opacity: 1; fill: rgb(33, 102, 172); fill-opacity: 0.5;"/></g><g class="trace violins" style="opacity: 1;"><path class="violin" d="M16.28,347.38L16.28,347.37Q21.01,347.37 23.38,347.37C25.75,347.37 28.11,347.36 30.48,347.36C32.85,347.36 35.21,347.35 37.58,347.35C39.95,347.35 42.31,347.34 44.68,347.34C47.05,347.34 49.41,347.34 51.78,347.34C54.15,347.34 56.51,347.34 58.88,347.34C61.24,347.34 63.61,347.34 65.97,347.34C68.34,347.34 70.7,347.34 73.07,347.34C75.44,347.34 77.8,347.35 80.17,347.35C82.54,347.35 84.9,347.36 87.27,347.36C89.64,347.36 92,347.36 94.37,347.36C96.74,347.36 99.1,347.37 101.47,347.37C103.84,347.37 106.2,347.37 108.57,347.37C110.94,347.37 113.3,347.37 115.67,347.37C118.04,347.37 120.4,347.37 122.77,347.37C125.14,347.37 127.5,347.37 129.87,347.37C132.24,347.37 134.6,347.37 136.97,347.36C139.33,347.36 141.7,347.34 144.06,347.34C146.43,347.33 148.79,347.33 151.16,347.33C153.53,347.32 155.89,347.32 158.26,347.31C160.63,347.3 162.99,347.29 165.36,347.28C167.73,347.27 170.09,347.27 172.46,347.26C174.83,347.25 177.19,347.25 179.56,347.24C181.93,347.23 184.29,347.22 186.66,347.21C189.03,347.2 191.39,347.19 193.76,347.18C196.13,347.17 198.49,347.16 200.86,347.15C203.23,347.14 205.59,347.13 207.96,347.12C210.32,347.11 212.69,347.1 215.05,347.09C217.42,347.08 219.78,347.06 222.15,347.05C224.52,347.04 226.88,347.03 229.25,347.02C231.62,347.01 233.98,346.99 236.35,346.98C238.72,346.97 241.08,346.95 243.45,346.94C245.82,346.92 248.18,346.91 250.55,346.89C252.92,346.87 255.28,346.86 257.65,346.84C260.02,346.83 262.38,346.81 264.75,346.8C267.12,346.78 269.48,346.77 271.85,346.75C274.22,346.74 276.58,346.72 278.95,346.71C281.32,346.69 283.68,346.68 286.05,346.66C288.41,346.64 290.78,346.62 293.14,346.6C295.51,346.58 297.87,346.55 300.24,346.52C302.61,346.49 304.97,346.46 307.34,346.42C309.71,346.38 312.07,346.34 314.44,346.3C316.81,346.25 319.17,346.21 321.54,346.15C323.91,346.09 326.27,346.03 328.64,345.96C331.01,345.89 333.37,345.81 335.74,345.73C338.11,345.65 340.47,345.56 342.84,345.47C345.21,345.38 347.57,345.27 349.94,345.17C352.31,345.07 354.67,344.96 357.04,344.85C359.4,344.74 361.77,344.62 364.13,344.51C366.5,344.39 368.86,344.28 371.23,344.16C373.6,344.04 375.96,343.93 378.33,343.8C380.7,343.67 383.06,343.54 385.43,343.39C387.8,343.24 390.16,343.09 392.53,342.92C394.9,342.75 397.26,342.57 399.63,342.39C402,342.21 404.36,342.01 406.73,341.82C409.1,341.63 411.46,341.43 413.83,341.24C416.2,341.05 418.56,340.85 420.93,340.67C423.3,340.49 425.66,340.32 428.03,340.16C430.4,340 432.76,339.85 435.13,339.7C437.49,339.56 439.86,339.42 442.22,339.29C444.59,339.16 446.95,339.04 449.32,338.92C451.69,338.8 454.05,338.68 456.42,338.56C458.79,338.44 461.15,338.32 463.52,338.19C465.89,338.05 468.25,337.91 470.62,337.75C472.99,337.59 475.35,337.41 477.72,337.21C480.09,337.01 482.45,336.78 484.82,336.53C487.19,336.27 489.56,335.99 491.92,335.68C494.29,335.37 496.66,335.02 499.02,334.65C501.39,334.28 503.76,333.88 506.12,333.46C508.49,333.04 510.85,332.59 513.21,332.14C515.58,331.69 517.94,331.22 520.31,330.77C522.68,330.32 525.04,329.86 527.41,329.43C529.78,329 532.14,328.58 534.51,328.19C536.87,327.8 539.24,327.43 541.61,327.08C543.98,326.73 546.34,326.4 548.71,326.07C551.08,325.74 553.44,325.42 555.81,325.08C558.18,324.74 560.54,324.38 562.91,324.01C565.28,323.63 567.64,323.24 570.01,322.83C572.38,322.42 574.74,321.99 577.11,321.57C579.48,321.15 581.84,320.71 584.21,320.32C586.57,319.93 588.93,319.54 591.3,319.21C593.66,318.88 596.03,318.59 598.4,318.35C600.76,318.12 603.13,317.93 605.5,317.8C607.87,317.68 610.23,317.61 612.6,317.6C614.97,317.59 617.33,317.65 619.7,317.74C622.07,317.83 624.43,317.99 626.8,318.17C629.17,318.35 631.53,318.58 633.9,318.82C636.27,319.06 638.63,319.34 641,319.63C643.37,319.92 645.73,320.23 648.1,320.54C650.47,320.85 652.83,321.18 655.2,321.5C657.56,321.82 659.93,322.15 662.29,322.47C664.66,322.79 667.02,323.11 669.39,323.42C671.76,323.73 674.12,324.02 676.49,324.31C678.86,324.6 681.22,324.87 683.59,325.14C685.96,325.41 688.32,325.66 690.69,325.92C693.06,326.18 695.42,326.43 697.79,326.69C700.16,326.96 702.52,327.22 704.89,327.51C707.26,327.8 709.62,328.12 711.99,328.45C714.36,328.79 716.72,329.14 719.09,329.52C721.46,329.9 723.82,330.3 726.19,330.71C728.56,331.12 730.92,331.55 733.29,331.98C735.65,332.41 738.02,332.85 740.38,333.28C742.75,333.71 745.11,334.15 747.48,334.57C749.85,334.99 752.21,335.4 754.58,335.8C756.95,336.2 759.31,336.6 761.68,336.98C764.05,337.36 766.41,337.73 768.78,338.09C771.15,338.45 773.51,338.8 775.88,339.15C778.25,339.5 780.61,339.84 782.98,340.18C785.35,340.52 787.71,340.85 790.08,341.18C792.45,341.5 794.81,341.82 797.18,342.13C799.55,342.43 801.91,342.73 804.28,343.01C806.64,343.29 809,343.56 811.37,343.8C813.73,344.04 816.1,344.26 818.47,344.47C820.84,344.67 823.2,344.86 825.57,345.03C827.94,345.2 830.3,345.35 832.67,345.49C835.04,345.62 837.4,345.73 839.77,345.84C842.14,345.95 844.5,346.04 846.87,346.13C849.24,346.22 851.6,346.29 853.97,346.36C856.34,346.43 858.7,346.48 861.07,346.54C863.44,346.59 865.8,346.65 868.17,346.69C870.54,346.73 872.9,346.76 875.27,346.79C877.64,346.81 880,346.83 882.37,346.84C884.73,346.85 887.1,346.86 889.46,346.86C891.83,346.86 894.19,346.85 896.56,346.85C898.93,346.84 901.29,346.84 903.66,346.83C906.03,346.83 908.39,346.82 910.76,346.82C913.13,346.82 915.49,346.81 917.86,346.82C920.23,346.83 922.59,346.85 924.96,346.86C927.33,346.88 929.69,346.89 932.06,346.91C934.43,346.93 936.79,346.95 939.16,346.97C941.53,346.99 943.89,347.01 946.26,347.03C948.63,347.05 950.99,347.06 953.36,347.08C955.72,347.1 958.09,347.12 960.45,347.13C962.82,347.14 965.18,347.15 967.55,347.16C969.92,347.17 972.28,347.17 974.65,347.17C977.02,347.18 979.38,347.18 981.75,347.19C984.12,347.19 986.48,347.2 988.85,347.2C991.22,347.2 993.58,347.21 995.95,347.21C998.32,347.21 1000.68,347.21 1003.05,347.21C1005.42,347.21 1007.78,347.22 1010.15,347.22C1012.52,347.22 1014.88,347.23 1017.25,347.23C1019.62,347.23 1021.98,347.24 1024.35,347.24C1026.71,347.24 1029.08,347.25 1031.44,347.25C1033.81,347.26 1036.17,347.26 1038.54,347.27C1040.91,347.27 1043.27,347.28 1045.64,347.28C1048.01,347.28 1050.37,347.29 1052.74,347.29C1055.11,347.3 1057.47,347.3 1059.84,347.31C1062.21,347.31 1064.57,347.32 1066.94,347.32C1069.31,347.32 1071.67,347.33 1074.04,347.33C1076.41,347.33 1078.77,347.34 1081.14,347.34C1083.51,347.34 1085.87,347.35 1088.24,347.35C1090.61,347.35 1092.97,347.36 1095.34,347.36C1097.71,347.36 1100.07,347.36 1102.44,347.36C1104.8,347.36 1107.17,347.37 1109.53,347.37C1111.9,347.37 1114.26,347.37 1116.63,347.37C1119,347.37 1121.36,347.37 1123.73,347.37C1126.1,347.37 1128.46,347.37 1130.83,347.37C1133.2,347.37 1135.56,347.37 1137.93,347.37C1140.3,347.37 1142.66,347.37 1145.03,347.37C1147.4,347.37 1149.76,347.37 1152.13,347.37C1154.5,347.37 1156.86,347.37 1159.23,347.37C1161.6,347.37 1163.96,347.37 1166.33,347.37C1168.7,347.37 1171.06,347.37 1173.43,347.37C1175.79,347.37 1178.16,347.37 1180.52,347.37C1182.89,347.37 1185.25,347.37 1187.62,347.37C1189.99,347.37 1192.35,347.37 1194.72,347.37C1197.09,347.37 1199.45,347.37 1201.82,347.37C1204.19,347.37 1206.55,347.37 1208.92,347.37C1211.29,347.37 1213.65,347.37 1216.02,347.37C1218.39,347.37 1220.75,347.37 1223.12,347.37C1225.49,347.37 1227.85,347.37 1230.22,347.37C1232.59,347.37 1234.95,347.36 1237.32,347.36C1239.69,347.36 1242.05,347.35 1244.42,347.35C1246.79,347.35 1249.15,347.34 1251.52,347.34C1253.88,347.34 1256.25,347.34 1258.61,347.34C1260.98,347.34 1263.34,347.34 1265.71,347.34C1268.08,347.34 1270.44,347.34 1272.81,347.34C1275.18,347.34 1277.54,347.34 1279.91,347.34C1282.28,347.34 1284.64,347.35 1287.01,347.35C1289.38,347.35 1291.74,347.36 1294.11,347.36C1296.48,347.36 1298.84,347.37 1301.21,347.37Q1303.58,347.37 1308.31,347.37L1308.31,347.38" style="vector-effect: non-scaling-stroke; stroke-width: 2px; stroke: rgb(50, 97, 160); stroke-opacity: 1; fill: rgb(50, 97, 160); fill-opacity: 0.5;"/><path class="box" d="M613.46,345.38V335.45M541.76,345.38V335.45H681.2V345.38ZM541.76,345.38H337.61M681.2,345.38H878.27" style="vector-effect: non-scaling-stroke; stroke-width: 2px; stroke: rgb(50, 97, 160); stroke-opacity: 1; fill: rgb(50, 97, 160); fill-opacity: 0.5;"/></g><g class="trace violins" style="opacity: 1;"><path class="violin" d="M51.76,317.6L51.76,317.59Q56.81,317.59 59.34,317.59C61.87,317.59 64.4,317.59 66.93,317.58C69.46,317.58 71.98,317.56 74.51,317.56C77.04,317.55 79.57,317.56 82.1,317.55C84.63,317.55 87.15,317.53 89.68,317.53C92.21,317.52 94.74,317.52 97.27,317.52C99.8,317.52 102.32,317.52 104.85,317.52C107.38,317.52 109.9,317.52 112.43,317.52C114.96,317.52 117.49,317.53 120.02,317.53C122.55,317.53 125.07,317.54 127.6,317.54C130.13,317.54 132.66,317.55 135.19,317.55C137.72,317.55 140.24,317.56 142.77,317.56C145.3,317.56 147.83,317.56 150.36,317.56C152.89,317.56 155.41,317.55 157.94,317.55C160.47,317.55 163,317.55 165.53,317.54C168.06,317.54 170.58,317.53 173.11,317.52C175.64,317.51 178.16,317.5 180.69,317.49C183.22,317.48 185.75,317.47 188.28,317.46C190.81,317.45 193.33,317.44 195.86,317.43C198.39,317.42 200.92,317.4 203.45,317.38C205.98,317.37 208.5,317.35 211.03,317.34C213.56,317.33 216.09,317.32 218.62,317.31C221.15,317.3 223.67,317.28 226.2,317.27C228.73,317.26 231.26,317.25 233.79,317.24C236.32,317.23 238.84,317.23 241.37,317.22C243.9,317.21 246.42,317.2 248.95,317.19C251.48,317.18 254.01,317.17 256.54,317.15C259.07,317.14 261.59,317.12 264.12,317.1C266.65,317.08 269.18,317.06 271.71,317.03C274.24,317 276.76,316.97 279.29,316.94C281.82,316.91 284.35,316.87 286.88,316.84C289.41,316.81 291.93,316.77 294.46,316.74C296.99,316.71 299.52,316.68 302.05,316.64C304.58,316.61 307.1,316.57 309.63,316.53C312.16,316.49 314.69,316.45 317.22,316.4C319.75,316.35 322.27,316.29 324.8,316.22C327.33,316.15 329.85,316.06 332.38,315.97C334.91,315.88 337.44,315.77 339.97,315.66C342.5,315.55 345.02,315.42 347.55,315.29C350.08,315.16 352.61,315.01 355.14,314.86C357.67,314.71 360.19,314.56 362.72,314.4C365.25,314.24 367.78,314.08 370.31,313.92C372.84,313.76 375.36,313.59 377.89,313.42C380.42,313.25 382.95,313.07 385.48,312.9C388.01,312.73 390.53,312.56 393.06,312.38C395.59,312.2 398.11,312.02 400.64,311.84C403.17,311.66 405.7,311.48 408.23,311.29C410.76,311.11 413.28,310.92 415.81,310.73C418.34,310.54 420.87,310.33 423.4,310.13C425.93,309.93 428.45,309.72 430.98,309.51C433.51,309.3 436.04,309.09 438.57,308.87C441.1,308.65 443.62,308.43 446.15,308.21C448.68,307.99 451.21,307.77 453.74,307.54C456.27,307.31 458.79,307.08 461.32,306.85C463.85,306.62 466.37,306.39 468.9,306.14C471.43,305.89 473.96,305.64 476.49,305.37C479.02,305.1 481.54,304.83 484.07,304.54C486.6,304.25 489.13,303.93 491.66,303.61C494.19,303.28 496.71,302.94 499.24,302.59C501.77,302.24 504.3,301.87 506.83,301.5C509.36,301.13 511.88,300.75 514.41,300.39C516.94,300.03 519.47,299.66 522,299.32C524.53,298.98 527.05,298.65 529.58,298.35C532.11,298.05 534.64,297.78 537.17,297.52C539.7,297.26 542.22,297.03 544.75,296.79C547.28,296.55 549.8,296.33 552.33,296.08C554.86,295.83 557.39,295.59 559.92,295.31C562.45,295.03 564.97,294.73 567.5,294.42C570.03,294.11 572.56,293.77 575.09,293.43C577.62,293.09 580.14,292.73 582.67,292.4C585.2,292.07 587.73,291.74 590.26,291.44C592.79,291.14 595.31,290.87 597.84,290.62C600.37,290.37 602.9,290.15 605.43,289.94C607.96,289.74 610.48,289.56 613.01,289.39C615.54,289.22 618.06,289.07 620.59,288.93C623.12,288.78 625.65,288.65 628.18,288.52C630.71,288.4 633.23,288.28 635.76,288.18C638.29,288.08 640.82,287.99 643.35,287.93C645.88,287.87 648.4,287.83 650.93,287.83C653.46,287.83 655.99,287.86 658.52,287.95C661.05,288.04 663.57,288.17 666.1,288.36C668.63,288.55 671.16,288.79 673.69,289.08C676.22,289.37 678.75,289.73 681.27,290.11C683.8,290.49 686.32,290.93 688.85,291.38C691.38,291.83 693.91,292.32 696.44,292.82C698.97,293.32 701.49,293.84 704.02,294.36C706.55,294.88 709.08,295.42 711.61,295.96C714.14,296.49 716.66,297.03 719.19,297.57C721.72,298.11 724.25,298.65 726.78,299.19C729.31,299.73 731.83,300.26 734.36,300.79C736.89,301.32 739.42,301.86 741.95,302.39C744.48,302.92 747,303.45 749.53,303.97C752.06,304.49 754.59,305.01 757.12,305.51C759.65,306.01 762.17,306.51 764.7,306.98C767.23,307.45 769.75,307.91 772.28,308.35C774.81,308.79 777.34,309.21 779.87,309.61C782.4,310.01 784.92,310.39 787.45,310.75C789.98,311.11 792.51,311.45 795.04,311.78C797.57,312.1 800.09,312.41 802.62,312.7C805.15,312.99 807.68,313.25 810.21,313.5C812.74,313.75 815.26,313.97 817.79,314.18C820.32,314.39 822.85,314.58 825.38,314.75C827.91,314.92 830.43,315.07 832.96,315.21C835.49,315.35 838.01,315.49 840.54,315.61C843.07,315.74 845.6,315.85 848.13,315.96C850.66,316.07 853.18,316.17 855.71,316.26C858.24,316.35 860.77,316.44 863.3,316.52C865.83,316.6 868.35,316.67 870.88,316.73C873.41,316.79 875.94,316.84 878.47,316.88C881,316.92 883.52,316.96 886.05,316.99C888.58,317.02 891.11,317.04 893.64,317.06C896.17,317.08 898.69,317.1 901.22,317.12C903.75,317.14 906.28,317.14 908.81,317.16C911.34,317.17 913.86,317.19 916.39,317.21C918.92,317.22 921.44,317.24 923.97,317.25C926.5,317.26 929.03,317.27 931.56,317.28C934.09,317.29 936.61,317.3 939.14,317.3C941.67,317.31 944.2,317.3 946.73,317.31C949.26,317.31 951.78,317.32 954.31,317.33C956.84,317.34 959.37,317.35 961.9,317.36C964.43,317.37 966.95,317.38 969.48,317.39C972.01,317.4 974.54,317.42 977.07,317.43C979.6,317.44 982.12,317.45 984.65,317.46C987.18,317.47 989.7,317.48 992.23,317.49C994.76,317.5 997.29,317.5 999.82,317.51C1002.35,317.51 1004.87,317.52 1007.4,317.52C1009.93,317.52 1012.46,317.52 1014.99,317.52C1017.52,317.52 1020.04,317.52 1022.57,317.52C1025.1,317.52 1027.63,317.51 1030.16,317.51C1032.69,317.51 1035.21,317.51 1037.74,317.51C1040.27,317.51 1042.8,317.51 1045.33,317.51C1047.86,317.51 1050.38,317.52 1052.91,317.52C1055.44,317.52 1057.96,317.53 1060.49,317.53C1063.02,317.54 1065.55,317.54 1068.08,317.55C1070.61,317.56 1073.13,317.57 1075.66,317.57C1078.19,317.58 1080.72,317.58 1083.25,317.58Q1085.78,317.58 1090.83,317.59L1090.83,317.6" style="vector-effect: non-scaling-stroke; stroke-width: 2px; stroke: rgb(66, 92, 148); stroke-opacity: 1; fill: rgb(66, 92, 148); fill-opacity: 0.5;"/><path class="box" d="M618.9,315.6V305.68M537.83,315.6V305.68H683.65V315.6ZM537.83,315.6H322.1M683.65,315.6H897.75" style="vector-effect: non-scaling-stroke; stroke-width: 2px; stroke: rgb(66, 92, 148); stroke-opacity: 1; fill: rgb(66, 92, 148); fill-opacity: 0.5;"/></g><g class="trace violins" style="opacity: 1;"><path class="violin" d="M113.43,287.83L113.43,287.82Q118.69,287.81 121.32,287.81C123.95,287.81 126.58,287.8 129.21,287.8C131.84,287.8 134.46,287.79 137.09,287.79C139.72,287.79 142.35,287.78 144.98,287.78C147.61,287.77 150.24,287.77 152.87,287.76C155.5,287.75 158.13,287.75 160.76,287.74C163.39,287.73 166.01,287.72 168.64,287.71C171.27,287.7 173.9,287.7 176.53,287.69C179.16,287.68 181.79,287.67 184.42,287.66C187.05,287.65 189.68,287.64 192.31,287.63C194.94,287.62 197.56,287.61 200.19,287.6C202.82,287.59 205.45,287.57 208.08,287.56C210.71,287.55 213.34,287.53 215.97,287.52C218.6,287.51 221.23,287.5 223.86,287.48C226.49,287.46 229.11,287.44 231.74,287.42C234.37,287.4 237,287.38 239.63,287.36C242.26,287.34 244.89,287.31 247.52,287.29C250.15,287.26 252.78,287.24 255.41,287.21C258.04,287.18 260.66,287.15 263.29,287.13C265.92,287.1 268.55,287.08 271.18,287.06C273.81,287.04 276.44,287.01 279.07,286.99C281.7,286.97 284.33,286.94 286.96,286.92C289.59,286.9 292.21,286.87 294.84,286.85C297.47,286.82 300.1,286.8 302.73,286.77C305.36,286.74 307.99,286.7 310.62,286.66C313.25,286.62 315.88,286.57 318.51,286.51C321.14,286.45 323.76,286.38 326.39,286.3C329.02,286.22 331.65,286.12 334.28,286.01C336.91,285.9 339.54,285.78 342.17,285.64C344.8,285.5 347.43,285.35 350.06,285.19C352.69,285.03 355.31,284.84 357.94,284.66C360.57,284.48 363.2,284.28 365.83,284.09C368.46,283.89 371.09,283.7 373.72,283.49C376.35,283.28 378.98,283.07 381.61,282.85C384.24,282.63 386.86,282.4 389.49,282.17C392.12,281.93 394.75,281.69 397.38,281.44C400.01,281.19 402.64,280.91 405.27,280.65C407.9,280.38 410.53,280.11 413.16,279.85C415.79,279.59 418.41,279.32 421.04,279.07C423.67,278.82 426.3,278.59 428.93,278.37C431.56,278.15 434.19,277.95 436.82,277.77C439.45,277.59 442.08,277.44 444.71,277.28C447.34,277.12 449.96,276.97 452.59,276.81C455.22,276.64 457.85,276.49 460.48,276.29C463.11,276.09 465.74,275.87 468.37,275.61C471,275.34 473.63,275.04 476.26,274.7C478.89,274.35 481.51,273.96 484.14,273.54C486.77,273.12 489.4,272.65 492.03,272.19C494.66,271.73 497.29,271.24 499.92,270.78C502.55,270.33 505.18,269.86 507.81,269.46C510.43,269.06 513.06,268.68 515.69,268.37C518.32,268.06 520.95,267.8 523.58,267.58C526.21,267.37 528.84,267.22 531.47,267.08C534.1,266.94 536.73,266.85 539.36,266.73C541.99,266.61 544.61,266.51 547.24,266.36C549.87,266.2 552.5,266.04 555.13,265.8C557.76,265.56 560.39,265.27 563.02,264.94C565.65,264.61 568.28,264.21 570.91,263.8C573.54,263.39 576.16,262.92 578.79,262.48C581.42,262.04 584.05,261.58 586.68,261.17C589.31,260.76 591.94,260.37 594.57,260.04C597.2,259.71 599.83,259.43 602.46,259.2C605.09,258.97 607.71,258.8 610.34,258.66C612.97,258.52 615.6,258.44 618.23,258.36C620.86,258.28 623.49,258.24 626.12,258.2C628.75,258.16 631.38,258.13 634.01,258.1C636.64,258.08 639.26,258.05 641.89,258.05C644.52,258.05 647.15,258.05 649.78,258.08C652.41,258.11 655.04,258.15 657.67,258.23C660.3,258.31 662.93,258.42 665.56,258.56C668.19,258.7 670.81,258.89 673.44,259.09C676.07,259.29 678.7,259.52 681.33,259.77C683.96,260.02 686.59,260.3 689.22,260.58C691.85,260.87 694.48,261.17 697.11,261.48C699.74,261.8 702.36,262.12 704.99,262.47C707.62,262.82 710.25,263.19 712.88,263.6C715.51,264.01 718.14,264.44 720.77,264.91C723.4,265.38 726.03,265.9 728.66,266.44C731.29,266.98 733.91,267.55 736.54,268.14C739.17,268.73 741.8,269.36 744.43,269.97C747.06,270.58 749.69,271.21 752.32,271.82C754.95,272.43 757.58,273.05 760.21,273.64C762.84,274.23 765.46,274.8 768.09,275.36C770.72,275.91 773.35,276.46 775.98,276.97C778.61,277.48 781.24,277.97 783.87,278.44C786.5,278.91 789.13,279.35 791.76,279.77C794.39,280.19 797.01,280.6 799.64,280.98C802.27,281.36 804.9,281.71 807.53,282.05C810.16,282.39 812.79,282.71 815.42,283.01C818.05,283.31 820.68,283.58 823.31,283.83C825.94,284.08 828.56,284.32 831.19,284.53C833.82,284.75 836.45,284.94 839.08,285.12C841.71,285.3 844.34,285.46 846.97,285.61C849.6,285.76 852.23,285.89 854.86,286.01C857.49,286.13 860.11,286.25 862.74,286.35C865.37,286.45 868,286.53 870.63,286.61C873.26,286.69 875.89,286.76 878.52,286.82C881.15,286.88 883.78,286.93 886.41,286.97C889.04,287.01 891.66,287.04 894.29,287.07C896.92,287.1 899.55,287.13 902.18,287.15C904.81,287.17 907.44,287.19 910.07,287.21C912.7,287.23 915.33,287.26 917.96,287.28C920.59,287.3 923.21,287.33 925.84,287.35C928.47,287.37 931.1,287.4 933.73,287.42C936.36,287.45 938.99,287.48 941.62,287.5C944.25,287.52 946.88,287.54 949.51,287.56C952.14,287.58 954.76,287.6 957.39,287.62C960.02,287.64 962.65,287.65 965.28,287.67C967.91,287.68 970.54,287.7 973.17,287.71C975.8,287.72 978.43,287.72 981.06,287.73C983.69,287.74 986.31,287.75 988.94,287.76C991.57,287.77 994.2,287.77 996.83,287.77C999.46,287.78 1002.09,287.78 1004.72,287.79C1007.35,287.79 1009.98,287.8 1012.61,287.8C1015.24,287.8 1017.86,287.81 1020.49,287.81C1023.12,287.81 1025.75,287.82 1028.38,287.82C1031.01,287.82 1033.64,287.82 1036.27,287.82C1038.9,287.82 1041.53,287.81 1044.16,287.81C1046.79,287.81 1049.41,287.81 1052.04,287.81C1054.67,287.81 1057.3,287.8 1059.93,287.8C1062.56,287.79 1065.19,287.79 1067.82,287.78C1070.45,287.78 1073.08,287.78 1075.71,287.77C1078.34,287.77 1080.96,287.75 1083.59,287.75C1086.22,287.74 1088.85,287.74 1091.48,287.74C1094.11,287.74 1096.74,287.74 1099.37,287.74C1102,287.74 1104.63,287.74 1107.26,287.74C1109.89,287.74 1112.51,287.74 1115.14,287.74C1117.77,287.74 1120.4,287.75 1123.03,287.75C1125.66,287.75 1128.29,287.76 1130.92,287.76C1133.55,287.76 1136.18,287.77 1138.81,287.77C1141.44,287.77 1144.06,287.78 1146.69,287.78C1149.32,287.78 1151.95,287.79 1154.58,287.79C1157.21,287.79 1159.84,287.8 1162.47,287.8C1165.1,287.8 1167.73,287.81 1170.36,287.81C1172.99,287.81 1175.61,287.81 1178.24,287.81Q1180.87,287.81 1186.13,287.82L1186.13,287.83" style="vector-effect: non-scaling-stroke; stroke-width: 2px; stroke: rgb(83, 87, 136); stroke-opacity: 1; fill: rgb(83, 87, 136); fill-opacity: 0.5;"/><path class="box" d="M619.72,285.83V275.9M532.94,285.83V275.9H691.59V285.83ZM532.94,285.83H299.14M691.59,285.83H926.31" style="vector-effect: non-scaling-stroke; stroke-width: 2px; stroke: rgb(83, 87, 136); stroke-opacity: 1; fill: rgb(83, 87, 136); fill-opacity: 0.5;"/></g><g class="trace violins" style="opacity: 1;"><path class="violin" d="M34.48,258.05L34.48,258.04Q39.02,258.04 41.29,258.04C43.56,258.04 45.83,258.03 48.1,258.03C50.37,258.03 52.64,258.03 54.91,258.03C57.18,258.03 59.45,258.02 61.72,258.02C63.99,258.02 66.27,258.01 68.54,258.01C70.81,258.01 73.08,258.01 75.35,258.01C77.62,258.01 79.89,258.01 82.16,258.01C84.43,258.01 86.7,258.02 88.97,258.02C91.24,258.02 93.51,258.02 95.78,258.02C98.05,258.02 100.32,258.03 102.59,258.03C104.86,258.03 107.13,258.03 109.4,258.03C111.67,258.03 113.94,258.02 116.21,258.02C118.48,258.02 120.75,258.02 123.02,258.02C125.29,258.02 127.57,258.01 129.84,258.01C132.11,258.01 134.38,258.01 136.65,258.01C138.92,258.01 141.19,258.01 143.46,258.01C145.73,258.01 148,258.01 150.27,258.01C152.54,258.01 154.81,258.02 157.08,258.02C159.35,258.02 161.62,258.02 163.89,258.02C166.16,258.02 168.43,258.02 170.7,258.02C172.97,258.02 175.24,258.02 177.51,258.02C179.78,258.02 182.05,258.01 184.32,258C186.59,257.99 188.87,257.99 191.14,257.98C193.41,257.97 195.68,257.95 197.95,257.94C200.22,257.93 202.49,257.91 204.76,257.9C207.03,257.89 209.3,257.87 211.57,257.86C213.84,257.85 216.11,257.83 218.38,257.82C220.65,257.81 222.92,257.79 225.19,257.78C227.46,257.77 229.73,257.75 232,257.74C234.27,257.73 236.54,257.71 238.81,257.7C241.08,257.69 243.35,257.67 245.62,257.66C247.89,257.65 250.17,257.64 252.44,257.62C254.71,257.61 256.98,257.59 259.25,257.57C261.52,257.55 263.79,257.54 266.06,257.52C268.33,257.5 270.6,257.48 272.87,257.46C275.14,257.44 277.41,257.43 279.68,257.41C281.95,257.39 284.22,257.38 286.49,257.36C288.76,257.35 291.03,257.33 293.3,257.32C295.57,257.31 297.84,257.29 300.11,257.28C302.38,257.26 304.66,257.25 306.93,257.23C309.2,257.21 311.47,257.18 313.74,257.15C316.01,257.12 318.28,257.08 320.55,257.03C322.82,256.98 325.09,256.93 327.36,256.87C329.63,256.81 331.9,256.73 334.17,256.66C336.44,256.58 338.71,256.5 340.98,256.42C343.25,256.34 345.52,256.26 347.79,256.17C350.06,256.08 352.33,255.99 354.6,255.9C356.87,255.81 359.14,255.72 361.41,255.62C363.68,255.52 365.96,255.43 368.23,255.32C370.5,255.22 372.77,255.11 375.04,254.99C377.31,254.87 379.58,254.75 381.85,254.62C384.12,254.49 386.39,254.35 388.66,254.2C390.93,254.05 393.2,253.9 395.47,253.74C397.74,253.58 400.01,253.41 402.28,253.24C404.55,253.07 406.82,252.9 409.09,252.72C411.36,252.54 413.63,252.36 415.9,252.18C418.17,252 420.44,251.83 422.71,251.66C424.98,251.49 427.26,251.33 429.53,251.17C431.8,251.01 434.07,250.86 436.34,250.71C438.61,250.57 440.88,250.43 443.15,250.3C445.42,250.17 447.69,250.05 449.96,249.93C452.23,249.81 454.5,249.69 456.77,249.57C459.04,249.45 461.31,249.33 463.58,249.21C465.85,249.08 468.12,248.96 470.39,248.82C472.66,248.68 474.93,248.53 477.2,248.36C479.47,248.19 481.74,248.01 484.01,247.81C486.28,247.61 488.56,247.39 490.83,247.14C493.1,246.89 495.37,246.61 497.64,246.32C499.91,246.02 502.18,245.7 504.45,245.37C506.72,245.04 508.99,244.69 511.26,244.34C513.53,243.99 515.8,243.63 518.07,243.28C520.34,242.93 522.61,242.59 524.88,242.25C527.15,241.92 529.42,241.59 531.69,241.27C533.96,240.95 536.23,240.65 538.5,240.34C540.77,240.03 543.05,239.72 545.32,239.39C547.59,239.06 549.86,238.72 552.13,238.35C554.4,237.98 556.67,237.58 558.94,237.15C561.21,236.72 563.48,236.26 565.75,235.77C568.02,235.28 570.29,234.75 572.56,234.23C574.83,233.71 577.1,233.16 579.37,232.64C581.64,232.13 583.91,231.6 586.18,231.14C588.45,230.68 590.72,230.24 592.99,229.88C595.26,229.52 597.53,229.22 599.8,228.98C602.07,228.74 604.35,228.58 606.62,228.46C608.89,228.34 611.16,228.3 613.43,228.28C615.7,228.26 617.97,228.28 620.24,228.31C622.51,228.34 624.78,228.41 627.05,228.46C629.32,228.51 631.59,228.57 633.86,228.62C636.13,228.67 638.4,228.72 640.67,228.77C642.94,228.82 645.21,228.86 647.48,228.92C649.75,228.98 652.02,229.05 654.29,229.15C656.56,229.25 658.83,229.36 661.1,229.51C663.37,229.66 665.65,229.83 667.92,230.04C670.19,230.25 672.46,230.49 674.73,230.75C677,231.02 679.27,231.32 681.54,231.63C683.81,231.94 686.08,232.28 688.35,232.63C690.62,232.99 692.89,233.37 695.16,233.76C697.43,234.16 699.7,234.57 701.97,235C704.24,235.43 706.51,235.88 708.78,236.34C711.05,236.8 713.32,237.29 715.59,237.78C717.86,238.27 720.13,238.79 722.4,239.3C724.67,239.81 726.95,240.33 729.22,240.85C731.49,241.37 733.76,241.89 736.03,242.41C738.3,242.93 740.57,243.45 742.84,243.96C745.11,244.47 747.38,244.97 749.65,245.46C751.92,245.95 754.19,246.43 756.46,246.9C758.73,247.37 761,247.83 763.27,248.28C765.54,248.72 767.81,249.16 770.08,249.57C772.35,249.98 774.62,250.38 776.89,250.76C779.16,251.14 781.44,251.5 783.71,251.85C785.98,252.19 788.25,252.52 790.52,252.83C792.79,253.14 795.06,253.42 797.33,253.69C799.6,253.96 801.87,254.2 804.14,254.43C806.41,254.66 808.68,254.87 810.95,255.06C813.22,255.25 815.49,255.42 817.76,255.58C820.03,255.74 822.3,255.88 824.57,256.01C826.84,256.14 829.11,256.26 831.38,256.37C833.65,256.48 835.92,256.59 838.19,256.68C840.46,256.78 842.74,256.86 845.01,256.94C847.28,257.02 849.55,257.09 851.82,257.16C854.09,257.23 856.36,257.29 858.63,257.34C860.9,257.39 863.17,257.44 865.44,257.48C867.71,257.52 869.98,257.56 872.25,257.59C874.52,257.62 876.79,257.64 879.06,257.66C881.33,257.68 883.6,257.7 885.87,257.71C888.14,257.72 890.41,257.73 892.68,257.74C894.95,257.75 897.22,257.76 899.49,257.76C901.76,257.77 904.04,257.77 906.31,257.77C908.58,257.77 910.85,257.78 913.12,257.78C915.39,257.78 917.66,257.79 919.93,257.79C922.2,257.79 924.47,257.8 926.74,257.8C929.01,257.8 931.28,257.81 933.55,257.81C935.82,257.82 938.09,257.83 940.36,257.83C942.63,257.83 944.9,257.83 947.17,257.83C949.44,257.83 951.71,257.84 953.98,257.84C956.25,257.84 958.52,257.85 960.79,257.85C963.06,257.85 965.34,257.85 967.61,257.85C969.88,257.85 972.15,257.86 974.42,257.86C976.69,257.86 978.96,257.87 981.23,257.87C983.5,257.87 985.77,257.88 988.04,257.88C990.31,257.88 992.58,257.89 994.85,257.89C997.12,257.9 999.39,257.9 1001.66,257.91C1003.93,257.91 1006.2,257.92 1008.47,257.92C1010.74,257.93 1013.01,257.93 1015.28,257.94C1017.55,257.95 1019.83,257.95 1022.1,257.96C1024.37,257.97 1026.64,257.97 1028.91,257.98C1031.18,257.99 1033.45,257.99 1035.72,258C1037.99,258.01 1040.26,258.01 1042.53,258.02C1044.8,258.02 1047.07,258.03 1049.34,258.03Q1051.61,258.03 1056.15,258.04L1056.15,258.05" style="vector-effect: non-scaling-stroke; stroke-width: 2px; stroke: rgb(99, 82, 124); stroke-opacity: 1; fill: rgb(99, 82, 124); fill-opacity: 0.5;"/><path class="box" d="M619.72,256.05V246.13M550.31,256.05V246.13H683.45V256.05ZM550.31,256.05H350.67M683.45,256.05H875.55" style="vector-effect: non-scaling-stroke; stroke-width: 2px; stroke: rgb(99, 82, 124); stroke-opacity: 1; fill: rgb(99, 82, 124); fill-opacity: 0.5;"/></g><g class="trace violins" style="opacity: 1;"><path class="violin" d="M46.49,228.28L46.49,228.27Q51.51,228.26 54.02,228.26C56.53,228.26 59.05,228.25 61.56,228.25C64.07,228.25 66.58,228.25 69.09,228.24C71.6,228.23 74.11,228.22 76.62,228.21C79.13,228.2 81.65,228.2 84.16,228.19C86.67,228.18 89.18,228.17 91.69,228.16C94.2,228.15 96.71,228.14 99.22,228.13C101.73,228.12 104.24,228.11 106.75,228.1C109.26,228.09 111.78,228.09 114.29,228.08C116.8,228.08 119.31,228.07 121.82,228.07C124.33,228.07 126.84,228.06 129.35,228.06C131.86,228.06 134.37,228.07 136.88,228.07C139.39,228.07 141.91,228.08 144.42,228.08C146.93,228.08 149.44,228.09 151.95,228.09C154.46,228.1 156.97,228.11 159.48,228.11C161.99,228.11 164.5,228.11 167.01,228.11C169.52,228.11 172.04,228.11 174.55,228.11C177.06,228.11 179.57,228.1 182.08,228.09C184.59,228.08 187.1,228.07 189.61,228.06C192.12,228.05 194.63,228.03 197.14,228.02C199.65,228.01 202.17,227.99 204.68,227.98C207.19,227.97 209.7,227.95 212.21,227.94C214.72,227.93 217.23,227.91 219.74,227.9C222.25,227.89 224.76,227.87 227.27,227.86C229.78,227.85 232.3,227.85 234.81,227.84C237.32,227.83 239.83,227.82 242.34,227.81C244.85,227.8 247.36,227.8 249.87,227.79C252.38,227.78 254.9,227.77 257.41,227.75C259.92,227.73 262.43,227.72 264.94,227.69C267.45,227.66 269.96,227.63 272.47,227.59C274.98,227.55 277.49,227.51 280,227.46C282.51,227.41 285.03,227.35 287.54,227.29C290.05,227.23 292.56,227.16 295.07,227.09C297.58,227.02 300.09,226.94 302.6,226.86C305.11,226.78 307.62,226.7 310.13,226.62C312.64,226.54 315.16,226.45 317.67,226.37C320.18,226.29 322.69,226.21 325.2,226.12C327.71,226.03 330.22,225.94 332.73,225.85C335.24,225.76 337.75,225.66 340.26,225.56C342.77,225.46 345.29,225.37 347.8,225.26C350.31,225.16 352.82,225.04 355.33,224.93C357.84,224.82 360.35,224.71 362.86,224.59C365.37,224.47 367.88,224.35 370.39,224.23C372.9,224.11 375.42,223.99 377.93,223.87C380.44,223.75 382.95,223.63 385.46,223.5C387.97,223.37 390.48,223.24 392.99,223.09C395.5,222.94 398.01,222.78 400.52,222.62C403.03,222.45 405.55,222.29 408.06,222.1C410.57,221.92 413.08,221.71 415.59,221.51C418.1,221.31 420.61,221.1 423.12,220.9C425.63,220.7 428.14,220.48 430.65,220.29C433.16,220.09 435.68,219.91 438.19,219.73C440.7,219.55 443.21,219.39 445.72,219.23C448.23,219.08 450.74,218.94 453.25,218.8C455.76,218.66 458.28,218.54 460.79,218.41C463.3,218.29 465.81,218.18 468.32,218.05C470.83,217.92 473.34,217.79 475.85,217.65C478.36,217.51 480.87,217.36 483.38,217.19C485.89,217.02 488.41,216.84 490.92,216.64C493.43,216.44 495.94,216.21 498.45,215.97C500.96,215.72 503.47,215.45 505.98,215.17C508.49,214.88 511,214.58 513.51,214.26C516.02,213.94 518.54,213.61 521.05,213.26C523.56,212.91 526.07,212.55 528.58,212.18C531.09,211.8 533.6,211.42 536.11,211.01C538.62,210.6 541.13,210.18 543.64,209.73C546.15,209.28 548.67,208.8 551.18,208.29C553.69,207.78 556.2,207.24 558.71,206.68C561.22,206.12 563.73,205.52 566.24,204.94C568.75,204.35 571.26,203.74 573.77,203.17C576.28,202.6 578.79,202.02 581.31,201.52C583.82,201.02 586.32,200.54 588.84,200.15C591.34,199.76 593.86,199.43 596.37,199.18C598.88,198.93 601.39,198.76 603.9,198.65C606.41,198.54 608.93,198.5 611.44,198.5C613.95,198.5 616.46,198.56 618.97,198.62C621.48,198.68 623.99,198.79 626.5,198.87C629.01,198.96 631.53,199.05 634.04,199.13C636.55,199.21 639.06,199.27 641.57,199.33C644.08,199.39 646.59,199.43 649.1,199.49C651.61,199.55 654.12,199.61 656.63,199.7C659.14,199.8 661.66,199.9 664.17,200.06C666.68,200.22 669.19,200.41 671.7,200.64C674.21,200.88 676.72,201.17 679.23,201.47C681.74,201.78 684.25,202.12 686.76,202.47C689.27,202.82 691.79,203.2 694.3,203.56C696.81,203.92 699.32,204.3 701.83,204.64C704.34,204.98 706.85,205.31 709.36,205.62C711.87,205.93 714.38,206.22 716.89,206.51C719.4,206.8 721.92,207.06 724.43,207.34C726.94,207.62 729.45,207.89 731.96,208.19C734.47,208.49 736.98,208.79 739.49,209.13C742,209.47 744.51,209.84 747.02,210.24C749.53,210.64 752.05,211.07 754.56,211.53C757.07,211.99 759.58,212.48 762.09,212.98C764.6,213.48 767.11,214 769.62,214.52C772.13,215.04 774.64,215.58 777.15,216.1C779.66,216.62 782.18,217.13 784.69,217.62C787.2,218.11 789.71,218.58 792.22,219.03C794.73,219.47 797.24,219.89 799.75,220.29C802.26,220.69 804.78,221.06 807.29,221.41C809.8,221.76 812.31,222.08 814.82,222.38C817.33,222.68 819.84,222.96 822.35,223.23C824.86,223.49 827.37,223.74 829.88,223.97C832.39,224.2 834.91,224.42 837.42,224.63C839.93,224.83 842.44,225.02 844.95,225.2C847.46,225.37 849.97,225.53 852.48,225.68C854.99,225.82 857.5,225.95 860.01,226.07C862.52,226.19 865.04,226.29 867.55,226.38C870.06,226.47 872.57,226.55 875.08,226.62C877.59,226.69 880.1,226.75 882.61,226.81C885.12,226.87 887.63,226.92 890.14,226.97C892.65,227.02 895.17,227.06 897.68,227.1C900.19,227.14 902.7,227.18 905.21,227.22C907.72,227.26 910.23,227.31 912.74,227.35C915.25,227.39 917.76,227.43 920.27,227.47C922.78,227.51 925.3,227.56 927.81,227.6C930.32,227.64 932.83,227.68 935.34,227.72C937.85,227.76 940.36,227.79 942.87,227.83C945.38,227.86 947.89,227.9 950.4,227.93C952.91,227.96 955.43,227.98 957.94,228C960.45,228.02 962.96,228.03 965.47,228.05C967.98,228.06 970.49,228.08 973,228.09C975.51,228.1 978.02,228.11 980.53,228.11C983.04,228.12 985.56,228.12 988.07,228.12C990.58,228.12 993.09,228.13 995.6,228.13C998.11,228.13 1000.62,228.13 1003.13,228.13C1005.64,228.13 1008.16,228.14 1010.67,228.14C1013.18,228.14 1015.69,228.15 1018.2,228.15C1020.71,228.15 1023.22,228.16 1025.73,228.16C1028.24,228.16 1030.75,228.17 1033.26,228.17C1035.77,228.17 1038.29,228.17 1040.8,228.17C1043.31,228.17 1045.82,228.18 1048.33,228.18C1050.84,228.18 1053.35,228.18 1055.86,228.18C1058.37,228.18 1060.88,228.19 1063.39,228.19C1065.9,228.19 1068.42,228.19 1070.93,228.19C1073.44,228.19 1075.95,228.19 1078.46,228.19C1080.97,228.19 1083.48,228.19 1085.99,228.19C1088.5,228.19 1091.01,228.19 1093.52,228.19C1096.03,228.19 1098.55,228.2 1101.06,228.2C1103.57,228.2 1106.08,228.2 1108.59,228.2C1111.1,228.2 1113.61,228.21 1116.12,228.22C1118.63,228.22 1121.14,228.23 1123.65,228.23C1126.16,228.23 1128.68,228.24 1131.19,228.24C1133.7,228.24 1136.21,228.25 1138.72,228.25C1141.23,228.25 1143.74,228.26 1146.25,228.26C1148.76,228.26 1151.27,228.26 1153.78,228.26C1156.29,228.26 1158.81,228.27 1161.32,228.27C1163.83,228.27 1166.34,228.26 1168.85,228.26C1171.36,228.26 1173.87,228.26 1176.38,228.26C1178.89,228.26 1181.41,228.25 1183.92,228.25C1186.43,228.25 1188.94,228.24 1191.45,228.24C1193.96,228.24 1196.47,228.24 1198.98,228.24C1201.49,228.24 1204,228.23 1206.51,228.23C1209.02,228.23 1211.54,228.24 1214.05,228.24C1216.56,228.24 1219.07,228.24 1221.58,228.24C1224.09,228.24 1226.6,228.25 1229.11,228.25C1231.62,228.25 1234.13,228.26 1236.64,228.26C1239.15,228.26 1241.67,228.26 1244.18,228.26Q1246.69,228.26 1251.71,228.27L1251.71,228.28" style="vector-effect: non-scaling-stroke; stroke-width: 2px; stroke: rgb(116, 77, 112); stroke-opacity: 1; fill: rgb(116, 77, 112); fill-opacity: 0.5;"/><path class="box" d="M624.07,226.28V216.35M549.53,226.28V216.35H697.86V226.28ZM549.53,226.28H330.26M697.86,226.28H915.98" style="vector-effect: non-scaling-stroke; stroke-width: 2px; stroke: rgb(116, 77, 112); stroke-opacity: 1; fill: rgb(116, 77, 112); fill-opacity: 0.5;"/></g><g class="trace violins" style="opacity: 1;"><path class="violin" d="M87.92,198.5L87.92,198.49Q92.73,198.49 95.14,198.49C97.55,198.49 99.95,198.48 102.36,198.48C104.77,198.48 107.17,198.47 109.58,198.47C111.99,198.46 114.39,198.45 116.8,198.45C119.21,198.44 121.62,198.45 124.03,198.44C126.44,198.44 128.84,198.43 131.25,198.42C133.66,198.41 136.06,198.41 138.47,198.4C140.88,198.39 143.28,198.38 145.69,198.38C148.1,198.37 150.51,198.37 152.92,198.37C155.33,198.37 157.73,198.36 160.14,198.36C162.55,198.36 164.95,198.36 167.36,198.36C169.77,198.36 172.17,198.37 174.58,198.37C176.99,198.37 179.39,198.37 181.8,198.37C184.21,198.37 186.62,198.37 189.03,198.36C191.44,198.36 193.84,198.35 196.25,198.34C198.66,198.33 201.06,198.33 203.47,198.32C205.88,198.31 208.28,198.29 210.69,198.28C213.1,198.27 215.5,198.25 217.91,198.24C220.32,198.23 222.73,198.21 225.14,198.2C227.55,198.19 229.95,198.18 232.36,198.17C234.77,198.16 237.17,198.14 239.58,198.13C241.99,198.12 244.39,198.12 246.8,198.11C249.21,198.1 251.62,198.1 254.03,198.09C256.44,198.09 258.84,198.08 261.25,198.08C263.66,198.08 266.06,198.07 268.47,198.07C270.88,198.06 273.28,198.06 275.69,198.05C278.1,198.04 280.5,198.03 282.91,198.02C285.32,198 287.73,197.98 290.14,197.96C292.55,197.94 294.95,197.91 297.36,197.88C299.77,197.85 302.17,197.82 304.58,197.78C306.99,197.74 309.39,197.7 311.8,197.66C314.21,197.62 316.62,197.58 319.03,197.53C321.44,197.48 323.84,197.42 326.25,197.35C328.66,197.28 331.06,197.21 333.47,197.13C335.88,197.04 338.28,196.95 340.69,196.84C343.1,196.73 345.5,196.61 347.91,196.47C350.32,196.33 352.73,196.18 355.14,196.02C357.55,195.86 359.95,195.7 362.36,195.53C364.77,195.36 367.17,195.19 369.58,195.02C371.99,194.85 374.39,194.68 376.8,194.52C379.21,194.36 381.61,194.21 384.02,194.06C386.43,193.91 388.84,193.76 391.25,193.61C393.66,193.47 396.06,193.33 398.47,193.19C400.88,193.05 403.28,192.91 405.69,192.77C408.1,192.63 410.5,192.49 412.91,192.34C415.32,192.19 417.73,192.04 420.14,191.88C422.55,191.72 424.95,191.57 427.36,191.4C429.77,191.23 432.17,191.05 434.58,190.87C436.99,190.69 439.39,190.49 441.8,190.3C444.21,190.11 446.61,189.9 449.02,189.71C451.43,189.51 453.84,189.32 456.25,189.13C458.66,188.94 461.06,188.76 463.47,188.59C465.88,188.42 468.28,188.26 470.69,188.1C473.1,187.94 475.5,187.79 477.91,187.64C480.32,187.49 482.72,187.34 485.13,187.18C487.54,187.01 489.95,186.84 492.36,186.65C494.77,186.46 497.17,186.26 499.58,186.04C501.99,185.82 504.39,185.57 506.8,185.31C509.21,185.05 511.61,184.77 514.02,184.5C516.43,184.22 518.84,183.94 521.25,183.66C523.66,183.38 526.06,183.11 528.47,182.84C530.88,182.58 533.28,182.32 535.69,182.07C538.1,181.82 540.5,181.58 542.91,181.32C545.32,181.06 547.72,180.81 550.13,180.52C552.54,180.23 554.95,179.92 557.36,179.56C559.77,179.2 562.18,178.8 564.58,178.37C566.99,177.93 569.4,177.45 571.8,176.95C574.21,176.45 576.61,175.89 579.02,175.36C581.43,174.82 583.83,174.26 586.24,173.74C588.65,173.22 591.06,172.7 593.47,172.23C595.87,171.76 598.28,171.32 600.69,170.94C603.09,170.56 605.5,170.24 607.91,169.96C610.31,169.68 612.72,169.46 615.13,169.28C617.54,169.1 619.95,168.98 622.36,168.89C624.77,168.8 627.17,168.75 629.58,168.73C631.99,168.71 634.39,168.71 636.8,168.74C639.21,168.77 641.61,168.82 644.02,168.89C646.43,168.97 648.83,169.06 651.24,169.19C653.65,169.32 656.06,169.47 658.47,169.66C660.88,169.85 663.28,170.06 665.69,170.31C668.1,170.56 670.5,170.85 672.91,171.15C675.32,171.45 677.72,171.79 680.13,172.13C682.54,172.47 684.95,172.84 687.36,173.2C689.77,173.56 692.17,173.93 694.58,174.29C696.99,174.65 699.39,175 701.8,175.36C704.21,175.72 706.61,176.07 709.02,176.43C711.43,176.79 713.83,177.15 716.24,177.52C718.65,177.9 721.06,178.28 723.47,178.68C725.88,179.08 728.28,179.5 730.69,179.93C733.1,180.36 735.5,180.81 737.91,181.27C740.32,181.73 742.72,182.21 745.13,182.69C747.54,183.17 749.94,183.67 752.35,184.17C754.76,184.67 757.17,185.18 759.58,185.69C761.99,186.2 764.39,186.71 766.8,187.22C769.21,187.73 771.61,188.24 774.02,188.73C776.43,189.22 778.83,189.71 781.24,190.17C783.65,190.63 786.06,191.08 788.47,191.49C790.88,191.9 793.28,192.29 795.69,192.65C798.09,193.01 800.5,193.34 802.91,193.65C805.31,193.95 807.72,194.23 810.13,194.48C812.54,194.73 814.94,194.96 817.35,195.16C819.76,195.36 822.17,195.53 824.58,195.7C826.99,195.86 829.39,196.01 831.8,196.15C834.21,196.29 836.61,196.41 839.02,196.52C841.43,196.63 843.83,196.73 846.24,196.83C848.65,196.93 851.05,197.01 853.46,197.1C855.87,197.19 858.28,197.27 860.69,197.35C863.1,197.43 865.5,197.51 867.91,197.58C870.32,197.65 872.72,197.72 875.13,197.78C877.54,197.84 879.94,197.9 882.35,197.95C884.76,198 887.17,198.04 889.58,198.08C891.99,198.12 894.39,198.15 896.8,198.18C899.21,198.21 901.61,198.23 904.02,198.25C906.43,198.27 908.83,198.28 911.24,198.3C913.65,198.31 916.05,198.33 918.46,198.34C920.87,198.35 923.28,198.35 925.69,198.36C928.1,198.37 930.5,198.38 932.91,198.39C935.32,198.4 937.72,198.4 940.13,198.41C942.54,198.42 944.94,198.42 947.35,198.43C949.76,198.44 952.17,198.44 954.58,198.45C956.99,198.45 959.39,198.46 961.8,198.46C964.21,198.46 966.61,198.46 969.02,198.46C971.43,198.46 973.83,198.46 976.24,198.46C978.65,198.46 981.05,198.45 983.46,198.45C985.87,198.45 988.28,198.44 990.69,198.44C993.1,198.44 995.5,198.44 997.91,198.44C1000.32,198.44 1002.72,198.43 1005.13,198.43C1007.54,198.43 1009.94,198.43 1012.35,198.43C1014.76,198.43 1017.16,198.43 1019.57,198.43C1021.98,198.43 1024.39,198.43 1026.8,198.43C1029.21,198.43 1031.61,198.43 1034.02,198.43C1036.43,198.43 1038.83,198.44 1041.24,198.44C1043.65,198.44 1046.05,198.44 1048.46,198.44C1050.87,198.44 1053.28,198.45 1055.69,198.45C1058.1,198.45 1060.5,198.46 1062.91,198.46C1065.32,198.46 1067.72,198.46 1070.13,198.46C1072.54,198.46 1074.94,198.47 1077.35,198.47C1079.76,198.47 1082.16,198.48 1084.57,198.48C1086.98,198.48 1089.39,198.49 1091.8,198.49Q1094.21,198.49 1099.02,198.49L1099.02,198.5" style="vector-effect: non-scaling-stroke; stroke-width: 2px; stroke: rgb(132, 73, 99); stroke-opacity: 1; fill: rgb(132, 73, 99); fill-opacity: 0.5;"/><path class="box" d="M624.51,196.5V186.58M547.36,196.5V186.58H688.67V196.5ZM547.36,196.5H336.52M688.67,196.5H888.39" style="vector-effect: non-scaling-stroke; stroke-width: 2px; stroke: rgb(132, 73, 99); stroke-opacity: 1; fill: rgb(132, 73, 99); fill-opacity: 0.5;"/></g><g class="trace violins" style="opacity: 1;"><path class="violin" d="M-52.72,168.73L-52.72,168.72Q-47.41,168.71 -44.76,168.71C-42.1,168.71 -39.45,168.71 -36.79,168.71C-34.13,168.71 -31.48,168.7 -28.82,168.7C-26.16,168.7 -23.51,168.69 -20.85,168.69C-18.19,168.69 -15.54,168.69 -12.88,168.69C-10.22,168.69 -7.57,168.68 -4.91,168.68C-2.26,168.68 0.4,168.69 3.05,168.69C5.71,168.69 8.36,168.69 11.02,168.69C13.68,168.69 16.33,168.7 18.99,168.7C21.65,168.7 24.3,168.7 26.96,168.7C29.62,168.7 32.27,168.71 34.93,168.71C37.59,168.71 40.24,168.71 42.9,168.71C45.55,168.71 48.21,168.7 50.86,168.7C53.52,168.7 56.17,168.7 58.83,168.7C61.49,168.7 64.14,168.69 66.8,168.69C69.46,168.69 72.11,168.69 74.77,168.69C77.43,168.69 80.08,168.68 82.74,168.68C85.4,168.68 88.05,168.68 90.71,168.68C93.36,168.68 96.02,168.68 98.67,168.68C101.33,168.68 103.98,168.68 106.64,168.68C109.3,168.68 111.95,168.67 114.61,168.67C117.27,168.67 119.92,168.66 122.58,168.66C125.24,168.65 127.89,168.65 130.55,168.64C133.21,168.63 135.86,168.62 138.52,168.61C141.17,168.6 143.83,168.58 146.48,168.57C149.14,168.56 151.79,168.55 154.45,168.54C157.11,168.53 159.76,168.52 162.42,168.51C165.08,168.5 167.73,168.5 170.39,168.49C173.05,168.48 175.7,168.48 178.36,168.47C181.02,168.47 183.67,168.47 186.33,168.46C188.98,168.46 191.64,168.45 194.29,168.44C196.95,168.43 199.6,168.42 202.26,168.41C204.92,168.4 207.57,168.39 210.23,168.37C212.89,168.35 215.54,168.33 218.2,168.31C220.86,168.29 223.51,168.26 226.17,168.24C228.83,168.22 231.48,168.19 234.14,168.17C236.79,168.15 239.45,168.12 242.1,168.1C244.76,168.08 247.41,168.05 250.07,168.03C252.73,168.01 255.38,167.98 258.04,167.96C260.7,167.93 263.35,167.91 266.01,167.88C268.67,167.85 271.32,167.81 273.98,167.77C276.64,167.73 279.29,167.68 281.95,167.63C284.6,167.58 287.26,167.51 289.91,167.45C292.57,167.39 295.22,167.32 297.88,167.25C300.54,167.18 303.19,167.1 305.85,167.02C308.51,166.94 311.16,166.86 313.82,166.77C316.48,166.68 319.13,166.58 321.79,166.47C324.45,166.36 327.1,166.25 329.76,166.13C332.42,166.01 335.07,165.87 337.73,165.73C340.38,165.59 343.04,165.42 345.69,165.27C348.35,165.11 351,164.96 353.66,164.8C356.32,164.64 358.97,164.48 361.63,164.32C364.29,164.17 366.94,164.01 369.6,163.87C372.26,163.73 374.91,163.6 377.57,163.46C380.23,163.33 382.88,163.2 385.54,163.06C388.19,162.93 390.85,162.79 393.5,162.65C396.16,162.51 398.81,162.37 401.47,162.22C404.13,162.07 406.78,161.91 409.44,161.75C412.1,161.58 414.75,161.41 417.41,161.23C420.07,161.05 422.72,160.86 425.38,160.67C428.04,160.48 430.69,160.29 433.35,160.1C436,159.91 438.66,159.71 441.31,159.52C443.97,159.33 446.62,159.14 449.28,158.96C451.94,158.78 454.59,158.6 457.25,158.42C459.91,158.24 462.56,158.06 465.22,157.88C467.88,157.7 470.53,157.52 473.19,157.33C475.85,157.13 478.5,156.93 481.16,156.71C483.81,156.49 486.47,156.25 489.12,156C491.78,155.74 494.43,155.47 497.09,155.18C499.75,154.89 502.4,154.57 505.06,154.25C507.72,153.92 510.37,153.57 513.03,153.23C515.69,152.88 518.34,152.53 521,152.18C523.66,151.83 526.31,151.48 528.97,151.13C531.62,150.78 534.28,150.45 536.93,150.1C539.59,149.75 542.24,149.41 544.9,149.04C547.56,148.67 550.22,148.3 552.87,147.89C555.53,147.48 558.19,147.04 560.84,146.57C563.5,146.1 566.16,145.59 568.81,145.07C571.47,144.55 574.12,143.99 576.78,143.46C579.43,142.93 582.08,142.38 584.74,141.9C587.39,141.42 590.05,140.96 592.71,140.58C595.36,140.2 598.02,139.89 600.68,139.64C603.33,139.4 605.99,139.22 608.65,139.11C611.31,139 613.96,138.96 616.62,138.95C619.28,138.94 621.93,138.98 624.59,139.02C627.24,139.06 629.9,139.14 632.55,139.2C635.21,139.26 637.86,139.33 640.52,139.39C643.18,139.45 645.83,139.52 648.49,139.58C651.15,139.64 653.8,139.7 656.46,139.77C659.12,139.84 661.77,139.92 664.43,140.02C667.09,140.13 669.74,140.24 672.4,140.4C675.05,140.55 677.71,140.73 680.36,140.95C683.02,141.17 685.68,141.41 688.33,141.7C690.99,141.99 693.65,142.32 696.3,142.67C698.96,143.02 701.61,143.41 704.27,143.81C706.93,144.21 709.58,144.64 712.24,145.06C714.9,145.48 717.55,145.92 720.21,146.34C722.86,146.76 725.52,147.19 728.17,147.6C730.83,148.01 733.48,148.42 736.14,148.82C738.8,149.22 741.45,149.61 744.11,150.01C746.77,150.41 749.42,150.8 752.08,151.21C754.74,151.62 757.39,152.03 760.05,152.46C762.71,152.89 765.37,153.34 768.02,153.79C770.68,154.24 773.33,154.71 775.98,155.18C778.64,155.65 781.29,156.13 783.95,156.61C786.61,157.09 789.26,157.57 791.92,158.04C794.58,158.51 797.23,158.97 799.89,159.41C802.55,159.85 805.2,160.29 807.86,160.7C810.52,161.11 813.17,161.51 815.83,161.89C818.49,162.27 821.14,162.62 823.8,162.96C826.45,163.3 829.1,163.61 831.76,163.91C834.41,164.21 837.07,164.49 839.73,164.75C842.39,165.01 845.04,165.24 847.7,165.45C850.36,165.66 853.01,165.85 855.67,166.03C858.33,166.2 860.98,166.36 863.64,166.5C866.3,166.64 868.95,166.75 871.61,166.85C874.26,166.95 876.92,167.03 879.57,167.1C882.23,167.17 884.88,167.23 887.54,167.28C890.2,167.33 892.85,167.37 895.51,167.41C898.17,167.45 900.82,167.49 903.48,167.52C906.14,167.55 908.79,167.58 911.45,167.61C914.11,167.64 916.76,167.68 919.42,167.71C922.07,167.74 924.73,167.78 927.38,167.81C930.04,167.84 932.69,167.87 935.35,167.9C938.01,167.93 940.66,167.97 943.32,168C945.98,168.03 948.63,168.06 951.29,168.09C953.95,168.12 956.6,168.16 959.26,168.19C961.92,168.22 964.57,168.24 967.23,168.27C969.88,168.3 972.54,168.33 975.19,168.36C977.85,168.39 980.5,168.42 983.16,168.44C985.82,168.46 988.47,168.48 991.13,168.5C993.79,168.52 996.44,168.53 999.1,168.54C1001.76,168.55 1004.41,168.56 1007.07,168.57C1009.73,168.58 1012.38,168.58 1015.04,168.58C1017.69,168.58 1020.35,168.58 1023,168.58C1025.66,168.58 1028.31,168.58 1030.97,168.58C1033.63,168.58 1036.28,168.58 1038.94,168.58C1041.6,168.58 1044.25,168.59 1046.91,168.59C1049.57,168.59 1052.22,168.6 1054.88,168.6C1057.54,168.61 1060.19,168.61 1062.85,168.62C1065.5,168.63 1068.16,168.64 1070.81,168.64C1073.47,168.65 1076.12,168.65 1078.78,168.65C1081.44,168.65 1084.09,168.66 1086.75,168.66C1089.41,168.66 1092.06,168.66 1094.72,168.66C1097.38,168.66 1100.03,168.66 1102.69,168.66C1105.35,168.66 1108,168.66 1110.66,168.66C1113.31,168.66 1115.97,168.66 1118.62,168.66C1121.28,168.66 1123.93,168.66 1126.59,168.66C1129.25,168.66 1131.9,168.67 1134.56,168.67C1137.22,168.67 1139.87,168.67 1142.53,168.67C1145.19,168.67 1147.84,168.67 1150.5,168.67C1153.16,168.67 1155.81,168.68 1158.47,168.68C1161.12,168.68 1163.78,168.69 1166.43,168.69C1169.09,168.69 1171.74,168.7 1174.4,168.7C1177.06,168.7 1179.71,168.71 1182.37,168.71C1185.03,168.71 1187.68,168.71 1190.34,168.71Q1193,168.71 1198.31,168.72L1198.31,168.73" style="vector-effect: non-scaling-stroke; stroke-width: 2px; stroke: rgb(149, 68, 87); stroke-opacity: 1; fill: rgb(149, 68, 87); fill-opacity: 0.5;"/><path class="box" d="M625.16,166.73V156.8M542.59,166.73V156.8H699.43V166.73ZM542.59,166.73H307.41M699.43,166.73H929.2" style="vector-effect: non-scaling-stroke; stroke-width: 2px; stroke: rgb(149, 68, 87); stroke-opacity: 1; fill: rgb(149, 68, 87); fill-opacity: 0.5;"/></g><g class="trace violins" style="opacity: 1;"><path class="violin" d="M-111.88,138.95L-111.88,138.94Q-106.89,138.94 -104.39,138.94C-101.89,138.94 -99.4,138.93 -96.9,138.93C-94.4,138.93 -91.91,138.93 -89.41,138.93C-86.92,138.93 -84.42,138.92 -81.93,138.92C-79.43,138.92 -76.94,138.91 -74.44,138.91C-71.94,138.91 -69.45,138.91 -66.95,138.91C-64.45,138.91 -61.96,138.91 -59.46,138.91C-56.97,138.91 -54.47,138.92 -51.98,138.92C-49.48,138.92 -46.99,138.93 -44.49,138.93C-41.99,138.93 -39.5,138.93 -37,138.93C-34.5,138.93 -32.01,138.94 -29.51,138.94C-27.02,138.94 -24.52,138.94 -22.03,138.94C-19.53,138.94 -17.04,138.95 -14.54,138.95C-12.04,138.95 -9.55,138.95 -7.05,138.95C-4.55,138.95 -2.06,138.95 0.44,138.95C2.94,138.95 5.43,138.95 7.93,138.95C10.42,138.95 12.92,138.95 15.41,138.95C17.91,138.95 20.4,138.95 22.9,138.95C25.4,138.95 27.89,138.95 30.39,138.95C32.89,138.95 35.38,138.94 37.88,138.94C40.37,138.94 42.87,138.94 45.36,138.94C47.86,138.94 50.35,138.93 52.85,138.93C55.35,138.93 57.84,138.92 60.34,138.92C62.84,138.92 65.33,138.92 67.83,138.91C70.32,138.91 72.82,138.89 75.31,138.89C77.81,138.88 80.3,138.88 82.8,138.88C85.3,138.88 87.79,138.88 90.29,138.88C92.79,138.88 95.28,138.87 97.78,138.87C100.27,138.87 102.77,138.86 105.26,138.86C107.76,138.86 110.25,138.85 112.75,138.85C115.25,138.85 117.74,138.84 120.24,138.84C122.74,138.83 125.23,138.83 127.73,138.82C130.22,138.81 132.72,138.8 135.21,138.79C137.71,138.78 140.2,138.77 142.7,138.76C145.2,138.75 147.69,138.74 150.19,138.73C152.69,138.72 155.18,138.71 157.68,138.7C160.17,138.69 162.67,138.68 165.16,138.67C167.66,138.66 170.15,138.65 172.65,138.64C175.15,138.63 177.64,138.63 180.14,138.62C182.64,138.61 185.13,138.61 187.63,138.6C190.12,138.6 192.62,138.59 195.11,138.59C197.61,138.58 200.1,138.58 202.6,138.57C205.1,138.56 207.59,138.56 210.09,138.55C212.59,138.54 215.08,138.53 217.58,138.52C220.08,138.51 222.57,138.49 225.07,138.47C227.56,138.45 230.06,138.43 232.55,138.41C235.05,138.39 237.54,138.38 240.04,138.36C242.54,138.34 245.03,138.32 247.53,138.3C250.03,138.29 252.52,138.28 255.02,138.27C257.51,138.26 260.01,138.25 262.5,138.25C265,138.24 267.49,138.24 269.99,138.24C272.49,138.24 274.98,138.24 277.48,138.24C279.98,138.24 282.47,138.23 284.97,138.22C287.46,138.21 289.96,138.2 292.45,138.18C294.95,138.16 297.44,138.12 299.94,138.09C302.44,138.06 304.93,138.02 307.43,137.98C309.93,137.93 312.42,137.88 314.92,137.82C317.41,137.76 319.91,137.71 322.4,137.64C324.9,137.57 327.39,137.5 329.89,137.42C332.39,137.34 334.88,137.27 337.38,137.18C339.88,137.09 342.37,136.99 344.87,136.89C347.36,136.79 349.86,136.68 352.35,136.57C354.85,136.46 357.34,136.33 359.84,136.21C362.34,136.08 364.83,135.96 367.33,135.82C369.83,135.68 372.32,135.54 374.82,135.39C377.31,135.24 379.81,135.08 382.3,134.92C384.8,134.76 387.29,134.59 389.79,134.41C392.29,134.23 394.78,134.04 397.28,133.85C399.78,133.66 402.27,133.48 404.77,133.29C407.26,133.11 409.76,132.92 412.25,132.74C414.75,132.56 417.24,132.39 419.74,132.22C422.24,132.06 424.73,131.9 427.23,131.75C429.73,131.6 432.22,131.46 434.72,131.31C437.22,131.17 439.71,131.02 442.21,130.88C444.7,130.74 447.2,130.6 449.69,130.45C452.19,130.3 454.68,130.15 457.18,130C459.68,129.85 462.17,129.69 464.67,129.53C467.17,129.37 469.66,129.21 472.16,129.04C474.65,128.87 477.15,128.69 479.64,128.51C482.14,128.32 484.63,128.13 487.13,127.93C489.63,127.73 492.12,127.51 494.62,127.29C497.12,127.07 499.61,126.83 502.11,126.59C504.6,126.35 507.1,126.1 509.59,125.85C512.09,125.6 514.58,125.33 517.08,125.07C519.58,124.81 522.07,124.54 524.57,124.28C527.07,124.01 529.56,123.75 532.06,123.48C534.55,123.21 537.05,122.95 539.54,122.67C542.04,122.38 544.53,122.09 547.03,121.77C549.53,121.44 552.03,121.11 554.52,120.72C557.02,120.33 559.52,119.9 562.01,119.42C564.51,118.94 567,118.41 569.49,117.86C571.99,117.3 574.48,116.69 576.98,116.09C579.48,115.49 581.97,114.86 584.47,114.28C586.96,113.7 589.46,113.12 591.96,112.61C594.45,112.11 596.94,111.64 599.44,111.25C601.93,110.86 604.43,110.53 606.93,110.27C609.42,110.01 611.92,109.82 614.42,109.67C616.92,109.52 619.41,109.43 621.91,109.35C624.4,109.27 626.9,109.24 629.39,109.21C631.89,109.18 634.38,109.18 636.88,109.18C639.38,109.18 641.87,109.2 644.37,109.23C646.87,109.26 649.36,109.31 651.86,109.39C654.36,109.47 656.85,109.56 659.35,109.69C661.84,109.82 664.34,109.98 666.83,110.17C669.33,110.36 671.82,110.57 674.32,110.82C676.82,111.07 679.31,111.35 681.81,111.65C684.31,111.95 686.81,112.29 689.3,112.63C691.8,112.98 694.29,113.34 696.78,113.72C699.28,114.1 701.77,114.51 704.27,114.91C706.77,115.31 709.26,115.73 711.76,116.14C714.26,116.56 716.75,116.98 719.25,117.4C721.74,117.82 724.24,118.24 726.73,118.67C729.23,119.1 731.72,119.52 734.22,119.96C736.72,120.4 739.21,120.84 741.71,121.29C744.21,121.74 746.71,122.2 749.2,122.67C751.7,123.14 754.19,123.63 756.68,124.12C759.18,124.61 761.67,125.12 764.17,125.62C766.67,126.12 769.16,126.64 771.66,127.14C774.16,127.64 776.65,128.15 779.15,128.63C781.64,129.11 784.13,129.57 786.63,130.01C789.12,130.44 791.62,130.87 794.12,131.24C796.61,131.61 799.11,131.95 801.61,132.25C804.1,132.55 806.6,132.82 809.1,133.06C811.59,133.3 814.09,133.51 816.58,133.7C819.08,133.89 821.57,134.05 824.07,134.21C826.57,134.37 829.06,134.51 831.56,134.65C834.06,134.79 836.55,134.93 839.05,135.07C841.54,135.21 844.04,135.36 846.53,135.51C849.03,135.66 851.52,135.82 854.02,135.97C856.52,136.13 859.01,136.28 861.51,136.44C864.01,136.59 866.5,136.75 869,136.9C871.5,137.05 873.99,137.19 876.49,137.32C878.98,137.45 881.48,137.57 883.97,137.67C886.47,137.77 888.96,137.86 891.46,137.94C893.96,138.02 896.45,138.09 898.95,138.15C901.45,138.21 903.94,138.24 906.44,138.28C908.93,138.32 911.43,138.35 913.92,138.37C916.42,138.39 918.91,138.41 921.41,138.42C923.91,138.43 926.4,138.44 928.9,138.45C931.4,138.46 933.89,138.47 936.39,138.48C938.88,138.49 941.38,138.49 943.87,138.5C946.37,138.51 948.86,138.52 951.36,138.53C953.86,138.54 956.35,138.56 958.85,138.57C961.35,138.59 963.84,138.6 966.34,138.62C968.83,138.64 971.33,138.66 973.82,138.68C976.32,138.7 978.81,138.71 981.31,138.73C983.81,138.75 986.3,138.77 988.8,138.79C991.3,138.81 993.79,138.83 996.29,138.84C998.78,138.85 1001.28,138.86 1003.77,138.87C1006.27,138.88 1008.76,138.89 1011.26,138.9C1013.76,138.91 1016.25,138.92 1018.75,138.92C1021.25,138.92 1023.74,138.92 1026.24,138.92C1028.73,138.92 1031.23,138.92 1033.72,138.92C1036.22,138.92 1038.71,138.91 1041.21,138.91C1043.71,138.91 1046.2,138.9 1048.7,138.9C1051.2,138.89 1053.69,138.89 1056.19,138.88C1058.68,138.88 1061.18,138.87 1063.67,138.87C1066.17,138.87 1068.66,138.87 1071.16,138.87C1073.66,138.87 1076.15,138.87 1078.65,138.87C1081.15,138.87 1083.64,138.88 1086.14,138.88C1088.64,138.88 1091.13,138.89 1093.63,138.89C1096.12,138.89 1098.62,138.89 1101.11,138.89C1103.61,138.89 1106.1,138.9 1108.6,138.9C1111.1,138.9 1113.59,138.9 1116.09,138.9C1118.59,138.9 1121.08,138.9 1123.58,138.9C1126.07,138.9 1128.57,138.91 1131.06,138.91C1133.56,138.91 1136.05,138.92 1138.55,138.92C1141.05,138.92 1143.54,138.93 1146.04,138.93C1148.54,138.93 1151.03,138.93 1153.53,138.93C1156.02,138.93 1158.52,138.94 1161.01,138.94Q1163.51,138.94 1168.5,138.94L1168.5,138.95" style="vector-effect: non-scaling-stroke; stroke-width: 2px; stroke: rgb(165, 63, 75); stroke-opacity: 1; fill: rgb(165, 63, 75); fill-opacity: 0.5;"/><path class="box" d="M630.6,136.95V127.03M552.05,136.95V127.03H698.18V136.95ZM552.05,136.95H335.32M698.18,136.95H917.34" style="vector-effect: non-scaling-stroke; stroke-width: 2px; stroke: rgb(165, 63, 75); stroke-opacity: 1; fill: rgb(165, 63, 75); fill-opacity: 0.5;"/></g><g class="trace violins" style="opacity: 1;"><path class="violin" d="M92.82,109.18L92.82,109.16Q97.84,109.15 100.35,109.15C102.86,109.14 105.37,109.14 107.88,109.13C110.39,109.12 112.91,109.11 115.42,109.1C117.93,109.09 120.44,109.08 122.95,109.07C125.46,109.06 127.97,109.04 130.48,109.03C132.99,109.02 135.5,109.01 138.01,109C140.52,108.99 143.03,108.99 145.54,108.98C148.05,108.97 150.57,108.96 153.08,108.96C155.59,108.96 158.1,108.96 160.61,108.96C163.12,108.96 165.63,108.95 168.14,108.95C170.65,108.95 173.16,108.94 175.67,108.94C178.18,108.93 180.69,108.93 183.2,108.92C185.71,108.91 188.22,108.89 190.73,108.88C193.24,108.87 195.76,108.85 198.27,108.84C200.78,108.83 203.29,108.82 205.8,108.81C208.31,108.8 210.82,108.8 213.33,108.79C215.84,108.79 218.35,108.78 220.86,108.78C223.37,108.78 225.88,108.79 228.39,108.79C230.9,108.79 233.42,108.79 235.93,108.79C238.44,108.79 240.95,108.79 243.46,108.78C245.97,108.77 248.48,108.76 250.99,108.74C253.5,108.72 256.01,108.7 258.52,108.67C261.03,108.64 263.54,108.61 266.05,108.58C268.56,108.54 271.07,108.5 273.58,108.46C276.09,108.42 278.61,108.38 281.12,108.33C283.63,108.29 286.14,108.23 288.65,108.19C291.16,108.15 293.67,108.11 296.18,108.07C298.69,108.03 301.2,107.99 303.71,107.95C306.22,107.91 308.73,107.88 311.24,107.84C313.75,107.8 316.26,107.77 318.77,107.72C321.28,107.67 323.8,107.62 326.31,107.55C328.82,107.48 331.33,107.4 333.84,107.3C336.35,107.2 338.86,107.08 341.37,106.95C343.88,106.82 346.39,106.67 348.9,106.51C351.41,106.35 353.92,106.17 356.43,105.99C358.94,105.81 361.46,105.62 363.97,105.43C366.48,105.24 368.99,105.04 371.5,104.86C374.01,104.68 376.52,104.5 379.03,104.33C381.54,104.16 384.05,104 386.56,103.85C389.07,103.7 391.58,103.55 394.09,103.41C396.6,103.27 399.11,103.14 401.62,103.02C404.13,102.89 406.65,102.78 409.16,102.66C411.67,102.54 414.18,102.43 416.69,102.31C419.2,102.19 421.71,102.08 424.22,101.96C426.73,101.84 429.24,101.73 431.75,101.61C434.26,101.49 436.77,101.37 439.28,101.25C441.79,101.13 444.31,101 446.82,100.88C449.33,100.76 451.84,100.64 454.35,100.52C456.86,100.4 459.37,100.27 461.88,100.14C464.39,100.01 466.9,99.88 469.41,99.73C471.92,99.58 474.43,99.43 476.94,99.26C479.45,99.09 481.96,98.9 484.47,98.7C486.98,98.5 489.5,98.28 492.01,98.05C494.52,97.82 497.03,97.56 499.54,97.3C502.05,97.03 504.56,96.75 507.07,96.46C509.58,96.17 512.09,95.86 514.6,95.55C517.11,95.24 519.62,94.92 522.13,94.61C524.64,94.3 527.15,93.98 529.66,93.67C532.17,93.36 534.69,93.06 537.2,92.76C539.71,92.46 542.22,92.16 544.73,91.85C547.24,91.54 549.75,91.23 552.26,90.89C554.77,90.55 557.28,90.19 559.79,89.8C562.3,89.4 564.81,88.97 567.32,88.52C569.83,88.07 572.35,87.57 574.86,87.08C577.37,86.59 579.88,86.06 582.39,85.57C584.9,85.08 587.41,84.58 589.92,84.14C592.43,83.7 594.94,83.28 597.45,82.93C599.96,82.58 602.47,82.28 604.98,82.03C607.49,81.78 610,81.59 612.51,81.42C615.02,81.26 617.54,81.15 620.05,81.04C622.56,80.93 625.07,80.85 627.58,80.76C630.09,80.66 632.6,80.57 635.11,80.47C637.62,80.36 640.13,80.25 642.64,80.13C645.15,80.01 647.66,79.87 650.17,79.76C652.68,79.65 655.19,79.53 657.7,79.47C660.21,79.41 662.73,79.37 665.24,79.4C667.75,79.43 670.26,79.51 672.77,79.65C675.28,79.79 677.79,80 680.3,80.26C682.81,80.52 685.32,80.85 687.83,81.21C690.34,81.57 692.85,81.98 695.36,82.41C697.87,82.84 700.39,83.31 702.9,83.77C705.41,84.23 707.92,84.72 710.43,85.19C712.94,85.66 715.45,86.13 717.96,86.6C720.47,87.07 722.98,87.53 725.49,87.99C728,88.45 730.51,88.89 733.02,89.34C735.53,89.79 738.04,90.24 740.55,90.69C743.06,91.15 745.58,91.6 748.09,92.07C750.6,92.54 753.11,93.01 755.62,93.5C758.13,93.99 760.64,94.49 763.15,94.99C765.66,95.49 768.17,96 770.68,96.51C773.19,97.01 775.7,97.53 778.21,98.02C780.72,98.52 783.24,99.01 785.75,99.48C788.26,99.95 790.77,100.41 793.28,100.84C795.79,101.27 798.3,101.68 800.81,102.07C803.32,102.46 805.83,102.82 808.34,103.16C810.85,103.5 813.36,103.83 815.87,104.13C818.38,104.43 820.89,104.72 823.4,104.98C825.91,105.24 828.43,105.48 830.94,105.71C833.45,105.94 835.96,106.15 838.47,106.34C840.98,106.53 843.49,106.7 846,106.86C848.51,107.02 851.02,107.16 853.53,107.29C856.04,107.42 858.55,107.53 861.06,107.63C863.57,107.73 866.08,107.82 868.59,107.9C871.1,107.98 873.62,108.05 876.13,108.11C878.64,108.17 881.15,108.23 883.66,108.28C886.17,108.33 888.68,108.38 891.19,108.42C893.7,108.46 896.21,108.49 898.72,108.53C901.23,108.56 903.74,108.6 906.25,108.63C908.76,108.66 911.28,108.68 913.79,108.7C916.3,108.72 918.81,108.74 921.32,108.76C923.83,108.78 926.34,108.8 928.85,108.82C931.36,108.84 933.87,108.85 936.38,108.87C938.89,108.89 941.4,108.9 943.91,108.92C946.42,108.94 948.93,108.95 951.44,108.97C953.95,108.99 956.47,109 958.98,109.02C961.49,109.03 964,109.05 966.51,109.06C969.02,109.07 971.53,109.08 974.04,109.09C976.55,109.1 979.06,109.1 981.57,109.11C984.08,109.11 986.59,109.12 989.1,109.12C991.61,109.12 994.12,109.12 996.63,109.12C999.14,109.12 1001.66,109.12 1004.17,109.12C1006.68,109.12 1009.19,109.13 1011.7,109.13C1014.21,109.13 1016.72,109.13 1019.23,109.13C1021.74,109.13 1024.25,109.13 1026.76,109.13C1029.27,109.13 1031.78,109.13 1034.29,109.13C1036.8,109.13 1039.32,109.13 1041.83,109.13C1044.34,109.13 1046.85,109.12 1049.36,109.12C1051.87,109.12 1054.38,109.11 1056.89,109.11C1059.4,109.11 1061.91,109.1 1064.42,109.1C1066.93,109.1 1069.44,109.1 1071.95,109.1C1074.46,109.1 1076.97,109.11 1079.48,109.11C1081.99,109.11 1084.51,109.11 1087.02,109.11C1089.53,109.11 1092.04,109.12 1094.55,109.13C1097.06,109.13 1099.57,109.14 1102.08,109.14C1104.59,109.14 1107.1,109.15 1109.61,109.15C1112.12,109.15 1114.63,109.16 1117.14,109.16C1119.65,109.16 1122.17,109.17 1124.68,109.17C1127.19,109.17 1129.7,109.17 1132.21,109.17C1134.72,109.17 1137.23,109.17 1139.74,109.17C1142.25,109.17 1144.76,109.17 1147.27,109.17C1149.78,109.17 1152.29,109.17 1154.8,109.17C1157.31,109.17 1159.82,109.17 1162.33,109.17C1164.84,109.17 1167.36,109.16 1169.87,109.16C1172.38,109.16 1174.89,109.16 1177.4,109.16C1179.91,109.16 1182.42,109.15 1184.93,109.15C1187.44,109.15 1189.95,109.14 1192.46,109.14C1194.97,109.14 1197.48,109.14 1199.99,109.14C1202.5,109.14 1205.01,109.14 1207.52,109.14C1210.03,109.14 1212.55,109.14 1215.06,109.14C1217.57,109.14 1220.08,109.14 1222.59,109.14C1225.1,109.14 1227.61,109.15 1230.12,109.15C1232.63,109.15 1235.14,109.16 1237.65,109.16C1240.16,109.16 1242.67,109.17 1245.18,109.17Q1247.69,109.17 1252.72,109.17L1252.72,109.18" style="vector-effect: non-scaling-stroke; stroke-width: 2px; stroke: rgb(182, 58, 63); stroke-opacity: 1; fill: rgb(182, 58, 63); fill-opacity: 0.5;"/><path class="box" d="M630.6,107.18V97.25M549.12,107.18V97.25H696.98V107.18ZM549.12,107.18H327.43M696.98,107.18H916.52" style="vector-effect: non-scaling-stroke; stroke-width: 2px; stroke: rgb(182, 58, 63); stroke-opacity: 1; fill: rgb(182, 58, 63); fill-opacity: 0.5;"/></g><g class="trace violins" style="opacity: 1;"><path class="violin" d="M-28.38,79.4L-28.38,79.39Q-23.12,79.39 -20.49,79.39C-17.86,79.39 -15.23,79.38 -12.6,79.38C-9.97,79.38 -7.34,79.38 -4.71,79.38C-2.08,79.38 0.55,79.37 3.18,79.37C5.81,79.37 8.44,79.36 11.07,79.36C13.7,79.36 16.33,79.36 18.96,79.36C21.59,79.36 24.22,79.35 26.85,79.35C29.48,79.35 32.11,79.35 34.74,79.35C37.37,79.35 40,79.34 42.63,79.34C45.26,79.34 47.89,79.34 50.52,79.33C53.15,79.32 55.77,79.31 58.4,79.3C61.03,79.29 63.66,79.27 66.29,79.26C68.92,79.25 71.55,79.23 74.18,79.22C76.81,79.2 79.44,79.18 82.07,79.17C84.7,79.16 87.33,79.15 89.96,79.14C92.59,79.13 95.22,79.12 97.85,79.11C100.48,79.1 103.11,79.1 105.74,79.1C108.37,79.1 111,79.1 113.63,79.1C116.26,79.1 118.89,79.11 121.52,79.11C124.15,79.11 126.78,79.12 129.41,79.12C132.04,79.12 134.67,79.13 137.3,79.13C139.93,79.13 142.56,79.13 145.19,79.13C147.82,79.13 150.45,79.13 153.08,79.13C155.71,79.13 158.34,79.12 160.97,79.12C163.6,79.12 166.23,79.12 168.86,79.12C171.49,79.12 174.12,79.12 176.75,79.12C179.38,79.12 182,79.13 184.63,79.13C187.26,79.13 189.89,79.13 192.52,79.13C195.15,79.13 197.78,79.13 200.41,79.12C203.04,79.11 205.67,79.1 208.3,79.09C210.93,79.07 213.56,79.05 216.19,79.03C218.82,79.01 221.45,78.98 224.08,78.95C226.71,78.92 229.34,78.89 231.97,78.86C234.6,78.82 237.23,78.78 239.86,78.74C242.49,78.7 245.12,78.66 247.75,78.62C250.38,78.58 253.01,78.53 255.64,78.48C258.27,78.43 260.9,78.38 263.53,78.33C266.16,78.28 268.79,78.23 271.42,78.18C274.05,78.13 276.68,78.06 279.31,78.01C281.94,77.96 284.57,77.91 287.2,77.86C289.83,77.81 292.46,77.75 295.09,77.7C297.72,77.65 300.35,77.6 302.98,77.55C305.61,77.5 308.23,77.45 310.86,77.39C313.49,77.33 316.12,77.26 318.75,77.18C321.38,77.1 324.01,77.02 326.64,76.92C329.27,76.82 331.9,76.72 334.53,76.6C337.16,76.48 339.79,76.35 342.42,76.21C345.05,76.07 347.68,75.93 350.31,75.78C352.94,75.63 355.57,75.48 358.2,75.33C360.83,75.18 363.46,75.04 366.09,74.89C368.72,74.75 371.35,74.6 373.98,74.46C376.61,74.32 379.24,74.19 381.87,74.06C384.5,73.93 387.13,73.81 389.76,73.68C392.39,73.55 395.02,73.42 397.65,73.29C400.28,73.16 402.91,73.03 405.54,72.9C408.17,72.77 410.8,72.64 413.43,72.51C416.06,72.38 418.69,72.24 421.32,72.11C423.95,71.98 426.58,71.85 429.21,71.72C431.84,71.59 434.46,71.47 437.09,71.34C439.72,71.21 442.35,71.09 444.98,70.95C447.61,70.81 450.24,70.67 452.87,70.51C455.5,70.35 458.13,70.19 460.76,70.01C463.39,69.83 466.02,69.62 468.65,69.41C471.28,69.19 473.91,68.96 476.54,68.72C479.17,68.48 481.8,68.21 484.43,67.95C487.06,67.68 489.69,67.41 492.32,67.13C494.95,66.85 497.58,66.56 500.21,66.28C502.84,65.99 505.47,65.71 508.1,65.42C510.73,65.13 513.36,64.85 515.99,64.56C518.62,64.27 521.25,63.98 523.88,63.69C526.51,63.4 529.14,63.11 531.77,62.81C534.4,62.51 537.03,62.2 539.66,61.88C542.29,61.56 544.92,61.23 547.55,60.88C550.18,60.52 552.8,60.15 555.43,59.75C558.06,59.35 560.69,58.93 563.32,58.48C565.95,58.03 568.58,57.55 571.21,57.06C573.84,56.57 576.47,56.05 579.1,55.55C581.73,55.05 584.36,54.53 586.99,54.06C589.62,53.59 592.25,53.12 594.88,52.73C597.51,52.34 600.14,51.98 602.77,51.7C605.4,51.42 608.03,51.2 610.66,51.03C613.29,50.86 615.92,50.76 618.55,50.67C621.18,50.58 623.81,50.55 626.44,50.49C629.07,50.44 631.7,50.4 634.33,50.34C636.96,50.28 639.59,50.22 642.22,50.14C644.85,50.06 647.48,49.96 650.11,49.88C652.74,49.8 655.37,49.7 658,49.66C660.63,49.62 663.26,49.6 665.89,49.63C668.52,49.66 671.15,49.73 673.78,49.87C676.41,50.01 679.03,50.21 681.66,50.45C684.29,50.69 686.92,51 689.55,51.32C692.18,51.64 694.81,52.02 697.44,52.39C700.07,52.77 702.7,53.17 705.33,53.57C707.96,53.97 710.59,54.38 713.22,54.78C715.85,55.19 718.48,55.59 721.11,56C723.74,56.41 726.37,56.82 729,57.24C731.63,57.66 734.26,58.09 736.89,58.52C739.52,58.95 742.15,59.39 744.78,59.84C747.41,60.29 750.04,60.76 752.67,61.23C755.3,61.71 757.93,62.19 760.56,62.69C763.19,63.19 765.82,63.7 768.45,64.21C771.08,64.72 773.71,65.25 776.34,65.77C778.97,66.29 781.6,66.81 784.23,67.32C786.86,67.83 789.49,68.34 792.12,68.83C794.75,69.32 797.38,69.8 800.01,70.26C802.64,70.72 805.26,71.16 807.89,71.59C810.52,72.01 813.15,72.42 815.78,72.81C818.41,73.2 821.04,73.57 823.67,73.92C826.3,74.27 828.93,74.59 831.56,74.89C834.19,75.19 836.82,75.46 839.45,75.71C842.08,75.96 844.71,76.18 847.34,76.37C849.97,76.56 852.6,76.72 855.23,76.87C857.86,77.01 860.49,77.13 863.12,77.24C865.75,77.35 868.38,77.44 871.01,77.53C873.64,77.62 876.27,77.7 878.9,77.78C881.53,77.86 884.16,77.93 886.79,78C889.42,78.07 892.05,78.14 894.68,78.21C897.31,78.28 899.94,78.34 902.57,78.4C905.2,78.46 907.83,78.51 910.46,78.56C913.09,78.61 915.72,78.65 918.35,78.69C920.98,78.73 923.61,78.77 926.24,78.8C928.87,78.83 931.49,78.86 934.12,78.88C936.75,78.91 939.38,78.93 942.01,78.95C944.64,78.97 947.27,78.99 949.9,79.01C952.53,79.03 955.16,79.04 957.79,79.06C960.42,79.07 963.05,79.09 965.68,79.1C968.31,79.11 970.94,79.12 973.57,79.13C976.2,79.14 978.83,79.14 981.46,79.15C984.09,79.16 986.72,79.16 989.35,79.17C991.98,79.18 994.61,79.18 997.24,79.19C999.87,79.2 1002.5,79.2 1005.13,79.21C1007.76,79.22 1010.39,79.22 1013.02,79.23C1015.65,79.23 1018.28,79.24 1020.91,79.24C1023.54,79.24 1026.17,79.25 1028.8,79.25C1031.43,79.25 1034.06,79.26 1036.69,79.26C1039.32,79.26 1041.95,79.27 1044.58,79.27C1047.21,79.27 1049.84,79.27 1052.47,79.28C1055.1,79.28 1057.72,79.3 1060.35,79.3C1062.98,79.31 1065.61,79.31 1068.24,79.31C1070.87,79.32 1073.5,79.32 1076.13,79.33C1078.76,79.34 1081.39,79.34 1084.02,79.35C1086.65,79.36 1089.28,79.36 1091.91,79.37C1094.54,79.37 1097.17,79.38 1099.8,79.38C1102.43,79.38 1105.06,79.39 1107.69,79.39C1110.32,79.39 1112.95,79.39 1115.58,79.39C1118.21,79.39 1120.84,79.39 1123.47,79.39C1126.1,79.39 1128.73,79.38 1131.36,79.38C1133.99,79.38 1136.62,79.37 1139.25,79.37C1141.88,79.37 1144.51,79.37 1147.14,79.37C1149.77,79.37 1152.4,79.36 1155.03,79.36C1157.66,79.36 1160.29,79.36 1162.92,79.36C1165.55,79.36 1168.18,79.36 1170.81,79.36C1173.44,79.36 1176.07,79.37 1178.7,79.37C1181.33,79.37 1183.95,79.38 1186.58,79.38C1189.21,79.38 1191.84,79.38 1194.47,79.38C1197.1,79.38 1199.73,79.39 1202.36,79.39Q1204.99,79.39 1210.25,79.39L1210.25,79.4" style="vector-effect: non-scaling-stroke; stroke-width: 2px; stroke: rgb(198, 53, 51); stroke-opacity: 1; fill: rgb(198, 53, 51); fill-opacity: 0.5;"/><path class="box" d="M630.79,77.4V67.48M547.95,77.4V67.48H702.61V77.4ZM547.95,77.4H316.01M702.61,77.4H931.48" style="vector-effect: non-scaling-stroke; stroke-width: 2px; stroke: rgb(198, 53, 51); stroke-opacity: 1; fill: rgb(198, 53, 51); fill-opacity: 0.5;"/></g><g class="trace violins" style="opacity: 1;"><path class="violin" d="M3.65,49.63L3.65,49.62Q8.24,49.62 10.54,49.62C12.84,49.62 15.13,49.61 17.43,49.61C19.72,49.61 22.02,49.6 24.31,49.6C26.61,49.6 28.9,49.59 31.2,49.59C33.5,49.59 35.79,49.59 38.09,49.59C40.39,49.59 42.68,49.58 44.98,49.58C47.27,49.58 49.57,49.58 51.86,49.58C54.16,49.58 56.45,49.59 58.75,49.59C61.05,49.59 63.34,49.59 65.64,49.59C67.94,49.59 70.23,49.59 72.53,49.59C74.83,49.59 77.12,49.58 79.42,49.58C81.71,49.58 84.01,49.58 86.3,49.58C88.6,49.58 90.89,49.57 93.19,49.56C95.49,49.56 97.78,49.55 100.08,49.55C102.38,49.55 104.67,49.54 106.97,49.54C109.26,49.54 111.56,49.53 113.85,49.53C116.15,49.53 118.44,49.53 120.74,49.53C123.04,49.53 125.33,49.53 127.63,49.53C129.93,49.53 132.22,49.54 134.52,49.54C136.82,49.54 139.11,49.54 141.41,49.55C143.7,49.55 146,49.57 148.29,49.57C150.59,49.58 152.88,49.58 155.18,49.58C157.48,49.58 159.77,49.59 162.07,49.59C164.37,49.59 166.66,49.6 168.96,49.6C171.26,49.6 173.55,49.6 175.85,49.6C178.14,49.6 180.44,49.59 182.73,49.59C185.03,49.59 187.32,49.59 189.62,49.59C191.92,49.59 194.21,49.58 196.51,49.57C198.81,49.57 201.1,49.57 203.4,49.56C205.69,49.56 207.99,49.55 210.28,49.54C212.58,49.53 214.87,49.53 217.17,49.52C219.47,49.51 221.76,49.49 224.06,49.48C226.36,49.47 228.65,49.46 230.95,49.45C233.25,49.44 235.54,49.43 237.84,49.41C240.13,49.4 242.43,49.37 244.72,49.36C247.02,49.34 249.31,49.33 251.61,49.32C253.91,49.31 256.2,49.3 258.5,49.29C260.8,49.28 263.09,49.27 265.39,49.25C267.68,49.24 269.98,49.22 272.27,49.2C274.57,49.18 276.86,49.17 279.16,49.15C281.46,49.13 283.75,49.1 286.05,49.08C288.35,49.06 290.64,49.04 292.94,49.01C295.24,48.98 297.53,48.95 299.83,48.91C302.12,48.87 304.42,48.83 306.71,48.79C309.01,48.74 311.3,48.69 313.6,48.64C315.9,48.59 318.19,48.53 320.49,48.47C322.79,48.41 325.08,48.35 327.38,48.29C329.67,48.23 331.97,48.16 334.26,48.09C336.56,48.02 338.85,47.96 341.15,47.89C343.45,47.82 345.74,47.74 348.04,47.66C350.34,47.58 352.63,47.5 354.93,47.41C357.23,47.32 359.52,47.22 361.82,47.11C364.11,47 366.41,46.89 368.7,46.77C371,46.65 373.29,46.51 375.59,46.38C377.89,46.24 380.18,46.1 382.48,45.96C384.78,45.82 387.07,45.68 389.37,45.54C391.66,45.4 393.96,45.26 396.25,45.13C398.55,45 400.84,44.87 403.14,44.74C405.44,44.62 407.73,44.49 410.03,44.38C412.33,44.27 414.62,44.17 416.92,44.06C419.22,43.96 421.51,43.85 423.81,43.75C426.1,43.65 428.4,43.55 430.69,43.45C432.99,43.34 435.28,43.24 437.58,43.12C439.88,43 442.17,42.88 444.47,42.74C446.77,42.6 449.06,42.45 451.36,42.29C453.66,42.13 455.95,41.96 458.25,41.79C460.54,41.62 462.84,41.43 465.13,41.25C467.43,41.07 469.72,40.88 472.02,40.7C474.32,40.52 476.61,40.33 478.91,40.15C481.21,39.97 483.5,39.79 485.8,39.61C488.09,39.43 490.39,39.25 492.68,39.05C494.98,38.85 497.27,38.65 499.57,38.43C501.87,38.21 504.16,37.98 506.46,37.75C508.76,37.51 511.05,37.27 513.35,37.02C515.65,36.77 517.94,36.51 520.24,36.26C522.53,36.01 524.83,35.75 527.12,35.5C529.42,35.25 531.71,35 534.01,34.75C536.31,34.5 538.6,34.24 540.9,33.98C543.2,33.71 545.5,33.45 547.79,33.16C550.09,32.87 552.38,32.57 554.67,32.23C556.97,31.89 559.27,31.53 561.56,31.14C563.86,30.75 566.16,30.32 568.45,29.87C570.75,29.42 573.05,28.94 575.34,28.45C577.64,27.96 579.93,27.44 582.23,26.93C584.52,26.42 586.81,25.89 589.11,25.39C591.4,24.89 593.7,24.39 596,23.93C598.29,23.47 600.59,23.03 602.89,22.64C605.18,22.25 607.48,21.89 609.78,21.58C612.07,21.27 614.36,21.01 616.66,20.79C618.95,20.57 621.25,20.4 623.55,20.26C625.85,20.12 628.14,20.03 630.44,19.96C632.74,19.89 635.03,19.86 637.33,19.85C639.63,19.84 641.92,19.85 644.22,19.88C646.51,19.91 648.81,19.97 651.1,20.05C653.4,20.13 655.69,20.22 657.99,20.34C660.29,20.46 662.58,20.61 664.88,20.78C667.18,20.96 669.48,21.16 671.77,21.39C674.07,21.63 676.36,21.89 678.65,22.19C680.95,22.49 683.25,22.82 685.54,23.17C687.84,23.53 690.14,23.92 692.43,24.32C694.73,24.73 697.02,25.16 699.32,25.6C701.62,26.04 703.91,26.5 706.21,26.95C708.5,27.4 710.8,27.86 713.09,28.31C715.39,28.76 717.68,29.21 719.98,29.65C722.28,30.08 724.57,30.5 726.87,30.92C729.17,31.33 731.46,31.73 733.76,32.14C736.05,32.54 738.35,32.95 740.64,33.35C742.94,33.75 745.23,34.15 747.53,34.56C749.83,34.97 752.12,35.39 754.42,35.81C756.72,36.23 759.01,36.66 761.31,37.09C763.61,37.52 765.9,37.96 768.2,38.39C770.49,38.82 772.79,39.26 775.08,39.68C777.38,40.1 779.67,40.52 781.97,40.93C784.27,41.33 786.56,41.73 788.86,42.11C791.16,42.49 793.45,42.85 795.75,43.19C798.05,43.53 800.34,43.87 802.64,44.17C804.93,44.47 807.22,44.75 809.52,45.01C811.81,45.27 814.11,45.51 816.41,45.73C818.71,45.95 821,46.14 823.3,46.32C825.6,46.5 827.89,46.66 830.19,46.81C832.48,46.96 834.78,47.09 837.07,47.21C839.37,47.33 841.66,47.44 843.96,47.55C846.26,47.65 848.55,47.75 850.85,47.84C853.15,47.93 855.44,48.02 857.74,48.11C860.04,48.2 862.33,48.28 864.63,48.36C866.92,48.44 869.22,48.52 871.51,48.59C873.81,48.67 876.1,48.74 878.4,48.81C880.7,48.88 882.99,48.94 885.29,48.99C887.59,49.04 889.88,49.09 892.18,49.13C894.47,49.17 896.77,49.21 899.06,49.24C901.36,49.27 903.65,49.29 905.95,49.31C908.25,49.33 910.54,49.35 912.84,49.36C915.14,49.37 917.43,49.38 919.73,49.39C922.03,49.4 924.32,49.39 926.62,49.4C928.91,49.4 931.21,49.41 933.5,49.42C935.8,49.43 938.09,49.43 940.39,49.44C942.69,49.45 944.98,49.46 947.28,49.47C949.58,49.48 951.87,49.49 954.17,49.5C956.46,49.51 958.76,49.51 961.05,49.52C963.35,49.53 965.64,49.53 967.94,49.54C970.24,49.55 972.53,49.55 974.83,49.56C977.13,49.56 979.42,49.57 981.72,49.57C984.02,49.57 986.31,49.57 988.61,49.57C990.9,49.57 993.2,49.58 995.49,49.58C997.79,49.58 1000.08,49.58 1002.38,49.58C1004.68,49.58 1006.97,49.59 1009.27,49.59C1011.57,49.59 1013.86,49.59 1016.16,49.59C1018.45,49.59 1020.75,49.58 1023.04,49.58C1025.34,49.58 1027.63,49.58 1029.93,49.58C1032.23,49.58 1034.52,49.58 1036.82,49.58C1039.12,49.58 1041.41,49.59 1043.71,49.59C1046.01,49.59 1048.3,49.59 1050.6,49.59C1052.89,49.59 1055.19,49.6 1057.48,49.6C1059.78,49.6 1062.07,49.61 1064.37,49.61C1066.67,49.61 1068.96,49.62 1071.26,49.62C1073.56,49.62 1075.85,49.62 1078.15,49.62C1080.45,49.62 1082.74,49.62 1085.04,49.62C1087.33,49.62 1089.63,49.62 1091.92,49.62C1094.22,49.62 1096.51,49.62 1098.81,49.62C1101.11,49.62 1103.4,49.62 1105.7,49.62C1108,49.62 1110.29,49.62 1112.59,49.62C1114.88,49.62 1117.18,49.62 1119.47,49.62C1121.77,49.62 1124.06,49.62 1126.36,49.62C1128.66,49.62 1130.95,49.62 1133.25,49.62C1135.55,49.62 1137.84,49.62 1140.14,49.62C1142.44,49.62 1144.73,49.62 1147.03,49.62C1149.32,49.62 1151.62,49.62 1153.91,49.62C1156.21,49.62 1158.5,49.62 1160.8,49.62C1163.1,49.62 1165.39,49.62 1167.69,49.62C1169.99,49.62 1172.28,49.62 1174.58,49.62C1176.87,49.62 1179.17,49.62 1181.46,49.62C1183.76,49.62 1186.05,49.62 1188.35,49.62C1190.65,49.62 1192.94,49.62 1195.24,49.62C1197.54,49.62 1199.83,49.62 1202.13,49.62C1204.43,49.62 1206.72,49.62 1209.02,49.62C1211.31,49.62 1213.61,49.62 1215.9,49.62C1218.2,49.62 1220.49,49.62 1222.79,49.62C1225.09,49.62 1227.38,49.62 1229.68,49.62C1231.98,49.62 1234.27,49.62 1236.57,49.62C1238.86,49.62 1241.16,49.62 1243.45,49.62C1245.75,49.62 1248.04,49.61 1250.34,49.61C1252.64,49.61 1254.93,49.61 1257.23,49.61C1259.53,49.61 1261.82,49.6 1264.12,49.6C1266.42,49.6 1268.71,49.59 1271.01,49.59C1273.3,49.59 1275.6,49.59 1277.89,49.59C1280.19,49.59 1282.48,49.58 1284.78,49.58C1287.08,49.58 1289.37,49.59 1291.67,49.59C1293.97,49.59 1296.26,49.59 1298.56,49.59C1300.85,49.59 1303.15,49.6 1305.44,49.6C1307.74,49.6 1310.03,49.61 1312.33,49.61C1314.63,49.61 1316.92,49.62 1319.22,49.62Q1321.52,49.62 1326.11,49.62L1326.11,49.63" style="vector-effect: non-scaling-stroke; stroke-width: 2px; stroke: rgb(215, 48, 39); stroke-opacity: 1; fill: rgb(215, 48, 39); fill-opacity: 0.5;"/><path class="box" d="M631.01,47.63V37.7M557.69,47.63V37.7H692.9V47.63ZM557.69,47.63H355.02M692.9,47.63H893.94" style="vector-effect: non-scaling-stroke; stroke-width: 2px; stroke: rgb(215, 48, 39); stroke-opacity: 1; fill: rgb(215, 48, 39); fill-opacity: 0.5;"/></g></g></g><g class="overplot"/><path class="xlines-above crisp" d="M0,0" style="fill: none;"/><path class="ylines-above crisp" d="M0,0" style="fill: none;"/><g class="overlines-above"/><g class="xaxislayer-above"><g class="xtick"><text text-anchor="middle" x="0" y="460" transform="translate(177.41,0)" style="font-family: 'Open Sans', verdana, arial, sans-serif; font-size: 12px; fill: rgb(42, 63, 95); fill-opacity: 1; white-space: pre;">10</text></g><g class="xtick"><text text-anchor="middle" x="0" y="460" transform="translate(449.45,0)" style="font-family: 'Open Sans', verdana, arial, sans-serif; font-size: 12px; fill: rgb(42, 63, 95); fill-opacity: 1; white-space: pre;">5</text></g><g class="xtick"><text text-anchor="middle" x="0" y="460" transform="translate(721.5,0)" style="font-family: 'Open Sans', verdana, arial, sans-serif; font-size: 12px; fill: rgb(42, 63, 95); fill-opacity: 1; white-space: pre;">0</text></g><g class="xtick"><text text-anchor="middle" x="0" y="460" transform="translate(993.55,0)" style="font-family: 'Open Sans', verdana, arial, sans-serif; font-size: 12px; fill: rgb(42, 63, 95); fill-opacity: 1; white-space: pre;">5</text></g><g class="xtick"><text text-anchor="middle" x="0" y="460" transform="translate(1265.59,0)" style="font-family: 'Open Sans', verdana, arial, sans-serif; font-size: 12px; fill: rgb(42, 63, 95); fill-opacity: 1; white-space: pre;">10</text></g></g><g class="yaxislayer-above"><g class="ytick"><text text-anchor="end" x="122" y="4.199999999999999" transform="translate(0,427.15)" style="font-family: 'Open Sans', verdana, arial, sans-serif; font-size: 12px; fill: rgb(42, 63, 95); fill-opacity: 1; white-space: pre;">Sample 11-1_A3</text></g><g class="ytick"><text text-anchor="end" x="122" y="4.199999999999999" transform="translate(0,397.38)" style="font-family: 'Open Sans', verdana, arial, sans-serif; font-size: 12px; fill: rgb(42, 63, 95); fill-opacity: 1; white-space: pre;">Sample 4-2_B2</text></g><g class="ytick"><text text-anchor="end" x="122" y="4.199999999999999" transform="translate(0,367.6)" style="font-family: 'Open Sans', verdana, arial, sans-serif; font-size: 12px; fill: rgb(42, 63, 95); fill-opacity: 1; white-space: pre;">Sample 80-1_H3</text></g><g class="ytick"><text text-anchor="end" x="122" y="4.199999999999999" transform="translate(0,337.83)" style="font-family: 'Open Sans', verdana, arial, sans-serif; font-size: 12px; fill: rgb(42, 63, 95); fill-opacity: 1; white-space: pre;">Sample 7-2_F2</text></g><g class="ytick"><text text-anchor="end" x="122" y="4.199999999999999" transform="translate(0,308.05)" style="font-family: 'Open Sans', verdana, arial, sans-serif; font-size: 12px; fill: rgb(42, 63, 95); fill-opacity: 1; white-space: pre;">Sample 79-2_G3</text></g><g class="ytick"><text text-anchor="end" x="122" y="4.199999999999999" transform="translate(0,278.28)" style="font-family: 'Open Sans', verdana, arial, sans-serif; font-size: 12px; fill: rgb(42, 63, 95); fill-opacity: 1; white-space: pre;">Sample 134-2_A5</text></g><g class="ytick"><text text-anchor="end" x="122" y="4.199999999999999" transform="translate(0,248.5)" style="font-family: 'Open Sans', verdana, arial, sans-serif; font-size: 12px; fill: rgb(42, 63, 95); fill-opacity: 1; white-space: pre;">Sample 69-1_F3</text></g><g class="ytick"><text text-anchor="end" x="122" y="4.199999999999999" transform="translate(0,218.73)" style="font-family: 'Open Sans', verdana, arial, sans-serif; font-size: 12px; fill: rgb(42, 63, 95); fill-opacity: 1; white-space: pre;">Sample 117-2_C4</text></g><g class="ytick"><text text-anchor="end" x="122" y="4.199999999999999" transform="translate(0,188.95)" style="font-family: 'Open Sans', verdana, arial, sans-serif; font-size: 12px; fill: rgb(42, 63, 95); fill-opacity: 1; white-space: pre;">Sample 131-1_F4</text></g><g class="ytick"><text text-anchor="end" x="122" y="4.199999999999999" transform="translate(0,159.18)" style="font-family: 'Open Sans', verdana, arial, sans-serif; font-size: 12px; fill: rgb(42, 63, 95); fill-opacity: 1; white-space: pre;">Sample 7-1_E2</text></g><g class="ytick"><text text-anchor="end" x="122" y="4.199999999999999" transform="translate(0,129.4)" style="font-family: 'Open Sans', verdana, arial, sans-serif; font-size: 12px; fill: rgb(42, 63, 95); fill-opacity: 1; white-space: pre;">Sample 134-1_H4</text></g><g class="ytick"><text text-anchor="end" x="122" y="4.199999999999999" transform="translate(0,99.63)" style="font-family: 'Open Sans', verdana, arial, sans-serif; font-size: 12px; fill: rgb(42, 63, 95); fill-opacity: 1; white-space: pre;">Sample 4-1_B2</text></g></g><g class="overaxes-above"/></g></g><g class="polarlayer"/><g class="ternarylayer"/><g class="geolayer"/><g class="funnelarealayer"/><g class="pielayer"/><g class="treemaplayer"/><g class="sunburstlayer"/><g class="glimages"/><defs id="topdefs-1511d1"><g class="clips"/></defs><g class="layer-above"><g class="imagelayer"/><g class="shapelayer"/></g><g class="infolayer"><g class="g-gtitle"/><g class="g-xtitle"><text class="xtitle" x="721.5" y="487.8" text-anchor="middle" style="font-family: 'Open Sans', verdana, arial, sans-serif; font-size: 14px; fill: rgb(42, 63, 95); opacity: 1; font-weight: normal; white-space: pre;">CpG median log likelihood ratio</text></g><g class="g-ytitle"/><g class="annotation" data-index="0" style="opacity: 1;"><g class="annotation-text-g" transform="rotate(0,721.5,35.67999999999998)"><g class="cursor-pointer" transform="translate(685, 26)"><rect class="bg" x="0.5" y="0.5" width="72" height="18" style="stroke-width: 1px; stroke: rgb(0, 0, 0); stroke-opacity: 0; fill: rgb(0, 0, 0); fill-opacity: 0;"/><text class="annotation-text" text-anchor="middle" x="36.421875" y="14" style="font-family: 'Open Sans', verdana, arial, sans-serif; font-size: 12px; fill: rgb(100, 100, 100); fill-opacity: 1; white-space: pre;">Ambiguous</text></g></g></g><g class="annotation" data-index="1" style="opacity: 1;"><g class="annotation-text-g" transform="rotate(0,395.05,35.67999999999998)"><g class="cursor-pointer" transform="translate(351, 26)"><rect class="bg" x="0.5" y="0.5" width="88" height="18" style="stroke-width: 1px; stroke: rgb(0, 0, 0); stroke-opacity: 0; fill: rgb(0, 0, 0); fill-opacity: 0;"/><text class="annotation-text" text-anchor="middle" x="44.1875" y="14" style="font-family: 'Open Sans', verdana, arial, sans-serif; font-size: 12px; fill: rgb(33, 102, 172); fill-opacity: 1; white-space: pre;">Unmethylated</text></g></g></g><g class="annotation" data-index="2" style="opacity: 1;"><g class="annotation-text-g" transform="rotate(0,1047.95,35.67999999999998)"><g class="cursor-pointer" transform="translate(1012, 26)"><rect class="bg" x="0.5" y="0.5" width="70" height="18" style="stroke-width: 1px; stroke: rgb(0, 0, 0); stroke-opacity: 0; fill: rgb(0, 0, 0); fill-opacity: 0;"/><text class="annotation-text" text-anchor="middle" x="35.21875" y="14" style="font-family: 'Open Sans', verdana, arial, sans-serif; font-size: 12px; fill: rgb(215, 48, 39); fill-opacity: 1; white-space: pre;">Methylated</text></g></g></g></g></svg>