<svg class="main-svg" xmlns="http://www.w3.org/2000/svg" xmlns:xlink="http://www.w3.org/1999/xlink" width="1400" height="500" style="" viewBox="0 0 1400 500"><rect x="0" y="0" width="1400" height="500" style="fill: rgb(255, 255, 255); fill-opacity: 1;"/><defs id="defs-991bc1"><g class="clips"><clipPath id="clip991bc1xyplot" class="plotclip"><rect width="1195" height="395"/></clipPath><clipPath class="axesclip" id="clip991bc1x"><rect x="125" y="0" width="1195" height="500"/></clipPath><clipPath class="axesclip" id="clip991bc1y"><rect x="0" y="50" width="1400" height="395"/></clipPath><clipPath class="axesclip" id="clip991bc1xy"><rect x="125" y="50" width="1195" height="395"/></clipPath></g><g class="gradients"/></defs><g class="bglayer"><rect class="bg" x="125" y="50" width="1195" height="395" style="fill: rgb(0, 0, 0); fill-opacity: 0; stroke-width: 0;"/></g><g class="layer-below"><g class="imagelayer"/><g class="shapelayer"><path data-index="0" fill-rule="evenodd" d="M820.27,445H863.73V50H820.27Z" clip-path="url('#clip991bc1x')" style="opacity: 0.25; stroke: rgb(0, 0, 0); stroke-opacity: 0; fill: rgb(100, 100, 100); fill-opacity: 1; stroke-width: 0px;"/></g></g><g class="cartesianlayer"><g class="subplot xy"><g class="layer-subplot"><g class="shapelayer"/><g class="imagelayer"/></g><g class="gridlayer"><g class="x"/><g class="y"><path class="ygrid crisp" transform="translate(0,425.25)" d="M125,0h1195" style="stroke: rgb(211, 211, 211); stroke-opacity: 1; stroke-width: 1px;"/><path class="ygrid crisp" transform="translate(0,393.16)" d="M125,0h1195" style="stroke: rgb(211, 211, 211); stroke-opacity: 1; stroke-width: 1px;"/><path class="ygrid crisp" transform="translate(0,361.07)" d="M125,0h1195" style="stroke: rgb(211, 211, 211); stroke-opacity: 1; stroke-width: 1px;"/><path class="ygrid crisp" transform="translate(0,328.98)" d="M125,0h1195" style="stroke: rgb(211, 211, 211); stroke-opacity: 1; stroke-width: 1px;"/><path class="ygrid crisp" transform="translate(0,296.89)" d="M125,0h1195" style="stroke: rgb(211, 211, 211); stroke-opacity: 1; stroke-width: 1px;"/><path class="ygrid crisp" transform="translate(0,264.8)" d="M125,0h1195" style="stroke: rgb(211, 211, 211); stroke-opacity: 1; stroke-width: 1px;"/><path class="ygrid crisp" transform="translate(0,232.7)" d="M125,0h1195" style="stroke: rgb(211, 211, 211); stroke-opacity: 1; stroke-width: 1px;"/><path class="ygrid crisp" transform="translate(0,200.61)" d="M125,0h1195" style="stroke: rgb(211, 211, 211); stroke-opacity: 1; stroke-width: 1px;"/><path class="ygrid crisp" transform="translate(0,168.51999999999998)" d="M125,0h1195" style="stroke: rgb(211, 211, 211); stroke-opacity: 1; stroke-width: 1px;"/><path class="ygrid crisp" transform="translate(0,136.43)" d="M125,0h1195" style="stroke: rgb(211, 211, 211); stroke-opacity: 1; stroke-width: 1px;"/><path class="ygrid crisp" transform="translate(0,104.34)" d="M125,0h1195" style="stroke: rgb(211, 211, 211); stroke-opacity: 1; stroke-width: 1px;"/></g></g><g class="zerolinelayer"/><path class="xlines-below"/><path class="ylines-below"/><g class="overlines-below"/><g class="xaxislayer-below"/><g class="yaxislayer-below"/><g class="overaxes-below"/><g class="plot" transform="translate(125, 50)" clip-path="url('#clip991bc1xyplot')"><g class="violinlayer mlayer"><g class="trace violins" style="opacity: 1;"><path class="violin" d="M235.18,375.25L235.18,374.83Q245.01,374.6 249.93,374.44C254.85,374.28 259.76,374.08 264.68,373.85C269.6,373.62 274.52,373.34 279.44,373.04C284.36,372.74 289.27,372.4 294.19,372.07C299.11,371.74 304.02,371.38 308.94,371.06C313.86,370.74 318.78,370.42 323.7,370.16C328.62,369.9 333.53,369.67 338.45,369.51C343.37,369.35 348.29,369.23 353.21,369.18C358.13,369.13 363.04,369.13 367.96,369.18C372.88,369.23 377.79,369.34 382.71,369.47C387.63,369.6 392.55,369.78 397.47,369.95C402.39,370.12 407.3,370.33 412.22,370.51C417.14,370.69 422.06,370.9 426.98,371.05C431.9,371.2 436.81,371.34 441.73,371.42C446.65,371.5 451.56,371.55 456.48,371.53C461.4,371.51 466.32,371.43 471.24,371.28C476.16,371.13 481.07,370.91 485.99,370.61C490.91,370.31 495.84,369.94 500.75,369.47C505.67,369 510.59,368.44 515.5,367.77C520.42,367.09 525.34,366.31 530.25,365.42C535.18,364.52 540.1,363.5 545.01,362.4C549.94,361.3 554.85,360.06 559.76,358.82C564.69,357.57 569.6,356.22 574.52,354.93C579.44,353.65 584.34,352.31 589.27,351.11C594.18,349.91 599.09,348.73 604.02,347.73C608.93,346.74 613.85,345.84 618.78,345.15C623.69,344.46 628.61,343.93 633.53,343.6C638.44,343.27 643.37,343.12 648.29,343.16C653.21,343.2 658.13,343.44 663.04,343.83C667.96,344.22 672.88,344.81 677.79,345.52C682.72,346.24 687.64,347.13 692.55,348.12C697.48,349.12 702.39,350.28 707.3,351.49C712.23,352.71 717.15,354.05 722.06,355.4C726.98,356.75 731.89,358.2 736.81,359.57C741.72,360.94 746.63,362.36 751.56,363.64C756.47,364.92 761.39,366.15 766.32,367.24C771.23,368.32 776.14,369.31 781.07,370.15C785.98,370.98 790.9,371.68 795.83,372.26C800.74,372.84 805.66,373.27 810.58,373.64Q815.49,374.01 825.33,374.46L825.33,375.25" style="vector-effect: non-scaling-stroke; stroke-width: 2px; stroke: rgb(33, 102, 172); stroke-opacity: 1; fill: rgb(33, 102, 172); fill-opacity: 0.5;"/><g class="points"><path class="point" transform="translate(324.82,367.53)" d="M2.5,0A2.5,2.5 0 1,1 0,-2.5A2.5,2.5 0 0,1 2.5,0Z" style="opacity: 1; stroke-width: 0px; fill: rgb(33, 102, 172); fill-opacity: 1;"/><path class="point" transform="translate(358.28,370.56)" d="M2.5,0A2.5,2.5 0 1,1 0,-2.5A2.5,2.5 0 0,1 2.5,0Z" style="opacity: 1; stroke-width: 0px; fill: rgb(33, 102, 172); fill-opacity: 1;"/><path class="point" transform="translate(409.34,366.62)" d="M2.5,0A2.5,2.5 0 1,1 0,-2.5A2.5,2.5 0 0,1 2.5,0Z" style="opacity: 1; stroke-width: 0px; fill: rgb(33, 102, 172); fill-opacity: 1;"/><path class="point" transform="translate(501.9,371.36)" d="M2.5,0A2.5,2.5 0 1,1 0,-2.5A2.5,2.5 0 0,1 2.5,0Z" style="opacity: 1; stroke-width: 0px; fill: rgb(33, 102, 172); fill-opacity: 1;"/><path class="point" transform="translate(564.69,369.59)" d="M2.5,0A2.5,2.5 0 1,1 0,-2.5A2.5,2.5 0 0,1 2.5,0Z" style="opacity: 1; stroke-width: 0px; fill: rgb(33, 102, 172); fill-opacity: 1;"/><path class="point" transform="translate(575.77,367.13)" d="M2.5,0A2.5,2.5 0 1,1 0,-2.5A2.5,2.5 0 0,1 2.5,0Z" style="opacity: 1; stroke-width: 0px; fill: rgb(33, 102, 172); fill-opacity: 1;"/><path class="point" transform="translate(583.16,368.96)" d="M2.5,0A2.5,2.5 0 1,1 0,-2.5A2.5,2.5 0 0,1 2.5,0Z" style="opacity: 1; stroke-width: 0px; fill: rgb(33, 102, 172); fill-opacity: 1;"/><path class="point" transform="translate(596.2,367.74)" d="M2.5,0A2.5,2.5 0 1,1 0,-2.5A2.5,2.5 0 0,1 2.5,0Z" style="opacity: 1; stroke-width: 0px; fill: rgb(33, 102, 172); fill-opacity: 1;"/><path class="point" transform="translate(608.8,370.31)" d="M2.5,0A2.5,2.5 0 1,1 0,-2.5A2.5,2.5 0 0,1 2.5,0Z" style="opacity: 1; stroke-width: 0px; fill: rgb(33, 102, 172); fill-opacity: 1;"/><path class="point" transform="translate(624.44,373.25)" d="M2.5,0A2.5,2.5 0 1,1 0,-2.5A2.5,2.5 0 0,1 2.5,0Z" style="opacity: 1; stroke-width: 0px; fill: rgb(33, 102, 172); fill-opacity: 1;"/><path class="point" transform="translate(625.09,367.18)" d="M2.5,0A2.5,2.5 0 1,1 0,-2.5A2.5,2.5 0 0,1 2.5,0Z" style="opacity: 1; stroke-width: 0px; fill: rgb(33, 102, 172); fill-opacity: 1;"/><path class="point" transform="translate(632.92,370.73)" d="M2.5,0A2.5,2.5 0 1,1 0,-2.5A2.5,2.5 0 0,1 2.5,0Z" style="opacity: 1; stroke-width: 0px; fill: rgb(33, 102, 172); fill-opacity: 1;"/><path class="point" transform="translate(633.78,365.08)" d="M2.5,0A2.5,2.5 0 1,1 0,-2.5A2.5,2.5 0 0,1 2.5,0Z" style="opacity: 1; stroke-width: 0px; fill: rgb(33, 102, 172); fill-opacity: 1;"/><path class="point" transform="translate(649.86,374.98)" d="M2.5,0A2.5,2.5 0 1,1 0,-2.5A2.5,2.5 0 0,1 2.5,0Z" style="opacity: 1; stroke-width: 0px; fill: rgb(33, 102, 172); fill-opacity: 1;"/><path class="point" transform="translate(651.82,372.54)" d="M2.5,0A2.5,2.5 0 1,1 0,-2.5A2.5,2.5 0 0,1 2.5,0Z" style="opacity: 1; stroke-width: 0px; fill: rgb(33, 102, 172); fill-opacity: 1;"/><path class="point" transform="translate(658.77,363.63)" d="M2.5,0A2.5,2.5 0 1,1 0,-2.5A2.5,2.5 0 0,1 2.5,0Z" style="opacity: 1; stroke-width: 0px; fill: rgb(33, 102, 172); fill-opacity: 1;"/><path class="point" transform="translate(678.33,370.35)" d="M2.5,0A2.5,2.5 0 1,1 0,-2.5A2.5,2.5 0 0,1 2.5,0Z" style="opacity: 1; stroke-width: 0px; fill: rgb(33, 102, 172); fill-opacity: 1;"/><path class="point" transform="translate(686.58,373.61)" d="M2.5,0A2.5,2.5 0 1,1 0,-2.5A2.5,2.5 0 0,1 2.5,0Z" style="opacity: 1; stroke-width: 0px; fill: rgb(33, 102, 172); fill-opacity: 1;"/><path class="point" transform="translate(687.89,370.73)" d="M2.5,0A2.5,2.5 0 1,1 0,-2.5A2.5,2.5 0 0,1 2.5,0Z" style="opacity: 1; stroke-width: 0px; fill: rgb(33, 102, 172); fill-opacity: 1;"/><path class="point" transform="translate(701.14,368.95)" d="M2.5,0A2.5,2.5 0 1,1 0,-2.5A2.5,2.5 0 0,1 2.5,0Z" style="opacity: 1; stroke-width: 0px; fill: rgb(33, 102, 172); fill-opacity: 1;"/><path class="point" transform="translate(716.57,366.42)" d="M2.5,0A2.5,2.5 0 1,1 0,-2.5A2.5,2.5 0 0,1 2.5,0Z" style="opacity: 1; stroke-width: 0px; fill: rgb(33, 102, 172); fill-opacity: 1;"/><path class="point" transform="translate(719.39,368.19)" d="M2.5,0A2.5,2.5 0 1,1 0,-2.5A2.5,2.5 0 0,1 2.5,0Z" style="opacity: 1; stroke-width: 0px; fill: rgb(33, 102, 172); fill-opacity: 1;"/><path class="point" transform="translate(735.69,370.43)" d="M2.5,0A2.5,2.5 0 1,1 0,-2.5A2.5,2.5 0 0,1 2.5,0Z" style="opacity: 1; stroke-width: 0px; fill: rgb(33, 102, 172); fill-opacity: 1;"/></g></g><g class="trace violins" style="opacity: 1;"><path class="violin" d="M131.82,343.16L131.82,342.84Q138.79,342.68 142.28,342.57C145.77,342.46 149.25,342.34 152.74,342.2C156.23,342.06 159.72,341.89 163.21,341.74C166.7,341.59 170.18,341.41 173.67,341.28C177.16,341.15 180.64,341.02 184.13,340.94C187.62,340.86 191.1,340.8 194.59,340.8C198.08,340.8 201.56,340.85 205.05,340.92C208.54,341 212.03,341.12 215.52,341.25C219.01,341.38 222.49,341.55 225.98,341.7C229.47,341.85 232.95,342.02 236.44,342.16C239.93,342.3 243.41,342.44 246.9,342.55C250.39,342.66 253.87,342.75 257.36,342.82C260.85,342.89 264.34,342.95 267.83,342.99C271.32,343.03 274.8,343.06 278.29,343.07C281.78,343.08 285.26,343.08 288.75,343.08C292.24,343.08 295.72,343.07 299.21,343.04C302.7,343.01 306.18,342.98 309.67,342.92C313.16,342.86 316.65,342.79 320.14,342.7C323.63,342.61 327.11,342.5 330.6,342.37C334.09,342.24 337.57,342.09 341.06,341.94C344.55,341.79 348.03,341.61 351.52,341.46C355.01,341.31 358.49,341.16 361.98,341.04C365.47,340.92 368.96,340.82 372.45,340.76C375.94,340.7 379.42,340.68 382.91,340.68C386.4,340.68 389.88,340.72 393.37,340.75C396.86,340.78 400.34,340.84 403.83,340.87C407.32,340.9 410.8,340.93 414.29,340.91C417.78,340.89 421.27,340.85 424.76,340.77C428.25,340.69 431.73,340.57 435.22,340.44C438.71,340.31 442.19,340.14 445.68,340C449.17,339.86 452.65,339.7 456.14,339.58C459.63,339.46 463.11,339.34 466.6,339.26C470.09,339.18 473.58,339.14 477.07,339.12C480.56,339.1 484.04,339.13 487.53,339.16C491.02,339.19 494.5,339.26 497.99,339.31C501.48,339.36 504.96,339.43 508.45,339.45C511.94,339.47 515.42,339.49 518.91,339.45C522.4,339.41 525.89,339.33 529.38,339.18C532.87,339.03 536.36,338.83 539.84,338.57C543.33,338.3 546.82,337.97 550.3,337.59C553.79,337.2 557.28,336.76 560.76,336.26C564.25,335.76 567.74,335.2 571.22,334.58C574.71,333.96 578.21,333.3 581.69,332.55C585.18,331.8 588.67,331 592.15,330.1C595.65,329.2 599.14,328.21 602.61,327.14C606.11,326.06 609.59,324.86 613.07,323.63C616.57,322.39 620.04,321.02 623.53,319.72C627.02,318.42 630.49,317 634,315.82C637.47,314.65 640.95,313.46 644.46,312.67C647.92,311.89 651.42,311.25 654.92,311.07C658.4,310.9 661.92,311.07 665.38,311.61C668.9,312.16 672.4,313.2 675.84,314.4C679.38,315.63 682.85,317.29 686.31,318.93C689.83,320.6 693.28,322.55 696.77,324.35C700.25,326.15 703.72,328.04 707.23,329.71C710.69,331.36 714.17,332.95 717.69,334.31C721.15,335.64 724.64,336.82 728.15,337.8C731.62,338.77 735.12,339.54 738.62,340.18C742.09,340.81 745.59,341.25 749.08,341.63Q752.56,342.01 759.54,342.44L759.54,343.16" style="vector-effect: non-scaling-stroke; stroke-width: 2px; stroke: rgb(51, 97, 159); stroke-opacity: 1; fill: rgb(51, 97, 159); fill-opacity: 0.5;"/><g class="points"><path class="point" transform="translate(195,336.1)" d="M2.5,0A2.5,2.5 0 1,1 0,-2.5A2.5,2.5 0 0,1 2.5,0Z" style="opacity: 1; stroke-width: 0px; fill: rgb(51, 97, 159); fill-opacity: 1;"/><path class="point" transform="translate(377.4,337.57)" d="M2.5,0A2.5,2.5 0 1,1 0,-2.5A2.5,2.5 0 0,1 2.5,0Z" style="opacity: 1; stroke-width: 0px; fill: rgb(51, 97, 159); fill-opacity: 1;"/><path class="point" transform="translate(456.38,335.65)" d="M2.5,0A2.5,2.5 0 1,1 0,-2.5A2.5,2.5 0 0,1 2.5,0Z" style="opacity: 1; stroke-width: 0px; fill: rgb(51, 97, 159); fill-opacity: 1;"/><path class="point" transform="translate(495.06,338)" d="M2.5,0A2.5,2.5 0 1,1 0,-2.5A2.5,2.5 0 0,1 2.5,0Z" style="opacity: 1; stroke-width: 0px; fill: rgb(51, 97, 159); fill-opacity: 1;"/><path class="point" transform="translate(556,337.12)" d="M2.5,0A2.5,2.5 0 1,1 0,-2.5A2.5,2.5 0 0,1 2.5,0Z" style="opacity: 1; stroke-width: 0px; fill: rgb(51, 97, 159); fill-opacity: 1;"/><path class="point" transform="translate(582.83,335.9)" d="M2.5,0A2.5,2.5 0 1,1 0,-2.5A2.5,2.5 0 0,1 2.5,0Z" style="opacity: 1; stroke-width: 0px; fill: rgb(51, 97, 159); fill-opacity: 1;"/><path class="point" transform="translate(606.52,336.82)" d="M2.5,0A2.5,2.5 0 1,1 0,-2.5A2.5,2.5 0 0,1 2.5,0Z" style="opacity: 1; stroke-width: 0px; fill: rgb(51, 97, 159); fill-opacity: 1;"/><path class="point" transform="translate(608.58,336.03)" d="M2.5,0A2.5,2.5 0 1,1 0,-2.5A2.5,2.5 0 0,1 2.5,0Z" style="opacity: 1; stroke-width: 0px; fill: rgb(51, 97, 159); fill-opacity: 1;"/><path class="point" transform="translate(614.77,337.6)" d="M2.5,0A2.5,2.5 0 1,1 0,-2.5A2.5,2.5 0 0,1 2.5,0Z" style="opacity: 1; stroke-width: 0px; fill: rgb(51, 97, 159); fill-opacity: 1;"/><path class="point" transform="translate(644.54,339.21)" d="M2.5,0A2.5,2.5 0 1,1 0,-2.5A2.5,2.5 0 0,1 2.5,0Z" style="opacity: 1; stroke-width: 0px; fill: rgb(51, 97, 159); fill-opacity: 1;"/><path class="point" transform="translate(646.28,335.7)" d="M2.5,0A2.5,2.5 0 1,1 0,-2.5A2.5,2.5 0 0,1 2.5,0Z" style="opacity: 1; stroke-width: 0px; fill: rgb(51, 97, 159); fill-opacity: 1;"/><path class="point" transform="translate(649.1,338.24)" d="M2.5,0A2.5,2.5 0 1,1 0,-2.5A2.5,2.5 0 0,1 2.5,0Z" style="opacity: 1; stroke-width: 0px; fill: rgb(51, 97, 159); fill-opacity: 1;"/><path class="point" transform="translate(649.86,333.84)" d="M2.5,0A2.5,2.5 0 1,1 0,-2.5A2.5,2.5 0 0,1 2.5,0Z" style="opacity: 1; stroke-width: 0px; fill: rgb(51, 97, 159); fill-opacity: 1;"/><path class="point" transform="translate(655.19,341.35)" d="M2.5,0A2.5,2.5 0 1,1 0,-2.5A2.5,2.5 0 0,1 2.5,0Z" style="opacity: 1; stroke-width: 0px; fill: rgb(51, 97, 159); fill-opacity: 1;"/><path class="point" transform="translate(659.1,340.45)" d="M2.5,0A2.5,2.5 0 1,1 0,-2.5A2.5,2.5 0 0,1 2.5,0Z" style="opacity: 1; stroke-width: 0px; fill: rgb(51, 97, 159); fill-opacity: 1;"/><path class="point" transform="translate(660.51,331.48)" d="M2.5,0A2.5,2.5 0 1,1 0,-2.5A2.5,2.5 0 0,1 2.5,0Z" style="opacity: 1; stroke-width: 0px; fill: rgb(51, 97, 159); fill-opacity: 1;"/><path class="point" transform="translate(663.12,338.26)" d="M2.5,0A2.5,2.5 0 1,1 0,-2.5A2.5,2.5 0 0,1 2.5,0Z" style="opacity: 1; stroke-width: 0px; fill: rgb(51, 97, 159); fill-opacity: 1;"/><path class="point" transform="translate(664.42,341.04)" d="M2.5,0A2.5,2.5 0 1,1 0,-2.5A2.5,2.5 0 0,1 2.5,0Z" style="opacity: 1; stroke-width: 0px; fill: rgb(51, 97, 159); fill-opacity: 1;"/><path class="point" transform="translate(666.92,338.41)" d="M2.5,0A2.5,2.5 0 1,1 0,-2.5A2.5,2.5 0 0,1 2.5,0Z" style="opacity: 1; stroke-width: 0px; fill: rgb(51, 97, 159); fill-opacity: 1;"/><path class="point" transform="translate(672.89,336.85)" d="M2.5,0A2.5,2.5 0 1,1 0,-2.5A2.5,2.5 0 0,1 2.5,0Z" style="opacity: 1; stroke-width: 0px; fill: rgb(51, 97, 159); fill-opacity: 1;"/><path class="point" transform="translate(679.3,334.59)" d="M2.5,0A2.5,2.5 0 1,1 0,-2.5A2.5,2.5 0 0,1 2.5,0Z" style="opacity: 1; stroke-width: 0px; fill: rgb(51, 97, 159); fill-opacity: 1;"/><path class="point" transform="translate(681.04,336.23)" d="M2.5,0A2.5,2.5 0 1,1 0,-2.5A2.5,2.5 0 0,1 2.5,0Z" style="opacity: 1; stroke-width: 0px; fill: rgb(51, 97, 159); fill-opacity: 1;"/><path class="point" transform="translate(696.36,337.95)" d="M2.5,0A2.5,2.5 0 1,1 0,-2.5A2.5,2.5 0 0,1 2.5,0Z" style="opacity: 1; stroke-width: 0px; fill: rgb(51, 97, 159); fill-opacity: 1;"/></g></g><g class="trace violins" style="opacity: 1;"><path class="violin" d="M146.41,311.07L146.41,310.76Q155.36,310.61 159.83,310.5C164.31,310.39 168.78,310.26 173.26,310.12C177.73,309.98 182.21,309.82 186.68,309.67C191.15,309.52 195.63,309.35 200.1,309.21C204.57,309.07 209.05,308.94 213.52,308.85C217.99,308.76 222.47,308.68 226.94,308.65C231.41,308.62 235.89,308.63 240.36,308.64C244.84,308.65 249.31,308.7 253.79,308.74C258.26,308.77 262.74,308.83 267.21,308.85C271.68,308.87 276.16,308.89 280.63,308.88C285.1,308.87 289.58,308.82 294.05,308.79C298.52,308.75 303,308.7 307.47,308.67C311.95,308.64 316.42,308.61 320.9,308.62C325.37,308.63 329.85,308.67 334.32,308.74C338.79,308.81 343.27,308.92 347.74,309.03C352.21,309.15 356.69,309.3 361.16,309.43C365.63,309.56 370.11,309.7 374.58,309.81C379.06,309.92 383.53,310.02 388.01,310.07C392.48,310.12 396.96,310.14 401.43,310.11C405.9,310.08 410.38,310 414.85,309.89C419.32,309.78 423.8,309.62 428.27,309.43C432.74,309.24 437.22,309.01 441.69,308.77C446.17,308.52 450.64,308.25 455.12,307.96C459.59,307.67 464.07,307.36 468.54,307.05C473.01,306.74 477.49,306.41 481.96,306.09C486.43,305.77 490.91,305.44 495.38,305.13C499.85,304.82 504.33,304.5 508.8,304.23C513.28,303.96 517.75,303.71 522.23,303.49C526.7,303.27 531.18,303.09 535.65,302.89C540.12,302.7 544.6,302.56 549.07,302.32C553.54,302.08 558.02,301.87 562.49,301.47C566.97,301.07 571.45,300.61 575.91,299.91C580.4,299.21 584.89,298.33 589.34,297.27C593.84,296.2 598.31,294.87 602.76,293.48C607.25,292.08 611.71,290.42 616.18,288.88C620.65,287.34 625.1,285.64 629.6,284.26C634.05,282.9 638.51,281.52 643.02,280.64C647.47,279.77 651.97,279.13 656.45,278.98C660.92,278.83 665.42,279.12 669.87,279.75C674.37,280.39 678.85,281.55 683.29,282.82C687.8,284.11 692.25,285.82 696.71,287.45C701.2,289.09 705.65,290.96 710.13,292.64C714.59,294.31 719.05,296.02 723.55,297.49C728,298.94 732.48,300.28 736.98,301.42C741.43,302.55 745.91,303.5 750.4,304.31C754.86,305.12 759.34,305.74 763.82,306.3C768.29,306.86 772.76,307.28 777.24,307.68C781.71,308.08 786.18,308.38 790.66,308.68C795.13,308.97 799.61,309.22 804.09,309.45C808.56,309.68 813.04,309.87 817.51,310.04C821.98,310.21 826.46,310.35 830.93,310.47Q835.4,310.59 844.35,310.75L844.35,311.07" style="vector-effect: non-scaling-stroke; stroke-width: 2px; stroke: rgb(69, 91, 145); stroke-opacity: 1; fill: rgb(69, 91, 145); fill-opacity: 0.5;"/><g class="points"><path class="point" transform="translate(227.27,303.85)" d="M2.5,0A2.5,2.5 0 1,1 0,-2.5A2.5,2.5 0 0,1 2.5,0Z" style="opacity: 1; stroke-width: 0px; fill: rgb(69, 91, 145); fill-opacity: 1;"/><path class="point" transform="translate(325.91,305.65)" d="M2.5,0A2.5,2.5 0 1,1 0,-2.5A2.5,2.5 0 0,1 2.5,0Z" style="opacity: 1; stroke-width: 0px; fill: rgb(69, 91, 145); fill-opacity: 1;"/><path class="point" transform="translate(470.83,303.37)" d="M2.5,0A2.5,2.5 0 1,1 0,-2.5A2.5,2.5 0 0,1 2.5,0Z" style="opacity: 1; stroke-width: 0px; fill: rgb(69, 91, 145); fill-opacity: 1;"/><path class="point" transform="translate(527.97,306.13)" d="M2.5,0A2.5,2.5 0 1,1 0,-2.5A2.5,2.5 0 0,1 2.5,0Z" style="opacity: 1; stroke-width: 0px; fill: rgb(69, 91, 145); fill-opacity: 1;"/><path class="point" transform="translate(529.71,305.1)" d="M2.5,0A2.5,2.5 0 1,1 0,-2.5A2.5,2.5 0 0,1 2.5,0Z" style="opacity: 1; stroke-width: 0px; fill: rgb(69, 91, 145); fill-opacity: 1;"/><path class="point" transform="translate(558.39,303.63)" d="M2.5,0A2.5,2.5 0 1,1 0,-2.5A2.5,2.5 0 0,1 2.5,0Z" style="opacity: 1; stroke-width: 0px; fill: rgb(69, 91, 145); fill-opacity: 1;"/><path class="point" transform="translate(607.06,304.73)" d="M2.5,0A2.5,2.5 0 1,1 0,-2.5A2.5,2.5 0 0,1 2.5,0Z" style="opacity: 1; stroke-width: 0px; fill: rgb(69, 91, 145); fill-opacity: 1;"/><path class="point" transform="translate(629.22,303.8)" d="M2.5,0A2.5,2.5 0 1,1 0,-2.5A2.5,2.5 0 0,1 2.5,0Z" style="opacity: 1; stroke-width: 0px; fill: rgb(69, 91, 145); fill-opacity: 1;"/><path class="point" transform="translate(634.87,305.75)" d="M2.5,0A2.5,2.5 0 1,1 0,-2.5A2.5,2.5 0 0,1 2.5,0Z" style="opacity: 1; stroke-width: 0px; fill: rgb(69, 91, 145); fill-opacity: 1;"/><path class="point" transform="translate(642.91,307.16)" d="M2.5,0A2.5,2.5 0 1,1 0,-2.5A2.5,2.5 0 0,1 2.5,0Z" style="opacity: 1; stroke-width: 0px; fill: rgb(69, 91, 145); fill-opacity: 1;"/><path class="point" transform="translate(644,303.62)" d="M2.5,0A2.5,2.5 0 1,1 0,-2.5A2.5,2.5 0 0,1 2.5,0Z" style="opacity: 1; stroke-width: 0px; fill: rgb(69, 91, 145); fill-opacity: 1;"/><path class="point" transform="translate(653.34,306.34)" d="M2.5,0A2.5,2.5 0 1,1 0,-2.5A2.5,2.5 0 0,1 2.5,0Z" style="opacity: 1; stroke-width: 0px; fill: rgb(69, 91, 145); fill-opacity: 1;"/><path class="point" transform="translate(653.99,300.58)" d="M2.5,0A2.5,2.5 0 1,1 0,-2.5A2.5,2.5 0 0,1 2.5,0Z" style="opacity: 1; stroke-width: 0px; fill: rgb(69, 91, 145); fill-opacity: 1;"/><path class="point" transform="translate(659.21,310.65)" d="M2.5,0A2.5,2.5 0 1,1 0,-2.5A2.5,2.5 0 0,1 2.5,0Z" style="opacity: 1; stroke-width: 0px; fill: rgb(69, 91, 145); fill-opacity: 1;"/><path class="point" transform="translate(663.12,308.27)" d="M2.5,0A2.5,2.5 0 1,1 0,-2.5A2.5,2.5 0 0,1 2.5,0Z" style="opacity: 1; stroke-width: 0px; fill: rgb(69, 91, 145); fill-opacity: 1;"/><path class="point" transform="translate(664.2,299.43)" d="M2.5,0A2.5,2.5 0 1,1 0,-2.5A2.5,2.5 0 0,1 2.5,0Z" style="opacity: 1; stroke-width: 0px; fill: rgb(69, 91, 145); fill-opacity: 1;"/><path class="point" transform="translate(666.16,306.04)" d="M2.5,0A2.5,2.5 0 1,1 0,-2.5A2.5,2.5 0 0,1 2.5,0Z" style="opacity: 1; stroke-width: 0px; fill: rgb(69, 91, 145); fill-opacity: 1;"/><path class="point" transform="translate(667.24,307.9)" d="M2.5,0A2.5,2.5 0 1,1 0,-2.5A2.5,2.5 0 0,1 2.5,0Z" style="opacity: 1; stroke-width: 0px; fill: rgb(69, 91, 145); fill-opacity: 1;"/><path class="point" transform="translate(676.15,305.87)" d="M2.5,0A2.5,2.5 0 1,1 0,-2.5A2.5,2.5 0 0,1 2.5,0Z" style="opacity: 1; stroke-width: 0px; fill: rgb(69, 91, 145); fill-opacity: 1;"/><path class="point" transform="translate(682.89,304.73)" d="M2.5,0A2.5,2.5 0 1,1 0,-2.5A2.5,2.5 0 0,1 2.5,0Z" style="opacity: 1; stroke-width: 0px; fill: rgb(69, 91, 145); fill-opacity: 1;"/><path class="point" transform="translate(688.97,303.16)" d="M2.5,0A2.5,2.5 0 1,1 0,-2.5A2.5,2.5 0 0,1 2.5,0Z" style="opacity: 1; stroke-width: 0px; fill: rgb(69, 91, 145); fill-opacity: 1;"/><path class="point" transform="translate(704.4,304.3)" d="M2.5,0A2.5,2.5 0 1,1 0,-2.5A2.5,2.5 0 0,1 2.5,0Z" style="opacity: 1; stroke-width: 0px; fill: rgb(69, 91, 145); fill-opacity: 1;"/><path class="point" transform="translate(763.5,305.45)" d="M2.5,0A2.5,2.5 0 1,1 0,-2.5A2.5,2.5 0 0,1 2.5,0Z" style="opacity: 1; stroke-width: 0px; fill: rgb(69, 91, 145); fill-opacity: 1;"/></g></g><g class="trace violins" style="opacity: 1;"><path class="violin" d="M-63.89,278.98L-63.89,278.58Q-56.57,278.38 -52.91,278.25C-49.25,278.11 -45.59,277.94 -41.93,277.77C-38.27,277.59 -34.61,277.39 -30.95,277.2C-27.29,277.01 -23.63,276.8 -19.97,276.63C-16.31,276.46 -12.65,276.3 -8.99,276.2C-5.33,276.1 -1.67,276.03 1.99,276.03C5.65,276.03 9.32,276.09 12.98,276.18C16.64,276.27 20.3,276.43 23.96,276.59C27.62,276.75 31.28,276.97 34.94,277.16C38.6,277.35 42.26,277.55 45.92,277.73C49.58,277.91 53.24,278.08 56.9,278.22C60.56,278.36 64.22,278.47 67.88,278.56C71.54,278.65 75.2,278.71 78.86,278.77C82.52,278.82 86.18,278.86 89.84,278.89C93.5,278.92 97.16,278.93 100.82,278.94C104.48,278.95 108.14,278.95 111.8,278.96C115.46,278.96 119.12,278.97 122.78,278.97C126.44,278.97 130.1,278.98 133.76,278.98C137.42,278.98 141.08,278.98 144.74,278.98C148.4,278.98 152.06,278.98 155.72,278.98C159.38,278.98 163.04,278.98 166.7,278.98C170.36,278.98 174.02,278.98 177.68,278.98C181.34,278.98 185,278.98 188.66,278.98C192.32,278.98 195.99,278.98 199.65,278.98C203.31,278.98 206.97,278.98 210.63,278.98C214.29,278.98 217.95,278.98 221.61,278.98C225.27,278.98 228.93,278.98 232.59,278.98C236.25,278.98 239.91,278.98 243.57,278.98C247.23,278.98 250.89,278.97 254.55,278.97C258.21,278.97 261.87,278.96 265.53,278.96C269.19,278.95 272.85,278.95 276.51,278.94C280.17,278.93 283.83,278.91 287.49,278.88C291.15,278.85 294.81,278.82 298.47,278.77C302.13,278.71 305.79,278.64 309.45,278.55C313.11,278.45 316.77,278.34 320.43,278.2C324.09,278.06 327.75,277.88 331.41,277.7C335.07,277.52 338.73,277.3 342.39,277.1C346.05,276.9 349.71,276.67 353.37,276.48C357.03,276.29 360.69,276.1 364.35,275.95C368.01,275.8 371.67,275.68 375.33,275.59C378.99,275.5 382.66,275.45 386.32,275.4C389.98,275.35 393.64,275.34 397.3,275.31C400.96,275.28 404.62,275.25 408.28,275.21C411.94,275.16 415.6,275.11 419.26,275.04C422.92,274.97 426.58,274.88 430.24,274.8C433.9,274.72 437.56,274.63 441.22,274.55C444.88,274.48 448.54,274.4 452.2,274.35C455.86,274.3 459.52,274.27 463.18,274.25C466.84,274.23 470.5,274.24 474.16,274.25C477.82,274.26 481.48,274.31 485.14,274.34C488.8,274.37 492.46,274.42 496.12,274.43C499.78,274.44 503.44,274.46 507.1,274.42C510.76,274.38 514.42,274.32 518.08,274.18C521.74,274.04 525.4,273.86 529.06,273.57C532.72,273.28 536.39,272.92 540.04,272.46C543.71,272 547.37,271.44 551.02,270.79C554.69,270.14 558.35,269.37 562,268.55C565.67,267.72 569.33,266.79 572.99,265.84C576.66,264.89 580.31,263.84 583.97,262.83C587.63,261.82 591.29,260.77 594.95,259.76C598.61,258.75 602.27,257.75 605.93,256.79C609.59,255.83 613.25,254.9 616.91,254C620.57,253.1 624.22,252.21 627.89,251.39C631.54,250.57 635.2,249.74 638.87,249.07C642.52,248.4 646.18,247.74 649.85,247.38C653.5,247.02 657.17,246.78 660.83,246.89C664.49,247 668.18,247.37 671.81,248.04C675.5,248.72 679.16,249.77 682.79,250.94C686.48,252.13 690.12,253.67 693.77,255.13C697.44,256.6 701.08,258.28 704.75,259.76C708.4,261.23 712.04,262.73 715.73,263.98C719.37,265.21 723.03,266.32 726.71,267.22C730.35,268.11 734.02,268.79 737.69,269.39C741.34,269.98 745.01,270.38 748.67,270.79C752.33,271.2 756,271.5 759.66,271.87C763.32,272.23 766.98,272.59 770.64,272.98C774.3,273.37 777.96,273.8 781.62,274.22C785.28,274.64 788.94,275.1 792.6,275.51C796.26,275.92 799.92,276.34 803.58,276.69C807.24,277.04 810.9,277.36 814.56,277.62Q818.22,277.88 825.54,278.25L825.54,278.98" style="vector-effect: non-scaling-stroke; stroke-width: 2px; stroke: rgb(88, 86, 132); stroke-opacity: 1; fill: rgb(88, 86, 132); fill-opacity: 0.5;"/><g class="points"><path class="point" transform="translate(2.39,271.78)" d="M2.5,0A2.5,2.5 0 1,1 0,-2.5A2.5,2.5 0 0,1 2.5,0Z" style="opacity: 1; stroke-width: 0px; fill: rgb(88, 86, 132); fill-opacity: 1;"/><path class="point" transform="translate(374.58,273.59)" d="M2.5,0A2.5,2.5 0 1,1 0,-2.5A2.5,2.5 0 0,1 2.5,0Z" style="opacity: 1; stroke-width: 0px; fill: rgb(88, 86, 132); fill-opacity: 1;"/><path class="point" transform="translate(440.19,271.21)" d="M2.5,0A2.5,2.5 0 1,1 0,-2.5A2.5,2.5 0 0,1 2.5,0Z" style="opacity: 1; stroke-width: 0px; fill: rgb(88, 86, 132); fill-opacity: 1;"/><path class="point" transform="translate(488.1,274.12)" d="M2.5,0A2.5,2.5 0 1,1 0,-2.5A2.5,2.5 0 0,1 2.5,0Z" style="opacity: 1; stroke-width: 0px; fill: rgb(88, 86, 132); fill-opacity: 1;"/><path class="point" transform="translate(548.29,273.04)" d="M2.5,0A2.5,2.5 0 1,1 0,-2.5A2.5,2.5 0 0,1 2.5,0Z" style="opacity: 1; stroke-width: 0px; fill: rgb(88, 86, 132); fill-opacity: 1;"/><path class="point" transform="translate(586.53,271.48)" d="M2.5,0A2.5,2.5 0 1,1 0,-2.5A2.5,2.5 0 0,1 2.5,0Z" style="opacity: 1; stroke-width: 0px; fill: rgb(88, 86, 132); fill-opacity: 1;"/><path class="point" transform="translate(599.67,272.67)" d="M2.5,0A2.5,2.5 0 1,1 0,-2.5A2.5,2.5 0 0,1 2.5,0Z" style="opacity: 1; stroke-width: 0px; fill: rgb(88, 86, 132); fill-opacity: 1;"/><path class="point" transform="translate(600.54,271.56)" d="M2.5,0A2.5,2.5 0 1,1 0,-2.5A2.5,2.5 0 0,1 2.5,0Z" style="opacity: 1; stroke-width: 0px; fill: rgb(88, 86, 132); fill-opacity: 1;"/><path class="point" transform="translate(617.71,273.8)" d="M2.5,0A2.5,2.5 0 1,1 0,-2.5A2.5,2.5 0 0,1 2.5,0Z" style="opacity: 1; stroke-width: 0px; fill: rgb(88, 86, 132); fill-opacity: 1;"/><path class="point" transform="translate(619.99,276)" d="M2.5,0A2.5,2.5 0 1,1 0,-2.5A2.5,2.5 0 0,1 2.5,0Z" style="opacity: 1; stroke-width: 0px; fill: rgb(88, 86, 132); fill-opacity: 1;"/><path class="point" transform="translate(620.53,271.03)" d="M2.5,0A2.5,2.5 0 1,1 0,-2.5A2.5,2.5 0 0,1 2.5,0Z" style="opacity: 1; stroke-width: 0px; fill: rgb(88, 86, 132); fill-opacity: 1;"/><path class="point" transform="translate(654.43,274.58)" d="M2.5,0A2.5,2.5 0 1,1 0,-2.5A2.5,2.5 0 0,1 2.5,0Z" style="opacity: 1; stroke-width: 0px; fill: rgb(88, 86, 132); fill-opacity: 1;"/><path class="point" transform="translate(658.55,268.64)" d="M2.5,0A2.5,2.5 0 1,1 0,-2.5A2.5,2.5 0 0,1 2.5,0Z" style="opacity: 1; stroke-width: 0px; fill: rgb(88, 86, 132); fill-opacity: 1;"/><path class="point" transform="translate(661.49,278.81)" d="M2.5,0A2.5,2.5 0 1,1 0,-2.5A2.5,2.5 0 0,1 2.5,0Z" style="opacity: 1; stroke-width: 0px; fill: rgb(88, 86, 132); fill-opacity: 1;"/><path class="point" transform="translate(666.16,276.19)" d="M2.5,0A2.5,2.5 0 1,1 0,-2.5A2.5,2.5 0 0,1 2.5,0Z" style="opacity: 1; stroke-width: 0px; fill: rgb(88, 86, 132); fill-opacity: 1;"/><path class="point" transform="translate(666.27,267.38)" d="M2.5,0A2.5,2.5 0 1,1 0,-2.5A2.5,2.5 0 0,1 2.5,0Z" style="opacity: 1; stroke-width: 0px; fill: rgb(88, 86, 132); fill-opacity: 1;"/><path class="point" transform="translate(668.77,273.83)" d="M2.5,0A2.5,2.5 0 1,1 0,-2.5A2.5,2.5 0 0,1 2.5,0Z" style="opacity: 1; stroke-width: 0px; fill: rgb(88, 86, 132); fill-opacity: 1;"/><path class="point" transform="translate(668.87,276.92)" d="M2.5,0A2.5,2.5 0 1,1 0,-2.5A2.5,2.5 0 0,1 2.5,0Z" style="opacity: 1; stroke-width: 0px; fill: rgb(88, 86, 132); fill-opacity: 1;"/><path class="point" transform="translate(680.93,274.18)" d="M2.5,0A2.5,2.5 0 1,1 0,-2.5A2.5,2.5 0 0,1 2.5,0Z" style="opacity: 1; stroke-width: 0px; fill: rgb(88, 86, 132); fill-opacity: 1;"/><path class="point" transform="translate(685.93,272.66)" d="M2.5,0A2.5,2.5 0 1,1 0,-2.5A2.5,2.5 0 0,1 2.5,0Z" style="opacity: 1; stroke-width: 0px; fill: rgb(88, 86, 132); fill-opacity: 1;"/><path class="point" transform="translate(696.47,270.57)" d="M2.5,0A2.5,2.5 0 1,1 0,-2.5A2.5,2.5 0 0,1 2.5,0Z" style="opacity: 1; stroke-width: 0px; fill: rgb(88, 86, 132); fill-opacity: 1;"/><path class="point" transform="translate(756.11,272.1)" d="M2.5,0A2.5,2.5 0 1,1 0,-2.5A2.5,2.5 0 0,1 2.5,0Z" style="opacity: 1; stroke-width: 0px; fill: rgb(88, 86, 132); fill-opacity: 1;"/><path class="point" transform="translate(759.26,273.63)" d="M2.5,0A2.5,2.5 0 1,1 0,-2.5A2.5,2.5 0 0,1 2.5,0Z" style="opacity: 1; stroke-width: 0px; fill: rgb(88, 86, 132); fill-opacity: 1;"/></g></g><g class="trace violins" style="opacity: 1;"><path class="violin" d="M665.22,246.89L665.22,245.71Q670.68,245.02 673.39,244.46C676.13,243.9 678.86,243.23 681.56,242.35C684.31,241.46 687.04,240.37 689.73,239.13C692.49,237.86 695.21,236.35 697.9,234.78C700.66,233.17 703.36,231.34 706.07,229.57C708.8,227.79 711.48,225.86 714.23,224.15C716.93,222.47 719.63,220.74 722.4,219.38C725.08,218.07 727.8,216.86 730.57,216.09C733.25,215.35 736.01,214.89 738.74,214.8C741.46,214.71 744.21,215.02 746.91,215.53C749.66,216.04 752.38,216.95 755.08,217.89C757.83,218.84 760.54,220.06 763.25,221.21C765.98,222.36 768.68,223.64 771.41,224.79C774.12,225.93 776.84,227.08 779.58,228.09C782.29,229.09 785.01,230 787.75,230.81C790.46,231.61 793.19,232.28 795.92,232.91C798.64,233.54 801.36,234.05 804.09,234.58C806.81,235.1 809.54,235.56 812.26,236.06C814.98,236.57 817.71,237.07 820.43,237.61C823.15,238.15 825.87,238.72 828.59,239.29C831.31,239.87 834.04,240.48 836.76,241.06C839.48,241.64 842.2,242.23 844.93,242.75C847.65,243.27 850.37,243.77 853.1,244.19C855.82,244.61 858.54,244.98 861.27,245.28C863.99,245.58 866.71,245.81 869.44,246.01C872.16,246.2 874.89,246.34 877.61,246.45C880.33,246.56 883.05,246.63 885.77,246.69C888.49,246.75 891.22,246.77 893.94,246.79C896.66,246.81 899.39,246.82 902.11,246.82C904.83,246.82 907.56,246.8 910.28,246.78C913,246.75 915.73,246.72 918.45,246.67C921.17,246.62 923.9,246.56 926.62,246.47C929.34,246.38 932.07,246.28 934.79,246.15C937.51,246.02 940.24,245.87 942.96,245.7C945.68,245.53 948.4,245.34 951.12,245.15C953.84,244.96 956.57,244.74 959.29,244.55C962.01,244.36 964.74,244.16 967.46,243.99C970.18,243.82 972.91,243.67 975.63,243.55C978.35,243.43 981.08,243.33 983.8,243.28C986.52,243.23 989.25,243.21 991.97,243.22C994.69,243.23 997.42,243.29 1000.14,243.37C1002.86,243.45 1005.58,243.57 1008.3,243.71C1011.02,243.85 1013.75,244.03 1016.47,244.21C1019.19,244.39 1021.92,244.6 1024.64,244.79C1027.36,244.99 1030.09,245.2 1032.81,245.38C1035.53,245.56 1038.26,245.74 1040.98,245.89C1043.7,246.04 1046.43,246.18 1049.15,246.29Q1051.87,246.4 1057.32,246.57L1057.32,246.89" style="vector-effect: non-scaling-stroke; stroke-width: 2px; stroke: rgb(106, 80, 119); stroke-opacity: 1; fill: rgb(106, 80, 119); fill-opacity: 0.5;"/><g class="points"><path class="point" transform="translate(715.26,237.6)" d="M2.5,0A2.5,2.5 0 1,1 0,-2.5A2.5,2.5 0 0,1 2.5,0Z" style="opacity: 1; stroke-width: 0px; fill: rgb(106, 80, 119); fill-opacity: 1;"/><path class="point" transform="translate(718.09,244.12)" d="M2.5,0A2.5,2.5 0 1,1 0,-2.5A2.5,2.5 0 0,1 2.5,0Z" style="opacity: 1; stroke-width: 0px; fill: rgb(106, 80, 119); fill-opacity: 1;"/><path class="point" transform="translate(724.39,235.88)" d="M2.5,0A2.5,2.5 0 1,1 0,-2.5A2.5,2.5 0 0,1 2.5,0Z" style="opacity: 1; stroke-width: 0px; fill: rgb(106, 80, 119); fill-opacity: 1;"/><path class="point" transform="translate(726.67,245.59)" d="M2.5,0A2.5,2.5 0 1,1 0,-2.5A2.5,2.5 0 0,1 2.5,0Z" style="opacity: 1; stroke-width: 0px; fill: rgb(106, 80, 119); fill-opacity: 1;"/><path class="point" transform="translate(730.69,242.05)" d="M2.5,0A2.5,2.5 0 1,1 0,-2.5A2.5,2.5 0 0,1 2.5,0Z" style="opacity: 1; stroke-width: 0px; fill: rgb(106, 80, 119); fill-opacity: 1;"/><path class="point" transform="translate(731.34,237.33)" d="M2.5,0A2.5,2.5 0 1,1 0,-2.5A2.5,2.5 0 0,1 2.5,0Z" style="opacity: 1; stroke-width: 0px; fill: rgb(106, 80, 119); fill-opacity: 1;"/><path class="point" transform="translate(733.3,240.68)" d="M2.5,0A2.5,2.5 0 1,1 0,-2.5A2.5,2.5 0 0,1 2.5,0Z" style="opacity: 1; stroke-width: 0px; fill: rgb(106, 80, 119); fill-opacity: 1;"/><path class="point" transform="translate(734.93,238.74)" d="M2.5,0A2.5,2.5 0 1,1 0,-2.5A2.5,2.5 0 0,1 2.5,0Z" style="opacity: 1; stroke-width: 0px; fill: rgb(106, 80, 119); fill-opacity: 1;"/><path class="point" transform="translate(736.77,242.15)" d="M2.5,0A2.5,2.5 0 1,1 0,-2.5A2.5,2.5 0 0,1 2.5,0Z" style="opacity: 1; stroke-width: 0px; fill: rgb(106, 80, 119); fill-opacity: 1;"/><path class="point" transform="translate(736.77,244.31)" d="M2.5,0A2.5,2.5 0 1,1 0,-2.5A2.5,2.5 0 0,1 2.5,0Z" style="opacity: 1; stroke-width: 0px; fill: rgb(106, 80, 119); fill-opacity: 1;"/><path class="point" transform="translate(742.86,239.07)" d="M2.5,0A2.5,2.5 0 1,1 0,-2.5A2.5,2.5 0 0,1 2.5,0Z" style="opacity: 1; stroke-width: 0px; fill: rgb(106, 80, 119); fill-opacity: 1;"/><path class="point" transform="translate(748.29,242.07)" d="M2.5,0A2.5,2.5 0 1,1 0,-2.5A2.5,2.5 0 0,1 2.5,0Z" style="opacity: 1; stroke-width: 0px; fill: rgb(106, 80, 119); fill-opacity: 1;"/><path class="point" transform="translate(752.2,237.94)" d="M2.5,0A2.5,2.5 0 1,1 0,-2.5A2.5,2.5 0 0,1 2.5,0Z" style="opacity: 1; stroke-width: 0px; fill: rgb(106, 80, 119); fill-opacity: 1;"/><path class="point" transform="translate(761.98,244.12)" d="M2.5,0A2.5,2.5 0 1,1 0,-2.5A2.5,2.5 0 0,1 2.5,0Z" style="opacity: 1; stroke-width: 0px; fill: rgb(106, 80, 119); fill-opacity: 1;"/><path class="point" transform="translate(766.54,242.47)" d="M2.5,0A2.5,2.5 0 1,1 0,-2.5A2.5,2.5 0 0,1 2.5,0Z" style="opacity: 1; stroke-width: 0px; fill: rgb(106, 80, 119); fill-opacity: 1;"/><path class="point" transform="translate(767.41,237.38)" d="M2.5,0A2.5,2.5 0 1,1 0,-2.5A2.5,2.5 0 0,1 2.5,0Z" style="opacity: 1; stroke-width: 0px; fill: rgb(106, 80, 119); fill-opacity: 1;"/><path class="point" transform="translate(774.79,240.99)" d="M2.5,0A2.5,2.5 0 1,1 0,-2.5A2.5,2.5 0 0,1 2.5,0Z" style="opacity: 1; stroke-width: 0px; fill: rgb(106, 80, 119); fill-opacity: 1;"/><path class="point" transform="translate(797.07,242.15)" d="M2.5,0A2.5,2.5 0 1,1 0,-2.5A2.5,2.5 0 0,1 2.5,0Z" style="opacity: 1; stroke-width: 0px; fill: rgb(106, 80, 119); fill-opacity: 1;"/><path class="point" transform="translate(806.73,241.1)" d="M2.5,0A2.5,2.5 0 1,1 0,-2.5A2.5,2.5 0 0,1 2.5,0Z" style="opacity: 1; stroke-width: 0px; fill: rgb(106, 80, 119); fill-opacity: 1;"/><path class="point" transform="translate(818.68,240.51)" d="M2.5,0A2.5,2.5 0 1,1 0,-2.5A2.5,2.5 0 0,1 2.5,0Z" style="opacity: 1; stroke-width: 0px; fill: rgb(106, 80, 119); fill-opacity: 1;"/><path class="point" transform="translate(823.9,239.71)" d="M2.5,0A2.5,2.5 0 1,1 0,-2.5A2.5,2.5 0 0,1 2.5,0Z" style="opacity: 1; stroke-width: 0px; fill: rgb(106, 80, 119); fill-opacity: 1;"/><path class="point" transform="translate(973.38,240.29)" d="M2.5,0A2.5,2.5 0 1,1 0,-2.5A2.5,2.5 0 0,1 2.5,0Z" style="opacity: 1; stroke-width: 0px; fill: rgb(106, 80, 119); fill-opacity: 1;"/><path class="point" transform="translate(1007.28,240.9)" d="M2.5,0A2.5,2.5 0 1,1 0,-2.5A2.5,2.5 0 0,1 2.5,0Z" style="opacity: 1; stroke-width: 0px; fill: rgb(106, 80, 119); fill-opacity: 1;"/></g></g><g class="trace violins" style="opacity: 1;"><path class="violin" d="M669.67,214.8L669.67,214.07Q674.41,213.64 676.77,213.29C679.15,212.93 681.53,212.51 683.88,211.93C686.26,211.34 688.64,210.64 690.98,209.78C693.37,208.91 695.74,207.87 698.08,206.72C700.48,205.54 702.84,204.17 705.19,202.76C707.58,201.32 709.93,199.72 712.29,198.16C714.66,196.59 717.01,194.9 719.39,193.35C721.74,191.82 724.1,190.25 726.5,188.92C728.84,187.62 731.19,186.37 733.6,185.43C735.93,184.51 738.32,183.75 740.71,183.3C743.05,182.85 745.45,182.65 747.81,182.7C750.18,182.75 752.56,183.1 754.91,183.61C757.3,184.13 759.68,184.93 762.02,185.81C764.42,186.71 766.77,187.84 769.12,188.99C771.51,190.15 773.86,191.47 776.22,192.75C778.59,194.03 780.95,195.4 783.33,196.66C785.69,197.91 788.04,199.17 790.43,200.28C792.78,201.37 795.14,202.4 797.53,203.26C799.88,204.1 802.26,204.82 804.64,205.4C806.99,205.97 809.37,206.38 811.74,206.74C814.1,207.09 816.47,207.31 818.84,207.53C821.21,207.75 823.58,207.88 825.95,208.06C828.32,208.24 830.68,208.41 833.05,208.6C835.42,208.79 837.78,209.01 840.15,209.22C842.52,209.43 844.89,209.67 847.26,209.88C849.63,210.08 851.99,210.29 854.36,210.45C856.73,210.61 859.1,210.74 861.47,210.85C863.84,210.96 866.2,211.03 868.57,211.09C870.94,211.15 873.3,211.19 875.67,211.22C878.04,211.26 880.41,211.28 882.78,211.3C885.15,211.32 887.51,211.34 889.88,211.36C892.25,211.38 894.61,211.4 896.98,211.42C899.35,211.44 901.72,211.45 904.09,211.49C906.46,211.53 908.82,211.57 911.19,211.65C913.56,211.73 915.92,211.83 918.29,211.95C920.66,212.07 923.03,212.22 925.4,212.39C927.77,212.55 930.13,212.76 932.5,212.94C934.87,213.12 937.23,213.31 939.6,213.48C941.97,213.65 944.34,213.81 946.71,213.95C949.08,214.08 951.44,214.2 953.81,214.29C956.18,214.38 958.54,214.44 960.91,214.47C963.28,214.5 965.65,214.51 968.02,214.49C970.39,214.47 972.75,214.44 975.12,214.37C977.49,214.3 979.86,214.21 982.23,214.09C984.6,213.98 986.96,213.83 989.33,213.68C991.7,213.53 994.06,213.34 996.43,213.18C998.8,213.01 1001.17,212.83 1003.54,212.69C1005.91,212.55 1008.27,212.42 1010.64,212.34C1013.01,212.26 1015.37,212.21 1017.74,212.22C1020.11,212.23 1022.48,212.29 1024.85,212.38C1027.22,212.47 1029.58,212.61 1031.95,212.75C1034.32,212.9 1036.68,213.08 1039.05,213.25C1041.42,213.42 1043.79,213.6 1046.16,213.75C1048.53,213.9 1050.89,214.04 1053.26,214.16Q1055.63,214.28 1060.36,214.45L1060.36,214.8" style="vector-effect: non-scaling-stroke; stroke-width: 2px; stroke: rgb(124, 75, 106); stroke-opacity: 1; fill: rgb(124, 75, 106); fill-opacity: 0.5;"/><g class="points"><path class="point" transform="translate(712.76,205.62)" d="M2.5,0A2.5,2.5 0 1,1 0,-2.5A2.5,2.5 0 0,1 2.5,0Z" style="opacity: 1; stroke-width: 0px; fill: rgb(124, 75, 106); fill-opacity: 1;"/><path class="point" transform="translate(721.45,211.72)" d="M2.5,0A2.5,2.5 0 1,1 0,-2.5A2.5,2.5 0 0,1 2.5,0Z" style="opacity: 1; stroke-width: 0px; fill: rgb(124, 75, 106); fill-opacity: 1;"/><path class="point" transform="translate(726.89,204)" d="M2.5,0A2.5,2.5 0 1,1 0,-2.5A2.5,2.5 0 0,1 2.5,0Z" style="opacity: 1; stroke-width: 0px; fill: rgb(124, 75, 106); fill-opacity: 1;"/><path class="point" transform="translate(727.1,213.26)" d="M2.5,0A2.5,2.5 0 1,1 0,-2.5A2.5,2.5 0 0,1 2.5,0Z" style="opacity: 1; stroke-width: 0px; fill: rgb(124, 75, 106); fill-opacity: 1;"/><path class="point" transform="translate(732.97,209.88)" d="M2.5,0A2.5,2.5 0 1,1 0,-2.5A2.5,2.5 0 0,1 2.5,0Z" style="opacity: 1; stroke-width: 0px; fill: rgb(124, 75, 106); fill-opacity: 1;"/><path class="point" transform="translate(736.77,205.35)" d="M2.5,0A2.5,2.5 0 1,1 0,-2.5A2.5,2.5 0 0,1 2.5,0Z" style="opacity: 1; stroke-width: 0px; fill: rgb(124, 75, 106); fill-opacity: 1;"/><path class="point" transform="translate(742.31,208.61)" d="M2.5,0A2.5,2.5 0 1,1 0,-2.5A2.5,2.5 0 0,1 2.5,0Z" style="opacity: 1; stroke-width: 0px; fill: rgb(124, 75, 106); fill-opacity: 1;"/><path class="point" transform="translate(742.42,206.56)" d="M2.5,0A2.5,2.5 0 1,1 0,-2.5A2.5,2.5 0 0,1 2.5,0Z" style="opacity: 1; stroke-width: 0px; fill: rgb(124, 75, 106); fill-opacity: 1;"/><path class="point" transform="translate(745.25,210.18)" d="M2.5,0A2.5,2.5 0 1,1 0,-2.5A2.5,2.5 0 0,1 2.5,0Z" style="opacity: 1; stroke-width: 0px; fill: rgb(124, 75, 106); fill-opacity: 1;"/><path class="point" transform="translate(745.46,212.69)" d="M2.5,0A2.5,2.5 0 1,1 0,-2.5A2.5,2.5 0 0,1 2.5,0Z" style="opacity: 1; stroke-width: 0px; fill: rgb(124, 75, 106); fill-opacity: 1;"/><path class="point" transform="translate(753.39,206.75)" d="M2.5,0A2.5,2.5 0 1,1 0,-2.5A2.5,2.5 0 0,1 2.5,0Z" style="opacity: 1; stroke-width: 0px; fill: rgb(124, 75, 106); fill-opacity: 1;"/><path class="point" transform="translate(756.65,210.49)" d="M2.5,0A2.5,2.5 0 1,1 0,-2.5A2.5,2.5 0 0,1 2.5,0Z" style="opacity: 1; stroke-width: 0px; fill: rgb(124, 75, 106); fill-opacity: 1;"/><path class="point" transform="translate(761.32,205.14)" d="M2.5,0A2.5,2.5 0 1,1 0,-2.5A2.5,2.5 0 0,1 2.5,0Z" style="opacity: 1; stroke-width: 0px; fill: rgb(124, 75, 106); fill-opacity: 1;"/><path class="point" transform="translate(769.58,212.31)" d="M2.5,0A2.5,2.5 0 1,1 0,-2.5A2.5,2.5 0 0,1 2.5,0Z" style="opacity: 1; stroke-width: 0px; fill: rgb(124, 75, 106); fill-opacity: 1;"/><path class="point" transform="translate(771.97,210.7)" d="M2.5,0A2.5,2.5 0 1,1 0,-2.5A2.5,2.5 0 0,1 2.5,0Z" style="opacity: 1; stroke-width: 0px; fill: rgb(124, 75, 106); fill-opacity: 1;"/><path class="point" transform="translate(773.27,205.42)" d="M2.5,0A2.5,2.5 0 1,1 0,-2.5A2.5,2.5 0 0,1 2.5,0Z" style="opacity: 1; stroke-width: 0px; fill: rgb(124, 75, 106); fill-opacity: 1;"/><path class="point" transform="translate(775.12,209.11)" d="M2.5,0A2.5,2.5 0 1,1 0,-2.5A2.5,2.5 0 0,1 2.5,0Z" style="opacity: 1; stroke-width: 0px; fill: rgb(124, 75, 106); fill-opacity: 1;"/><path class="point" transform="translate(794.35,210.35)" d="M2.5,0A2.5,2.5 0 1,1 0,-2.5A2.5,2.5 0 0,1 2.5,0Z" style="opacity: 1; stroke-width: 0px; fill: rgb(124, 75, 106); fill-opacity: 1;"/><path class="point" transform="translate(828.14,209.11)" d="M2.5,0A2.5,2.5 0 1,1 0,-2.5A2.5,2.5 0 0,1 2.5,0Z" style="opacity: 1; stroke-width: 0px; fill: rgb(124, 75, 106); fill-opacity: 1;"/><path class="point" transform="translate(829.44,208.42)" d="M2.5,0A2.5,2.5 0 1,1 0,-2.5A2.5,2.5 0 0,1 2.5,0Z" style="opacity: 1; stroke-width: 0px; fill: rgb(124, 75, 106); fill-opacity: 1;"/><path class="point" transform="translate(874.2,207.49)" d="M2.5,0A2.5,2.5 0 1,1 0,-2.5A2.5,2.5 0 0,1 2.5,0Z" style="opacity: 1; stroke-width: 0px; fill: rgb(124, 75, 106); fill-opacity: 1;"/><path class="point" transform="translate(914.18,208.17)" d="M2.5,0A2.5,2.5 0 1,1 0,-2.5A2.5,2.5 0 0,1 2.5,0Z" style="opacity: 1; stroke-width: 0px; fill: rgb(124, 75, 106); fill-opacity: 1;"/><path class="point" transform="translate(1017.27,208.87)" d="M2.5,0A2.5,2.5 0 1,1 0,-2.5A2.5,2.5 0 0,1 2.5,0Z" style="opacity: 1; stroke-width: 0px; fill: rgb(124, 75, 106); fill-opacity: 1;"/></g></g><g class="trace violins" style="opacity: 1;"><path class="violin" d="M647.23,182.7L647.23,181.03Q655.48,180.08 659.58,179.34C663.71,178.6 667.85,177.69 671.94,176.57C676.08,175.43 680.2,174.06 684.29,172.55C688.44,171.02 692.55,169.22 696.65,167.42C700.79,165.61 704.88,163.57 709.01,161.73C713.12,159.9 717.2,157.94 721.36,156.38C725.44,154.84 729.56,153.37 733.72,152.41C737.8,151.46 741.94,150.81 746.07,150.61C750.18,150.42 754.33,150.69 758.43,151.23C762.57,151.77 766.7,152.8 770.79,153.88C774.93,154.97 779.03,156.42 783.14,157.76C787.27,159.11 791.37,160.6 795.5,161.94C799.61,163.27 803.72,164.59 807.85,165.76C811.95,166.92 816.08,167.97 820.21,168.92C824.32,169.86 828.44,170.67 832.57,171.43C836.68,172.18 840.8,172.84 844.92,173.45C849.03,174.06 853.16,174.6 857.28,175.09C861.39,175.58 865.51,176.02 869.63,176.41C873.75,176.8 877.87,177.14 881.99,177.43C886.11,177.72 890.23,177.95 894.35,178.15C898.47,178.35 902.58,178.51 906.7,178.63C910.82,178.76 914.94,178.83 919.06,178.9C923.18,178.97 927.29,179 931.41,179.03C935.53,179.06 939.65,179.06 943.77,179.06C947.89,179.06 952.01,179.05 956.13,179.05C960.25,179.05 964.36,179.04 968.48,179.04C972.6,179.04 976.72,179.04 980.84,179.06C984.96,179.08 989.07,179.11 993.19,179.16C997.31,179.21 1001.43,179.27 1005.55,179.35C1009.67,179.44 1013.79,179.54 1017.91,179.67C1022.03,179.8 1026.14,179.96 1030.26,180.12C1034.38,180.28 1038.5,180.47 1042.62,180.65C1046.74,180.83 1050.85,181.03 1054.97,181.21C1059.09,181.39 1063.21,181.57 1067.33,181.72C1071.45,181.87 1075.57,182 1079.69,182.11Q1083.81,182.22 1092.04,182.38L1092.04,182.7" style="vector-effect: non-scaling-stroke; stroke-width: 2px; stroke: rgb(142, 70, 92); stroke-opacity: 1; fill: rgb(142, 70, 92); fill-opacity: 0.5;"/><g class="points"><path class="point" transform="translate(722.21,172.96)" d="M2.5,0A2.5,2.5 0 1,1 0,-2.5A2.5,2.5 0 0,1 2.5,0Z" style="opacity: 1; stroke-width: 0px; fill: rgb(142, 70, 92); fill-opacity: 1;"/><path class="point" transform="translate(724.17,179.63)" d="M2.5,0A2.5,2.5 0 1,1 0,-2.5A2.5,2.5 0 0,1 2.5,0Z" style="opacity: 1; stroke-width: 0px; fill: rgb(142, 70, 92); fill-opacity: 1;"/><path class="point" transform="translate(726.45,171.91)" d="M2.5,0A2.5,2.5 0 1,1 0,-2.5A2.5,2.5 0 0,1 2.5,0Z" style="opacity: 1; stroke-width: 0px; fill: rgb(142, 70, 92); fill-opacity: 1;"/><path class="point" transform="translate(731.99,181.04)" d="M2.5,0A2.5,2.5 0 1,1 0,-2.5A2.5,2.5 0 0,1 2.5,0Z" style="opacity: 1; stroke-width: 0px; fill: rgb(142, 70, 92); fill-opacity: 1;"/><path class="point" transform="translate(733.73,177.69)" d="M2.5,0A2.5,2.5 0 1,1 0,-2.5A2.5,2.5 0 0,1 2.5,0Z" style="opacity: 1; stroke-width: 0px; fill: rgb(142, 70, 92); fill-opacity: 1;"/><path class="point" transform="translate(735.03,173.51)" d="M2.5,0A2.5,2.5 0 1,1 0,-2.5A2.5,2.5 0 0,1 2.5,0Z" style="opacity: 1; stroke-width: 0px; fill: rgb(142, 70, 92); fill-opacity: 1;"/><path class="point" transform="translate(745.25,176.48)" d="M2.5,0A2.5,2.5 0 1,1 0,-2.5A2.5,2.5 0 0,1 2.5,0Z" style="opacity: 1; stroke-width: 0px; fill: rgb(142, 70, 92); fill-opacity: 1;"/><path class="point" transform="translate(745.46,174.84)" d="M2.5,0A2.5,2.5 0 1,1 0,-2.5A2.5,2.5 0 0,1 2.5,0Z" style="opacity: 1; stroke-width: 0px; fill: rgb(142, 70, 92); fill-opacity: 1;"/><path class="point" transform="translate(748.94,177.96)" d="M2.5,0A2.5,2.5 0 1,1 0,-2.5A2.5,2.5 0 0,1 2.5,0Z" style="opacity: 1; stroke-width: 0px; fill: rgb(142, 70, 92); fill-opacity: 1;"/><path class="point" transform="translate(751.44,179.74)" d="M2.5,0A2.5,2.5 0 1,1 0,-2.5A2.5,2.5 0 0,1 2.5,0Z" style="opacity: 1; stroke-width: 0px; fill: rgb(142, 70, 92); fill-opacity: 1;"/><path class="point" transform="translate(760.02,175.35)" d="M2.5,0A2.5,2.5 0 1,1 0,-2.5A2.5,2.5 0 0,1 2.5,0Z" style="opacity: 1; stroke-width: 0px; fill: rgb(142, 70, 92); fill-opacity: 1;"/><path class="point" transform="translate(763.39,177.46)" d="M2.5,0A2.5,2.5 0 1,1 0,-2.5A2.5,2.5 0 0,1 2.5,0Z" style="opacity: 1; stroke-width: 0px; fill: rgb(142, 70, 92); fill-opacity: 1;"/><path class="point" transform="translate(768.82,174.16)" d="M2.5,0A2.5,2.5 0 1,1 0,-2.5A2.5,2.5 0 0,1 2.5,0Z" style="opacity: 1; stroke-width: 0px; fill: rgb(142, 70, 92); fill-opacity: 1;"/><path class="point" transform="translate(770.45,178.89)" d="M2.5,0A2.5,2.5 0 1,1 0,-2.5A2.5,2.5 0 0,1 2.5,0Z" style="opacity: 1; stroke-width: 0px; fill: rgb(142, 70, 92); fill-opacity: 1;"/><path class="point" transform="translate(781.31,177.59)" d="M2.5,0A2.5,2.5 0 1,1 0,-2.5A2.5,2.5 0 0,1 2.5,0Z" style="opacity: 1; stroke-width: 0px; fill: rgb(142, 70, 92); fill-opacity: 1;"/><path class="point" transform="translate(820.53,174.49)" d="M2.5,0A2.5,2.5 0 1,1 0,-2.5A2.5,2.5 0 0,1 2.5,0Z" style="opacity: 1; stroke-width: 0px; fill: rgb(142, 70, 92); fill-opacity: 1;"/><path class="point" transform="translate(828.46,176.77)" d="M2.5,0A2.5,2.5 0 1,1 0,-2.5A2.5,2.5 0 0,1 2.5,0Z" style="opacity: 1; stroke-width: 0px; fill: rgb(142, 70, 92); fill-opacity: 1;"/><path class="point" transform="translate(839.43,177.87)" d="M2.5,0A2.5,2.5 0 1,1 0,-2.5A2.5,2.5 0 0,1 2.5,0Z" style="opacity: 1; stroke-width: 0px; fill: rgb(142, 70, 92); fill-opacity: 1;"/><path class="point" transform="translate(897.12,176.86)" d="M2.5,0A2.5,2.5 0 1,1 0,-2.5A2.5,2.5 0 0,1 2.5,0Z" style="opacity: 1; stroke-width: 0px; fill: rgb(142, 70, 92); fill-opacity: 1;"/><path class="point" transform="translate(959.37,176.32)" d="M2.5,0A2.5,2.5 0 1,1 0,-2.5A2.5,2.5 0 0,1 2.5,0Z" style="opacity: 1; stroke-width: 0px; fill: rgb(142, 70, 92); fill-opacity: 1;"/><path class="point" transform="translate(1017.05,175.55)" d="M2.5,0A2.5,2.5 0 1,1 0,-2.5A2.5,2.5 0 0,1 2.5,0Z" style="opacity: 1; stroke-width: 0px; fill: rgb(142, 70, 92); fill-opacity: 1;"/></g></g><g class="trace violins" style="opacity: 1;"><path class="violin" d="M664.91,150.61L664.91,149.7Q670.53,149.16 673.32,148.72C676.13,148.27 678.94,147.74 681.73,147.03C684.55,146.31 687.36,145.45 690.14,144.42C692.97,143.37 695.78,142.13 698.55,140.78C701.38,139.41 704.17,137.82 706.95,136.24C709.77,134.64 712.55,132.87 715.36,131.22C718.16,129.57 720.94,127.84 723.77,126.34C726.54,124.87 729.34,123.43 732.18,122.3C734.95,121.2 737.76,120.25 740.59,119.62C743.37,119 746.19,118.64 749,118.52C751.8,118.4 754.62,118.58 757.41,118.87C760.22,119.17 763.03,119.71 765.82,120.3C768.64,120.9 771.44,121.66 774.23,122.44C777.04,123.23 779.84,124.11 782.63,125.01C785.44,125.92 788.24,126.89 791.04,127.88C793.85,128.88 796.65,129.92 799.45,130.97C802.26,132.02 805.05,133.11 807.86,134.16C810.66,135.21 813.46,136.28 816.27,137.26C819.06,138.24 821.86,139.19 824.68,140.03C827.47,140.86 830.28,141.63 833.09,142.29C835.88,142.95 838.69,143.51 841.5,143.98C844.3,144.45 847.1,144.82 849.91,145.13C852.71,145.44 855.52,145.66 858.32,145.86C861.12,146.06 863.92,146.18 866.72,146.31C869.52,146.44 872.33,146.53 875.13,146.62C877.93,146.71 880.74,146.79 883.54,146.87C886.34,146.95 889.15,147.02 891.95,147.09C894.75,147.16 897.56,147.23 900.36,147.27C903.16,147.31 905.97,147.32 908.77,147.31C911.57,147.3 914.38,147.25 917.18,147.18C919.98,147.11 922.79,146.99 925.59,146.88C928.39,146.77 931.2,146.62 934,146.51C936.8,146.4 939.6,146.28 942.4,146.21C945.2,146.14 948.01,146.09 950.81,146.09C953.61,146.09 956.42,146.14 959.22,146.23C962.02,146.32 964.83,146.47 967.63,146.64C970.43,146.81 973.24,147.04 976.04,147.27C978.84,147.5 981.65,147.77 984.45,148.02C987.25,148.27 990.06,148.54 992.86,148.77C995.66,149 998.47,149.23 1001.27,149.42C1004.07,149.61 1006.88,149.77 1009.68,149.91Q1012.48,150.05 1018.08,150.24L1018.08,150.61" style="vector-effect: non-scaling-stroke; stroke-width: 2px; stroke: rgb(160, 64, 79); stroke-opacity: 1; fill: rgb(160, 64, 79); fill-opacity: 0.5;"/><g class="points"><path class="point" transform="translate(715.59,141.15)" d="M2.5,0A2.5,2.5 0 1,1 0,-2.5A2.5,2.5 0 0,1 2.5,0Z" style="opacity: 1; stroke-width: 0px; fill: rgb(160, 64, 79); fill-opacity: 1;"/><path class="point" transform="translate(720.59,148.1)" d="M2.5,0A2.5,2.5 0 1,1 0,-2.5A2.5,2.5 0 0,1 2.5,0Z" style="opacity: 1; stroke-width: 0px; fill: rgb(160, 64, 79); fill-opacity: 1;"/><path class="point" transform="translate(728.62,139.33)" d="M2.5,0A2.5,2.5 0 1,1 0,-2.5A2.5,2.5 0 0,1 2.5,0Z" style="opacity: 1; stroke-width: 0px; fill: rgb(160, 64, 79); fill-opacity: 1;"/><path class="point" transform="translate(735.14,149.47)" d="M2.5,0A2.5,2.5 0 1,1 0,-2.5A2.5,2.5 0 0,1 2.5,0Z" style="opacity: 1; stroke-width: 0px; fill: rgb(160, 64, 79); fill-opacity: 1;"/><path class="point" transform="translate(736.77,145.74)" d="M2.5,0A2.5,2.5 0 1,1 0,-2.5A2.5,2.5 0 0,1 2.5,0Z" style="opacity: 1; stroke-width: 0px; fill: rgb(160, 64, 79); fill-opacity: 1;"/><path class="point" transform="translate(738.73,141.19)" d="M2.5,0A2.5,2.5 0 1,1 0,-2.5A2.5,2.5 0 0,1 2.5,0Z" style="opacity: 1; stroke-width: 0px; fill: rgb(160, 64, 79); fill-opacity: 1;"/><path class="point" transform="translate(741.12,144.42)" d="M2.5,0A2.5,2.5 0 1,1 0,-2.5A2.5,2.5 0 0,1 2.5,0Z" style="opacity: 1; stroke-width: 0px; fill: rgb(160, 64, 79); fill-opacity: 1;"/><path class="point" transform="translate(743.94,142.33)" d="M2.5,0A2.5,2.5 0 1,1 0,-2.5A2.5,2.5 0 0,1 2.5,0Z" style="opacity: 1; stroke-width: 0px; fill: rgb(160, 64, 79); fill-opacity: 1;"/><path class="point" transform="translate(748.5,146.18)" d="M2.5,0A2.5,2.5 0 1,1 0,-2.5A2.5,2.5 0 0,1 2.5,0Z" style="opacity: 1; stroke-width: 0px; fill: rgb(160, 64, 79); fill-opacity: 1;"/><path class="point" transform="translate(752.2,148.36)" d="M2.5,0A2.5,2.5 0 1,1 0,-2.5A2.5,2.5 0 0,1 2.5,0Z" style="opacity: 1; stroke-width: 0px; fill: rgb(160, 64, 79); fill-opacity: 1;"/><path class="point" transform="translate(764.37,142.71)" d="M2.5,0A2.5,2.5 0 1,1 0,-2.5A2.5,2.5 0 0,1 2.5,0Z" style="opacity: 1; stroke-width: 0px; fill: rgb(160, 64, 79); fill-opacity: 1;"/><path class="point" transform="translate(764.37,145.91)" d="M2.5,0A2.5,2.5 0 1,1 0,-2.5A2.5,2.5 0 0,1 2.5,0Z" style="opacity: 1; stroke-width: 0px; fill: rgb(160, 64, 79); fill-opacity: 1;"/><path class="point" transform="translate(767.41,140.8)" d="M2.5,0A2.5,2.5 0 1,1 0,-2.5A2.5,2.5 0 0,1 2.5,0Z" style="opacity: 1; stroke-width: 0px; fill: rgb(160, 64, 79); fill-opacity: 1;"/><path class="point" transform="translate(776.64,149.13)" d="M2.5,0A2.5,2.5 0 1,1 0,-2.5A2.5,2.5 0 0,1 2.5,0Z" style="opacity: 1; stroke-width: 0px; fill: rgb(160, 64, 79); fill-opacity: 1;"/><path class="point" transform="translate(786.2,146.61)" d="M2.5,0A2.5,2.5 0 1,1 0,-2.5A2.5,2.5 0 0,1 2.5,0Z" style="opacity: 1; stroke-width: 0px; fill: rgb(160, 64, 79); fill-opacity: 1;"/><path class="point" transform="translate(790.11,140.97)" d="M2.5,0A2.5,2.5 0 1,1 0,-2.5A2.5,2.5 0 0,1 2.5,0Z" style="opacity: 1; stroke-width: 0px; fill: rgb(160, 64, 79); fill-opacity: 1;"/><path class="point" transform="translate(799.67,144.96)" d="M2.5,0A2.5,2.5 0 1,1 0,-2.5A2.5,2.5 0 0,1 2.5,0Z" style="opacity: 1; stroke-width: 0px; fill: rgb(160, 64, 79); fill-opacity: 1;"/><path class="point" transform="translate(799.78,146.62)" d="M2.5,0A2.5,2.5 0 1,1 0,-2.5A2.5,2.5 0 0,1 2.5,0Z" style="opacity: 1; stroke-width: 0px; fill: rgb(160, 64, 79); fill-opacity: 1;"/><path class="point" transform="translate(810.64,145.1)" d="M2.5,0A2.5,2.5 0 1,1 0,-2.5A2.5,2.5 0 0,1 2.5,0Z" style="opacity: 1; stroke-width: 0px; fill: rgb(160, 64, 79); fill-opacity: 1;"/><path class="point" transform="translate(843.89,144.25)" d="M2.5,0A2.5,2.5 0 1,1 0,-2.5A2.5,2.5 0 0,1 2.5,0Z" style="opacity: 1; stroke-width: 0px; fill: rgb(160, 64, 79); fill-opacity: 1;"/><path class="point" transform="translate(884.52,143.07)" d="M2.5,0A2.5,2.5 0 1,1 0,-2.5A2.5,2.5 0 0,1 2.5,0Z" style="opacity: 1; stroke-width: 0px; fill: rgb(160, 64, 79); fill-opacity: 1;"/><path class="point" transform="translate(937.97,143.93)" d="M2.5,0A2.5,2.5 0 1,1 0,-2.5A2.5,2.5 0 0,1 2.5,0Z" style="opacity: 1; stroke-width: 0px; fill: rgb(160, 64, 79); fill-opacity: 1;"/><path class="point" transform="translate(967.41,144.81)" d="M2.5,0A2.5,2.5 0 1,1 0,-2.5A2.5,2.5 0 0,1 2.5,0Z" style="opacity: 1; stroke-width: 0px; fill: rgb(160, 64, 79); fill-opacity: 1;"/></g></g><g class="trace violins" style="opacity: 1;"><path class="violin" d="M673.85,118.52L673.85,117.97Q678.54,117.65 680.88,117.39C683.22,117.13 685.57,116.82 687.9,116.4C690.25,115.98 692.6,115.48 694.93,114.85C697.29,114.21 699.63,113.47 701.95,112.6C704.31,111.72 706.66,110.7 708.98,109.59C711.35,108.45 713.68,107.17 716,105.84C718.36,104.49 720.69,103.01 723.03,101.55C725.38,100.09 727.7,98.53 730.05,97.08C732.38,95.64 734.71,94.18 737.08,92.9C739.39,91.65 741.72,90.44 744.1,89.5C746.41,88.58 748.76,87.79 751.13,87.28C753.45,86.78 755.81,86.48 758.15,86.43C760.49,86.38 762.85,86.6 765.18,87C767.54,87.4 769.89,88.07 772.21,88.84C774.58,89.63 776.91,90.65 779.23,91.7C781.59,92.76 783.92,94 786.26,95.18C788.61,96.37 790.93,97.65 793.28,98.82C795.61,99.99 797.95,101.15 800.31,102.2C802.64,103.24 804.97,104.21 807.33,105.08C809.66,105.94 812.01,106.71 814.36,107.42C816.69,108.12 819.03,108.74 821.38,109.33C823.72,109.92 826.06,110.45 828.41,110.95C830.75,111.45 833.09,111.92 835.43,112.33C837.77,112.74 840.11,113.11 842.46,113.43C844.8,113.75 847.14,114.01 849.48,114.24C851.82,114.46 854.17,114.63 856.51,114.78C858.85,114.93 861.19,115.03 863.53,115.16C865.87,115.29 868.22,115.4 870.56,115.54C872.9,115.68 875.24,115.83 877.58,116C879.92,116.17 882.27,116.35 884.61,116.54C886.95,116.72 889.29,116.93 891.63,117.11C893.97,117.29 896.32,117.46 898.66,117.61C901,117.76 903.34,117.89 905.68,117.99C908.02,118.1 910.37,118.17 912.71,118.24C915.05,118.31 917.39,118.35 919.73,118.39C922.07,118.43 924.42,118.45 926.76,118.46C929.1,118.47 931.44,118.48 933.78,118.48C936.12,118.48 938.47,118.47 940.81,118.45C943.15,118.43 945.49,118.41 947.83,118.37C950.17,118.33 952.52,118.28 954.86,118.2C957.2,118.12 959.54,118.03 961.88,117.91C964.22,117.79 966.57,117.64 968.91,117.47C971.25,117.3 973.6,117.1 975.94,116.88C978.28,116.66 980.62,116.41 982.96,116.17C985.3,115.93 987.65,115.67 989.99,115.45C992.33,115.23 994.67,115.01 997.01,114.83C999.35,114.65 1001.7,114.49 1004.04,114.39C1006.38,114.29 1008.72,114.23 1011.06,114.22C1013.4,114.21 1015.75,114.25 1018.09,114.33C1020.43,114.41 1022.77,114.56 1025.11,114.72C1027.45,114.88 1029.8,115.09 1032.14,115.31C1034.48,115.53 1036.82,115.78 1039.16,116.02C1041.5,116.26 1043.85,116.52 1046.19,116.74C1048.53,116.96 1050.87,117.18 1053.21,117.36C1055.55,117.54 1057.9,117.71 1060.24,117.84Q1062.58,117.97 1067.26,118.16L1067.26,118.52" style="vector-effect: non-scaling-stroke; stroke-width: 2px; stroke: rgb(179, 59, 66); stroke-opacity: 1; fill: rgb(179, 59, 66); fill-opacity: 0.5;"/><g class="points"><path class="point" transform="translate(716.24,109.54)" d="M2.5,0A2.5,2.5 0 1,1 0,-2.5A2.5,2.5 0 0,1 2.5,0Z" style="opacity: 1; stroke-width: 0px; fill: rgb(179, 59, 66); fill-opacity: 1;"/><path class="point" transform="translate(725.8,115.41)" d="M2.5,0A2.5,2.5 0 1,1 0,-2.5A2.5,2.5 0 0,1 2.5,0Z" style="opacity: 1; stroke-width: 0px; fill: rgb(179, 59, 66); fill-opacity: 1;"/><path class="point" transform="translate(738.94,107.79)" d="M2.5,0A2.5,2.5 0 1,1 0,-2.5A2.5,2.5 0 0,1 2.5,0Z" style="opacity: 1; stroke-width: 0px; fill: rgb(179, 59, 66); fill-opacity: 1;"/><path class="point" transform="translate(740.68,116.73)" d="M2.5,0A2.5,2.5 0 1,1 0,-2.5A2.5,2.5 0 0,1 2.5,0Z" style="opacity: 1; stroke-width: 0px; fill: rgb(179, 59, 66); fill-opacity: 1;"/><path class="point" transform="translate(744.49,113.42)" d="M2.5,0A2.5,2.5 0 1,1 0,-2.5A2.5,2.5 0 0,1 2.5,0Z" style="opacity: 1; stroke-width: 0px; fill: rgb(179, 59, 66); fill-opacity: 1;"/><path class="point" transform="translate(745.35,109.23)" d="M2.5,0A2.5,2.5 0 1,1 0,-2.5A2.5,2.5 0 0,1 2.5,0Z" style="opacity: 1; stroke-width: 0px; fill: rgb(179, 59, 66); fill-opacity: 1;"/><path class="point" transform="translate(748.07,112.32)" d="M2.5,0A2.5,2.5 0 1,1 0,-2.5A2.5,2.5 0 0,1 2.5,0Z" style="opacity: 1; stroke-width: 0px; fill: rgb(179, 59, 66); fill-opacity: 1;"/><path class="point" transform="translate(748.5,110.27)" d="M2.5,0A2.5,2.5 0 1,1 0,-2.5A2.5,2.5 0 0,1 2.5,0Z" style="opacity: 1; stroke-width: 0px; fill: rgb(179, 59, 66); fill-opacity: 1;"/><path class="point" transform="translate(754.37,114.15)" d="M2.5,0A2.5,2.5 0 1,1 0,-2.5A2.5,2.5 0 0,1 2.5,0Z" style="opacity: 1; stroke-width: 0px; fill: rgb(179, 59, 66); fill-opacity: 1;"/><path class="point" transform="translate(761,116.72)" d="M2.5,0A2.5,2.5 0 1,1 0,-2.5A2.5,2.5 0 0,1 2.5,0Z" style="opacity: 1; stroke-width: 0px; fill: rgb(179, 59, 66); fill-opacity: 1;"/><path class="point" transform="translate(763.71,110.43)" d="M2.5,0A2.5,2.5 0 1,1 0,-2.5A2.5,2.5 0 0,1 2.5,0Z" style="opacity: 1; stroke-width: 0px; fill: rgb(179, 59, 66); fill-opacity: 1;"/><path class="point" transform="translate(769.47,114.22)" d="M2.5,0A2.5,2.5 0 1,1 0,-2.5A2.5,2.5 0 0,1 2.5,0Z" style="opacity: 1; stroke-width: 0px; fill: rgb(179, 59, 66); fill-opacity: 1;"/><path class="point" transform="translate(774.69,108.8)" d="M2.5,0A2.5,2.5 0 1,1 0,-2.5A2.5,2.5 0 0,1 2.5,0Z" style="opacity: 1; stroke-width: 0px; fill: rgb(179, 59, 66); fill-opacity: 1;"/><path class="point" transform="translate(775.56,116.65)" d="M2.5,0A2.5,2.5 0 1,1 0,-2.5A2.5,2.5 0 0,1 2.5,0Z" style="opacity: 1; stroke-width: 0px; fill: rgb(179, 59, 66); fill-opacity: 1;"/><path class="point" transform="translate(780.44,114.86)" d="M2.5,0A2.5,2.5 0 1,1 0,-2.5A2.5,2.5 0 0,1 2.5,0Z" style="opacity: 1; stroke-width: 0px; fill: rgb(179, 59, 66); fill-opacity: 1;"/><path class="point" transform="translate(781.53,108.83)" d="M2.5,0A2.5,2.5 0 1,1 0,-2.5A2.5,2.5 0 0,1 2.5,0Z" style="opacity: 1; stroke-width: 0px; fill: rgb(179, 59, 66); fill-opacity: 1;"/><path class="point" transform="translate(782.73,112.73)" d="M2.5,0A2.5,2.5 0 1,1 0,-2.5A2.5,2.5 0 0,1 2.5,0Z" style="opacity: 1; stroke-width: 0px; fill: rgb(179, 59, 66); fill-opacity: 1;"/><path class="point" transform="translate(801.19,114.15)" d="M2.5,0A2.5,2.5 0 1,1 0,-2.5A2.5,2.5 0 0,1 2.5,0Z" style="opacity: 1; stroke-width: 0px; fill: rgb(179, 59, 66); fill-opacity: 1;"/><path class="point" transform="translate(819.99,112.85)" d="M2.5,0A2.5,2.5 0 1,1 0,-2.5A2.5,2.5 0 0,1 2.5,0Z" style="opacity: 1; stroke-width: 0px; fill: rgb(179, 59, 66); fill-opacity: 1;"/><path class="point" transform="translate(823.79,112.15)" d="M2.5,0A2.5,2.5 0 1,1 0,-2.5A2.5,2.5 0 0,1 2.5,0Z" style="opacity: 1; stroke-width: 0px; fill: rgb(179, 59, 66); fill-opacity: 1;"/><path class="point" transform="translate(867.9,111.19)" d="M2.5,0A2.5,2.5 0 1,1 0,-2.5A2.5,2.5 0 0,1 2.5,0Z" style="opacity: 1; stroke-width: 0px; fill: rgb(179, 59, 66); fill-opacity: 1;"/><path class="point" transform="translate(998.69,111.9)" d="M2.5,0A2.5,2.5 0 1,1 0,-2.5A2.5,2.5 0 0,1 2.5,0Z" style="opacity: 1; stroke-width: 0px; fill: rgb(179, 59, 66); fill-opacity: 1;"/><path class="point" transform="translate(1024.88,112.61)" d="M2.5,0A2.5,2.5 0 1,1 0,-2.5A2.5,2.5 0 0,1 2.5,0Z" style="opacity: 1; stroke-width: 0px; fill: rgb(179, 59, 66); fill-opacity: 1;"/></g></g><g class="trace violins" style="opacity: 1;"><path class="violin" d="M670.01,86.43L670.01,85.62Q675.66,85.15 678.48,84.75C681.31,84.35 684.14,83.88 686.95,83.24C689.79,82.6 692.62,81.83 695.42,80.91C698.27,79.98 701.09,78.87 703.89,77.67C706.74,76.45 709.55,75.05 712.36,73.63C715.2,72.2 718.02,70.62 720.84,69.11C723.67,67.6 726.47,66 729.31,64.55C732.12,63.12 734.93,61.68 737.78,60.45C740.58,59.24 743.4,58.11 746.25,57.21C749.05,56.33 751.88,55.59 754.72,55.11C757.53,54.64 760.37,54.36 763.19,54.34C766.01,54.32 768.85,54.55 771.66,54.99C774.5,55.43 777.33,56.15 780.13,57C782.98,57.86 785.81,58.98 788.61,60.14C791.46,61.32 794.26,62.69 797.08,64.01C799.91,65.33 802.72,66.76 805.55,68.07C808.36,69.37 811.18,70.69 814.02,71.84C816.82,72.98 819.65,74.04 822.49,74.94C825.29,75.83 828.12,76.59 830.96,77.22C833.77,77.85 836.6,78.32 839.43,78.73C842.25,79.13 845.08,79.4 847.91,79.65C850.73,79.9 853.56,80.05 856.38,80.22C859.2,80.39 862.03,80.51 864.85,80.65C867.67,80.79 870.5,80.91 873.32,81.04C876.14,81.17 878.97,81.31 881.79,81.44C884.61,81.57 887.44,81.69 890.26,81.82C893.08,81.94 895.91,82.08 898.73,82.19C901.56,82.31 904.38,82.43 907.21,82.51C910.03,82.59 912.86,82.67 915.68,82.69C918.5,82.71 921.33,82.71 924.15,82.66C926.97,82.61 929.8,82.5 932.62,82.37C935.44,82.24 938.27,82.06 941.09,81.9C943.91,81.74 946.74,81.54 949.56,81.41C952.38,81.28 955.21,81.16 958.03,81.14C960.85,81.12 963.68,81.16 966.5,81.28C969.33,81.4 972.16,81.61 974.98,81.85C977.81,82.1 980.63,82.43 983.45,82.75C986.27,83.07 989.1,83.45 991.92,83.77C994.74,84.09 997.57,84.42 1000.39,84.69C1003.21,84.96 1006.04,85.21 1008.86,85.41Q1011.68,85.61 1017.33,85.89L1017.33,86.43" style="vector-effect: non-scaling-stroke; stroke-width: 2px; stroke: rgb(197, 53, 52); stroke-opacity: 1; fill: rgb(197, 53, 52); fill-opacity: 0.5;"/><g class="points"><path class="point" transform="translate(721.35,76.92)" d="M2.5,0A2.5,2.5 0 1,1 0,-2.5A2.5,2.5 0 0,1 2.5,0Z" style="opacity: 1; stroke-width: 0px; fill: rgb(197, 53, 52); fill-opacity: 1;"/><path class="point" transform="translate(731.56,84.01)" d="M2.5,0A2.5,2.5 0 1,1 0,-2.5A2.5,2.5 0 0,1 2.5,0Z" style="opacity: 1; stroke-width: 0px; fill: rgb(197, 53, 52); fill-opacity: 1;"/><path class="point" transform="translate(734.6,76.11)" d="M2.5,0A2.5,2.5 0 1,1 0,-2.5A2.5,2.5 0 0,1 2.5,0Z" style="opacity: 1; stroke-width: 0px; fill: rgb(197, 53, 52); fill-opacity: 1;"/><path class="point" transform="translate(738.51,84.52)" d="M2.5,0A2.5,2.5 0 1,1 0,-2.5A2.5,2.5 0 0,1 2.5,0Z" style="opacity: 1; stroke-width: 0px; fill: rgb(197, 53, 52); fill-opacity: 1;"/><path class="point" transform="translate(741.33,81.39)" d="M2.5,0A2.5,2.5 0 1,1 0,-2.5A2.5,2.5 0 0,1 2.5,0Z" style="opacity: 1; stroke-width: 0px; fill: rgb(197, 53, 52); fill-opacity: 1;"/><path class="point" transform="translate(744.16,76.99)" d="M2.5,0A2.5,2.5 0 1,1 0,-2.5A2.5,2.5 0 0,1 2.5,0Z" style="opacity: 1; stroke-width: 0px; fill: rgb(197, 53, 52); fill-opacity: 1;"/><path class="point" transform="translate(746.11,80.25)" d="M2.5,0A2.5,2.5 0 1,1 0,-2.5A2.5,2.5 0 0,1 2.5,0Z" style="opacity: 1; stroke-width: 0px; fill: rgb(197, 53, 52); fill-opacity: 1;"/><path class="point" transform="translate(766,78.23)" d="M2.5,0A2.5,2.5 0 1,1 0,-2.5A2.5,2.5 0 0,1 2.5,0Z" style="opacity: 1; stroke-width: 0px; fill: rgb(197, 53, 52); fill-opacity: 1;"/><path class="point" transform="translate(766.97,82.03)" d="M2.5,0A2.5,2.5 0 1,1 0,-2.5A2.5,2.5 0 0,1 2.5,0Z" style="opacity: 1; stroke-width: 0px; fill: rgb(197, 53, 52); fill-opacity: 1;"/><path class="point" transform="translate(768.06,84.64)" d="M2.5,0A2.5,2.5 0 1,1 0,-2.5A2.5,2.5 0 0,1 2.5,0Z" style="opacity: 1; stroke-width: 0px; fill: rgb(197, 53, 52); fill-opacity: 1;"/><path class="point" transform="translate(770.23,78.56)" d="M2.5,0A2.5,2.5 0 1,1 0,-2.5A2.5,2.5 0 0,1 2.5,0Z" style="opacity: 1; stroke-width: 0px; fill: rgb(197, 53, 52); fill-opacity: 1;"/><path class="point" transform="translate(770.88,81.82)" d="M2.5,0A2.5,2.5 0 1,1 0,-2.5A2.5,2.5 0 0,1 2.5,0Z" style="opacity: 1; stroke-width: 0px; fill: rgb(197, 53, 52); fill-opacity: 1;"/><path class="point" transform="translate(777.4,76.07)" d="M2.5,0A2.5,2.5 0 1,1 0,-2.5A2.5,2.5 0 0,1 2.5,0Z" style="opacity: 1; stroke-width: 0px; fill: rgb(197, 53, 52); fill-opacity: 1;"/><path class="point" transform="translate(779.14,84.47)" d="M2.5,0A2.5,2.5 0 1,1 0,-2.5A2.5,2.5 0 0,1 2.5,0Z" style="opacity: 1; stroke-width: 0px; fill: rgb(197, 53, 52); fill-opacity: 1;"/><path class="point" transform="translate(781.96,82.36)" d="M2.5,0A2.5,2.5 0 1,1 0,-2.5A2.5,2.5 0 0,1 2.5,0Z" style="opacity: 1; stroke-width: 0px; fill: rgb(197, 53, 52); fill-opacity: 1;"/><path class="point" transform="translate(799.13,76.92)" d="M2.5,0A2.5,2.5 0 1,1 0,-2.5A2.5,2.5 0 0,1 2.5,0Z" style="opacity: 1; stroke-width: 0px; fill: rgb(197, 53, 52); fill-opacity: 1;"/><path class="point" transform="translate(800,80.75)" d="M2.5,0A2.5,2.5 0 1,1 0,-2.5A2.5,2.5 0 0,1 2.5,0Z" style="opacity: 1; stroke-width: 0px; fill: rgb(197, 53, 52); fill-opacity: 1;"/><path class="point" transform="translate(807.82,82.53)" d="M2.5,0A2.5,2.5 0 1,1 0,-2.5A2.5,2.5 0 0,1 2.5,0Z" style="opacity: 1; stroke-width: 0px; fill: rgb(197, 53, 52); fill-opacity: 1;"/><path class="point" transform="translate(844.32,80.94)" d="M2.5,0A2.5,2.5 0 1,1 0,-2.5A2.5,2.5 0 0,1 2.5,0Z" style="opacity: 1; stroke-width: 0px; fill: rgb(197, 53, 52); fill-opacity: 1;"/><path class="point" transform="translate(866.27,80.07)" d="M2.5,0A2.5,2.5 0 1,1 0,-2.5A2.5,2.5 0 0,1 2.5,0Z" style="opacity: 1; stroke-width: 0px; fill: rgb(197, 53, 52); fill-opacity: 1;"/><path class="point" transform="translate(902.77,78.84)" d="M2.5,0A2.5,2.5 0 1,1 0,-2.5A2.5,2.5 0 0,1 2.5,0Z" style="opacity: 1; stroke-width: 0px; fill: rgb(197, 53, 52); fill-opacity: 1;"/><path class="point" transform="translate(958.61,79.74)" d="M2.5,0A2.5,2.5 0 1,1 0,-2.5A2.5,2.5 0 0,1 2.5,0Z" style="opacity: 1; stroke-width: 0px; fill: rgb(197, 53, 52); fill-opacity: 1;"/><path class="point" transform="translate(965.99,80.65)" d="M2.5,0A2.5,2.5 0 1,1 0,-2.5A2.5,2.5 0 0,1 2.5,0Z" style="opacity: 1; stroke-width: 0px; fill: rgb(197, 53, 52); fill-opacity: 1;"/></g></g><g class="trace violins" style="opacity: 1;"><path class="violin" d="M627.29,54.34L627.29,53.4Q634.95,52.86 638.77,52.44C642.6,52.02 646.43,51.52 650.24,50.86C654.08,50.2 657.91,49.41 661.72,48.48C665.56,47.54 669.39,46.44 673.2,45.24C677.04,44.03 680.87,42.65 684.68,41.25C688.52,39.84 692.33,38.29 696.16,36.8C699.99,35.31 703.8,33.74 707.64,32.31C711.46,30.89 715.27,29.46 719.12,28.25C722.92,27.05 726.74,25.93 730.59,25.06C734.4,24.19 738.23,23.49 742.07,23.02C745.88,22.55 749.72,22.3 753.55,22.25C757.38,22.2 761.21,22.37 765.03,22.7C768.86,23.03 772.7,23.58 776.51,24.23C780.35,24.89 784.18,25.72 787.99,26.63C791.83,27.54 795.64,28.61 799.46,29.7C803.29,30.79 807.12,32 810.94,33.17C814.77,34.34 818.59,35.59 822.42,36.73C826.24,37.87 830.06,39.02 833.9,40.02C837.72,41.02 841.54,41.95 845.38,42.74C849.19,43.52 853.02,44.18 856.86,44.72C860.68,45.25 864.51,45.65 868.34,45.96C872.16,46.27 875.98,46.45 879.81,46.59C883.63,46.73 887.46,46.77 891.29,46.8C895.12,46.83 898.94,46.81 902.77,46.8C906.6,46.79 910.42,46.73 914.25,46.72C918.08,46.71 921.9,46.69 925.73,46.73C929.56,46.77 933.39,46.82 937.21,46.95C941.04,47.08 944.86,47.25 948.68,47.49C952.51,47.73 956.34,48.05 960.16,48.39C963.99,48.74 967.81,49.16 971.64,49.56C975.47,49.97 979.29,50.42 983.12,50.82C986.95,51.22 990.77,51.63 994.6,51.98C998.42,52.33 1002.25,52.65 1006.08,52.91C1009.91,53.17 1013.73,53.38 1017.56,53.55C1021.38,53.72 1025.21,53.85 1029.03,53.95C1032.86,54.05 1036.68,54.12 1040.51,54.17C1044.34,54.22 1048.16,54.25 1051.99,54.27C1055.82,54.29 1059.64,54.3 1063.47,54.3C1067.3,54.3 1071.12,54.31 1074.95,54.3C1078.78,54.29 1082.6,54.28 1086.43,54.25C1090.25,54.22 1094.08,54.18 1097.9,54.13C1101.73,54.08 1105.55,54.02 1109.38,53.93C1113.21,53.84 1117.03,53.72 1120.86,53.59C1124.69,53.46 1128.51,53.3 1132.34,53.14C1136.17,52.97 1139.99,52.78 1143.82,52.6C1147.65,52.42 1151.47,52.23 1155.3,52.08C1159.13,51.93 1162.95,51.79 1166.78,51.71C1170.6,51.63 1174.43,51.58 1178.25,51.59C1182.08,51.6 1185.9,51.67 1189.73,51.76C1193.56,51.86 1197.38,52.01 1201.21,52.16C1205.04,52.32 1208.86,52.51 1212.69,52.69C1216.52,52.87 1220.34,53.06 1224.17,53.22C1228,53.38 1231.82,53.53 1235.65,53.66Q1239.47,53.78 1247.12,53.97L1247.12,54.34" style="vector-effect: non-scaling-stroke; stroke-width: 2px; stroke: rgb(215, 48, 39); stroke-opacity: 1; fill: rgb(215, 48, 39); fill-opacity: 0.5;"/><g class="points"><path class="point" transform="translate(697.12,45.09)" d="M2.5,0A2.5,2.5 0 1,1 0,-2.5A2.5,2.5 0 0,1 2.5,0Z" style="opacity: 1; stroke-width: 0px; fill: rgb(215, 48, 39); fill-opacity: 1;"/><path class="point" transform="translate(705.81,51.65)" d="M2.5,0A2.5,2.5 0 1,1 0,-2.5A2.5,2.5 0 0,1 2.5,0Z" style="opacity: 1; stroke-width: 0px; fill: rgb(215, 48, 39); fill-opacity: 1;"/><path class="point" transform="translate(706.14,43.34)" d="M2.5,0A2.5,2.5 0 1,1 0,-2.5A2.5,2.5 0 0,1 2.5,0Z" style="opacity: 1; stroke-width: 0px; fill: rgb(215, 48, 39); fill-opacity: 1;"/><path class="point" transform="translate(724.39,53.26)" d="M2.5,0A2.5,2.5 0 1,1 0,-2.5A2.5,2.5 0 0,1 2.5,0Z" style="opacity: 1; stroke-width: 0px; fill: rgb(215, 48, 39); fill-opacity: 1;"/><path class="point" transform="translate(735.47,49.43)" d="M2.5,0A2.5,2.5 0 1,1 0,-2.5A2.5,2.5 0 0,1 2.5,0Z" style="opacity: 1; stroke-width: 0px; fill: rgb(215, 48, 39); fill-opacity: 1;"/><path class="point" transform="translate(737.86,44.9)" d="M2.5,0A2.5,2.5 0 1,1 0,-2.5A2.5,2.5 0 0,1 2.5,0Z" style="opacity: 1; stroke-width: 0px; fill: rgb(215, 48, 39); fill-opacity: 1;"/><path class="point" transform="translate(739.92,48.14)" d="M2.5,0A2.5,2.5 0 1,1 0,-2.5A2.5,2.5 0 0,1 2.5,0Z" style="opacity: 1; stroke-width: 0px; fill: rgb(215, 48, 39); fill-opacity: 1;"/><path class="point" transform="translate(745.9,46.25)" d="M2.5,0A2.5,2.5 0 1,1 0,-2.5A2.5,2.5 0 0,1 2.5,0Z" style="opacity: 1; stroke-width: 0px; fill: rgb(215, 48, 39); fill-opacity: 1;"/><path class="point" transform="translate(746.01,49.97)" d="M2.5,0A2.5,2.5 0 1,1 0,-2.5A2.5,2.5 0 0,1 2.5,0Z" style="opacity: 1; stroke-width: 0px; fill: rgb(215, 48, 39); fill-opacity: 1;"/><path class="point" transform="translate(755.67,52.52)" d="M2.5,0A2.5,2.5 0 1,1 0,-2.5A2.5,2.5 0 0,1 2.5,0Z" style="opacity: 1; stroke-width: 0px; fill: rgb(215, 48, 39); fill-opacity: 1;"/><path class="point" transform="translate(770.78,46.3)" d="M2.5,0A2.5,2.5 0 1,1 0,-2.5A2.5,2.5 0 0,1 2.5,0Z" style="opacity: 1; stroke-width: 0px; fill: rgb(215, 48, 39); fill-opacity: 1;"/><path class="point" transform="translate(778.92,49.75)" d="M2.5,0A2.5,2.5 0 1,1 0,-2.5A2.5,2.5 0 0,1 2.5,0Z" style="opacity: 1; stroke-width: 0px; fill: rgb(215, 48, 39); fill-opacity: 1;"/><path class="point" transform="translate(779.57,44.35)" d="M2.5,0A2.5,2.5 0 1,1 0,-2.5A2.5,2.5 0 0,1 2.5,0Z" style="opacity: 1; stroke-width: 0px; fill: rgb(215, 48, 39); fill-opacity: 1;"/><path class="point" transform="translate(783.49,52.17)" d="M2.5,0A2.5,2.5 0 1,1 0,-2.5A2.5,2.5 0 0,1 2.5,0Z" style="opacity: 1; stroke-width: 0px; fill: rgb(215, 48, 39); fill-opacity: 1;"/><path class="point" transform="translate(797.39,50.29)" d="M2.5,0A2.5,2.5 0 1,1 0,-2.5A2.5,2.5 0 0,1 2.5,0Z" style="opacity: 1; stroke-width: 0px; fill: rgb(215, 48, 39); fill-opacity: 1;"/><path class="point" transform="translate(804.02,44.6)" d="M2.5,0A2.5,2.5 0 1,1 0,-2.5A2.5,2.5 0 0,1 2.5,0Z" style="opacity: 1; stroke-width: 0px; fill: rgb(215, 48, 39); fill-opacity: 1;"/><path class="point" transform="translate(819.12,48.86)" d="M2.5,0A2.5,2.5 0 1,1 0,-2.5A2.5,2.5 0 0,1 2.5,0Z" style="opacity: 1; stroke-width: 0px; fill: rgb(215, 48, 39); fill-opacity: 1;"/><path class="point" transform="translate(822.49,50.05)" d="M2.5,0A2.5,2.5 0 1,1 0,-2.5A2.5,2.5 0 0,1 2.5,0Z" style="opacity: 1; stroke-width: 0px; fill: rgb(215, 48, 39); fill-opacity: 1;"/><path class="point" transform="translate(873.65,48.7)" d="M2.5,0A2.5,2.5 0 1,1 0,-2.5A2.5,2.5 0 0,1 2.5,0Z" style="opacity: 1; stroke-width: 0px; fill: rgb(215, 48, 39); fill-opacity: 1;"/><path class="point" transform="translate(901.46,47.97)" d="M2.5,0A2.5,2.5 0 1,1 0,-2.5A2.5,2.5 0 0,1 2.5,0Z" style="opacity: 1; stroke-width: 0px; fill: rgb(215, 48, 39); fill-opacity: 1;"/><path class="point" transform="translate(943.62,46.96)" d="M2.5,0A2.5,2.5 0 1,1 0,-2.5A2.5,2.5 0 0,1 2.5,0Z" style="opacity: 1; stroke-width: 0px; fill: rgb(215, 48, 39); fill-opacity: 1;"/><path class="point" transform="translate(952.42,47.7)" d="M2.5,0A2.5,2.5 0 1,1 0,-2.5A2.5,2.5 0 0,1 2.5,0Z" style="opacity: 1; stroke-width: 0px; fill: rgb(215, 48, 39); fill-opacity: 1;"/><path class="point" transform="translate(1177.29,48.45)" d="M2.5,0A2.5,2.5 0 1,1 0,-2.5A2.5,2.5 0 0,1 2.5,0Z" style="opacity: 1; stroke-width: 0px; fill: rgb(215, 48, 39); fill-opacity: 1;"/></g></g></g></g><g class="overplot"/><path class="xlines-above crisp" d="M124,445.5H1320" style="fill: none; stroke-width: 1px; stroke: rgb(255, 255, 255); stroke-opacity: 1;"/><path class="ylines-above crisp" d="M124.5,50V445" style="fill: none; stroke-width: 1px; stroke: rgb(255, 255, 255); stroke-opacity: 1;"/><g class="overlines-above"/><g class="xaxislayer-above"><g class="xtick"><text text-anchor="middle" x="0" y="460.4" transform="translate(190.18,0)" style="font-family: 'Open Sans', verdana, arial, sans-serif; font-size: 12px; fill: rgb(42, 63, 95); fill-opacity: 1; white-space: pre;">30</text></g><g class="xtick"><text text-anchor="middle" x="0" y="460.4" transform="translate(407.45,0)" style="font-family: 'Open Sans', verdana, arial, sans-serif; font-size: 12px; fill: rgb(42, 63, 95); fill-opacity: 1; white-space: pre;">20</text></g><g class="xtick"><text text-anchor="middle" x="0" y="460.4" transform="translate(624.73,0)" style="font-family: 'Open Sans', verdana, arial, sans-serif; font-size: 12px; fill: rgb(42, 63, 95); fill-opacity: 1; white-space: pre;">10</text></g><g class="xtick"><text text-anchor="middle" x="0" y="460.4" transform="translate(842,0)" style="font-family: 'Open Sans', verdana, arial, sans-serif; font-size: 12px; fill: rgb(42, 63, 95); fill-opacity: 1; white-space: pre;">0</text></g><g class="xtick"><text text-anchor="middle" x="0" y="460.4" transform="translate(1059.27,0)" style="font-family: 'Open Sans', verdana, arial, sans-serif; font-size: 12px; fill: rgb(42, 63, 95); fill-opacity: 1; white-space: pre;">10</text></g><g class="xtick"><text text-anchor="middle" x="0" y="460.4" transform="translate(1276.55,0)" style="font-family: 'Open Sans', verdana, arial, sans-serif; font-size: 12px; fill: rgb(42, 63, 95); fill-opacity: 1; white-space: pre;">20</text></g></g><g class="yaxislayer-above"><g class="ytick"><text text-anchor="end" x="121.6" y="4.199999999999999" transform="translate(0,425.25)" style="font-family: 'Open Sans', verdana, arial, sans-serif; font-size: 12px; fill: rgb(42, 63, 95); fill-opacity: 1; white-space: pre;">Sample 4-1_B2</text></g><g class="ytick"><text text-anchor="end" x="121.6" y="4.199999999999999" transform="translate(0,393.16)" style="font-family: 'Open Sans', verdana, arial, sans-serif; font-size: 12px; fill: rgb(42, 63, 95); fill-opacity: 1; white-space: pre;">Sample 79-2_G3</text></g><g class="ytick"><text text-anchor="end" x="121.6" y="4.199999999999999" transform="translate(0,361.07)" style="font-family: 'Open Sans', verdana, arial, sans-serif; font-size: 12px; fill: rgb(42, 63, 95); fill-opacity: 1; white-space: pre;">Sample 134-1_H4</text></g><g class="ytick"><text text-anchor="end" x="121.6" y="4.199999999999999" transform="translate(0,328.98)" style="font-family: 'Open Sans', verdana, arial, sans-serif; font-size: 12px; fill: rgb(42, 63, 95); fill-opacity: 1; white-space: pre;">Sample 134-2_A5</text></g><g class="ytick"><text text-anchor="end" x="121.6" y="4.199999999999999" transform="translate(0,296.89)" style="font-family: 'Open Sans', verdana, arial, sans-serif; font-size: 12px; fill: rgb(42, 63, 95); fill-opacity: 1; white-space: pre;">Sample 7-2_F2</text></g><g class="ytick"><text text-anchor="end" x="121.6" y="4.199999999999999" transform="translate(0,264.8)" style="font-family: 'Open Sans', verdana, arial, sans-serif; font-size: 12px; fill: rgb(42, 63, 95); fill-opacity: 1; white-space: pre;">Sample 4-2_B2</text></g><g class="ytick"><text text-anchor="end" x="121.6" y="4.199999999999999" transform="translate(0,232.7)" style="font-family: 'Open Sans', verdana, arial, sans-serif; font-size: 12px; fill: rgb(42, 63, 95); fill-opacity: 1; white-space: pre;">Sample 7-1_E2</text></g><g class="ytick"><text text-anchor="end" x="121.6" y="4.199999999999999" transform="translate(0,200.61)" style="font-family: 'Open Sans', verdana, arial, sans-serif; font-size: 12px; fill: rgb(42, 63, 95); fill-opacity: 1; white-space: pre;">Sample 117-2_C4</text></g><g class="ytick"><text text-anchor="end" x="121.6" y="4.199999999999999" transform="translate(0,168.51999999999998)" style="font-family: 'Open Sans', verdana, arial, sans-serif; font-size: 12px; fill: rgb(42, 63, 95); fill-opacity: 1; white-space: pre;">Sample 80-1_H3</text></g><g class="ytick"><text text-anchor="end" x="121.6" y="4.199999999999999" transform="translate(0,136.43)" style="font-family: 'Open Sans', verdana, arial, sans-serif; font-size: 12px; fill: rgb(42, 63, 95); fill-opacity: 1; white-space: pre;">Sample 131-1_F4</text></g><g class="ytick"><text text-anchor="end" x="121.6" y="4.199999999999999" transform="translate(0,104.34)" style="font-family: 'Open Sans', verdana, arial, sans-serif; font-size: 12px; fill: rgb(42, 63, 95); fill-opacity: 1; white-space: pre;">Sample 69-1_F3</text></g></g><g class="overaxes-above"/></g></g><g class="polarlayer"/><g class="ternarylayer"/><g class="geolayer"/><g class="funnelarealayer"/><g class="pielayer"/><g class="treemaplayer"/><g class="sunburstlayer"/><g class="glimages"/><defs id="topdefs-991bc1"><g class="clips"/></defs><g class="layer-above"><g class="imagelayer"/><g class="shapelayer"/></g><g class="infolayer"><g class="g-gtitle"/><g class="g-xtitle"><text class="xtitle" x="722.5" y="488.20625" text-anchor="middle" style="font-family: 'Open Sans', verdana, arial, sans-serif; font-size: 14px; fill: rgb(42, 63, 95); opacity: 1; font-weight: normal; white-space: pre;">CpG median log likelihood ratio</text></g><g class="g-ytitle"/><g class="annotation" data-index="0" style="opacity: 1;"><g class="annotation-text-g" transform="rotate(0,842,35.79999999999998)"><g class="cursor-pointer" transform="translate(807, 26)"><rect class="bg" x="0.5" y="0.5" width="70" height="18" style="stroke-width: 1px; stroke: rgb(0, 0, 0); stroke-opacity: 0; fill: rgb(0, 0, 0); fill-opacity: 0;"/><text class="annotation-text" text-anchor="middle" x="35.421875" y="14" style="font-family: 'Open Sans', verdana, arial, sans-serif; font-size: 12px; fill: rgb(100, 100, 100); fill-opacity: 1; white-space: pre;">Ambiguous</text></g></g></g><g class="annotation" data-index="1" style="opacity: 1;"><g class="annotation-text-g" transform="rotate(0,472.64,35.79999999999998)"><g class="cursor-pointer" transform="translate(429, 26)"><rect class="bg" x="0.5" y="0.5" width="87" height="18" style="stroke-width: 1px; stroke: rgb(0, 0, 0); stroke-opacity: 0; fill: rgb(0, 0, 0); fill-opacity: 0;"/><text class="annotation-text" text-anchor="middle" x="44.1875" y="14" style="font-family: 'Open Sans', verdana, arial, sans-serif; font-size: 12px; fill: rgb(33, 102, 172); fill-opacity: 1; white-space: pre;">Unmethylated</text></g></g></g><g class="annotation" data-index="2" style="opacity: 1;"><g class="annotation-text-g" transform="rotate(0,1091.8600000000001,35.79999999999998)"><g class="cursor-pointer" transform="translate(1057, 26)"><rect class="bg" x="0.5" y="0.5" width="69" height="18" style="stroke-width: 1px; stroke: rgb(0, 0, 0); stroke-opacity: 0; fill: rgb(0, 0, 0); fill-opacity: 0;"/><text class="annotation-text" text-anchor="middle" x="35.21875" y="14" style="font-family: 'Open Sans', verdana, arial, sans-serif; font-size: 12px; fill: rgb(215, 48, 39); fill-opacity: 1; white-space: pre;">Methylated</text></g></g></g></g></svg>