<svg class="main-svg" xmlns="http://www.w3.org/2000/svg" xmlns:xlink="http://www.w3.org/1999/xlink" width="1400" height="500" style="" viewBox="0 0 1400 500"><rect x="0" y="0" width="1400" height="500" style="fill: rgb(255, 255, 255); fill-opacity: 1;"/><defs id="defs-8306ee"><g class="clips"><clipPath id="clip8306eexyplot" class="plotclip"><rect width="1197" height="397"/></clipPath><clipPath class="axesclip" id="clip8306eex"><rect x="123" y="0" width="1197" height="500"/></clipPath><clipPath class="axesclip" id="clip8306eey"><rect x="0" y="50" width="1400" height="397"/></clipPath><clipPath class="axesclip" id="clip8306eexy"><rect x="123" y="50" width="1197" height="397"/></clipPath></g><g class="gradients"/></defs><g class="bglayer"><rect class="bg" x="123" y="50" width="1197" height="397" style="fill: rgb(0, 0, 0); fill-opacity: 0; stroke-width: 0;"/></g><g class="layer-below"><g class="imagelayer"/><g class="shapelayer"><path data-index="0" fill-rule="evenodd" d="M832.33,447H876.67V50H832.33Z" clip-path="url('#clip8306eex')" style="opacity: 0.25; stroke: rgb(0, 0, 0); stroke-opacity: 0; fill: rgb(100, 100, 100); fill-opacity: 1; stroke-width: 0px;"/></g></g><g class="cartesianlayer"><g class="subplot xy"><g class="layer-subplot"><g class="shapelayer"/><g class="imagelayer"/></g><g class="gridlayer"><g class="x"/><g class="y"><path class="ygrid crisp" transform="translate(0,427.15)" d="M123,0h1197" style="stroke: rgb(211, 211, 211); stroke-opacity: 1; stroke-width: 1px;"/><path class="ygrid crisp" transform="translate(0,394.9)" d="M123,0h1197" style="stroke: rgb(211, 211, 211); stroke-opacity: 1; stroke-width: 1px;"/><path class="ygrid crisp" transform="translate(0,362.64)" d="M123,0h1197" style="stroke: rgb(211, 211, 211); stroke-opacity: 1; stroke-width: 1px;"/><path class="ygrid crisp" transform="translate(0,330.39)" d="M123,0h1197" style="stroke: rgb(211, 211, 211); stroke-opacity: 1; stroke-width: 1px;"/><path class="ygrid crisp" transform="translate(0,298.13)" d="M123,0h1197" style="stroke: rgb(211, 211, 211); stroke-opacity: 1; stroke-width: 1px;"/><path class="ygrid crisp" transform="translate(0,265.88)" d="M123,0h1197" style="stroke: rgb(211, 211, 211); stroke-opacity: 1; stroke-width: 1px;"/><path class="ygrid crisp" transform="translate(0,233.62)" d="M123,0h1197" style="stroke: rgb(211, 211, 211); stroke-opacity: 1; stroke-width: 1px;"/><path class="ygrid crisp" transform="translate(0,201.37)" d="M123,0h1197" style="stroke: rgb(211, 211, 211); stroke-opacity: 1; stroke-width: 1px;"/><path class="ygrid crisp" transform="translate(0,169.11)" d="M123,0h1197" style="stroke: rgb(211, 211, 211); stroke-opacity: 1; stroke-width: 1px;"/><path class="ygrid crisp" transform="translate(0,136.86)" d="M123,0h1197" style="stroke: rgb(211, 211, 211); stroke-opacity: 1; stroke-width: 1px;"/><path class="ygrid crisp" transform="translate(0,104.6)" d="M123,0h1197" style="stroke: rgb(211, 211, 211); stroke-opacity: 1; stroke-width: 1px;"/></g></g><g class="zerolinelayer"/><path class="xlines-below"/><path class="ylines-below"/><g class="overlines-below"/><g class="xaxislayer-below"/><g class="yaxislayer-below"/><g class="overaxes-below"/><g class="plot" transform="translate(123, 50)" clip-path="url('#clip8306eexyplot')"><g class="violinlayer mlayer"><g class="trace violins" style="opacity: 1;"><path class="violin" d="M121.47,377.15L121.47,376.77Q126.75,376.59 129.39,376.46C132.03,376.33 134.68,376.17 137.32,376.01C139.96,375.84 142.61,375.65 145.25,375.47C147.89,375.29 150.54,375.09 153.18,374.93C155.82,374.77 158.46,374.62 161.1,374.52C163.74,374.42 166.39,374.36 169.03,374.35C171.67,374.34 174.32,374.4 176.96,374.48C179.6,374.57 182.25,374.71 184.89,374.86C187.53,375.01 190.17,375.21 192.81,375.39C195.45,375.57 198.1,375.77 200.74,375.94C203.38,376.11 206.03,376.27 208.67,376.4C211.31,376.53 213.96,376.65 216.6,376.74C219.24,376.83 221.88,376.89 224.52,376.94C227.16,376.99 229.81,377.03 232.45,377.06C235.09,377.09 237.74,377.1 240.38,377.11C243.02,377.12 245.66,377.13 248.3,377.14C250.94,377.15 253.59,377.15 256.23,377.15C258.87,377.15 261.52,377.15 264.16,377.15C266.8,377.15 269.45,377.15 272.09,377.15C274.73,377.15 277.37,377.15 280.01,377.15C282.65,377.15 285.3,377.15 287.94,377.15C290.58,377.15 293.23,377.15 295.87,377.15C298.51,377.15 301.16,377.15 303.8,377.15C306.44,377.15 309.08,377.15 311.72,377.15C314.36,377.15 317.01,377.15 319.65,377.15C322.29,377.15 324.94,377.15 327.58,377.15C330.22,377.15 332.86,377.15 335.5,377.15C338.14,377.15 340.79,377.15 343.43,377.15C346.07,377.15 348.72,377.15 351.36,377.15C354,377.15 356.65,377.15 359.29,377.15C361.93,377.15 364.57,377.15 367.21,377.15C369.85,377.15 372.5,377.15 375.14,377.15C377.78,377.15 380.43,377.15 383.07,377.15C385.71,377.15 388.36,377.15 391,377.15C393.64,377.15 396.28,377.15 398.92,377.15C401.56,377.15 404.21,377.15 406.85,377.15C409.49,377.15 412.14,377.15 414.78,377.14C417.42,377.14 420.06,377.13 422.7,377.12C425.34,377.11 427.99,377.1 430.63,377.08C433.27,377.06 435.92,377.03 438.56,376.98C441.2,376.93 443.85,376.88 446.49,376.79C449.13,376.71 451.77,376.6 454.41,376.47C457.05,376.34 459.7,376.17 462.34,375.99C464.98,375.8 467.63,375.59 470.27,375.36C472.91,375.13 475.56,374.86 478.2,374.61C480.84,374.36 483.48,374.09 486.12,373.86C488.76,373.62 491.41,373.39 494.05,373.2C496.69,373.02 499.34,372.86 501.98,372.75C504.62,372.64 507.27,372.58 509.91,372.56C512.55,372.54 515.19,372.58 517.83,372.65C520.47,372.72 523.12,372.85 525.76,372.99C528.4,373.13 531.05,373.31 533.69,373.47C536.33,373.63 538.97,373.83 541.61,373.96C544.25,374.09 546.9,374.21 549.54,374.24C552.18,374.27 554.83,374.25 557.47,374.13C560.12,374.01 562.76,373.8 565.4,373.52C568.05,373.24 570.68,372.85 573.32,372.43C575.97,372.01 578.61,371.5 581.25,370.99C583.9,370.48 586.54,369.92 589.18,369.37C591.82,368.82 594.47,368.26 597.11,367.69C599.75,367.12 602.39,366.56 605.03,365.93C607.68,365.29 610.33,364.64 612.96,363.87C615.62,363.09 618.27,362.25 620.89,361.29C623.55,360.31 626.18,359.2 628.81,358.04C631.47,356.87 634.1,355.55 636.74,354.29C639.39,353.03 642.01,351.66 644.67,350.48C647.3,349.32 649.93,348.14 652.6,347.27C655.21,346.42 657.86,345.67 660.52,345.28C663.14,344.89 665.81,344.76 668.45,344.9C671.1,345.04 673.76,345.51 676.38,346.12C679.05,346.74 681.69,347.66 684.31,348.6C686.97,349.55 689.59,350.71 692.23,351.8C694.88,352.89 697.51,354.07 700.16,355.15C702.8,356.22 705.44,357.29 708.09,358.26C710.72,359.22 713.36,360.13 716.01,360.95C718.64,361.77 721.29,362.5 723.94,363.19C726.58,363.87 729.22,364.48 731.87,365.07C734.51,365.66 737.16,366.2 739.8,366.75C742.44,367.29 745.08,367.81 747.72,368.34C750.36,368.87 753.01,369.39 755.65,369.92C758.29,370.45 760.94,370.99 763.58,371.5C766.22,372.01 768.87,372.53 771.51,373C774.15,373.47 776.79,373.93 779.43,374.33C782.07,374.73 784.71,375.09 787.36,375.39C790,375.69 792.65,375.94 795.29,376.15Q797.93,376.36 803.21,376.63L803.21,377.15" style="vector-effect: non-scaling-stroke; stroke-width: 2px; stroke: rgb(33, 102, 172); stroke-opacity: 1; fill: rgb(33, 102, 172); fill-opacity: 0.5;"/><g class="points"><path class="point" transform="translate(169.57,370.07)" d="M2.5,0A2.5,2.5 0 1,1 0,-2.5A2.5,2.5 0 0,1 2.5,0Z" style="opacity: 1; stroke-width: 0px; fill: rgb(33, 102, 172); fill-opacity: 1;"/><path class="point" transform="translate(495.65,371.54)" d="M2.5,0A2.5,2.5 0 1,1 0,-2.5A2.5,2.5 0 0,1 2.5,0Z" style="opacity: 1; stroke-width: 0px; fill: rgb(33, 102, 172); fill-opacity: 1;"/><path class="point" transform="translate(526.13,369.62)" d="M2.5,0A2.5,2.5 0 1,1 0,-2.5A2.5,2.5 0 0,1 2.5,0Z" style="opacity: 1; stroke-width: 0px; fill: rgb(33, 102, 172); fill-opacity: 1;"/><path class="point" transform="translate(594.95,371.96)" d="M2.5,0A2.5,2.5 0 1,1 0,-2.5A2.5,2.5 0 0,1 2.5,0Z" style="opacity: 1; stroke-width: 0px; fill: rgb(33, 102, 172); fill-opacity: 1;"/><path class="point" transform="translate(596.62,371.09)" d="M2.5,0A2.5,2.5 0 1,1 0,-2.5A2.5,2.5 0 0,1 2.5,0Z" style="opacity: 1; stroke-width: 0px; fill: rgb(33, 102, 172); fill-opacity: 1;"/><path class="point" transform="translate(617.79,369.83)" d="M2.5,0A2.5,2.5 0 1,1 0,-2.5A2.5,2.5 0 0,1 2.5,0Z" style="opacity: 1; stroke-width: 0px; fill: rgb(33, 102, 172); fill-opacity: 1;"/><path class="point" transform="translate(636.07,370.8)" d="M2.5,0A2.5,2.5 0 1,1 0,-2.5A2.5,2.5 0 0,1 2.5,0Z" style="opacity: 1; stroke-width: 0px; fill: rgb(33, 102, 172); fill-opacity: 1;"/><path class="point" transform="translate(649.26,369.8)" d="M2.5,0A2.5,2.5 0 1,1 0,-2.5A2.5,2.5 0 0,1 2.5,0Z" style="opacity: 1; stroke-width: 0px; fill: rgb(33, 102, 172); fill-opacity: 1;"/><path class="point" transform="translate(649.26,372.05)" d="M2.5,0A2.5,2.5 0 1,1 0,-2.5A2.5,2.5 0 0,1 2.5,0Z" style="opacity: 1; stroke-width: 0px; fill: rgb(33, 102, 172); fill-opacity: 1;"/><path class="point" transform="translate(651.92,373.82)" d="M2.5,0A2.5,2.5 0 1,1 0,-2.5A2.5,2.5 0 0,1 2.5,0Z" style="opacity: 1; stroke-width: 0px; fill: rgb(33, 102, 172); fill-opacity: 1;"/><path class="point" transform="translate(653.25,369.43)" d="M2.5,0A2.5,2.5 0 1,1 0,-2.5A2.5,2.5 0 0,1 2.5,0Z" style="opacity: 1; stroke-width: 0px; fill: rgb(33, 102, 172); fill-opacity: 1;"/><path class="point" transform="translate(661.45,372.5)" d="M2.5,0A2.5,2.5 0 1,1 0,-2.5A2.5,2.5 0 0,1 2.5,0Z" style="opacity: 1; stroke-width: 0px; fill: rgb(33, 102, 172); fill-opacity: 1;"/><path class="point" transform="translate(665,366.61)" d="M2.5,0A2.5,2.5 0 1,1 0,-2.5A2.5,2.5 0 0,1 2.5,0Z" style="opacity: 1; stroke-width: 0px; fill: rgb(33, 102, 172); fill-opacity: 1;"/><path class="point" transform="translate(669.43,376.41)" d="M2.5,0A2.5,2.5 0 1,1 0,-2.5A2.5,2.5 0 0,1 2.5,0Z" style="opacity: 1; stroke-width: 0px; fill: rgb(33, 102, 172); fill-opacity: 1;"/><path class="point" transform="translate(670.21,373.59)" d="M2.5,0A2.5,2.5 0 1,1 0,-2.5A2.5,2.5 0 0,1 2.5,0Z" style="opacity: 1; stroke-width: 0px; fill: rgb(33, 102, 172); fill-opacity: 1;"/><path class="point" transform="translate(677.19,366.64)" d="M2.5,0A2.5,2.5 0 1,1 0,-2.5A2.5,2.5 0 0,1 2.5,0Z" style="opacity: 1; stroke-width: 0px; fill: rgb(33, 102, 172); fill-opacity: 1;"/><path class="point" transform="translate(680.96,371.93)" d="M2.5,0A2.5,2.5 0 1,1 0,-2.5A2.5,2.5 0 0,1 2.5,0Z" style="opacity: 1; stroke-width: 0px; fill: rgb(33, 102, 172); fill-opacity: 1;"/><path class="point" transform="translate(681.4,374.24)" d="M2.5,0A2.5,2.5 0 1,1 0,-2.5A2.5,2.5 0 0,1 2.5,0Z" style="opacity: 1; stroke-width: 0px; fill: rgb(33, 102, 172); fill-opacity: 1;"/><path class="point" transform="translate(688.16,372.01)" d="M2.5,0A2.5,2.5 0 1,1 0,-2.5A2.5,2.5 0 0,1 2.5,0Z" style="opacity: 1; stroke-width: 0px; fill: rgb(33, 102, 172); fill-opacity: 1;"/><path class="point" transform="translate(705.45,370.78)" d="M2.5,0A2.5,2.5 0 1,1 0,-2.5A2.5,2.5 0 0,1 2.5,0Z" style="opacity: 1; stroke-width: 0px; fill: rgb(33, 102, 172); fill-opacity: 1;"/><path class="point" transform="translate(716.65,369.03)" d="M2.5,0A2.5,2.5 0 1,1 0,-2.5A2.5,2.5 0 0,1 2.5,0Z" style="opacity: 1; stroke-width: 0px; fill: rgb(33, 102, 172); fill-opacity: 1;"/><path class="point" transform="translate(716.87,370.3)" d="M2.5,0A2.5,2.5 0 1,1 0,-2.5A2.5,2.5 0 0,1 2.5,0Z" style="opacity: 1; stroke-width: 0px; fill: rgb(33, 102, 172); fill-opacity: 1;"/><path class="point" transform="translate(743.58,371.63)" d="M2.5,0A2.5,2.5 0 1,1 0,-2.5A2.5,2.5 0 0,1 2.5,0Z" style="opacity: 1; stroke-width: 0px; fill: rgb(33, 102, 172); fill-opacity: 1;"/><path class="point" transform="translate(755.11,373.34)" d="M2.5,0A2.5,2.5 0 1,1 0,-2.5A2.5,2.5 0 0,1 2.5,0Z" style="opacity: 1; stroke-width: 0px; fill: rgb(33, 102, 172); fill-opacity: 1;"/></g></g><g class="trace violins" style="opacity: 1;"><path class="violin" d="M-37.77,344.9L-37.77,344.59Q-29.98,344.44 -26.09,344.34C-22.2,344.24 -18.3,344.11 -14.41,343.98C-10.51,343.85 -6.62,343.69 -2.72,343.55C1.17,343.41 5.07,343.25 8.96,343.12C12.85,342.99 16.75,342.87 20.64,342.79C24.53,342.71 28.43,342.66 32.32,342.66C36.21,342.66 40.11,342.69 44,342.76C47.89,342.83 51.79,342.96 55.68,343.08C59.57,343.2 63.47,343.36 67.36,343.5C71.26,343.64 75.15,343.8 79.05,343.94C82.94,344.07 86.84,344.2 90.73,344.31C94.62,344.41 98.52,344.5 102.41,344.57C106.3,344.64 110.2,344.7 114.09,344.74C117.98,344.78 121.88,344.8 125.77,344.82C129.66,344.84 133.56,344.86 137.45,344.87C141.34,344.88 145.24,344.89 149.13,344.89C153.03,344.89 156.92,344.89 160.82,344.89C164.71,344.89 168.61,344.89 172.5,344.89C176.39,344.89 180.29,344.9 184.18,344.9C188.07,344.9 191.97,344.9 195.86,344.9C199.75,344.9 203.65,344.9 207.54,344.9C211.43,344.9 215.33,344.9 219.22,344.9C223.11,344.9 227.01,344.9 230.9,344.9C234.8,344.9 238.69,344.9 242.59,344.9C246.48,344.9 250.38,344.9 254.27,344.9C258.16,344.9 262.06,344.9 265.95,344.9C269.84,344.9 273.74,344.9 277.63,344.9C281.52,344.9 285.42,344.9 289.31,344.9C293.2,344.9 297.1,344.9 300.99,344.9C304.88,344.9 308.78,344.9 312.67,344.9C316.57,344.9 320.46,344.9 324.36,344.9C328.25,344.9 332.15,344.9 336.04,344.9C339.93,344.9 343.83,344.9 347.72,344.9C351.61,344.9 355.51,344.9 359.4,344.9C363.29,344.9 367.19,344.89 371.08,344.89C374.97,344.89 378.87,344.89 382.76,344.89C386.65,344.89 390.55,344.89 394.44,344.89C398.34,344.89 402.23,344.88 406.13,344.87C410.02,344.86 413.92,344.85 417.81,344.83C421.7,344.81 425.6,344.78 429.49,344.73C433.38,344.68 437.28,344.63 441.17,344.54C445.06,344.45 448.96,344.36 452.85,344.21C456.74,344.06 460.64,343.88 464.53,343.66C468.42,343.44 472.32,343.18 476.21,342.87C480.11,342.56 484.01,342.19 487.9,341.8C491.8,341.4 495.69,340.96 499.58,340.5C503.47,340.04 507.37,339.53 511.26,339.04C515.15,338.55 519.05,338.03 522.94,337.56C526.83,337.09 530.72,336.62 534.62,336.22C538.51,335.82 542.4,335.46 546.3,335.17C550.19,334.88 554.08,334.66 557.98,334.47C561.87,334.28 565.77,334.17 569.67,334.01C573.56,333.85 577.46,333.74 581.35,333.5C585.25,333.25 589.14,333 593.03,332.54C596.93,332.08 600.83,331.51 604.71,330.73C608.62,329.94 612.52,328.95 616.39,327.84C620.3,326.72 624.19,325.35 628.07,324.01C631.97,322.66 635.85,321.11 639.75,319.76C643.64,318.41 647.52,316.98 651.44,315.9C655.31,314.83 659.2,313.84 663.12,313.3C666.99,312.76 670.91,312.5 674.8,312.64C678.7,312.78 682.62,313.35 686.48,314.16C690.41,314.99 694.3,316.26 698.16,317.6C702.09,318.96 705.96,320.65 709.84,322.28C713.75,323.92 717.62,325.74 721.52,327.4C725.41,329.06 729.29,330.75 733.21,332.24C737.08,333.72 740.97,335.11 744.89,336.31C748.76,337.5 752.66,338.54 756.57,339.43C760.45,340.31 764.35,341.03 768.25,341.64C772.13,342.25 776.03,342.69 779.93,343.08C783.82,343.46 787.71,343.72 791.61,343.95Q795.5,344.18 803.3,344.44L803.3,344.9" style="vector-effect: non-scaling-stroke; stroke-width: 2px; stroke: rgb(51, 97, 159); stroke-opacity: 1; fill: rgb(51, 97, 159); fill-opacity: 0.5;"/><g class="points"><path class="point" transform="translate(32.92,337.82)" d="M2.5,0A2.5,2.5 0 1,1 0,-2.5A2.5,2.5 0 0,1 2.5,0Z" style="opacity: 1; stroke-width: 0px; fill: rgb(51, 97, 159); fill-opacity: 1;"/><path class="point" transform="translate(512.05,339.26)" d="M2.5,0A2.5,2.5 0 1,1 0,-2.5A2.5,2.5 0 0,1 2.5,0Z" style="opacity: 1; stroke-width: 0px; fill: rgb(51, 97, 159); fill-opacity: 1;"/><path class="point" transform="translate(545.3,337.4)" d="M2.5,0A2.5,2.5 0 1,1 0,-2.5A2.5,2.5 0 0,1 2.5,0Z" style="opacity: 1; stroke-width: 0px; fill: rgb(51, 97, 159); fill-opacity: 1;"/><path class="point" transform="translate(549.73,339.66)" d="M2.5,0A2.5,2.5 0 1,1 0,-2.5A2.5,2.5 0 0,1 2.5,0Z" style="opacity: 1; stroke-width: 0px; fill: rgb(51, 97, 159); fill-opacity: 1;"/><path class="point" transform="translate(572.34,338.82)" d="M2.5,0A2.5,2.5 0 1,1 0,-2.5A2.5,2.5 0 0,1 2.5,0Z" style="opacity: 1; stroke-width: 0px; fill: rgb(51, 97, 159); fill-opacity: 1;"/><path class="point" transform="translate(575.23,337.61)" d="M2.5,0A2.5,2.5 0 1,1 0,-2.5A2.5,2.5 0 0,1 2.5,0Z" style="opacity: 1; stroke-width: 0px; fill: rgb(51, 97, 159); fill-opacity: 1;"/><path class="point" transform="translate(615.35,338.57)" d="M2.5,0A2.5,2.5 0 1,1 0,-2.5A2.5,2.5 0 0,1 2.5,0Z" style="opacity: 1; stroke-width: 0px; fill: rgb(51, 97, 159); fill-opacity: 1;"/><path class="point" transform="translate(639.29,337.41)" d="M2.5,0A2.5,2.5 0 1,1 0,-2.5A2.5,2.5 0 0,1 2.5,0Z" style="opacity: 1; stroke-width: 0px; fill: rgb(51, 97, 159); fill-opacity: 1;"/><path class="point" transform="translate(641.06,339.6)" d="M2.5,0A2.5,2.5 0 1,1 0,-2.5A2.5,2.5 0 0,1 2.5,0Z" style="opacity: 1; stroke-width: 0px; fill: rgb(51, 97, 159); fill-opacity: 1;"/><path class="point" transform="translate(651.26,341.38)" d="M2.5,0A2.5,2.5 0 1,1 0,-2.5A2.5,2.5 0 0,1 2.5,0Z" style="opacity: 1; stroke-width: 0px; fill: rgb(51, 97, 159); fill-opacity: 1;"/><path class="point" transform="translate(652.14,337.39)" d="M2.5,0A2.5,2.5 0 1,1 0,-2.5A2.5,2.5 0 0,1 2.5,0Z" style="opacity: 1; stroke-width: 0px; fill: rgb(51, 97, 159); fill-opacity: 1;"/><path class="point" transform="translate(660.35,340.11)" d="M2.5,0A2.5,2.5 0 1,1 0,-2.5A2.5,2.5 0 0,1 2.5,0Z" style="opacity: 1; stroke-width: 0px; fill: rgb(51, 97, 159); fill-opacity: 1;"/><path class="point" transform="translate(669.21,334.37)" d="M2.5,0A2.5,2.5 0 1,1 0,-2.5A2.5,2.5 0 0,1 2.5,0Z" style="opacity: 1; stroke-width: 0px; fill: rgb(51, 97, 159); fill-opacity: 1;"/><path class="point" transform="translate(670.99,344.4)" d="M2.5,0A2.5,2.5 0 1,1 0,-2.5A2.5,2.5 0 0,1 2.5,0Z" style="opacity: 1; stroke-width: 0px; fill: rgb(51, 97, 159); fill-opacity: 1;"/><path class="point" transform="translate(670.99,342.02)" d="M2.5,0A2.5,2.5 0 1,1 0,-2.5A2.5,2.5 0 0,1 2.5,0Z" style="opacity: 1; stroke-width: 0px; fill: rgb(51, 97, 159); fill-opacity: 1;"/><path class="point" transform="translate(676.97,332.99)" d="M2.5,0A2.5,2.5 0 1,1 0,-2.5A2.5,2.5 0 0,1 2.5,0Z" style="opacity: 1; stroke-width: 0px; fill: rgb(51, 97, 159); fill-opacity: 1;"/><path class="point" transform="translate(677.3,339.99)" d="M2.5,0A2.5,2.5 0 1,1 0,-2.5A2.5,2.5 0 0,1 2.5,0Z" style="opacity: 1; stroke-width: 0px; fill: rgb(51, 97, 159); fill-opacity: 1;"/><path class="point" transform="translate(677.41,343.98)" d="M2.5,0A2.5,2.5 0 1,1 0,-2.5A2.5,2.5 0 0,1 2.5,0Z" style="opacity: 1; stroke-width: 0px; fill: rgb(51, 97, 159); fill-opacity: 1;"/><path class="point" transform="translate(683.18,340.12)" d="M2.5,0A2.5,2.5 0 1,1 0,-2.5A2.5,2.5 0 0,1 2.5,0Z" style="opacity: 1; stroke-width: 0px; fill: rgb(51, 97, 159); fill-opacity: 1;"/><path class="point" transform="translate(692.49,338.55)" d="M2.5,0A2.5,2.5 0 1,1 0,-2.5A2.5,2.5 0 0,1 2.5,0Z" style="opacity: 1; stroke-width: 0px; fill: rgb(51, 97, 159); fill-opacity: 1;"/><path class="point" transform="translate(693.6,336.3)" d="M2.5,0A2.5,2.5 0 1,1 0,-2.5A2.5,2.5 0 0,1 2.5,0Z" style="opacity: 1; stroke-width: 0px; fill: rgb(51, 97, 159); fill-opacity: 1;"/><path class="point" transform="translate(702.02,337.95)" d="M2.5,0A2.5,2.5 0 1,1 0,-2.5A2.5,2.5 0 0,1 2.5,0Z" style="opacity: 1; stroke-width: 0px; fill: rgb(51, 97, 159); fill-opacity: 1;"/><path class="point" transform="translate(707.12,339.61)" d="M2.5,0A2.5,2.5 0 1,1 0,-2.5A2.5,2.5 0 0,1 2.5,0Z" style="opacity: 1; stroke-width: 0px; fill: rgb(51, 97, 159); fill-opacity: 1;"/><path class="point" transform="translate(732.61,341.78)" d="M2.5,0A2.5,2.5 0 1,1 0,-2.5A2.5,2.5 0 0,1 2.5,0Z" style="opacity: 1; stroke-width: 0px; fill: rgb(51, 97, 159); fill-opacity: 1;"/></g></g><g class="trace violins" style="opacity: 1;"><path class="violin" d="M-37.65,312.64L-37.65,312.29Q-32.34,312.11 -29.68,311.99C-27.02,311.87 -24.36,311.73 -21.7,311.57C-19.04,311.42 -16.39,311.23 -13.73,311.06C-11.07,310.89 -8.41,310.71 -5.75,310.56C-3.09,310.41 -0.44,310.26 2.22,310.17C4.88,310.08 7.54,310.02 10.2,310.02C12.86,310.02 15.51,310.06 18.17,310.14C20.83,310.22 23.49,310.36 26.15,310.51C28.81,310.65 31.46,310.84 34.12,311.01C36.78,311.18 39.44,311.36 42.1,311.52C44.76,311.68 47.41,311.83 50.07,311.95C52.73,312.07 55.39,312.18 58.05,312.26C60.71,312.34 63.36,312.4 66.02,312.45C68.68,312.5 71.34,312.53 74,312.56C76.66,312.59 79.31,312.6 81.97,312.61C84.63,312.62 87.29,312.62 89.95,312.63C92.61,312.63 95.26,312.64 97.92,312.64C100.58,312.64 103.24,312.64 105.9,312.64C108.56,312.64 111.21,312.64 113.87,312.64C116.53,312.64 119.19,312.64 121.85,312.64C124.51,312.64 127.16,312.64 129.82,312.64C132.48,312.64 135.14,312.64 137.8,312.64C140.46,312.64 143.12,312.64 145.78,312.64C148.44,312.64 151.09,312.64 153.75,312.64C156.41,312.64 159.07,312.64 161.73,312.64C164.39,312.64 167.04,312.64 169.7,312.64C172.36,312.64 175.02,312.64 177.68,312.64C180.34,312.64 182.99,312.64 185.65,312.64C188.31,312.64 190.97,312.64 193.63,312.64C196.29,312.64 198.94,312.64 201.6,312.64C204.26,312.64 206.92,312.64 209.58,312.64C212.24,312.64 214.89,312.64 217.55,312.64C220.21,312.64 222.87,312.64 225.53,312.64C228.19,312.64 230.84,312.64 233.5,312.64C236.16,312.64 238.82,312.64 241.48,312.64C244.14,312.64 246.79,312.64 249.45,312.64C252.11,312.64 254.77,312.64 257.43,312.64C260.09,312.64 262.74,312.64 265.4,312.64C268.06,312.64 270.72,312.64 273.38,312.64C276.04,312.64 278.69,312.64 281.35,312.64C284.01,312.64 286.67,312.64 289.33,312.64C291.99,312.64 294.64,312.64 297.3,312.64C299.96,312.64 302.62,312.64 305.28,312.64C307.94,312.64 310.59,312.64 313.25,312.64C315.91,312.64 318.57,312.64 321.23,312.64C323.89,312.64 326.54,312.64 329.2,312.64C331.86,312.64 334.52,312.64 337.18,312.64C339.84,312.64 342.49,312.64 345.15,312.64C347.81,312.64 350.47,312.64 353.13,312.64C355.79,312.64 358.44,312.64 361.1,312.64C363.76,312.64 366.42,312.64 369.08,312.64C371.74,312.64 374.39,312.64 377.05,312.64C379.71,312.64 382.37,312.64 385.03,312.64C387.69,312.64 390.34,312.64 393,312.64C395.66,312.64 398.32,312.64 400.98,312.64C403.64,312.64 406.29,312.64 408.95,312.64C411.61,312.64 414.27,312.64 416.93,312.64C419.59,312.64 422.24,312.64 424.9,312.64C427.56,312.64 430.22,312.64 432.88,312.64C435.54,312.64 438.19,312.64 440.85,312.64C443.51,312.64 446.17,312.64 448.83,312.63C451.49,312.63 454.14,312.62 456.8,312.61C459.46,312.6 462.12,312.59 464.78,312.56C467.44,312.53 470.09,312.5 472.75,312.45C475.41,312.4 478.07,312.34 480.73,312.25C483.39,312.17 486.04,312.06 488.7,311.94C491.36,311.81 494.02,311.66 496.68,311.5C499.34,311.34 501.99,311.15 504.65,310.98C507.31,310.81 509.97,310.62 512.63,310.46C515.29,310.3 517.94,310.14 520.6,310.03C523.26,309.92 525.92,309.84 528.58,309.79C531.24,309.74 533.89,309.72 536.55,309.71C539.21,309.7 541.87,309.73 544.53,309.72C547.19,309.71 549.84,309.7 552.5,309.64C555.16,309.58 557.82,309.5 560.48,309.35C563.14,309.2 565.8,309 568.45,308.72C571.11,308.44 573.78,308.11 576.43,307.69C579.09,307.26 581.75,306.76 584.4,306.17C587.07,305.57 589.73,304.89 592.38,304.12C595.05,303.35 597.7,302.47 600.35,301.54C603.02,300.6 605.68,299.55 608.33,298.5C611,297.45 613.65,296.32 616.31,295.23C618.97,294.14 621.62,293.03 624.28,291.98C626.93,290.94 629.59,289.91 632.26,288.95C634.91,288 637.56,287.09 640.23,286.24C642.88,285.4 645.54,284.6 648.21,283.88C650.86,283.17 653.51,282.49 656.18,281.95C658.83,281.42 661.49,280.92 664.16,280.66C666.81,280.4 669.48,280.26 672.13,280.39C674.79,280.52 677.47,280.86 680.11,281.44C682.79,282.03 685.45,282.91 688.08,283.9C690.77,284.91 693.42,286.19 696.06,287.46C698.74,288.75 701.37,290.21 704.03,291.57C706.69,292.92 709.34,294.32 712.01,295.59C714.65,296.84 717.3,298.05 719.98,299.13C722.62,300.2 725.29,301.15 727.96,302.04C730.6,302.92 733.26,303.69 735.93,304.43C738.58,305.16 741.25,305.82 743.91,306.44C746.56,307.06 749.22,307.63 751.88,308.16C754.53,308.69 757.2,309.18 759.86,309.61C762.51,310.04 765.17,310.42 767.83,310.75C770.49,311.07 773.15,311.34 775.81,311.56Q778.47,311.78 783.78,312.08L783.78,312.64" style="vector-effect: non-scaling-stroke; stroke-width: 2px; stroke: rgb(69, 91, 145); stroke-opacity: 1; fill: rgb(69, 91, 145); fill-opacity: 0.5;"/><g class="points"><path class="point" transform="translate(10.64,305.59)" d="M2.5,0A2.5,2.5 0 1,1 0,-2.5A2.5,2.5 0 0,1 2.5,0Z" style="opacity: 1; stroke-width: 0px; fill: rgb(69, 91, 145); fill-opacity: 1;"/><path class="point" transform="translate(528.01,307)" d="M2.5,0A2.5,2.5 0 1,1 0,-2.5A2.5,2.5 0 0,1 2.5,0Z" style="opacity: 1; stroke-width: 0px; fill: rgb(69, 91, 145); fill-opacity: 1;"/><path class="point" transform="translate(582.32,305.14)" d="M2.5,0A2.5,2.5 0 1,1 0,-2.5A2.5,2.5 0 0,1 2.5,0Z" style="opacity: 1; stroke-width: 0px; fill: rgb(69, 91, 145); fill-opacity: 1;"/><path class="point" transform="translate(613.79,307.41)" d="M2.5,0A2.5,2.5 0 1,1 0,-2.5A2.5,2.5 0 0,1 2.5,0Z" style="opacity: 1; stroke-width: 0px; fill: rgb(69, 91, 145); fill-opacity: 1;"/><path class="point" transform="translate(623.11,306.57)" d="M2.5,0A2.5,2.5 0 1,1 0,-2.5A2.5,2.5 0 0,1 2.5,0Z" style="opacity: 1; stroke-width: 0px; fill: rgb(69, 91, 145); fill-opacity: 1;"/><path class="point" transform="translate(623.77,305.35)" d="M2.5,0A2.5,2.5 0 1,1 0,-2.5A2.5,2.5 0 0,1 2.5,0Z" style="opacity: 1; stroke-width: 0px; fill: rgb(69, 91, 145); fill-opacity: 1;"/><path class="point" transform="translate(627.98,306.32)" d="M2.5,0A2.5,2.5 0 1,1 0,-2.5A2.5,2.5 0 0,1 2.5,0Z" style="opacity: 1; stroke-width: 0px; fill: rgb(69, 91, 145); fill-opacity: 1;"/><path class="point" transform="translate(639.73,304.93)" d="M2.5,0A2.5,2.5 0 1,1 0,-2.5A2.5,2.5 0 0,1 2.5,0Z" style="opacity: 1; stroke-width: 0px; fill: rgb(69, 91, 145); fill-opacity: 1;"/><path class="point" transform="translate(644.61,307.87)" d="M2.5,0A2.5,2.5 0 1,1 0,-2.5A2.5,2.5 0 0,1 2.5,0Z" style="opacity: 1; stroke-width: 0px; fill: rgb(69, 91, 145); fill-opacity: 1;"/><path class="point" transform="translate(647.27,310.31)" d="M2.5,0A2.5,2.5 0 1,1 0,-2.5A2.5,2.5 0 0,1 2.5,0Z" style="opacity: 1; stroke-width: 0px; fill: rgb(69, 91, 145); fill-opacity: 1;"/><path class="point" transform="translate(649.93,304.69)" d="M2.5,0A2.5,2.5 0 1,1 0,-2.5A2.5,2.5 0 0,1 2.5,0Z" style="opacity: 1; stroke-width: 0px; fill: rgb(69, 91, 145); fill-opacity: 1;"/><path class="point" transform="translate(661.01,308.02)" d="M2.5,0A2.5,2.5 0 1,1 0,-2.5A2.5,2.5 0 0,1 2.5,0Z" style="opacity: 1; stroke-width: 0px; fill: rgb(69, 91, 145); fill-opacity: 1;"/><path class="point" transform="translate(669.88,302.32)" d="M2.5,0A2.5,2.5 0 1,1 0,-2.5A2.5,2.5 0 0,1 2.5,0Z" style="opacity: 1; stroke-width: 0px; fill: rgb(69, 91, 145); fill-opacity: 1;"/><path class="point" transform="translate(673.09,312.47)" d="M2.5,0A2.5,2.5 0 1,1 0,-2.5A2.5,2.5 0 0,1 2.5,0Z" style="opacity: 1; stroke-width: 0px; fill: rgb(69, 91, 145); fill-opacity: 1;"/><path class="point" transform="translate(674.98,309.81)" d="M2.5,0A2.5,2.5 0 1,1 0,-2.5A2.5,2.5 0 0,1 2.5,0Z" style="opacity: 1; stroke-width: 0px; fill: rgb(69, 91, 145); fill-opacity: 1;"/><path class="point" transform="translate(676.19,300.64)" d="M2.5,0A2.5,2.5 0 1,1 0,-2.5A2.5,2.5 0 0,1 2.5,0Z" style="opacity: 1; stroke-width: 0px; fill: rgb(69, 91, 145); fill-opacity: 1;"/><path class="point" transform="translate(680.85,307.75)" d="M2.5,0A2.5,2.5 0 1,1 0,-2.5A2.5,2.5 0 0,1 2.5,0Z" style="opacity: 1; stroke-width: 0px; fill: rgb(69, 91, 145); fill-opacity: 1;"/><path class="point" transform="translate(683.84,310.74)" d="M2.5,0A2.5,2.5 0 1,1 0,-2.5A2.5,2.5 0 0,1 2.5,0Z" style="opacity: 1; stroke-width: 0px; fill: rgb(69, 91, 145); fill-opacity: 1;"/><path class="point" transform="translate(684.06,307.89)" d="M2.5,0A2.5,2.5 0 1,1 0,-2.5A2.5,2.5 0 0,1 2.5,0Z" style="opacity: 1; stroke-width: 0px; fill: rgb(69, 91, 145); fill-opacity: 1;"/><path class="point" transform="translate(689.16,306.3)" d="M2.5,0A2.5,2.5 0 1,1 0,-2.5A2.5,2.5 0 0,1 2.5,0Z" style="opacity: 1; stroke-width: 0px; fill: rgb(69, 91, 145); fill-opacity: 1;"/><path class="point" transform="translate(691.71,304.07)" d="M2.5,0A2.5,2.5 0 1,1 0,-2.5A2.5,2.5 0 0,1 2.5,0Z" style="opacity: 1; stroke-width: 0px; fill: rgb(69, 91, 145); fill-opacity: 1;"/><path class="point" transform="translate(703.57,305.68)" d="M2.5,0A2.5,2.5 0 1,1 0,-2.5A2.5,2.5 0 0,1 2.5,0Z" style="opacity: 1; stroke-width: 0px; fill: rgb(69, 91, 145); fill-opacity: 1;"/><path class="point" transform="translate(728.4,307.42)" d="M2.5,0A2.5,2.5 0 1,1 0,-2.5A2.5,2.5 0 0,1 2.5,0Z" style="opacity: 1; stroke-width: 0px; fill: rgb(69, 91, 145); fill-opacity: 1;"/><path class="point" transform="translate(735.49,309.53)" d="M2.5,0A2.5,2.5 0 1,1 0,-2.5A2.5,2.5 0 0,1 2.5,0Z" style="opacity: 1; stroke-width: 0px; fill: rgb(69, 91, 145); fill-opacity: 1;"/></g></g><g class="trace violins" style="opacity: 1;"><path class="violin" d="M72.06,280.39L72.06,280.05Q77.69,279.89 80.51,279.78C83.32,279.67 86.14,279.52 88.95,279.38C91.77,279.23 94.58,279.07 97.4,278.91C100.22,278.75 103.03,278.57 105.85,278.43C108.66,278.29 111.48,278.15 114.29,278.07C117.11,277.99 119.92,277.93 122.74,277.93C125.56,277.93 128.37,277.98 131.19,278.06C134,278.14 136.82,278.27 139.63,278.4C142.45,278.54 145.26,278.71 148.08,278.87C150.9,279.03 153.71,279.2 156.53,279.35C159.34,279.5 162.16,279.64 164.97,279.75C167.79,279.87 170.6,279.96 173.42,280.04C176.24,280.12 179.05,280.17 181.87,280.22C184.68,280.26 187.5,280.29 190.31,280.31C193.13,280.33 195.94,280.35 198.76,280.36C201.58,280.37 204.39,280.38 207.21,280.38C210.02,280.38 212.84,280.38 215.65,280.38C218.47,280.38 221.28,280.39 224.1,280.39C226.92,280.39 229.73,280.39 232.55,280.39C235.36,280.39 238.18,280.39 240.99,280.39C243.81,280.39 246.62,280.39 249.44,280.39C252.26,280.39 255.07,280.39 257.89,280.39C260.7,280.39 263.52,280.39 266.33,280.39C269.15,280.39 271.96,280.39 274.78,280.39C277.6,280.39 280.41,280.39 283.23,280.39C286.04,280.39 288.86,280.39 291.67,280.39C294.49,280.39 297.3,280.39 300.12,280.39C302.94,280.39 305.75,280.39 308.57,280.39C311.38,280.39 314.2,280.39 317.01,280.39C319.83,280.39 322.64,280.39 325.46,280.39C328.28,280.39 331.09,280.39 333.91,280.39C336.72,280.39 339.54,280.39 342.35,280.39C345.17,280.39 347.98,280.39 350.8,280.39C353.62,280.39 356.43,280.39 359.25,280.39C362.06,280.39 364.88,280.39 367.69,280.39C370.51,280.39 373.32,280.39 376.14,280.39C378.96,280.39 381.77,280.39 384.59,280.39C387.4,280.39 390.22,280.39 393.03,280.39C395.85,280.39 398.66,280.39 401.48,280.39C404.3,280.39 407.11,280.39 409.93,280.39C412.74,280.39 415.56,280.39 418.37,280.39C421.19,280.39 424,280.39 426.82,280.39C429.64,280.39 432.45,280.39 435.27,280.39C438.08,280.39 440.9,280.39 443.71,280.39C446.53,280.39 449.34,280.38 452.16,280.38C454.98,280.38 457.79,280.39 460.61,280.38C463.42,280.37 466.24,280.36 469.05,280.35C471.87,280.34 474.68,280.33 477.5,280.3C480.32,280.27 483.13,280.24 485.95,280.17C488.76,280.11 491.58,280.03 494.39,279.91C497.21,279.79 500.03,279.65 502.84,279.45C505.66,279.25 508.48,279 511.29,278.7C514.11,278.4 516.92,278.04 519.73,277.65C522.55,277.26 525.36,276.79 528.18,276.35C531,275.9 533.81,275.41 536.63,274.98C539.44,274.55 542.25,274.11 545.07,273.78C547.88,273.45 550.7,273.17 553.52,272.98C556.33,272.79 559.15,272.7 561.97,272.66C564.78,272.62 567.6,272.68 570.41,272.72C573.23,272.76 576.04,272.89 578.86,272.92C581.68,272.95 584.49,272.99 587.31,272.93C590.12,272.87 592.94,272.76 595.75,272.54C598.57,272.32 601.39,272.01 604.2,271.6C607.02,271.19 609.84,270.69 612.65,270.08C615.47,269.47 618.29,268.75 621.09,267.94C623.92,267.12 626.74,266.18 629.54,265.16C632.37,264.13 635.19,262.99 637.99,261.81C640.82,260.62 643.62,259.31 646.43,258.06C649.25,256.81 652.05,255.47 654.88,254.29C657.68,253.12 660.48,251.94 663.32,251.02C666.11,250.12 668.93,249.3 671.77,248.82C674.57,248.35 677.41,248.07 680.22,248.13C683.04,248.19 685.87,248.56 688.66,249.17C691.5,249.79 694.33,250.76 697.11,251.83C699.96,252.92 702.77,254.3 705.56,255.68C708.4,257.08 711.19,258.66 714,260.17C716.82,261.68 719.62,263.26 722.45,264.72C725.25,266.17 728.06,267.6 730.9,268.89C733.69,270.16 736.5,271.36 739.34,272.41C742.14,273.45 744.96,274.37 747.79,275.17C750.59,275.96 753.41,276.62 756.24,277.18C759.04,277.74 761.86,278.18 764.68,278.55C767.49,278.92 770.31,279.18 773.13,279.41Q775.94,279.64 781.58,279.91L781.58,280.39" style="vector-effect: non-scaling-stroke; stroke-width: 2px; stroke: rgb(88, 86, 132); stroke-opacity: 1; fill: rgb(88, 86, 132); fill-opacity: 0.5;"/><g class="points"><path class="point" transform="translate(123.02,273.35)" d="M2.5,0A2.5,2.5 0 1,1 0,-2.5A2.5,2.5 0 0,1 2.5,0Z" style="opacity: 1; stroke-width: 0px; fill: rgb(88, 86, 132); fill-opacity: 1;"/><path class="point" transform="translate(545.74,274.7)" d="M2.5,0A2.5,2.5 0 1,1 0,-2.5A2.5,2.5 0 0,1 2.5,0Z" style="opacity: 1; stroke-width: 0px; fill: rgb(88, 86, 132); fill-opacity: 1;"/><path class="point" transform="translate(560.26,272.93)" d="M2.5,0A2.5,2.5 0 1,1 0,-2.5A2.5,2.5 0 0,1 2.5,0Z" style="opacity: 1; stroke-width: 0px; fill: rgb(88, 86, 132); fill-opacity: 1;"/><path class="point" transform="translate(562.92,275.11)" d="M2.5,0A2.5,2.5 0 1,1 0,-2.5A2.5,2.5 0 0,1 2.5,0Z" style="opacity: 1; stroke-width: 0px; fill: rgb(88, 86, 132); fill-opacity: 1;"/><path class="point" transform="translate(609.03,274.3)" d="M2.5,0A2.5,2.5 0 1,1 0,-2.5A2.5,2.5 0 0,1 2.5,0Z" style="opacity: 1; stroke-width: 0px; fill: rgb(88, 86, 132); fill-opacity: 1;"/><path class="point" transform="translate(612.47,273.14)" d="M2.5,0A2.5,2.5 0 1,1 0,-2.5A2.5,2.5 0 0,1 2.5,0Z" style="opacity: 1; stroke-width: 0px; fill: rgb(88, 86, 132); fill-opacity: 1;"/><path class="point" transform="translate(645.27,274.05)" d="M2.5,0A2.5,2.5 0 1,1 0,-2.5A2.5,2.5 0 0,1 2.5,0Z" style="opacity: 1; stroke-width: 0px; fill: rgb(88, 86, 132); fill-opacity: 1;"/><path class="point" transform="translate(645.49,272.97)" d="M2.5,0A2.5,2.5 0 1,1 0,-2.5A2.5,2.5 0 0,1 2.5,0Z" style="opacity: 1; stroke-width: 0px; fill: rgb(88, 86, 132); fill-opacity: 1;"/><path class="point" transform="translate(648.04,275.01)" d="M2.5,0A2.5,2.5 0 1,1 0,-2.5A2.5,2.5 0 0,1 2.5,0Z" style="opacity: 1; stroke-width: 0px; fill: rgb(88, 86, 132); fill-opacity: 1;"/><path class="point" transform="translate(653.03,277.12)" d="M2.5,0A2.5,2.5 0 1,1 0,-2.5A2.5,2.5 0 0,1 2.5,0Z" style="opacity: 1; stroke-width: 0px; fill: rgb(88, 86, 132); fill-opacity: 1;"/><path class="point" transform="translate(669.88,272.78)" d="M2.5,0A2.5,2.5 0 1,1 0,-2.5A2.5,2.5 0 0,1 2.5,0Z" style="opacity: 1; stroke-width: 0px; fill: rgb(88, 86, 132); fill-opacity: 1;"/><path class="point" transform="translate(673.42,275.84)" d="M2.5,0A2.5,2.5 0 1,1 0,-2.5A2.5,2.5 0 0,1 2.5,0Z" style="opacity: 1; stroke-width: 0px; fill: rgb(88, 86, 132); fill-opacity: 1;"/><path class="point" transform="translate(674.53,270.4)" d="M2.5,0A2.5,2.5 0 1,1 0,-2.5A2.5,2.5 0 0,1 2.5,0Z" style="opacity: 1; stroke-width: 0px; fill: rgb(88, 86, 132); fill-opacity: 1;"/><path class="point" transform="translate(675.09,279.03)" d="M2.5,0A2.5,2.5 0 1,1 0,-2.5A2.5,2.5 0 0,1 2.5,0Z" style="opacity: 1; stroke-width: 0px; fill: rgb(88, 86, 132); fill-opacity: 1;"/><path class="point" transform="translate(676.19,276.98)" d="M2.5,0A2.5,2.5 0 1,1 0,-2.5A2.5,2.5 0 0,1 2.5,0Z" style="opacity: 1; stroke-width: 0px; fill: rgb(88, 86, 132); fill-opacity: 1;"/><path class="point" transform="translate(679.74,268.45)" d="M2.5,0A2.5,2.5 0 1,1 0,-2.5A2.5,2.5 0 0,1 2.5,0Z" style="opacity: 1; stroke-width: 0px; fill: rgb(88, 86, 132); fill-opacity: 1;"/><path class="point" transform="translate(683.18,275.55)" d="M2.5,0A2.5,2.5 0 1,1 0,-2.5A2.5,2.5 0 0,1 2.5,0Z" style="opacity: 1; stroke-width: 0px; fill: rgb(88, 86, 132); fill-opacity: 1;"/><path class="point" transform="translate(686.06,278.75)" d="M2.5,0A2.5,2.5 0 1,1 0,-2.5A2.5,2.5 0 0,1 2.5,0Z" style="opacity: 1; stroke-width: 0px; fill: rgb(88, 86, 132); fill-opacity: 1;"/><path class="point" transform="translate(694.26,275.51)" d="M2.5,0A2.5,2.5 0 1,1 0,-2.5A2.5,2.5 0 0,1 2.5,0Z" style="opacity: 1; stroke-width: 0px; fill: rgb(88, 86, 132); fill-opacity: 1;"/><path class="point" transform="translate(698.69,274.03)" d="M2.5,0A2.5,2.5 0 1,1 0,-2.5A2.5,2.5 0 0,1 2.5,0Z" style="opacity: 1; stroke-width: 0px; fill: rgb(88, 86, 132); fill-opacity: 1;"/><path class="point" transform="translate(702.68,271.93)" d="M2.5,0A2.5,2.5 0 1,1 0,-2.5A2.5,2.5 0 0,1 2.5,0Z" style="opacity: 1; stroke-width: 0px; fill: rgb(88, 86, 132); fill-opacity: 1;"/><path class="point" transform="translate(703.79,273.46)" d="M2.5,0A2.5,2.5 0 1,1 0,-2.5A2.5,2.5 0 0,1 2.5,0Z" style="opacity: 1; stroke-width: 0px; fill: rgb(88, 86, 132); fill-opacity: 1;"/><path class="point" transform="translate(714.65,275.1)" d="M2.5,0A2.5,2.5 0 1,1 0,-2.5A2.5,2.5 0 0,1 2.5,0Z" style="opacity: 1; stroke-width: 0px; fill: rgb(88, 86, 132); fill-opacity: 1;"/><path class="point" transform="translate(730.61,277.42)" d="M2.5,0A2.5,2.5 0 1,1 0,-2.5A2.5,2.5 0 0,1 2.5,0Z" style="opacity: 1; stroke-width: 0px; fill: rgb(88, 86, 132); fill-opacity: 1;"/></g></g><g class="trace violins" style="opacity: 1;"><path class="violin" d="M138.96,248.13L138.96,247.76Q143.17,247.57 145.28,247.45C147.39,247.32 149.5,247.17 151.61,247.01C153.72,246.85 155.83,246.66 157.94,246.48C160.05,246.3 162.15,246.1 164.26,245.95C166.37,245.79 168.48,245.64 170.59,245.55C172.7,245.46 174.81,245.39 176.92,245.39C179.03,245.39 181.13,245.44 183.24,245.53C185.35,245.62 187.46,245.77 189.57,245.92C191.68,246.07 193.79,246.26 195.9,246.44C198.01,246.62 200.11,246.82 202.22,246.98C204.33,247.15 206.44,247.3 208.55,247.43C210.66,247.56 212.77,247.66 214.88,247.75C216.99,247.83 219.09,247.89 221.2,247.94C223.31,247.99 225.42,248.02 227.53,248.05C229.64,248.08 231.75,248.09 233.86,248.1C235.97,248.11 238.07,248.12 240.18,248.12C242.29,248.13 244.4,248.13 246.51,248.13C248.62,248.13 250.73,248.13 252.84,248.13C254.95,248.13 257.05,248.13 259.16,248.13C261.27,248.13 263.38,248.13 265.49,248.13C267.6,248.13 269.71,248.13 271.82,248.13C273.93,248.13 276.03,248.13 278.14,248.13C280.25,248.13 282.36,248.13 284.47,248.13C286.58,248.13 288.68,248.13 290.79,248.13C292.9,248.13 295.01,248.13 297.12,248.13C299.23,248.13 301.34,248.13 303.45,248.13C305.56,248.13 307.66,248.13 309.77,248.13C311.88,248.13 313.99,248.13 316.1,248.13C318.21,248.13 320.32,248.13 322.43,248.13C324.54,248.13 326.64,248.13 328.75,248.13C330.86,248.13 332.97,248.13 335.08,248.13C337.19,248.13 339.3,248.13 341.41,248.13C343.52,248.13 345.62,248.13 347.73,248.13C349.84,248.13 351.95,248.13 354.06,248.13C356.17,248.13 358.28,248.13 360.39,248.13C362.5,248.13 364.6,248.13 366.71,248.13C368.82,248.13 370.93,248.13 373.04,248.13C375.15,248.13 377.26,248.13 379.37,248.13C381.48,248.13 383.58,248.13 385.69,248.13C387.8,248.13 389.91,248.13 392.02,248.13C394.13,248.13 396.24,248.13 398.35,248.13C400.46,248.13 402.56,248.13 404.67,248.13C406.78,248.13 408.89,248.13 411,248.13C413.11,248.13 415.22,248.13 417.33,248.13C419.44,248.13 421.54,248.13 423.65,248.13C425.76,248.13 427.87,248.13 429.98,248.13C432.09,248.13 434.2,248.13 436.31,248.13C438.42,248.13 440.52,248.13 442.63,248.13C444.74,248.13 446.85,248.13 448.96,248.13C451.07,248.13 453.18,248.13 455.29,248.13C457.4,248.13 459.5,248.13 461.61,248.13C463.72,248.13 465.83,248.13 467.94,248.13C470.05,248.13 472.15,248.13 474.26,248.13C476.37,248.13 478.48,248.13 480.59,248.13C482.7,248.13 484.81,248.13 486.92,248.13C489.03,248.13 491.13,248.13 493.24,248.13C495.35,248.13 497.46,248.13 499.57,248.13C501.68,248.13 503.79,248.13 505.9,248.13C508.01,248.13 510.11,248.13 512.22,248.13C514.33,248.13 516.44,248.13 518.55,248.13C520.66,248.13 522.77,248.13 524.88,248.13C526.99,248.13 529.09,248.13 531.2,248.13C533.31,248.13 535.42,248.13 537.53,248.13C539.64,248.13 541.75,248.13 543.86,248.13C545.97,248.13 548.07,248.13 550.18,248.13C552.29,248.13 554.4,248.13 556.51,248.13C558.62,248.13 560.73,248.12 562.84,248.11C564.95,248.1 567.05,248.1 569.16,248.08C571.27,248.06 573.38,248.04 575.49,247.99C577.6,247.94 579.71,247.89 581.82,247.79C583.93,247.69 586.04,247.56 588.14,247.37C590.25,247.17 592.37,246.95 594.47,246.62C596.59,246.29 598.7,245.88 600.8,245.37C602.92,244.85 605.03,244.24 607.12,243.53C609.24,242.81 611.35,241.98 613.45,241.1C615.57,240.2 617.68,239.19 619.78,238.18C621.9,237.16 623.99,236.07 626.1,235.02C628.21,233.97 630.31,232.89 632.43,231.89C634.53,230.89 636.64,229.92 638.76,229.02C640.86,228.13 642.97,227.29 645.08,226.49C647.18,225.69 649.3,224.96 651.41,224.21C653.52,223.47 655.62,222.75 657.73,222.02C659.84,221.29 661.95,220.54 664.06,219.84C666.17,219.14 668.27,218.39 670.39,217.8C672.49,217.22 674.59,216.63 676.71,216.31C678.81,215.99 680.93,215.79 683.04,215.88C685.15,215.97 687.29,216.29 689.37,216.83C691.51,217.38 693.61,218.24 695.69,219.17C697.83,220.13 699.93,221.35 702.02,222.54C704.15,223.75 706.24,225.11 708.35,226.39C710.46,227.66 712.55,228.99 714.67,230.19C716.76,231.37 718.87,232.52 721,233.54C723.09,234.54 725.2,235.46 727.33,236.24C729.42,237.01 731.53,237.66 733.65,238.21C735.75,238.76 737.86,239.17 739.98,239.54C742.08,239.91 744.2,240.17 746.31,240.45C748.42,240.73 750.52,240.94 752.63,241.21C754.74,241.48 756.85,241.75 758.96,242.06C761.07,242.37 763.18,242.73 765.29,243.09C767.4,243.46 769.5,243.87 771.61,244.25C773.72,244.64 775.83,245.04 777.94,245.4C780.05,245.76 782.16,246.1 784.27,246.39C786.37,246.68 788.48,246.92 790.59,247.12Q792.7,247.32 796.92,247.61L796.92,248.13" style="vector-effect: non-scaling-stroke; stroke-width: 2px; stroke: rgb(106, 80, 119); stroke-opacity: 1; fill: rgb(106, 80, 119); fill-opacity: 0.5;"/><g class="points"><path class="point" transform="translate(177.11,241.1)" d="M2.5,0A2.5,2.5 0 1,1 0,-2.5A2.5,2.5 0 0,1 2.5,0Z" style="opacity: 1; stroke-width: 0px; fill: rgb(106, 80, 119); fill-opacity: 1;"/><path class="point" transform="translate(626.43,242.46)" d="M2.5,0A2.5,2.5 0 1,1 0,-2.5A2.5,2.5 0 0,1 2.5,0Z" style="opacity: 1; stroke-width: 0px; fill: rgb(106, 80, 119); fill-opacity: 1;"/><path class="point" transform="translate(630.42,240.66)" d="M2.5,0A2.5,2.5 0 1,1 0,-2.5A2.5,2.5 0 0,1 2.5,0Z" style="opacity: 1; stroke-width: 0px; fill: rgb(106, 80, 119); fill-opacity: 1;"/><path class="point" transform="translate(637.51,242.87)" d="M2.5,0A2.5,2.5 0 1,1 0,-2.5A2.5,2.5 0 0,1 2.5,0Z" style="opacity: 1; stroke-width: 0px; fill: rgb(106, 80, 119); fill-opacity: 1;"/><path class="point" transform="translate(644.83,242.04)" d="M2.5,0A2.5,2.5 0 1,1 0,-2.5A2.5,2.5 0 0,1 2.5,0Z" style="opacity: 1; stroke-width: 0px; fill: rgb(106, 80, 119); fill-opacity: 1;"/><path class="point" transform="translate(650.59,240.87)" d="M2.5,0A2.5,2.5 0 1,1 0,-2.5A2.5,2.5 0 0,1 2.5,0Z" style="opacity: 1; stroke-width: 0px; fill: rgb(106, 80, 119); fill-opacity: 1;"/><path class="point" transform="translate(654.03,241.85)" d="M2.5,0A2.5,2.5 0 1,1 0,-2.5A2.5,2.5 0 0,1 2.5,0Z" style="opacity: 1; stroke-width: 0px; fill: rgb(106, 80, 119); fill-opacity: 1;"/><path class="point" transform="translate(656.13,240.28)" d="M2.5,0A2.5,2.5 0 1,1 0,-2.5A2.5,2.5 0 0,1 2.5,0Z" style="opacity: 1; stroke-width: 0px; fill: rgb(106, 80, 119); fill-opacity: 1;"/><path class="point" transform="translate(661.68,243.32)" d="M2.5,0A2.5,2.5 0 1,1 0,-2.5A2.5,2.5 0 0,1 2.5,0Z" style="opacity: 1; stroke-width: 0px; fill: rgb(106, 80, 119); fill-opacity: 1;"/><path class="point" transform="translate(678.97,245.78)" d="M2.5,0A2.5,2.5 0 1,1 0,-2.5A2.5,2.5 0 0,1 2.5,0Z" style="opacity: 1; stroke-width: 0px; fill: rgb(106, 80, 119); fill-opacity: 1;"/><path class="point" transform="translate(679.19,240.13)" d="M2.5,0A2.5,2.5 0 1,1 0,-2.5A2.5,2.5 0 0,1 2.5,0Z" style="opacity: 1; stroke-width: 0px; fill: rgb(106, 80, 119); fill-opacity: 1;"/><path class="point" transform="translate(681.18,243.56)" d="M2.5,0A2.5,2.5 0 1,1 0,-2.5A2.5,2.5 0 0,1 2.5,0Z" style="opacity: 1; stroke-width: 0px; fill: rgb(106, 80, 119); fill-opacity: 1;"/><path class="point" transform="translate(681.63,238.22)" d="M2.5,0A2.5,2.5 0 1,1 0,-2.5A2.5,2.5 0 0,1 2.5,0Z" style="opacity: 1; stroke-width: 0px; fill: rgb(106, 80, 119); fill-opacity: 1;"/><path class="point" transform="translate(682.96,247.1)" d="M2.5,0A2.5,2.5 0 1,1 0,-2.5A2.5,2.5 0 0,1 2.5,0Z" style="opacity: 1; stroke-width: 0px; fill: rgb(106, 80, 119); fill-opacity: 1;"/><path class="point" transform="translate(682.96,245.41)" d="M2.5,0A2.5,2.5 0 1,1 0,-2.5A2.5,2.5 0 0,1 2.5,0Z" style="opacity: 1; stroke-width: 0px; fill: rgb(106, 80, 119); fill-opacity: 1;"/><path class="point" transform="translate(686.06,236.66)" d="M2.5,0A2.5,2.5 0 1,1 0,-2.5A2.5,2.5 0 0,1 2.5,0Z" style="opacity: 1; stroke-width: 0px; fill: rgb(106, 80, 119); fill-opacity: 1;"/><path class="point" transform="translate(690.49,243.02)" d="M2.5,0A2.5,2.5 0 1,1 0,-2.5A2.5,2.5 0 0,1 2.5,0Z" style="opacity: 1; stroke-width: 0px; fill: rgb(106, 80, 119); fill-opacity: 1;"/><path class="point" transform="translate(696.14,245.24)" d="M2.5,0A2.5,2.5 0 1,1 0,-2.5A2.5,2.5 0 0,1 2.5,0Z" style="opacity: 1; stroke-width: 0px; fill: rgb(106, 80, 119); fill-opacity: 1;"/><path class="point" transform="translate(700.25,242.99)" d="M2.5,0A2.5,2.5 0 1,1 0,-2.5A2.5,2.5 0 0,1 2.5,0Z" style="opacity: 1; stroke-width: 0px; fill: rgb(106, 80, 119); fill-opacity: 1;"/><path class="point" transform="translate(707.67,241.76)" d="M2.5,0A2.5,2.5 0 1,1 0,-2.5A2.5,2.5 0 0,1 2.5,0Z" style="opacity: 1; stroke-width: 0px; fill: rgb(106, 80, 119); fill-opacity: 1;"/><path class="point" transform="translate(716.21,240.05)" d="M2.5,0A2.5,2.5 0 1,1 0,-2.5A2.5,2.5 0 0,1 2.5,0Z" style="opacity: 1; stroke-width: 0px; fill: rgb(106, 80, 119); fill-opacity: 1;"/><path class="point" transform="translate(723.3,241.29)" d="M2.5,0A2.5,2.5 0 1,1 0,-2.5A2.5,2.5 0 0,1 2.5,0Z" style="opacity: 1; stroke-width: 0px; fill: rgb(106, 80, 119); fill-opacity: 1;"/><path class="point" transform="translate(751.01,242.64)" d="M2.5,0A2.5,2.5 0 1,1 0,-2.5A2.5,2.5 0 0,1 2.5,0Z" style="opacity: 1; stroke-width: 0px; fill: rgb(106, 80, 119); fill-opacity: 1;"/><path class="point" transform="translate(758.77,244.35)" d="M2.5,0A2.5,2.5 0 1,1 0,-2.5A2.5,2.5 0 0,1 2.5,0Z" style="opacity: 1; stroke-width: 0px; fill: rgb(106, 80, 119); fill-opacity: 1;"/></g></g><g class="trace violins" style="opacity: 1;"><path class="violin" d="M659.09,215.88L659.09,215.14Q662.45,214.72 664.12,214.38C665.8,214.04 667.48,213.62 669.14,213.08C670.83,212.53 672.52,211.87 674.17,211.1C675.87,210.3 677.54,209.37 679.19,208.35C680.89,207.3 682.57,206.1 684.22,204.86C685.92,203.59 687.59,202.2 689.25,200.81C690.94,199.4 692.59,197.9 694.27,196.47C695.94,195.04 697.6,193.57 699.3,192.22C700.95,190.9 702.61,189.59 704.32,188.47C705.96,187.4 707.63,186.37 709.35,185.61C710.99,184.88 712.68,184.27 714.38,183.94C716.03,183.62 717.73,183.51 719.4,183.62C721.08,183.73 722.78,184.12 724.43,184.63C726.13,185.16 727.8,185.94 729.45,186.77C731.15,187.63 732.82,188.7 734.48,189.75C736.17,190.82 737.83,192.02 739.51,193.16C741.18,194.3 742.84,195.5 744.53,196.57C746.19,197.62 747.86,198.66 749.56,199.54C751.21,200.4 752.88,201.17 754.58,201.8C756.24,202.42 757.92,202.89 759.61,203.3C761.28,203.7 762.96,203.95 764.64,204.23C766.31,204.5 767.99,204.7 769.66,204.95C771.34,205.2 773.02,205.43 774.69,205.73C776.37,206.03 778.04,206.37 779.71,206.74C781.39,207.11 783.07,207.53 784.74,207.95C786.42,208.37 788.09,208.82 789.77,209.25C791.44,209.68 793.11,210.11 794.79,210.51C796.46,210.91 798.14,211.3 799.82,211.67C801.49,212.03 803.17,212.38 804.85,212.7C806.52,213.02 808.19,213.33 809.87,213.6C811.54,213.87 813.22,214.11 814.9,214.31C816.57,214.51 818.24,214.67 819.92,214.79C821.59,214.91 823.27,214.98 824.95,215.01C826.63,215.04 828.3,215.02 829.98,214.96C831.65,214.9 833.33,214.8 835,214.68C836.68,214.56 838.35,214.39 840.03,214.23C841.7,214.08 843.38,213.89 845.05,213.75C846.73,213.61 848.4,213.46 850.08,213.38C851.76,213.3 853.43,213.25 855.11,213.25C856.78,213.25 858.46,213.3 860.13,213.39C861.81,213.48 863.49,213.62 865.16,213.77C866.84,213.92 868.51,214.11 870.18,214.28C871.86,214.45 873.53,214.64 875.21,214.8C876.89,214.96 878.56,215.1 880.24,215.22Q881.91,215.34 885.26,215.52L885.26,215.88" style="vector-effect: non-scaling-stroke; stroke-width: 2px; stroke: rgb(124, 75, 106); stroke-opacity: 1; fill: rgb(124, 75, 106); fill-opacity: 0.5;"/><g class="points"><path class="point" transform="translate(689.27,207.13)" d="M2.5,0A2.5,2.5 0 1,1 0,-2.5A2.5,2.5 0 0,1 2.5,0Z" style="opacity: 1; stroke-width: 0px; fill: rgb(124, 75, 106); fill-opacity: 1;"/><path class="point" transform="translate(694.15,212.51)" d="M2.5,0A2.5,2.5 0 1,1 0,-2.5A2.5,2.5 0 0,1 2.5,0Z" style="opacity: 1; stroke-width: 0px; fill: rgb(124, 75, 106); fill-opacity: 1;"/><path class="point" transform="translate(698.69,205.46)" d="M2.5,0A2.5,2.5 0 1,1 0,-2.5A2.5,2.5 0 0,1 2.5,0Z" style="opacity: 1; stroke-width: 0px; fill: rgb(124, 75, 106); fill-opacity: 1;"/><path class="point" transform="translate(698.8,214.02)" d="M2.5,0A2.5,2.5 0 1,1 0,-2.5A2.5,2.5 0 0,1 2.5,0Z" style="opacity: 1; stroke-width: 0px; fill: rgb(124, 75, 106); fill-opacity: 1;"/><path class="point" transform="translate(708.89,210.75)" d="M2.5,0A2.5,2.5 0 1,1 0,-2.5A2.5,2.5 0 0,1 2.5,0Z" style="opacity: 1; stroke-width: 0px; fill: rgb(124, 75, 106); fill-opacity: 1;"/><path class="point" transform="translate(712.22,206.48)" d="M2.5,0A2.5,2.5 0 1,1 0,-2.5A2.5,2.5 0 0,1 2.5,0Z" style="opacity: 1; stroke-width: 0px; fill: rgb(124, 75, 106); fill-opacity: 1;"/><path class="point" transform="translate(712.33,209.64)" d="M2.5,0A2.5,2.5 0 1,1 0,-2.5A2.5,2.5 0 0,1 2.5,0Z" style="opacity: 1; stroke-width: 0px; fill: rgb(124, 75, 106); fill-opacity: 1;"/><path class="point" transform="translate(713.32,207.89)" d="M2.5,0A2.5,2.5 0 1,1 0,-2.5A2.5,2.5 0 0,1 2.5,0Z" style="opacity: 1; stroke-width: 0px; fill: rgb(124, 75, 106); fill-opacity: 1;"/><path class="point" transform="translate(713.66,211.07)" d="M2.5,0A2.5,2.5 0 1,1 0,-2.5A2.5,2.5 0 0,1 2.5,0Z" style="opacity: 1; stroke-width: 0px; fill: rgb(124, 75, 106); fill-opacity: 1;"/><path class="point" transform="translate(717.09,213.84)" d="M2.5,0A2.5,2.5 0 1,1 0,-2.5A2.5,2.5 0 0,1 2.5,0Z" style="opacity: 1; stroke-width: 0px; fill: rgb(124, 75, 106); fill-opacity: 1;"/><path class="point" transform="translate(717.87,207.7)" d="M2.5,0A2.5,2.5 0 1,1 0,-2.5A2.5,2.5 0 0,1 2.5,0Z" style="opacity: 1; stroke-width: 0px; fill: rgb(124, 75, 106); fill-opacity: 1;"/><path class="point" transform="translate(720.75,211.54)" d="M2.5,0A2.5,2.5 0 1,1 0,-2.5A2.5,2.5 0 0,1 2.5,0Z" style="opacity: 1; stroke-width: 0px; fill: rgb(124, 75, 106); fill-opacity: 1;"/><path class="point" transform="translate(730.72,205.96)" d="M2.5,0A2.5,2.5 0 1,1 0,-2.5A2.5,2.5 0 0,1 2.5,0Z" style="opacity: 1; stroke-width: 0px; fill: rgb(124, 75, 106); fill-opacity: 1;"/><path class="point" transform="translate(732.61,214.04)" d="M2.5,0A2.5,2.5 0 1,1 0,-2.5A2.5,2.5 0 0,1 2.5,0Z" style="opacity: 1; stroke-width: 0px; fill: rgb(124, 75, 106); fill-opacity: 1;"/><path class="point" transform="translate(733.72,211.84)" d="M2.5,0A2.5,2.5 0 1,1 0,-2.5A2.5,2.5 0 0,1 2.5,0Z" style="opacity: 1; stroke-width: 0px; fill: rgb(124, 75, 106); fill-opacity: 1;"/><path class="point" transform="translate(733.83,205.87)" d="M2.5,0A2.5,2.5 0 1,1 0,-2.5A2.5,2.5 0 0,1 2.5,0Z" style="opacity: 1; stroke-width: 0px; fill: rgb(124, 75, 106); fill-opacity: 1;"/><path class="point" transform="translate(734.05,210.44)" d="M2.5,0A2.5,2.5 0 1,1 0,-2.5A2.5,2.5 0 0,1 2.5,0Z" style="opacity: 1; stroke-width: 0px; fill: rgb(124, 75, 106); fill-opacity: 1;"/><path class="point" transform="translate(743.47,212.58)" d="M2.5,0A2.5,2.5 0 1,1 0,-2.5A2.5,2.5 0 0,1 2.5,0Z" style="opacity: 1; stroke-width: 0px; fill: rgb(124, 75, 106); fill-opacity: 1;"/><path class="point" transform="translate(753.67,210.32)" d="M2.5,0A2.5,2.5 0 1,1 0,-2.5A2.5,2.5 0 0,1 2.5,0Z" style="opacity: 1; stroke-width: 0px; fill: rgb(124, 75, 106); fill-opacity: 1;"/><path class="point" transform="translate(768.63,209.48)" d="M2.5,0A2.5,2.5 0 1,1 0,-2.5A2.5,2.5 0 0,1 2.5,0Z" style="opacity: 1; stroke-width: 0px; fill: rgb(124, 75, 106); fill-opacity: 1;"/><path class="point" transform="translate(773.4,208.33)" d="M2.5,0A2.5,2.5 0 1,1 0,-2.5A2.5,2.5 0 0,1 2.5,0Z" style="opacity: 1; stroke-width: 0px; fill: rgb(124, 75, 106); fill-opacity: 1;"/><path class="point" transform="translate(775.39,209.17)" d="M2.5,0A2.5,2.5 0 1,1 0,-2.5A2.5,2.5 0 0,1 2.5,0Z" style="opacity: 1; stroke-width: 0px; fill: rgb(124, 75, 106); fill-opacity: 1;"/><path class="point" transform="translate(797.22,210.05)" d="M2.5,0A2.5,2.5 0 1,1 0,-2.5A2.5,2.5 0 0,1 2.5,0Z" style="opacity: 1; stroke-width: 0px; fill: rgb(124, 75, 106); fill-opacity: 1;"/><path class="point" transform="translate(855.08,211.19)" d="M2.5,0A2.5,2.5 0 1,1 0,-2.5A2.5,2.5 0 0,1 2.5,0Z" style="opacity: 1; stroke-width: 0px; fill: rgb(124, 75, 106); fill-opacity: 1;"/></g></g><g class="trace violins" style="opacity: 1;"><path class="violin" d="M611.43,183.62L611.43,183.06Q617.27,182.74 620.18,182.47C623.1,182.2 626.03,181.89 628.94,181.46C631.87,181.03 634.79,180.53 637.7,179.9C640.63,179.27 643.55,178.53 646.46,177.69C649.39,176.84 652.31,175.88 655.21,174.84C658.14,173.79 661.06,172.63 663.97,171.44C666.9,170.24 669.81,168.96 672.73,167.69C675.65,166.41 678.57,165.08 681.49,163.8C684.4,162.52 687.31,161.23 690.24,160.02C693.15,158.82 696.06,157.62 699,156.57C701.9,155.53 704.82,154.54 707.76,153.76C710.66,152.99 713.59,152.32 716.52,151.92C719.42,151.53 722.35,151.31 725.27,151.37C728.19,151.43 731.13,151.76 734.03,152.27C736.97,152.79 739.89,153.59 742.79,154.46C745.73,155.34 748.64,156.45 751.55,157.52C754.48,158.59 757.38,159.78 760.3,160.87C763.21,161.96 766.13,163.05 769.06,164.04C771.97,165.02 774.89,165.93 777.82,166.79C780.73,167.64 783.66,168.41 786.58,169.17C789.49,169.93 792.41,170.64 795.33,171.37C798.25,172.09 801.17,172.8 804.09,173.52C807.01,174.24 809.93,174.97 812.85,175.67C815.77,176.37 818.69,177.08 821.61,177.73C824.52,178.38 827.44,179 830.36,179.55C833.27,180.1 836.2,180.59 839.12,181.01C842.04,181.43 844.96,181.78 847.88,182.08C850.8,182.37 853.72,182.6 856.64,182.78C859.56,182.96 862.47,183.09 865.39,183.18C868.31,183.28 871.23,183.32 874.15,183.35C877.07,183.38 879.99,183.37 882.91,183.35C885.83,183.33 888.75,183.28 891.67,183.2C894.59,183.13 897.5,183.02 900.42,182.9C903.34,182.78 906.26,182.63 909.18,182.47C912.1,182.31 915.02,182.11 917.94,181.92C920.86,181.73 923.78,181.53 926.7,181.35C929.62,181.17 932.53,180.98 935.45,180.83C938.37,180.68 941.29,180.55 944.21,180.44C947.13,180.33 950.05,180.25 952.97,180.19C955.89,180.13 958.81,180.1 961.73,180.08C964.65,180.06 967.56,180.07 970.48,180.09C973.4,180.11 976.32,180.16 979.24,180.23C982.16,180.3 985.08,180.39 988,180.51C990.92,180.63 993.84,180.77 996.76,180.93C999.68,181.09 1002.59,181.29 1005.51,181.47C1008.43,181.66 1011.35,181.86 1014.27,182.04C1017.19,182.22 1020.11,182.41 1023.03,182.57C1025.95,182.73 1028.87,182.87 1031.79,182.99Q1034.71,183.11 1040.54,183.28L1040.54,183.62" style="vector-effect: non-scaling-stroke; stroke-width: 2px; stroke: rgb(142, 70, 92); stroke-opacity: 1; fill: rgb(142, 70, 92); fill-opacity: 0.5;"/><g class="points"><path class="point" transform="translate(664.56,174.91)" d="M2.5,0A2.5,2.5 0 1,1 0,-2.5A2.5,2.5 0 0,1 2.5,0Z" style="opacity: 1; stroke-width: 0px; fill: rgb(142, 70, 92); fill-opacity: 1;"/><path class="point" transform="translate(679.63,179.94)" d="M2.5,0A2.5,2.5 0 1,1 0,-2.5A2.5,2.5 0 0,1 2.5,0Z" style="opacity: 1; stroke-width: 0px; fill: rgb(142, 70, 92); fill-opacity: 1;"/><path class="point" transform="translate(684.29,173.54)" d="M2.5,0A2.5,2.5 0 1,1 0,-2.5A2.5,2.5 0 0,1 2.5,0Z" style="opacity: 1; stroke-width: 0px; fill: rgb(142, 70, 92); fill-opacity: 1;"/><path class="point" transform="translate(686.28,181.19)" d="M2.5,0A2.5,2.5 0 1,1 0,-2.5A2.5,2.5 0 0,1 2.5,0Z" style="opacity: 1; stroke-width: 0px; fill: rgb(142, 70, 92); fill-opacity: 1;"/><path class="point" transform="translate(697.7,178.3)" d="M2.5,0A2.5,2.5 0 1,1 0,-2.5A2.5,2.5 0 0,1 2.5,0Z" style="opacity: 1; stroke-width: 0px; fill: rgb(142, 70, 92); fill-opacity: 1;"/><path class="point" transform="translate(703.79,174.65)" d="M2.5,0A2.5,2.5 0 1,1 0,-2.5A2.5,2.5 0 0,1 2.5,0Z" style="opacity: 1; stroke-width: 0px; fill: rgb(142, 70, 92); fill-opacity: 1;"/><path class="point" transform="translate(711.66,177.37)" d="M2.5,0A2.5,2.5 0 1,1 0,-2.5A2.5,2.5 0 0,1 2.5,0Z" style="opacity: 1; stroke-width: 0px; fill: rgb(142, 70, 92); fill-opacity: 1;"/><path class="point" transform="translate(711.88,175.59)" d="M2.5,0A2.5,2.5 0 1,1 0,-2.5A2.5,2.5 0 0,1 2.5,0Z" style="opacity: 1; stroke-width: 0px; fill: rgb(142, 70, 92); fill-opacity: 1;"/><path class="point" transform="translate(717.09,178.93)" d="M2.5,0A2.5,2.5 0 1,1 0,-2.5A2.5,2.5 0 0,1 2.5,0Z" style="opacity: 1; stroke-width: 0px; fill: rgb(142, 70, 92); fill-opacity: 1;"/><path class="point" transform="translate(727.73,181.68)" d="M2.5,0A2.5,2.5 0 1,1 0,-2.5A2.5,2.5 0 0,1 2.5,0Z" style="opacity: 1; stroke-width: 0px; fill: rgb(142, 70, 92); fill-opacity: 1;"/><path class="point" transform="translate(728.73,175.45)" d="M2.5,0A2.5,2.5 0 1,1 0,-2.5A2.5,2.5 0 0,1 2.5,0Z" style="opacity: 1; stroke-width: 0px; fill: rgb(142, 70, 92); fill-opacity: 1;"/><path class="point" transform="translate(733.72,179.24)" d="M2.5,0A2.5,2.5 0 1,1 0,-2.5A2.5,2.5 0 0,1 2.5,0Z" style="opacity: 1; stroke-width: 0px; fill: rgb(142, 70, 92); fill-opacity: 1;"/><path class="point" transform="translate(734.16,173.79)" d="M2.5,0A2.5,2.5 0 1,1 0,-2.5A2.5,2.5 0 0,1 2.5,0Z" style="opacity: 1; stroke-width: 0px; fill: rgb(142, 70, 92); fill-opacity: 1;"/><path class="point" transform="translate(735.27,181.93)" d="M2.5,0A2.5,2.5 0 1,1 0,-2.5A2.5,2.5 0 0,1 2.5,0Z" style="opacity: 1; stroke-width: 0px; fill: rgb(142, 70, 92); fill-opacity: 1;"/><path class="point" transform="translate(737.04,180.12)" d="M2.5,0A2.5,2.5 0 1,1 0,-2.5A2.5,2.5 0 0,1 2.5,0Z" style="opacity: 1; stroke-width: 0px; fill: rgb(142, 70, 92); fill-opacity: 1;"/><path class="point" transform="translate(739.48,172.99)" d="M2.5,0A2.5,2.5 0 1,1 0,-2.5A2.5,2.5 0 0,1 2.5,0Z" style="opacity: 1; stroke-width: 0px; fill: rgb(142, 70, 92); fill-opacity: 1;"/><path class="point" transform="translate(749.23,178.28)" d="M2.5,0A2.5,2.5 0 1,1 0,-2.5A2.5,2.5 0 0,1 2.5,0Z" style="opacity: 1; stroke-width: 0px; fill: rgb(142, 70, 92); fill-opacity: 1;"/><path class="point" transform="translate(764.09,179.46)" d="M2.5,0A2.5,2.5 0 1,1 0,-2.5A2.5,2.5 0 0,1 2.5,0Z" style="opacity: 1; stroke-width: 0px; fill: rgb(142, 70, 92); fill-opacity: 1;"/><path class="point" transform="translate(779.16,177.97)" d="M2.5,0A2.5,2.5 0 1,1 0,-2.5A2.5,2.5 0 0,1 2.5,0Z" style="opacity: 1; stroke-width: 0px; fill: rgb(142, 70, 92); fill-opacity: 1;"/><path class="point" transform="translate(785.03,177.22)" d="M2.5,0A2.5,2.5 0 1,1 0,-2.5A2.5,2.5 0 0,1 2.5,0Z" style="opacity: 1; stroke-width: 0px; fill: rgb(142, 70, 92); fill-opacity: 1;"/><path class="point" transform="translate(795.12,176.19)" d="M2.5,0A2.5,2.5 0 1,1 0,-2.5A2.5,2.5 0 0,1 2.5,0Z" style="opacity: 1; stroke-width: 0px; fill: rgb(142, 70, 92); fill-opacity: 1;"/><path class="point" transform="translate(810.19,176.94)" d="M2.5,0A2.5,2.5 0 1,1 0,-2.5A2.5,2.5 0 0,1 2.5,0Z" style="opacity: 1; stroke-width: 0px; fill: rgb(142, 70, 92); fill-opacity: 1;"/><path class="point" transform="translate(942.97,177.74)" d="M2.5,0A2.5,2.5 0 1,1 0,-2.5A2.5,2.5 0 0,1 2.5,0Z" style="opacity: 1; stroke-width: 0px; fill: rgb(142, 70, 92); fill-opacity: 1;"/><path class="point" transform="translate(987.41,178.75)" d="M2.5,0A2.5,2.5 0 1,1 0,-2.5A2.5,2.5 0 0,1 2.5,0Z" style="opacity: 1; stroke-width: 0px; fill: rgb(142, 70, 92); fill-opacity: 1;"/></g></g><g class="trace violins" style="opacity: 1;"><path class="violin" d="M637.33,151.37L637.33,150.89Q641.75,150.63 643.95,150.44C646.16,150.24 648.37,150.01 650.57,149.72C652.78,149.43 654.99,149.09 657.19,148.69C659.4,148.29 661.61,147.83 663.81,147.32C666.02,146.81 668.23,146.24 670.43,145.63C672.64,145.01 674.84,144.34 677.04,143.62C679.25,142.9 681.46,142.13 683.66,141.3C685.88,140.47 688.08,139.58 690.28,138.63C692.5,137.67 694.7,136.65 696.9,135.59C699.12,134.52 701.32,133.38 703.52,132.24C705.73,131.1 707.93,129.9 710.14,128.75C712.34,127.61 714.53,126.44 716.75,125.38C718.94,124.33 721.14,123.29 723.37,122.43C725.56,121.59 727.76,120.81 729.99,120.26C732.18,119.72 734.4,119.31 736.61,119.12C738.81,118.93 741.03,118.94 743.23,119.11C745.44,119.29 747.66,119.68 749.85,120.18C752.07,120.69 754.28,121.38 756.47,122.14C758.69,122.91 760.89,123.82 763.08,124.77C765.3,125.73 767.5,126.8 769.7,127.86C771.91,128.93 774.11,130.08 776.32,131.18C778.53,132.28 780.72,133.41 782.94,134.46C785.14,135.5 787.34,136.52 789.56,137.43C791.75,138.33 793.96,139.16 796.18,139.91C798.37,140.65 800.59,141.29 802.8,141.88C805,142.46 807.2,142.97 809.41,143.43C811.61,143.89 813.82,144.29 816.03,144.66C818.23,145.02 820.44,145.34 822.65,145.62C824.85,145.9 827.06,146.14 829.27,146.36C831.48,146.57 833.68,146.74 835.89,146.91C838.1,147.08 840.3,147.21 842.51,147.37C844.72,147.53 846.92,147.67 849.13,147.85C851.33,148.02 853.54,148.22 855.74,148.42C857.95,148.62 860.15,148.85 862.36,149.07C864.57,149.29 866.77,149.51 868.98,149.72C871.19,149.92 873.39,150.13 875.6,150.3C877.81,150.47 880.01,150.63 882.22,150.75C884.43,150.87 886.63,150.96 888.84,151.04C891.05,151.12 893.25,151.17 895.46,151.21C897.66,151.25 899.87,151.28 902.07,151.3C904.28,151.32 906.48,151.33 908.69,151.34C910.9,151.35 913.1,151.34 915.31,151.34C917.52,151.34 919.72,151.33 921.93,151.32C924.14,151.31 926.34,151.28 928.55,151.25C930.76,151.22 932.96,151.18 935.17,151.12C937.38,151.06 939.58,150.98 941.79,150.87C943.99,150.77 946.2,150.64 948.4,150.49C950.61,150.34 952.81,150.16 955.02,149.98C957.23,149.8 959.43,149.59 961.64,149.4C963.85,149.21 966.05,149.01 968.26,148.86C970.47,148.71 972.67,148.57 974.88,148.49C977.09,148.41 979.29,148.38 981.5,148.39C983.7,148.4 985.91,148.46 988.11,148.53C990.32,148.6 992.52,148.71 994.73,148.8C996.94,148.88 999.14,148.99 1001.35,149.04C1003.56,149.09 1005.76,149.12 1007.97,149.11C1010.18,149.1 1012.38,149.04 1014.59,148.97C1016.8,148.9 1019,148.79 1021.21,148.7C1023.42,148.61 1025.62,148.5 1027.83,148.45C1030.03,148.4 1032.24,148.37 1034.44,148.39C1036.65,148.41 1038.85,148.49 1041.06,148.6C1043.27,148.71 1045.47,148.87 1047.68,149.04C1049.89,149.21 1052.09,149.42 1054.3,149.61C1056.51,149.8 1058.71,150 1060.92,150.17C1063.13,150.34 1065.33,150.51 1067.54,150.64Q1069.75,150.77 1074.16,150.97L1074.16,151.37" style="vector-effect: non-scaling-stroke; stroke-width: 2px; stroke: rgb(160, 64, 79); stroke-opacity: 1; fill: rgb(160, 64, 79); fill-opacity: 0.5;"/><g class="points"><path class="point" transform="translate(677.19,142.61)" d="M2.5,0A2.5,2.5 0 1,1 0,-2.5A2.5,2.5 0 0,1 2.5,0Z" style="opacity: 1; stroke-width: 0px; fill: rgb(160, 64, 79); fill-opacity: 1;"/><path class="point" transform="translate(691.38,147.5)" d="M2.5,0A2.5,2.5 0 1,1 0,-2.5A2.5,2.5 0 0,1 2.5,0Z" style="opacity: 1; stroke-width: 0px; fill: rgb(160, 64, 79); fill-opacity: 1;"/><path class="point" transform="translate(709.33,141.56)" d="M2.5,0A2.5,2.5 0 1,1 0,-2.5A2.5,2.5 0 0,1 2.5,0Z" style="opacity: 1; stroke-width: 0px; fill: rgb(160, 64, 79); fill-opacity: 1;"/><path class="point" transform="translate(712.66,148.76)" d="M2.5,0A2.5,2.5 0 1,1 0,-2.5A2.5,2.5 0 0,1 2.5,0Z" style="opacity: 1; stroke-width: 0px; fill: rgb(160, 64, 79); fill-opacity: 1;"/><path class="point" transform="translate(714.21,146.09)" d="M2.5,0A2.5,2.5 0 1,1 0,-2.5A2.5,2.5 0 0,1 2.5,0Z" style="opacity: 1; stroke-width: 0px; fill: rgb(160, 64, 79); fill-opacity: 1;"/><path class="point" transform="translate(715.32,142.34)" d="M2.5,0A2.5,2.5 0 1,1 0,-2.5A2.5,2.5 0 0,1 2.5,0Z" style="opacity: 1; stroke-width: 0px; fill: rgb(160, 64, 79); fill-opacity: 1;"/><path class="point" transform="translate(731.94,145.12)" d="M2.5,0A2.5,2.5 0 1,1 0,-2.5A2.5,2.5 0 0,1 2.5,0Z" style="opacity: 1; stroke-width: 0px; fill: rgb(160, 64, 79); fill-opacity: 1;"/><path class="point" transform="translate(733.27,143.05)" d="M2.5,0A2.5,2.5 0 1,1 0,-2.5A2.5,2.5 0 0,1 2.5,0Z" style="opacity: 1; stroke-width: 0px; fill: rgb(160, 64, 79); fill-opacity: 1;"/><path class="point" transform="translate(735.6,146.97)" d="M2.5,0A2.5,2.5 0 1,1 0,-2.5A2.5,2.5 0 0,1 2.5,0Z" style="opacity: 1; stroke-width: 0px; fill: rgb(160, 64, 79); fill-opacity: 1;"/><path class="point" transform="translate(736.82,148.99)" d="M2.5,0A2.5,2.5 0 1,1 0,-2.5A2.5,2.5 0 0,1 2.5,0Z" style="opacity: 1; stroke-width: 0px; fill: rgb(160, 64, 79); fill-opacity: 1;"/><path class="point" transform="translate(739.7,143.5)" d="M2.5,0A2.5,2.5 0 1,1 0,-2.5A2.5,2.5 0 0,1 2.5,0Z" style="opacity: 1; stroke-width: 0px; fill: rgb(160, 64, 79); fill-opacity: 1;"/><path class="point" transform="translate(742.81,147)" d="M2.5,0A2.5,2.5 0 1,1 0,-2.5A2.5,2.5 0 0,1 2.5,0Z" style="opacity: 1; stroke-width: 0px; fill: rgb(160, 64, 79); fill-opacity: 1;"/><path class="point" transform="translate(745.47,140.86)" d="M2.5,0A2.5,2.5 0 1,1 0,-2.5A2.5,2.5 0 0,1 2.5,0Z" style="opacity: 1; stroke-width: 0px; fill: rgb(160, 64, 79); fill-opacity: 1;"/><path class="point" transform="translate(749.12,151.08)" d="M2.5,0A2.5,2.5 0 1,1 0,-2.5A2.5,2.5 0 0,1 2.5,0Z" style="opacity: 1; stroke-width: 0px; fill: rgb(160, 64, 79); fill-opacity: 1;"/><path class="point" transform="translate(762.87,147.75)" d="M2.5,0A2.5,2.5 0 1,1 0,-2.5A2.5,2.5 0 0,1 2.5,0Z" style="opacity: 1; stroke-width: 0px; fill: rgb(160, 64, 79); fill-opacity: 1;"/><path class="point" transform="translate(768.74,140.87)" d="M2.5,0A2.5,2.5 0 1,1 0,-2.5A2.5,2.5 0 0,1 2.5,0Z" style="opacity: 1; stroke-width: 0px; fill: rgb(160, 64, 79); fill-opacity: 1;"/><path class="point" transform="translate(769.63,145.87)" d="M2.5,0A2.5,2.5 0 1,1 0,-2.5A2.5,2.5 0 0,1 2.5,0Z" style="opacity: 1; stroke-width: 0px; fill: rgb(160, 64, 79); fill-opacity: 1;"/><path class="point" transform="translate(769.96,147.09)" d="M2.5,0A2.5,2.5 0 1,1 0,-2.5A2.5,2.5 0 0,1 2.5,0Z" style="opacity: 1; stroke-width: 0px; fill: rgb(160, 64, 79); fill-opacity: 1;"/><path class="point" transform="translate(773.17,145.68)" d="M2.5,0A2.5,2.5 0 1,1 0,-2.5A2.5,2.5 0 0,1 2.5,0Z" style="opacity: 1; stroke-width: 0px; fill: rgb(160, 64, 79); fill-opacity: 1;"/><path class="point" transform="translate(799.33,144.96)" d="M2.5,0A2.5,2.5 0 1,1 0,-2.5A2.5,2.5 0 0,1 2.5,0Z" style="opacity: 1; stroke-width: 0px; fill: rgb(160, 64, 79); fill-opacity: 1;"/><path class="point" transform="translate(811.41,143.96)" d="M2.5,0A2.5,2.5 0 1,1 0,-2.5A2.5,2.5 0 0,1 2.5,0Z" style="opacity: 1; stroke-width: 0px; fill: rgb(160, 64, 79); fill-opacity: 1;"/><path class="point" transform="translate(847.1,144.7)" d="M2.5,0A2.5,2.5 0 1,1 0,-2.5A2.5,2.5 0 0,1 2.5,0Z" style="opacity: 1; stroke-width: 0px; fill: rgb(160, 64, 79); fill-opacity: 1;"/><path class="point" transform="translate(979.32,145.44)" d="M2.5,0A2.5,2.5 0 1,1 0,-2.5A2.5,2.5 0 0,1 2.5,0Z" style="opacity: 1; stroke-width: 0px; fill: rgb(160, 64, 79); fill-opacity: 1;"/><path class="point" transform="translate(1034.3,146.34)" d="M2.5,0A2.5,2.5 0 1,1 0,-2.5A2.5,2.5 0 0,1 2.5,0Z" style="opacity: 1; stroke-width: 0px; fill: rgb(160, 64, 79); fill-opacity: 1;"/></g></g><g class="trace violins" style="opacity: 1;"><path class="violin" d="M647.68,119.11L647.68,118.09Q653.18,117.5 655.92,117.03C658.68,116.56 661.44,115.99 664.17,115.25C666.94,114.51 669.69,113.61 672.41,112.58C675.18,111.53 677.93,110.3 680.65,109C683.42,107.67 686.16,106.17 688.89,104.68C691.65,103.18 694.38,101.54 697.13,100.01C699.87,98.48 702.61,96.9 705.38,95.49C708.11,94.1 710.84,92.74 713.62,91.6C716.34,90.49 719.09,89.48 721.86,88.73C724.58,87.99 727.34,87.43 730.1,87.12C732.84,86.81 735.61,86.74 738.35,86.86C741.1,86.98 743.86,87.36 746.59,87.87C749.35,88.39 752.1,89.15 754.83,89.96C757.59,90.78 760.33,91.79 763.07,92.79C765.83,93.8 768.57,94.93 771.32,96.01C774.07,97.1 776.81,98.23 779.56,99.3C782.3,100.37 785.05,101.44 787.8,102.45C790.54,103.46 793.29,104.44 796.04,105.36C798.78,106.28 801.52,107.16 804.28,107.98C807.02,108.8 809.77,109.57 812.53,110.27C815.27,110.97 818.02,111.61 820.77,112.17C823.51,112.73 826.26,113.21 829.01,113.62C831.75,114.03 834.5,114.35 837.25,114.63C840,114.91 842.75,115.12 845.5,115.32C848.25,115.52 850.99,115.66 853.74,115.83C856.49,116 859.23,116.15 861.98,116.32C864.73,116.49 867.47,116.67 870.22,116.85C872.97,117.03 875.71,117.24 878.46,117.42C881.21,117.6 883.96,117.79 886.71,117.95C889.46,118.11 892.2,118.26 894.95,118.39C897.7,118.51 900.44,118.62 903.19,118.7C905.94,118.78 908.68,118.84 911.43,118.88C914.18,118.92 916.93,118.94 919.68,118.95C922.43,118.96 925.17,118.95 927.92,118.92C930.67,118.89 933.41,118.84 936.16,118.77C938.91,118.7 941.65,118.61 944.4,118.5C947.15,118.39 949.9,118.26 952.65,118.11C955.4,117.97 958.14,117.79 960.89,117.63C963.64,117.47 966.38,117.29 969.13,117.14C971.88,117 974.62,116.85 977.37,116.76C980.12,116.67 982.86,116.6 985.61,116.58C988.36,116.56 991.11,116.59 993.86,116.64C996.61,116.69 999.35,116.79 1002.1,116.88C1004.85,116.97 1007.59,117.09 1010.34,117.17C1013.09,117.25 1015.83,117.34 1018.58,117.37C1021.33,117.4 1024.08,117.4 1026.83,117.37C1029.58,117.34 1032.32,117.26 1035.07,117.18C1037.82,117.1 1040.56,116.99 1043.31,116.9C1046.06,116.81 1048.8,116.7 1051.55,116.65C1054.3,116.6 1057.05,116.56 1059.8,116.58C1062.55,116.6 1065.29,116.66 1068.04,116.75C1070.79,116.84 1073.53,116.99 1076.28,117.13C1079.03,117.27 1081.77,117.45 1084.52,117.61C1087.27,117.77 1090.01,117.94 1092.76,118.09C1095.51,118.24 1098.26,118.37 1101.01,118.49Q1103.76,118.6 1109.25,118.78L1109.25,119.11" style="vector-effect: non-scaling-stroke; stroke-width: 2px; stroke: rgb(179, 59, 66); stroke-opacity: 1; fill: rgb(179, 59, 66); fill-opacity: 0.5;"/><g class="points"><path class="point" transform="translate(697.59,109.7)" d="M2.5,0A2.5,2.5 0 1,1 0,-2.5A2.5,2.5 0 0,1 2.5,0Z" style="opacity: 1; stroke-width: 0px; fill: rgb(179, 59, 66); fill-opacity: 1;"/><path class="point" transform="translate(704.01,116.5)" d="M2.5,0A2.5,2.5 0 1,1 0,-2.5A2.5,2.5 0 0,1 2.5,0Z" style="opacity: 1; stroke-width: 0px; fill: rgb(179, 59, 66); fill-opacity: 1;"/><path class="point" transform="translate(705.57,108.3)" d="M2.5,0A2.5,2.5 0 1,1 0,-2.5A2.5,2.5 0 0,1 2.5,0Z" style="opacity: 1; stroke-width: 0px; fill: rgb(179, 59, 66); fill-opacity: 1;"/><path class="point" transform="translate(706.45,117.41)" d="M2.5,0A2.5,2.5 0 1,1 0,-2.5A2.5,2.5 0 0,1 2.5,0Z" style="opacity: 1; stroke-width: 0px; fill: rgb(179, 59, 66); fill-opacity: 1;"/><path class="point" transform="translate(713.1,114.11)" d="M2.5,0A2.5,2.5 0 1,1 0,-2.5A2.5,2.5 0 0,1 2.5,0Z" style="opacity: 1; stroke-width: 0px; fill: rgb(179, 59, 66); fill-opacity: 1;"/><path class="point" transform="translate(720.86,109.46)" d="M2.5,0A2.5,2.5 0 1,1 0,-2.5A2.5,2.5 0 0,1 2.5,0Z" style="opacity: 1; stroke-width: 0px; fill: rgb(179, 59, 66); fill-opacity: 1;"/><path class="point" transform="translate(722.74,112.9)" d="M2.5,0A2.5,2.5 0 1,1 0,-2.5A2.5,2.5 0 0,1 2.5,0Z" style="opacity: 1; stroke-width: 0px; fill: rgb(179, 59, 66); fill-opacity: 1;"/><path class="point" transform="translate(731.28,110.94)" d="M2.5,0A2.5,2.5 0 1,1 0,-2.5A2.5,2.5 0 0,1 2.5,0Z" style="opacity: 1; stroke-width: 0px; fill: rgb(179, 59, 66); fill-opacity: 1;"/><path class="point" transform="translate(736.16,114.47)" d="M2.5,0A2.5,2.5 0 1,1 0,-2.5A2.5,2.5 0 0,1 2.5,0Z" style="opacity: 1; stroke-width: 0px; fill: rgb(179, 59, 66); fill-opacity: 1;"/><path class="point" transform="translate(737.04,117.08)" d="M2.5,0A2.5,2.5 0 1,1 0,-2.5A2.5,2.5 0 0,1 2.5,0Z" style="opacity: 1; stroke-width: 0px; fill: rgb(179, 59, 66); fill-opacity: 1;"/><path class="point" transform="translate(738.37,111.09)" d="M2.5,0A2.5,2.5 0 1,1 0,-2.5A2.5,2.5 0 0,1 2.5,0Z" style="opacity: 1; stroke-width: 0px; fill: rgb(179, 59, 66); fill-opacity: 1;"/><path class="point" transform="translate(740.59,114.64)" d="M2.5,0A2.5,2.5 0 1,1 0,-2.5A2.5,2.5 0 0,1 2.5,0Z" style="opacity: 1; stroke-width: 0px; fill: rgb(179, 59, 66); fill-opacity: 1;"/><path class="point" transform="translate(748.46,108.94)" d="M2.5,0A2.5,2.5 0 1,1 0,-2.5A2.5,2.5 0 0,1 2.5,0Z" style="opacity: 1; stroke-width: 0px; fill: rgb(179, 59, 66); fill-opacity: 1;"/><path class="point" transform="translate(753.67,117.92)" d="M2.5,0A2.5,2.5 0 1,1 0,-2.5A2.5,2.5 0 0,1 2.5,0Z" style="opacity: 1; stroke-width: 0px; fill: rgb(179, 59, 66); fill-opacity: 1;"/><path class="point" transform="translate(755,115.58)" d="M2.5,0A2.5,2.5 0 1,1 0,-2.5A2.5,2.5 0 0,1 2.5,0Z" style="opacity: 1; stroke-width: 0px; fill: rgb(179, 59, 66); fill-opacity: 1;"/><path class="point" transform="translate(764.64,108.55)" d="M2.5,0A2.5,2.5 0 1,1 0,-2.5A2.5,2.5 0 0,1 2.5,0Z" style="opacity: 1; stroke-width: 0px; fill: rgb(179, 59, 66); fill-opacity: 1;"/><path class="point" transform="translate(764.97,113.58)" d="M2.5,0A2.5,2.5 0 1,1 0,-2.5A2.5,2.5 0 0,1 2.5,0Z" style="opacity: 1; stroke-width: 0px; fill: rgb(179, 59, 66); fill-opacity: 1;"/><path class="point" transform="translate(775.39,114.83)" d="M2.5,0A2.5,2.5 0 1,1 0,-2.5A2.5,2.5 0 0,1 2.5,0Z" style="opacity: 1; stroke-width: 0px; fill: rgb(179, 59, 66); fill-opacity: 1;"/><path class="point" transform="translate(788.25,113.4)" d="M2.5,0A2.5,2.5 0 1,1 0,-2.5A2.5,2.5 0 0,1 2.5,0Z" style="opacity: 1; stroke-width: 0px; fill: rgb(179, 59, 66); fill-opacity: 1;"/><path class="point" transform="translate(796.89,112.71)" d="M2.5,0A2.5,2.5 0 1,1 0,-2.5A2.5,2.5 0 0,1 2.5,0Z" style="opacity: 1; stroke-width: 0px; fill: rgb(179, 59, 66); fill-opacity: 1;"/><path class="point" transform="translate(808.86,111.75)" d="M2.5,0A2.5,2.5 0 1,1 0,-2.5A2.5,2.5 0 0,1 2.5,0Z" style="opacity: 1; stroke-width: 0px; fill: rgb(179, 59, 66); fill-opacity: 1;"/><path class="point" transform="translate(855.41,112.45)" d="M2.5,0A2.5,2.5 0 1,1 0,-2.5A2.5,2.5 0 0,1 2.5,0Z" style="opacity: 1; stroke-width: 0px; fill: rgb(179, 59, 66); fill-opacity: 1;"/><path class="point" transform="translate(986.42,113.17)" d="M2.5,0A2.5,2.5 0 1,1 0,-2.5A2.5,2.5 0 0,1 2.5,0Z" style="opacity: 1; stroke-width: 0px; fill: rgb(179, 59, 66); fill-opacity: 1;"/><path class="point" transform="translate(1059.35,114.06)" d="M2.5,0A2.5,2.5 0 1,1 0,-2.5A2.5,2.5 0 0,1 2.5,0Z" style="opacity: 1; stroke-width: 0px; fill: rgb(179, 59, 66); fill-opacity: 1;"/></g></g><g class="trace violins" style="opacity: 1;"><path class="violin" d="M655.64,86.86L655.64,86.49Q659.65,86.31 661.65,86.18C663.65,86.05 665.65,85.89 667.65,85.7C669.65,85.51 671.66,85.29 673.66,85.05C675.67,84.8 677.67,84.54 679.67,84.23C681.68,83.92 683.68,83.6 685.68,83.21C687.69,82.82 689.69,82.41 691.68,81.9C693.69,81.39 695.7,80.83 697.69,80.14C699.71,79.44 701.72,78.65 703.7,77.72C705.73,76.77 707.72,75.67 709.7,74.5C711.73,73.29 713.72,71.93 715.71,70.56C717.73,69.16 719.71,67.63 721.72,66.19C723.72,64.75 725.69,63.24 727.72,61.91C729.7,60.61 731.69,59.33 733.73,58.29C735.7,57.29 737.7,56.39 739.74,55.77C741.71,55.17 743.74,54.76 745.75,54.6C747.74,54.44 749.76,54.55 751.75,54.81C753.77,55.08 755.78,55.59 757.76,56.2C759.79,56.83 761.79,57.66 763.77,58.54C765.79,59.43 767.78,60.47 769.77,61.53C771.79,62.6 773.78,63.77 775.78,64.94C777.79,66.12 779.79,67.35 781.79,68.56C783.79,69.77 785.79,71.01 787.8,72.19C789.79,73.36 791.78,74.55 793.8,75.63C795.79,76.7 797.79,77.74 799.81,78.66C801.79,79.56 803.8,80.4 805.82,81.09C807.8,81.77 809.81,82.34 811.82,82.79C813.81,83.23 815.82,83.53 817.83,83.76C819.83,83.99 821.84,84.08 823.84,84.15C825.84,84.22 827.84,84.18 829.84,84.17C831.84,84.16 833.85,84.1 835.85,84.09C837.85,84.08 839.86,84.06 841.86,84.08C843.86,84.1 845.87,84.17 847.87,84.24C849.87,84.31 851.87,84.42 853.87,84.51C855.87,84.6 857.88,84.7 859.88,84.76C861.88,84.82 863.89,84.86 865.89,84.86C867.89,84.86 869.89,84.83 871.89,84.78C873.89,84.73 875.9,84.62 877.9,84.54C879.9,84.46 881.91,84.35 883.91,84.29C885.91,84.23 887.92,84.17 889.92,84.17C891.92,84.17 893.92,84.2 895.92,84.27C897.92,84.34 899.93,84.47 901.93,84.61C903.93,84.75 905.94,84.93 907.94,85.1C909.94,85.27 911.94,85.46 913.94,85.62C915.94,85.78 917.95,85.95 919.95,86.08C921.95,86.21 923.96,86.33 925.96,86.42C927.96,86.51 929.96,86.58 931.96,86.63C933.96,86.68 935.97,86.71 937.97,86.74C939.97,86.76 941.98,86.78 943.98,86.78C945.98,86.78 947.99,86.77 949.99,86.75C951.99,86.73 953.99,86.69 955.99,86.64C957.99,86.59 960,86.53 962,86.44C964,86.35 966.01,86.24 968.01,86.11C970.01,85.98 972.01,85.82 974.01,85.66C976.01,85.5 978.02,85.31 980.02,85.14C982.02,84.97 984.03,84.79 986.03,84.65C988.03,84.51 990.03,84.38 992.03,84.31C994.03,84.24 996.04,84.21 998.04,84.23C1000.04,84.25 1002.05,84.32 1004.05,84.42C1006.05,84.52 1008.06,84.67 1010.06,84.83C1012.06,84.98 1014.06,85.18 1016.06,85.35C1018.06,85.52 1020.07,85.7 1022.07,85.85C1024.07,86 1026.08,86.15 1028.08,86.26C1030.08,86.37 1032.08,86.46 1034.08,86.53C1036.08,86.6 1038.09,86.66 1040.09,86.7C1042.09,86.74 1044.1,86.77 1046.1,86.79C1048.1,86.81 1050.11,86.82 1052.11,86.83C1054.11,86.84 1056.11,86.85 1058.11,86.85C1060.11,86.86 1062.12,86.86 1064.12,86.86C1066.12,86.86 1068.13,86.86 1070.13,86.86C1072.13,86.86 1074.13,86.86 1076.13,86.86C1078.13,86.86 1080.14,86.86 1082.14,86.86C1084.14,86.86 1086.15,86.86 1088.15,86.86C1090.15,86.86 1092.15,86.86 1094.15,86.86C1096.15,86.86 1098.16,86.86 1100.16,86.86C1102.16,86.86 1104.17,86.86 1106.17,86.86C1108.17,86.86 1110.18,86.86 1112.18,86.86C1114.18,86.86 1116.18,86.86 1118.18,86.86C1120.18,86.86 1122.19,86.86 1124.19,86.86C1126.19,86.86 1128.2,86.86 1130.2,86.85C1132.2,86.85 1134.2,86.84 1136.2,86.83C1138.2,86.82 1140.21,86.8 1142.21,86.77C1144.21,86.74 1146.22,86.72 1148.22,86.67C1150.22,86.62 1152.23,86.56 1154.23,86.47C1156.23,86.39 1158.23,86.28 1160.23,86.16C1162.23,86.04 1164.24,85.89 1166.24,85.73C1168.24,85.57 1170.25,85.38 1172.25,85.21C1174.25,85.04 1176.25,84.85 1178.25,84.71C1180.25,84.57 1182.26,84.43 1184.26,84.35C1186.26,84.27 1188.27,84.21 1190.27,84.22C1192.27,84.23 1194.27,84.29 1196.27,84.38C1198.27,84.47 1200.28,84.62 1202.28,84.77C1204.28,84.92 1206.29,85.11 1208.29,85.28C1210.29,85.45 1212.3,85.63 1214.3,85.79C1216.3,85.94 1218.3,86.09 1220.3,86.21Q1222.3,86.33 1226.31,86.5L1226.31,86.86" style="vector-effect: non-scaling-stroke; stroke-width: 2px; stroke: rgb(197, 53, 52); stroke-opacity: 1; fill: rgb(197, 53, 52); fill-opacity: 0.5;"/><g class="points"><path class="point" transform="translate(692.04,78.49)" d="M2.5,0A2.5,2.5 0 1,1 0,-2.5A2.5,2.5 0 0,1 2.5,0Z" style="opacity: 1; stroke-width: 0px; fill: rgb(197, 53, 52); fill-opacity: 1;"/><path class="point" transform="translate(719.97,82.92)" d="M2.5,0A2.5,2.5 0 1,1 0,-2.5A2.5,2.5 0 0,1 2.5,0Z" style="opacity: 1; stroke-width: 0px; fill: rgb(197, 53, 52); fill-opacity: 1;"/><path class="point" transform="translate(723.3,77.13)" d="M2.5,0A2.5,2.5 0 1,1 0,-2.5A2.5,2.5 0 0,1 2.5,0Z" style="opacity: 1; stroke-width: 0px; fill: rgb(197, 53, 52); fill-opacity: 1;"/><path class="point" transform="translate(729.95,84.17)" d="M2.5,0A2.5,2.5 0 1,1 0,-2.5A2.5,2.5 0 0,1 2.5,0Z" style="opacity: 1; stroke-width: 0px; fill: rgb(197, 53, 52); fill-opacity: 1;"/><path class="point" transform="translate(731.28,81.52)" d="M2.5,0A2.5,2.5 0 1,1 0,-2.5A2.5,2.5 0 0,1 2.5,0Z" style="opacity: 1; stroke-width: 0px; fill: rgb(197, 53, 52); fill-opacity: 1;"/><path class="point" transform="translate(736.82,78.07)" d="M2.5,0A2.5,2.5 0 1,1 0,-2.5A2.5,2.5 0 0,1 2.5,0Z" style="opacity: 1; stroke-width: 0px; fill: rgb(197, 53, 52); fill-opacity: 1;"/><path class="point" transform="translate(739.04,80.63)" d="M2.5,0A2.5,2.5 0 1,1 0,-2.5A2.5,2.5 0 0,1 2.5,0Z" style="opacity: 1; stroke-width: 0px; fill: rgb(197, 53, 52); fill-opacity: 1;"/><path class="point" transform="translate(739.7,78.63)" d="M2.5,0A2.5,2.5 0 1,1 0,-2.5A2.5,2.5 0 0,1 2.5,0Z" style="opacity: 1; stroke-width: 0px; fill: rgb(197, 53, 52); fill-opacity: 1;"/><path class="point" transform="translate(741.25,82.47)" d="M2.5,0A2.5,2.5 0 1,1 0,-2.5A2.5,2.5 0 0,1 2.5,0Z" style="opacity: 1; stroke-width: 0px; fill: rgb(197, 53, 52); fill-opacity: 1;"/><path class="point" transform="translate(745.91,84.92)" d="M2.5,0A2.5,2.5 0 1,1 0,-2.5A2.5,2.5 0 0,1 2.5,0Z" style="opacity: 1; stroke-width: 0px; fill: rgb(197, 53, 52); fill-opacity: 1;"/><path class="point" transform="translate(753.33,78.71)" d="M2.5,0A2.5,2.5 0 1,1 0,-2.5A2.5,2.5 0 0,1 2.5,0Z" style="opacity: 1; stroke-width: 0px; fill: rgb(197, 53, 52); fill-opacity: 1;"/><path class="point" transform="translate(753.67,82.38)" d="M2.5,0A2.5,2.5 0 1,1 0,-2.5A2.5,2.5 0 0,1 2.5,0Z" style="opacity: 1; stroke-width: 0px; fill: rgb(197, 53, 52); fill-opacity: 1;"/><path class="point" transform="translate(755.66,76.92)" d="M2.5,0A2.5,2.5 0 1,1 0,-2.5A2.5,2.5 0 0,1 2.5,0Z" style="opacity: 1; stroke-width: 0px; fill: rgb(197, 53, 52); fill-opacity: 1;"/><path class="point" transform="translate(759.21,85.63)" d="M2.5,0A2.5,2.5 0 1,1 0,-2.5A2.5,2.5 0 0,1 2.5,0Z" style="opacity: 1; stroke-width: 0px; fill: rgb(197, 53, 52); fill-opacity: 1;"/><path class="point" transform="translate(763.42,83.4)" d="M2.5,0A2.5,2.5 0 1,1 0,-2.5A2.5,2.5 0 0,1 2.5,0Z" style="opacity: 1; stroke-width: 0px; fill: rgb(197, 53, 52); fill-opacity: 1;"/><path class="point" transform="translate(766.97,77.11)" d="M2.5,0A2.5,2.5 0 1,1 0,-2.5A2.5,2.5 0 0,1 2.5,0Z" style="opacity: 1; stroke-width: 0px; fill: rgb(197, 53, 52); fill-opacity: 1;"/><path class="point" transform="translate(772.95,81.15)" d="M2.5,0A2.5,2.5 0 1,1 0,-2.5A2.5,2.5 0 0,1 2.5,0Z" style="opacity: 1; stroke-width: 0px; fill: rgb(197, 53, 52); fill-opacity: 1;"/><path class="point" transform="translate(779.82,82.34)" d="M2.5,0A2.5,2.5 0 1,1 0,-2.5A2.5,2.5 0 0,1 2.5,0Z" style="opacity: 1; stroke-width: 0px; fill: rgb(197, 53, 52); fill-opacity: 1;"/><path class="point" transform="translate(783.59,80.96)" d="M2.5,0A2.5,2.5 0 1,1 0,-2.5A2.5,2.5 0 0,1 2.5,0Z" style="opacity: 1; stroke-width: 0px; fill: rgb(197, 53, 52); fill-opacity: 1;"/><path class="point" transform="translate(791.35,80.44)" d="M2.5,0A2.5,2.5 0 1,1 0,-2.5A2.5,2.5 0 0,1 2.5,0Z" style="opacity: 1; stroke-width: 0px; fill: rgb(197, 53, 52); fill-opacity: 1;"/><path class="point" transform="translate(840.78,79.73)" d="M2.5,0A2.5,2.5 0 1,1 0,-2.5A2.5,2.5 0 0,1 2.5,0Z" style="opacity: 1; stroke-width: 0px; fill: rgb(197, 53, 52); fill-opacity: 1;"/><path class="point" transform="translate(891.54,80.25)" d="M2.5,0A2.5,2.5 0 1,1 0,-2.5A2.5,2.5 0 0,1 2.5,0Z" style="opacity: 1; stroke-width: 0px; fill: rgb(197, 53, 52); fill-opacity: 1;"/><path class="point" transform="translate(996.84,80.78)" d="M2.5,0A2.5,2.5 0 1,1 0,-2.5A2.5,2.5 0 0,1 2.5,0Z" style="opacity: 1; stroke-width: 0px; fill: rgb(197, 53, 52); fill-opacity: 1;"/><path class="point" transform="translate(1189.91,81.43)" d="M2.5,0A2.5,2.5 0 1,1 0,-2.5A2.5,2.5 0 0,1 2.5,0Z" style="opacity: 1; stroke-width: 0px; fill: rgb(197, 53, 52); fill-opacity: 1;"/></g></g><g class="trace violins" style="opacity: 1;"><path class="violin" d="M637.65,54.6L637.65,53.94Q643.35,53.59 646.19,53.34C649.04,53.08 651.88,52.78 654.72,52.41C657.57,52.04 660.42,51.61 663.26,51.13C666.11,50.65 668.95,50.11 671.79,49.53C674.64,48.95 677.49,48.31 680.33,47.65C683.18,46.98 686.02,46.29 688.86,45.54C691.71,44.79 694.56,44 697.4,43.14C700.25,42.27 703.1,41.36 705.93,40.36C708.79,39.36 711.63,38.27 714.47,37.14C717.32,36 720.16,34.76 723,33.55C725.85,32.33 728.69,31.04 731.54,29.85C734.38,28.67 737.21,27.47 740.07,26.46C742.9,25.47 745.74,24.52 748.61,23.84C751.43,23.17 754.29,22.64 757.14,22.39C759.98,22.14 762.84,22.13 765.68,22.35C768.53,22.57 771.39,23.07 774.21,23.73C777.08,24.4 779.93,25.34 782.75,26.36C785.62,27.39 788.45,28.64 791.28,29.89C794.14,31.15 796.98,32.55 799.82,33.89C802.67,35.23 805.5,36.65 808.36,37.95C811.19,39.24 814.03,40.52 816.89,41.66C819.72,42.78 822.57,43.83 825.43,44.74C828.26,45.63 831.1,46.42 833.96,47.07C836.79,47.72 839.65,48.22 842.5,48.64C845.34,49.06 848.18,49.35 851.03,49.6C853.87,49.85 856.72,49.99 859.57,50.13C862.41,50.27 865.26,50.34 868.1,50.43C870.95,50.52 873.79,50.57 876.64,50.65C879.48,50.72 882.33,50.79 885.17,50.88C888.02,50.97 890.86,51.08 893.71,51.21C896.55,51.34 899.4,51.49 902.24,51.65C905.09,51.81 907.93,51.99 910.78,52.16C913.62,52.33 916.47,52.51 919.31,52.65C922.16,52.79 925,52.92 927.85,52.99C930.69,53.06 933.54,53.1 936.38,53.1C939.23,53.1 942.07,53.04 944.92,52.96C947.76,52.89 950.61,52.76 953.45,52.65C956.3,52.54 959.14,52.39 961.99,52.29C964.83,52.19 967.68,52.09 970.52,52.04C973.37,51.99 976.21,51.98 979.06,52.02C981.9,52.06 984.75,52.14 987.59,52.25C990.44,52.36 993.28,52.52 996.13,52.67C998.97,52.82 1001.82,53.01 1004.66,53.16C1007.51,53.31 1010.35,53.47 1013.2,53.59C1016.04,53.71 1018.89,53.8 1021.73,53.86C1024.58,53.92 1027.42,53.95 1030.27,53.93C1033.11,53.91 1035.96,53.85 1038.8,53.77C1041.65,53.68 1044.49,53.56 1047.34,53.42C1050.18,53.29 1053.03,53.12 1055.87,52.96C1058.72,52.8 1061.56,52.62 1064.41,52.48C1067.25,52.34 1070.1,52.21 1072.94,52.13C1075.79,52.05 1078.63,52.01 1081.48,52.02C1084.32,52.03 1087.17,52.08 1090.01,52.17C1092.86,52.26 1095.7,52.41 1098.55,52.56C1101.39,52.71 1104.24,52.89 1107.08,53.05C1109.93,53.22 1112.77,53.4 1115.62,53.55C1118.46,53.7 1121.31,53.84 1124.15,53.96Q1127,54.08 1132.69,54.25L1132.69,54.6" style="vector-effect: non-scaling-stroke; stroke-width: 2px; stroke: rgb(215, 48, 39); stroke-opacity: 1; fill: rgb(215, 48, 39); fill-opacity: 0.5;"/><g class="points"><path class="point" transform="translate(689.49,46.11)" d="M2.5,0A2.5,2.5 0 1,1 0,-2.5A2.5,2.5 0 0,1 2.5,0Z" style="opacity: 1; stroke-width: 0px; fill: rgb(215, 48, 39); fill-opacity: 1;"/><path class="point" transform="translate(692.04,50.86)" d="M2.5,0A2.5,2.5 0 1,1 0,-2.5A2.5,2.5 0 0,1 2.5,0Z" style="opacity: 1; stroke-width: 0px; fill: rgb(215, 48, 39); fill-opacity: 1;"/><path class="point" transform="translate(718.64,44.81)" d="M2.5,0A2.5,2.5 0 1,1 0,-2.5A2.5,2.5 0 0,1 2.5,0Z" style="opacity: 1; stroke-width: 0px; fill: rgb(215, 48, 39); fill-opacity: 1;"/><path class="point" transform="translate(726.4,52.01)" d="M2.5,0A2.5,2.5 0 1,1 0,-2.5A2.5,2.5 0 0,1 2.5,0Z" style="opacity: 1; stroke-width: 0px; fill: rgb(215, 48, 39); fill-opacity: 1;"/><path class="point" transform="translate(737.93,49.3)" d="M2.5,0A2.5,2.5 0 1,1 0,-2.5A2.5,2.5 0 0,1 2.5,0Z" style="opacity: 1; stroke-width: 0px; fill: rgb(215, 48, 39); fill-opacity: 1;"/><path class="point" transform="translate(740.15,45.72)" d="M2.5,0A2.5,2.5 0 1,1 0,-2.5A2.5,2.5 0 0,1 2.5,0Z" style="opacity: 1; stroke-width: 0px; fill: rgb(215, 48, 39); fill-opacity: 1;"/><path class="point" transform="translate(741.92,48.32)" d="M2.5,0A2.5,2.5 0 1,1 0,-2.5A2.5,2.5 0 0,1 2.5,0Z" style="opacity: 1; stroke-width: 0px; fill: rgb(215, 48, 39); fill-opacity: 1;"/><path class="point" transform="translate(748.79,46.59)" d="M2.5,0A2.5,2.5 0 1,1 0,-2.5A2.5,2.5 0 0,1 2.5,0Z" style="opacity: 1; stroke-width: 0px; fill: rgb(215, 48, 39); fill-opacity: 1;"/><path class="point" transform="translate(750.12,49.97)" d="M2.5,0A2.5,2.5 0 1,1 0,-2.5A2.5,2.5 0 0,1 2.5,0Z" style="opacity: 1; stroke-width: 0px; fill: rgb(215, 48, 39); fill-opacity: 1;"/><path class="point" transform="translate(755.11,52.83)" d="M2.5,0A2.5,2.5 0 1,1 0,-2.5A2.5,2.5 0 0,1 2.5,0Z" style="opacity: 1; stroke-width: 0px; fill: rgb(215, 48, 39); fill-opacity: 1;"/><path class="point" transform="translate(762.98,46.43)" d="M2.5,0A2.5,2.5 0 1,1 0,-2.5A2.5,2.5 0 0,1 2.5,0Z" style="opacity: 1; stroke-width: 0px; fill: rgb(215, 48, 39); fill-opacity: 1;"/><path class="point" transform="translate(766.52,50.23)" d="M2.5,0A2.5,2.5 0 1,1 0,-2.5A2.5,2.5 0 0,1 2.5,0Z" style="opacity: 1; stroke-width: 0px; fill: rgb(215, 48, 39); fill-opacity: 1;"/><path class="point" transform="translate(772.62,44.71)" d="M2.5,0A2.5,2.5 0 1,1 0,-2.5A2.5,2.5 0 0,1 2.5,0Z" style="opacity: 1; stroke-width: 0px; fill: rgb(215, 48, 39); fill-opacity: 1;"/><path class="point" transform="translate(774.95,53.4)" d="M2.5,0A2.5,2.5 0 1,1 0,-2.5A2.5,2.5 0 0,1 2.5,0Z" style="opacity: 1; stroke-width: 0px; fill: rgb(215, 48, 39); fill-opacity: 1;"/><path class="point" transform="translate(776.72,51.37)" d="M2.5,0A2.5,2.5 0 1,1 0,-2.5A2.5,2.5 0 0,1 2.5,0Z" style="opacity: 1; stroke-width: 0px; fill: rgb(215, 48, 39); fill-opacity: 1;"/><path class="point" transform="translate(778.05,44.46)" d="M2.5,0A2.5,2.5 0 1,1 0,-2.5A2.5,2.5 0 0,1 2.5,0Z" style="opacity: 1; stroke-width: 0px; fill: rgb(215, 48, 39); fill-opacity: 1;"/><path class="point" transform="translate(781.71,49.03)" d="M2.5,0A2.5,2.5 0 1,1 0,-2.5A2.5,2.5 0 0,1 2.5,0Z" style="opacity: 1; stroke-width: 0px; fill: rgb(215, 48, 39); fill-opacity: 1;"/><path class="point" transform="translate(802.32,50.54)" d="M2.5,0A2.5,2.5 0 1,1 0,-2.5A2.5,2.5 0 0,1 2.5,0Z" style="opacity: 1; stroke-width: 0px; fill: rgb(215, 48, 39); fill-opacity: 1;"/><path class="point" transform="translate(804.43,48.9)" d="M2.5,0A2.5,2.5 0 1,1 0,-2.5A2.5,2.5 0 0,1 2.5,0Z" style="opacity: 1; stroke-width: 0px; fill: rgb(215, 48, 39); fill-opacity: 1;"/><path class="point" transform="translate(806.09,48.2)" d="M2.5,0A2.5,2.5 0 1,1 0,-2.5A2.5,2.5 0 0,1 2.5,0Z" style="opacity: 1; stroke-width: 0px; fill: rgb(215, 48, 39); fill-opacity: 1;"/><path class="point" transform="translate(853.42,47.24)" d="M2.5,0A2.5,2.5 0 1,1 0,-2.5A2.5,2.5 0 0,1 2.5,0Z" style="opacity: 1; stroke-width: 0px; fill: rgb(215, 48, 39); fill-opacity: 1;"/><path class="point" transform="translate(894.2,47.94)" d="M2.5,0A2.5,2.5 0 1,1 0,-2.5A2.5,2.5 0 0,1 2.5,0Z" style="opacity: 1; stroke-width: 0px; fill: rgb(215, 48, 39); fill-opacity: 1;"/><path class="point" transform="translate(976.11,48.67)" d="M2.5,0A2.5,2.5 0 1,1 0,-2.5A2.5,2.5 0 0,1 2.5,0Z" style="opacity: 1; stroke-width: 0px; fill: rgb(215, 48, 39); fill-opacity: 1;"/><path class="point" transform="translate(1080.85,49.57)" d="M2.5,0A2.5,2.5 0 1,1 0,-2.5A2.5,2.5 0 0,1 2.5,0Z" style="opacity: 1; stroke-width: 0px; fill: rgb(215, 48, 39); fill-opacity: 1;"/></g></g></g></g><g class="overplot"/><path class="xlines-above crisp" d="M0,0" style="fill: none;"/><path class="ylines-above crisp" d="M0,0" style="fill: none;"/><g class="overlines-above"/><g class="xaxislayer-above"><g class="xtick"><text text-anchor="middle" x="0" y="460" transform="translate(189.5,0)" style="font-family: 'Open Sans', verdana, arial, sans-serif; font-size: 12px; fill: rgb(42, 63, 95); fill-opacity: 1; white-space: pre;">30</text></g><g class="xtick"><text text-anchor="middle" x="0" y="460" transform="translate(411.17,0)" style="font-family: 'Open Sans', verdana, arial, sans-serif; font-size: 12px; fill: rgb(42, 63, 95); fill-opacity: 1; white-space: pre;">20</text></g><g class="xtick"><text text-anchor="middle" x="0" y="460" transform="translate(632.8299999999999,0)" style="font-family: 'Open Sans', verdana, arial, sans-serif; font-size: 12px; fill: rgb(42, 63, 95); fill-opacity: 1; white-space: pre;">10</text></g><g class="xtick"><text text-anchor="middle" x="0" y="460" transform="translate(854.5,0)" style="font-family: 'Open Sans', verdana, arial, sans-serif; font-size: 12px; fill: rgb(42, 63, 95); fill-opacity: 1; white-space: pre;">0</text></g><g class="xtick"><text text-anchor="middle" x="0" y="460" transform="translate(1076.17,0)" style="font-family: 'Open Sans', verdana, arial, sans-serif; font-size: 12px; fill: rgb(42, 63, 95); fill-opacity: 1; white-space: pre;">10</text></g><g class="xtick"><text text-anchor="middle" x="0" y="460" transform="translate(1297.83,0)" style="font-family: 'Open Sans', verdana, arial, sans-serif; font-size: 12px; fill: rgb(42, 63, 95); fill-opacity: 1; white-space: pre;">20</text></g></g><g class="yaxislayer-above"><g class="ytick"><text text-anchor="end" x="122" y="4.199999999999999" transform="translate(0,427.15)" style="font-family: 'Open Sans', verdana, arial, sans-serif; font-size: 12px; fill: rgb(42, 63, 95); fill-opacity: 1; white-space: pre;">Sample 117-2_C4</text></g><g class="ytick"><text text-anchor="end" x="122" y="4.199999999999999" transform="translate(0,394.9)" style="font-family: 'Open Sans', verdana, arial, sans-serif; font-size: 12px; fill: rgb(42, 63, 95); fill-opacity: 1; white-space: pre;">Sample 7-2_F2</text></g><g class="ytick"><text text-anchor="end" x="122" y="4.199999999999999" transform="translate(0,362.64)" style="font-family: 'Open Sans', verdana, arial, sans-serif; font-size: 12px; fill: rgb(42, 63, 95); fill-opacity: 1; white-space: pre;">Sample 7-1_E2</text></g><g class="ytick"><text text-anchor="end" x="122" y="4.199999999999999" transform="translate(0,330.39)" style="font-family: 'Open Sans', verdana, arial, sans-serif; font-size: 12px; fill: rgb(42, 63, 95); fill-opacity: 1; white-space: pre;">Sample 69-1_F3</text></g><g class="ytick"><text text-anchor="end" x="122" y="4.199999999999999" transform="translate(0,298.13)" style="font-family: 'Open Sans', verdana, arial, sans-serif; font-size: 12px; fill: rgb(42, 63, 95); fill-opacity: 1; white-space: pre;">Sample 131-1_F4</text></g><g class="ytick"><text text-anchor="end" x="122" y="4.199999999999999" transform="translate(0,265.88)" style="font-family: 'Open Sans', verdana, arial, sans-serif; font-size: 12px; fill: rgb(42, 63, 95); fill-opacity: 1; white-space: pre;">Sample 11-1_A3</text></g><g class="ytick"><text text-anchor="end" x="122" y="4.199999999999999" transform="translate(0,233.62)" style="font-family: 'Open Sans', verdana, arial, sans-serif; font-size: 12px; fill: rgb(42, 63, 95); fill-opacity: 1; white-space: pre;">Sample 134-1_H4</text></g><g class="ytick"><text text-anchor="end" x="122" y="4.199999999999999" transform="translate(0,201.37)" style="font-family: 'Open Sans', verdana, arial, sans-serif; font-size: 12px; fill: rgb(42, 63, 95); fill-opacity: 1; white-space: pre;">Sample 79-2_G3</text></g><g class="ytick"><text text-anchor="end" x="122" y="4.199999999999999" transform="translate(0,169.11)" style="font-family: 'Open Sans', verdana, arial, sans-serif; font-size: 12px; fill: rgb(42, 63, 95); fill-opacity: 1; white-space: pre;">Sample 4-2_B2</text></g><g class="ytick"><text text-anchor="end" x="122" y="4.199999999999999" transform="translate(0,136.86)" style="font-family: 'Open Sans', verdana, arial, sans-serif; font-size: 12px; fill: rgb(42, 63, 95); fill-opacity: 1; white-space: pre;">Sample 4-1_B2</text></g><g class="ytick"><text text-anchor="end" x="122" y="4.199999999999999" transform="translate(0,104.6)" style="font-family: 'Open Sans', verdana, arial, sans-serif; font-size: 12px; fill: rgb(42, 63, 95); fill-opacity: 1; white-space: pre;">Sample 134-2_A5</text></g></g><g class="overaxes-above"/></g></g><g class="polarlayer"/><g class="ternarylayer"/><g class="geolayer"/><g class="funnelarealayer"/><g class="pielayer"/><g class="treemaplayer"/><g class="sunburstlayer"/><g class="glimages"/><defs id="topdefs-8306ee"><g class="clips"/></defs><g class="layer-above"><g class="imagelayer"/><g class="shapelayer"/></g><g class="infolayer"><g class="g-gtitle"/><g class="g-xtitle"><text class="xtitle" x="721.5" y="487.8" text-anchor="middle" style="font-family: 'Open Sans', verdana, arial, sans-serif; font-size: 14px; fill: rgb(42, 63, 95); opacity: 1; font-weight: normal; white-space: pre;">CpG median log likelihood ratio</text></g><g class="g-ytitle"/><g class="annotation" data-index="0" style="opacity: 1;"><g class="annotation-text-g" transform="rotate(0,854.5,35.67999999999998)"><g class="cursor-pointer" transform="translate(818, 26)"><rect class="bg" x="0.5" y="0.5" width="72" height="18" style="stroke-width: 1px; stroke: rgb(0, 0, 0); stroke-opacity: 0; fill: rgb(0, 0, 0); fill-opacity: 0;"/><text class="annotation-text" text-anchor="middle" x="36.421875" y="14" style="font-family: 'Open Sans', verdana, arial, sans-serif; font-size: 12px; fill: rgb(100, 100, 100); fill-opacity: 1; white-space: pre;">Ambiguous</text></g></g></g><g class="annotation" data-index="1" style="opacity: 1;"><g class="annotation-text-g" transform="rotate(0,477.67,35.67999999999998)"><g class="cursor-pointer" transform="translate(433, 26)"><rect class="bg" x="0.5" y="0.5" width="88" height="18" style="stroke-width: 1px; stroke: rgb(0, 0, 0); stroke-opacity: 0; fill: rgb(0, 0, 0); fill-opacity: 0;"/><text class="annotation-text" text-anchor="middle" x="44.1875" y="14" style="font-family: 'Open Sans', verdana, arial, sans-serif; font-size: 12px; fill: rgb(33, 102, 172); fill-opacity: 1; white-space: pre;">Unmethylated</text></g></g></g><g class="annotation" data-index="2" style="opacity: 1;"><g class="annotation-text-g" transform="rotate(0,1098.33,35.67999999999998)"><g class="cursor-pointer" transform="translate(1063, 26)"><rect class="bg" x="0.5" y="0.5" width="70" height="18" style="stroke-width: 1px; stroke: rgb(0, 0, 0); stroke-opacity: 0; fill: rgb(0, 0, 0); fill-opacity: 0;"/><text class="annotation-text" text-anchor="middle" x="35.21875" y="14" style="font-family: 'Open Sans', verdana, arial, sans-serif; font-size: 12px; fill: rgb(215, 48, 39); fill-opacity: 1; white-space: pre;">Methylated</text></g></g></g></g></svg>