<svg class="main-svg" xmlns="http://www.w3.org/2000/svg" xmlns:xlink="http://www.w3.org/1999/xlink" width="1400" height="500" style="" viewBox="0 0 1400 500"><rect x="0" y="0" width="1400" height="500" style="fill: rgb(255, 255, 255); fill-opacity: 1;"/><defs id="defs-59d325"><g class="clips"><clipPath id="clip59d325xyplot" class="plotclip"><rect width="1197" height="397"/></clipPath><clipPath class="axesclip" id="clip59d325x"><rect x="123" y="0" width="1197" height="500"/></clipPath><clipPath class="axesclip" id="clip59d325y"><rect x="0" y="50" width="1400" height="397"/></clipPath><clipPath class="axesclip" id="clip59d325xy"><rect x="123" y="50" width="1197" height="397"/></clipPath></g><g class="gradients"/></defs><g class="bglayer"><rect class="bg" x="123" y="50" width="1197" height="397" style="fill: rgb(0, 0, 0); fill-opacity: 0; stroke-width: 0;"/></g><g class="layer-below"><g class="imagelayer"/><g class="shapelayer"><path data-index="0" fill-rule="evenodd" d="M819.44,447H862.96V50H819.44Z" clip-path="url('#clip59d325x')" style="opacity: 0.25; stroke: rgb(0, 0, 0); stroke-opacity: 0; fill: rgb(100, 100, 100); fill-opacity: 1; stroke-width: 0px;"/></g></g><g class="cartesianlayer"><g class="subplot xy"><g class="layer-subplot"><g class="shapelayer"/><g class="imagelayer"/></g><g class="gridlayer"><g class="x"/><g class="y"><path class="ygrid crisp" transform="translate(0,427.15)" d="M123,0h1197" style="stroke: rgb(211, 211, 211); stroke-opacity: 1; stroke-width: 1px;"/><path class="ygrid crisp" transform="translate(0,394.9)" d="M123,0h1197" style="stroke: rgb(211, 211, 211); stroke-opacity: 1; stroke-width: 1px;"/><path class="ygrid crisp" transform="translate(0,362.64)" d="M123,0h1197" style="stroke: rgb(211, 211, 211); stroke-opacity: 1; stroke-width: 1px;"/><path class="ygrid crisp" transform="translate(0,330.39)" d="M123,0h1197" style="stroke: rgb(211, 211, 211); stroke-opacity: 1; stroke-width: 1px;"/><path class="ygrid crisp" transform="translate(0,298.13)" d="M123,0h1197" style="stroke: rgb(211, 211, 211); stroke-opacity: 1; stroke-width: 1px;"/><path class="ygrid crisp" transform="translate(0,265.88)" d="M123,0h1197" style="stroke: rgb(211, 211, 211); stroke-opacity: 1; stroke-width: 1px;"/><path class="ygrid crisp" transform="translate(0,233.62)" d="M123,0h1197" style="stroke: rgb(211, 211, 211); stroke-opacity: 1; stroke-width: 1px;"/><path class="ygrid crisp" transform="translate(0,201.37)" d="M123,0h1197" style="stroke: rgb(211, 211, 211); stroke-opacity: 1; stroke-width: 1px;"/><path class="ygrid crisp" transform="translate(0,169.11)" d="M123,0h1197" style="stroke: rgb(211, 211, 211); stroke-opacity: 1; stroke-width: 1px;"/><path class="ygrid crisp" transform="translate(0,136.86)" d="M123,0h1197" style="stroke: rgb(211, 211, 211); stroke-opacity: 1; stroke-width: 1px;"/><path class="ygrid crisp" transform="translate(0,104.6)" d="M123,0h1197" style="stroke: rgb(211, 211, 211); stroke-opacity: 1; stroke-width: 1px;"/></g></g><g class="zerolinelayer"/><path class="xlines-below"/><path class="ylines-below"/><g class="overlines-below"/><g class="xaxislayer-below"/><g class="yaxislayer-below"/><g class="overaxes-below"/><g class="plot" transform="translate(123, 50)" clip-path="url('#clip59d325xyplot')"><g class="violinlayer mlayer"><g class="trace violins" style="opacity: 1;"><path class="violin" d="M235.57,377.15L235.57,376.72Q245.42,376.5 250.35,376.34C255.28,376.18 260.21,375.97 265.13,375.74C270.06,375.5 274.98,375.23 279.9,374.93C284.83,374.63 289.75,374.29 294.68,373.96C299.61,373.63 304.53,373.26 309.46,372.94C314.39,372.62 319.31,372.3 324.24,372.04C329.17,371.78 334.09,371.55 339.02,371.38C343.95,371.21 348.87,371.09 353.8,371.04C358.73,370.99 363.65,371 368.58,371.05C373.51,371.1 378.43,371.21 383.36,371.34C388.28,371.47 393.21,371.65 398.13,371.82C403.06,372 407.98,372.21 412.91,372.39C417.84,372.57 422.76,372.77 427.69,372.92C432.62,373.07 437.54,373.22 442.47,373.3C447.4,373.38 452.32,373.43 457.25,373.41C462.18,373.39 467.1,373.31 472.03,373.16C476.96,373.01 481.89,372.79 486.81,372.49C491.74,372.19 496.66,371.82 501.58,371.34C506.51,370.86 511.44,370.31 516.36,369.63C521.29,368.95 526.22,368.17 531.14,367.27C536.08,366.37 541,365.33 545.92,364.23C550.86,363.12 555.78,361.88 560.7,360.63C565.63,359.38 570.55,358.02 575.48,356.73C580.41,355.44 585.33,354.09 590.26,352.88C595.18,351.68 600.09,350.49 605.03,349.49C609.94,348.5 614.87,347.59 619.81,346.9C624.73,346.21 629.66,345.66 634.59,345.33C639.51,345 644.44,344.86 649.37,344.9C654.3,344.94 659.23,345.18 664.15,345.57C669.08,345.97 674.01,346.55 678.93,347.27C683.87,347.99 688.8,348.88 693.71,349.88C698.65,350.88 703.58,352.04 708.49,353.26C713.43,354.48 718.34,355.85 723.26,357.2C728.19,358.56 733.11,360.01 738.04,361.39C742.96,362.77 747.88,364.19 752.82,365.48C757.74,366.76 762.66,368.01 767.6,369.1C772.51,370.19 777.44,371.18 782.38,372.02C787.3,372.86 792.23,373.55 797.16,374.14C802.08,374.72 807.01,375.16 811.94,375.53Q816.86,375.9 826.71,376.36L826.71,377.15" style="vector-effect: non-scaling-stroke; stroke-width: 2px; stroke: rgb(33, 102, 172); stroke-opacity: 1; fill: rgb(33, 102, 172); fill-opacity: 0.5;"/><g class="points"><path class="point" transform="translate(325.37,369.39)" d="M2.5,0A2.5,2.5 0 1,1 0,-2.5A2.5,2.5 0 0,1 2.5,0Z" style="opacity: 1; stroke-width: 0px; fill: rgb(33, 102, 172); fill-opacity: 1;"/><path class="point" transform="translate(358.88,372.43)" d="M2.5,0A2.5,2.5 0 1,1 0,-2.5A2.5,2.5 0 0,1 2.5,0Z" style="opacity: 1; stroke-width: 0px; fill: rgb(33, 102, 172); fill-opacity: 1;"/><path class="point" transform="translate(410.03,368.47)" d="M2.5,0A2.5,2.5 0 1,1 0,-2.5A2.5,2.5 0 0,1 2.5,0Z" style="opacity: 1; stroke-width: 0px; fill: rgb(33, 102, 172); fill-opacity: 1;"/><path class="point" transform="translate(502.74,373.24)" d="M2.5,0A2.5,2.5 0 1,1 0,-2.5A2.5,2.5 0 0,1 2.5,0Z" style="opacity: 1; stroke-width: 0px; fill: rgb(33, 102, 172); fill-opacity: 1;"/><path class="point" transform="translate(565.64,371.46)" d="M2.5,0A2.5,2.5 0 1,1 0,-2.5A2.5,2.5 0 0,1 2.5,0Z" style="opacity: 1; stroke-width: 0px; fill: rgb(33, 102, 172); fill-opacity: 1;"/><path class="point" transform="translate(576.74,368.99)" d="M2.5,0A2.5,2.5 0 1,1 0,-2.5A2.5,2.5 0 0,1 2.5,0Z" style="opacity: 1; stroke-width: 0px; fill: rgb(33, 102, 172); fill-opacity: 1;"/><path class="point" transform="translate(584.14,370.83)" d="M2.5,0A2.5,2.5 0 1,1 0,-2.5A2.5,2.5 0 0,1 2.5,0Z" style="opacity: 1; stroke-width: 0px; fill: rgb(33, 102, 172); fill-opacity: 1;"/><path class="point" transform="translate(597.19,369.61)" d="M2.5,0A2.5,2.5 0 1,1 0,-2.5A2.5,2.5 0 0,1 2.5,0Z" style="opacity: 1; stroke-width: 0px; fill: rgb(33, 102, 172); fill-opacity: 1;"/><path class="point" transform="translate(609.82,372.18)" d="M2.5,0A2.5,2.5 0 1,1 0,-2.5A2.5,2.5 0 0,1 2.5,0Z" style="opacity: 1; stroke-width: 0px; fill: rgb(33, 102, 172); fill-opacity: 1;"/><path class="point" transform="translate(625.49,375.14)" d="M2.5,0A2.5,2.5 0 1,1 0,-2.5A2.5,2.5 0 0,1 2.5,0Z" style="opacity: 1; stroke-width: 0px; fill: rgb(33, 102, 172); fill-opacity: 1;"/><path class="point" transform="translate(626.14,369.04)" d="M2.5,0A2.5,2.5 0 1,1 0,-2.5A2.5,2.5 0 0,1 2.5,0Z" style="opacity: 1; stroke-width: 0px; fill: rgb(33, 102, 172); fill-opacity: 1;"/><path class="point" transform="translate(633.97,372.6)" d="M2.5,0A2.5,2.5 0 1,1 0,-2.5A2.5,2.5 0 0,1 2.5,0Z" style="opacity: 1; stroke-width: 0px; fill: rgb(33, 102, 172); fill-opacity: 1;"/><path class="point" transform="translate(634.85,366.93)" d="M2.5,0A2.5,2.5 0 1,1 0,-2.5A2.5,2.5 0 0,1 2.5,0Z" style="opacity: 1; stroke-width: 0px; fill: rgb(33, 102, 172); fill-opacity: 1;"/><path class="point" transform="translate(650.95,376.88)" d="M2.5,0A2.5,2.5 0 1,1 0,-2.5A2.5,2.5 0 0,1 2.5,0Z" style="opacity: 1; stroke-width: 0px; fill: rgb(33, 102, 172); fill-opacity: 1;"/><path class="point" transform="translate(652.91,374.43)" d="M2.5,0A2.5,2.5 0 1,1 0,-2.5A2.5,2.5 0 0,1 2.5,0Z" style="opacity: 1; stroke-width: 0px; fill: rgb(33, 102, 172); fill-opacity: 1;"/><path class="point" transform="translate(659.87,365.47)" d="M2.5,0A2.5,2.5 0 1,1 0,-2.5A2.5,2.5 0 0,1 2.5,0Z" style="opacity: 1; stroke-width: 0px; fill: rgb(33, 102, 172); fill-opacity: 1;"/><path class="point" transform="translate(679.46,372.22)" d="M2.5,0A2.5,2.5 0 1,1 0,-2.5A2.5,2.5 0 0,1 2.5,0Z" style="opacity: 1; stroke-width: 0px; fill: rgb(33, 102, 172); fill-opacity: 1;"/><path class="point" transform="translate(687.73,375.5)" d="M2.5,0A2.5,2.5 0 1,1 0,-2.5A2.5,2.5 0 0,1 2.5,0Z" style="opacity: 1; stroke-width: 0px; fill: rgb(33, 102, 172); fill-opacity: 1;"/><path class="point" transform="translate(689.04,372.61)" d="M2.5,0A2.5,2.5 0 1,1 0,-2.5A2.5,2.5 0 0,1 2.5,0Z" style="opacity: 1; stroke-width: 0px; fill: rgb(33, 102, 172); fill-opacity: 1;"/><path class="point" transform="translate(702.31,370.82)" d="M2.5,0A2.5,2.5 0 1,1 0,-2.5A2.5,2.5 0 0,1 2.5,0Z" style="opacity: 1; stroke-width: 0px; fill: rgb(33, 102, 172); fill-opacity: 1;"/><path class="point" transform="translate(717.76,368.28)" d="M2.5,0A2.5,2.5 0 1,1 0,-2.5A2.5,2.5 0 0,1 2.5,0Z" style="opacity: 1; stroke-width: 0px; fill: rgb(33, 102, 172); fill-opacity: 1;"/><path class="point" transform="translate(720.59,370.06)" d="M2.5,0A2.5,2.5 0 1,1 0,-2.5A2.5,2.5 0 0,1 2.5,0Z" style="opacity: 1; stroke-width: 0px; fill: rgb(33, 102, 172); fill-opacity: 1;"/><path class="point" transform="translate(736.92,372.31)" d="M2.5,0A2.5,2.5 0 1,1 0,-2.5A2.5,2.5 0 0,1 2.5,0Z" style="opacity: 1; stroke-width: 0px; fill: rgb(33, 102, 172); fill-opacity: 1;"/></g></g><g class="trace violins" style="opacity: 1;"><path class="violin" d="M132.04,344.9L132.04,344.57Q139.03,344.42 142.52,344.31C146.01,344.2 149.51,344.07 153,343.93C156.49,343.79 159.99,343.62 163.48,343.47C166.97,343.32 170.47,343.15 173.96,343.01C177.45,342.88 180.95,342.74 184.44,342.66C187.93,342.58 191.43,342.53 194.92,342.53C198.41,342.53 201.91,342.57 205.4,342.64C208.89,342.71 212.39,342.85 215.88,342.98C219.37,343.11 222.87,343.28 226.36,343.43C229.85,343.58 233.35,343.75 236.84,343.89C240.33,344.03 243.83,344.17 247.32,344.28C250.81,344.39 254.31,344.49 257.8,344.56C261.29,344.63 264.78,344.68 268.27,344.72C271.76,344.76 275.26,344.78 278.75,344.8C282.24,344.82 285.74,344.82 289.23,344.82C292.72,344.82 296.22,344.8 299.71,344.77C303.2,344.74 306.7,344.7 310.19,344.65C313.68,344.59 317.18,344.53 320.67,344.44C324.16,344.35 327.66,344.23 331.15,344.1C334.64,343.97 338.14,343.82 341.63,343.67C345.12,343.52 348.62,343.34 352.11,343.19C355.6,343.04 359.1,342.88 362.59,342.76C366.08,342.64 369.58,342.54 373.07,342.48C376.56,342.42 380.06,342.4 383.55,342.4C387.04,342.4 390.54,342.44 394.03,342.47C397.52,342.5 401.02,342.57 404.51,342.6C408,342.63 411.5,342.65 414.99,342.63C418.48,342.61 421.98,342.57 425.47,342.49C428.96,342.41 432.46,342.29 435.95,342.16C439.44,342.03 442.94,341.87 446.43,341.73C449.92,341.58 453.42,341.42 456.91,341.29C460.4,341.17 463.9,341.06 467.39,340.98C470.88,340.91 474.38,340.86 477.87,340.84C481.36,340.82 484.85,340.84 488.34,340.87C491.83,340.9 495.33,340.97 498.82,341.02C502.31,341.07 505.81,341.15 509.3,341.17C512.79,341.19 516.29,341.2 519.78,341.16C523.27,341.12 526.77,341.05 530.26,340.9C533.75,340.75 537.25,340.55 540.74,340.28C544.24,340.01 547.73,339.69 551.22,339.3C554.72,338.91 558.21,338.46 561.7,337.96C565.2,337.46 568.69,336.9 572.18,336.28C575.68,335.66 579.17,334.99 582.66,334.24C586.16,333.49 589.66,332.68 593.14,331.77C596.64,330.86 600.14,329.87 603.62,328.79C607.13,327.7 610.62,326.51 614.1,325.27C617.6,324.02 621.09,322.64 624.58,321.33C628.07,320.02 631.55,318.61 635.06,317.42C638.53,316.25 642.02,315.05 645.54,314.25C649.01,313.46 652.52,312.82 656.02,312.64C659.5,312.47 663.04,312.64 666.5,313.19C670.02,313.75 673.53,314.79 676.98,315.99C680.52,317.22 684,318.89 687.46,320.54C690.98,322.22 694.44,324.18 697.93,325.99C701.42,327.8 704.89,329.7 708.41,331.38C711.88,333.03 715.36,334.64 718.89,336C722.35,337.34 725.85,338.52 729.37,339.51C732.84,340.48 736.34,341.26 739.85,341.9C743.33,342.54 746.83,342.98 750.33,343.36Q753.82,343.74 760.81,344.18L760.81,344.9" style="vector-effect: non-scaling-stroke; stroke-width: 2px; stroke: rgb(51, 97, 159); stroke-opacity: 1; fill: rgb(51, 97, 159); fill-opacity: 0.5;"/><g class="points"><path class="point" transform="translate(195.33,337.8)" d="M2.5,0A2.5,2.5 0 1,1 0,-2.5A2.5,2.5 0 0,1 2.5,0Z" style="opacity: 1; stroke-width: 0px; fill: rgb(51, 97, 159); fill-opacity: 1;"/><path class="point" transform="translate(378.03,339.28)" d="M2.5,0A2.5,2.5 0 1,1 0,-2.5A2.5,2.5 0 0,1 2.5,0Z" style="opacity: 1; stroke-width: 0px; fill: rgb(51, 97, 159); fill-opacity: 1;"/><path class="point" transform="translate(457.15,337.35)" d="M2.5,0A2.5,2.5 0 1,1 0,-2.5A2.5,2.5 0 0,1 2.5,0Z" style="opacity: 1; stroke-width: 0px; fill: rgb(51, 97, 159); fill-opacity: 1;"/><path class="point" transform="translate(495.88,339.71)" d="M2.5,0A2.5,2.5 0 1,1 0,-2.5A2.5,2.5 0 0,1 2.5,0Z" style="opacity: 1; stroke-width: 0px; fill: rgb(51, 97, 159); fill-opacity: 1;"/><path class="point" transform="translate(556.93,338.82)" d="M2.5,0A2.5,2.5 0 1,1 0,-2.5A2.5,2.5 0 0,1 2.5,0Z" style="opacity: 1; stroke-width: 0px; fill: rgb(51, 97, 159); fill-opacity: 1;"/><path class="point" transform="translate(583.81,337.6)" d="M2.5,0A2.5,2.5 0 1,1 0,-2.5A2.5,2.5 0 0,1 2.5,0Z" style="opacity: 1; stroke-width: 0px; fill: rgb(51, 97, 159); fill-opacity: 1;"/><path class="point" transform="translate(607.53,338.52)" d="M2.5,0A2.5,2.5 0 1,1 0,-2.5A2.5,2.5 0 0,1 2.5,0Z" style="opacity: 1; stroke-width: 0px; fill: rgb(51, 97, 159); fill-opacity: 1;"/><path class="point" transform="translate(609.6,337.73)" d="M2.5,0A2.5,2.5 0 1,1 0,-2.5A2.5,2.5 0 0,1 2.5,0Z" style="opacity: 1; stroke-width: 0px; fill: rgb(51, 97, 159); fill-opacity: 1;"/><path class="point" transform="translate(615.8,339.31)" d="M2.5,0A2.5,2.5 0 1,1 0,-2.5A2.5,2.5 0 0,1 2.5,0Z" style="opacity: 1; stroke-width: 0px; fill: rgb(51, 97, 159); fill-opacity: 1;"/><path class="point" transform="translate(645.62,340.92)" d="M2.5,0A2.5,2.5 0 1,1 0,-2.5A2.5,2.5 0 0,1 2.5,0Z" style="opacity: 1; stroke-width: 0px; fill: rgb(51, 97, 159); fill-opacity: 1;"/><path class="point" transform="translate(647.36,337.4)" d="M2.5,0A2.5,2.5 0 1,1 0,-2.5A2.5,2.5 0 0,1 2.5,0Z" style="opacity: 1; stroke-width: 0px; fill: rgb(51, 97, 159); fill-opacity: 1;"/><path class="point" transform="translate(650.19,339.95)" d="M2.5,0A2.5,2.5 0 1,1 0,-2.5A2.5,2.5 0 0,1 2.5,0Z" style="opacity: 1; stroke-width: 0px; fill: rgb(51, 97, 159); fill-opacity: 1;"/><path class="point" transform="translate(650.95,335.53)" d="M2.5,0A2.5,2.5 0 1,1 0,-2.5A2.5,2.5 0 0,1 2.5,0Z" style="opacity: 1; stroke-width: 0px; fill: rgb(51, 97, 159); fill-opacity: 1;"/><path class="point" transform="translate(656.28,343.08)" d="M2.5,0A2.5,2.5 0 1,1 0,-2.5A2.5,2.5 0 0,1 2.5,0Z" style="opacity: 1; stroke-width: 0px; fill: rgb(51, 97, 159); fill-opacity: 1;"/><path class="point" transform="translate(660.2,342.18)" d="M2.5,0A2.5,2.5 0 1,1 0,-2.5A2.5,2.5 0 0,1 2.5,0Z" style="opacity: 1; stroke-width: 0px; fill: rgb(51, 97, 159); fill-opacity: 1;"/><path class="point" transform="translate(661.61,333.16)" d="M2.5,0A2.5,2.5 0 1,1 0,-2.5A2.5,2.5 0 0,1 2.5,0Z" style="opacity: 1; stroke-width: 0px; fill: rgb(51, 97, 159); fill-opacity: 1;"/><path class="point" transform="translate(664.23,339.97)" d="M2.5,0A2.5,2.5 0 1,1 0,-2.5A2.5,2.5 0 0,1 2.5,0Z" style="opacity: 1; stroke-width: 0px; fill: rgb(51, 97, 159); fill-opacity: 1;"/><path class="point" transform="translate(665.53,342.77)" d="M2.5,0A2.5,2.5 0 1,1 0,-2.5A2.5,2.5 0 0,1 2.5,0Z" style="opacity: 1; stroke-width: 0px; fill: rgb(51, 97, 159); fill-opacity: 1;"/><path class="point" transform="translate(668.03,340.12)" d="M2.5,0A2.5,2.5 0 1,1 0,-2.5A2.5,2.5 0 0,1 2.5,0Z" style="opacity: 1; stroke-width: 0px; fill: rgb(51, 97, 159); fill-opacity: 1;"/><path class="point" transform="translate(674.02,338.55)" d="M2.5,0A2.5,2.5 0 1,1 0,-2.5A2.5,2.5 0 0,1 2.5,0Z" style="opacity: 1; stroke-width: 0px; fill: rgb(51, 97, 159); fill-opacity: 1;"/><path class="point" transform="translate(680.44,336.29)" d="M2.5,0A2.5,2.5 0 1,1 0,-2.5A2.5,2.5 0 0,1 2.5,0Z" style="opacity: 1; stroke-width: 0px; fill: rgb(51, 97, 159); fill-opacity: 1;"/><path class="point" transform="translate(682.18,337.93)" d="M2.5,0A2.5,2.5 0 1,1 0,-2.5A2.5,2.5 0 0,1 2.5,0Z" style="opacity: 1; stroke-width: 0px; fill: rgb(51, 97, 159); fill-opacity: 1;"/><path class="point" transform="translate(697.52,339.66)" d="M2.5,0A2.5,2.5 0 1,1 0,-2.5A2.5,2.5 0 0,1 2.5,0Z" style="opacity: 1; stroke-width: 0px; fill: rgb(51, 97, 159); fill-opacity: 1;"/></g></g><g class="trace violins" style="opacity: 1;"><path class="violin" d="M146.66,312.64L146.66,312.33Q155.62,312.17 160.1,312.06C164.58,311.95 169.07,311.83 173.55,311.69C178.03,311.55 182.51,311.39 186.99,311.24C191.47,311.09 195.95,310.92 200.43,310.78C204.91,310.64 209.4,310.51 213.88,310.41C218.36,310.32 222.84,310.25 227.32,310.21C231.8,310.17 236.29,310.18 240.77,310.2C245.25,310.22 249.73,310.26 254.21,310.3C258.69,310.34 263.18,310.4 267.66,310.42C272.14,310.44 276.62,310.45 281.1,310.44C285.58,310.43 290.06,310.38 294.54,310.35C299.02,310.31 303.51,310.26 307.99,310.23C312.47,310.2 316.95,310.18 321.43,310.19C325.91,310.2 330.4,310.23 334.88,310.3C339.36,310.37 343.84,310.48 348.32,310.59C352.8,310.71 357.29,310.86 361.77,310.99C366.25,311.12 370.73,311.27 375.21,311.38C379.69,311.49 384.18,311.58 388.66,311.63C393.14,311.68 397.62,311.7 402.1,311.67C406.58,311.64 411.06,311.57 415.54,311.46C420.02,311.35 424.51,311.19 428.99,311C433.47,310.81 437.95,310.58 442.43,310.33C446.91,310.08 451.4,309.8 455.88,309.51C460.36,309.22 464.84,308.91 469.32,308.6C473.8,308.29 478.29,307.96 482.77,307.64C487.25,307.32 491.73,306.98 496.21,306.67C500.69,306.36 505.18,306.05 509.66,305.77C514.14,305.5 518.62,305.25 523.1,305.02C527.58,304.8 532.06,304.61 536.54,304.42C541.02,304.22 545.51,304.09 549.99,303.85C554.47,303.61 558.95,303.39 563.43,302.99C567.92,302.58 572.41,302.12 576.88,301.42C581.37,300.72 585.86,299.85 590.32,298.78C594.82,297.7 599.31,296.37 603.77,294.97C608.27,293.56 612.73,291.88 617.21,290.34C621.69,288.79 626.15,287.09 630.65,285.7C635.11,284.33 639.59,282.95 644.1,282.06C648.55,281.19 653.05,280.54 657.54,280.39C662.02,280.24 666.53,280.53 670.99,281.17C675.5,281.81 679.98,282.98 684.43,284.25C688.95,285.54 693.41,287.26 697.88,288.9C702.38,290.55 706.83,292.44 711.32,294.12C715.79,295.8 720.26,297.51 724.77,298.99C729.23,300.45 733.71,301.8 738.21,302.95C742.67,304.08 747.16,305.02 751.65,305.84C756.12,306.65 760.61,307.28 765.1,307.85C769.57,308.41 774.06,308.83 778.54,309.23C783.02,309.63 787.51,309.94 791.99,310.24C796.47,310.54 800.95,310.79 805.43,311.02C809.91,311.25 814.4,311.44 818.88,311.61C823.36,311.78 827.84,311.92 832.32,312.04Q836.8,312.16 845.77,312.32L845.77,312.64" style="vector-effect: non-scaling-stroke; stroke-width: 2px; stroke: rgb(69, 91, 145); stroke-opacity: 1; fill: rgb(69, 91, 145); fill-opacity: 0.5;"/><g class="points"><path class="point" transform="translate(227.65,305.39)" d="M2.5,0A2.5,2.5 0 1,1 0,-2.5A2.5,2.5 0 0,1 2.5,0Z" style="opacity: 1; stroke-width: 0px; fill: rgb(69, 91, 145); fill-opacity: 1;"/><path class="point" transform="translate(326.45,307.2)" d="M2.5,0A2.5,2.5 0 1,1 0,-2.5A2.5,2.5 0 0,1 2.5,0Z" style="opacity: 1; stroke-width: 0px; fill: rgb(69, 91, 145); fill-opacity: 1;"/><path class="point" transform="translate(471.62,304.9)" d="M2.5,0A2.5,2.5 0 1,1 0,-2.5A2.5,2.5 0 0,1 2.5,0Z" style="opacity: 1; stroke-width: 0px; fill: rgb(69, 91, 145); fill-opacity: 1;"/><path class="point" transform="translate(528.86,307.68)" d="M2.5,0A2.5,2.5 0 1,1 0,-2.5A2.5,2.5 0 0,1 2.5,0Z" style="opacity: 1; stroke-width: 0px; fill: rgb(69, 91, 145); fill-opacity: 1;"/><path class="point" transform="translate(530.6,306.65)" d="M2.5,0A2.5,2.5 0 1,1 0,-2.5A2.5,2.5 0 0,1 2.5,0Z" style="opacity: 1; stroke-width: 0px; fill: rgb(69, 91, 145); fill-opacity: 1;"/><path class="point" transform="translate(559.33,305.17)" d="M2.5,0A2.5,2.5 0 1,1 0,-2.5A2.5,2.5 0 0,1 2.5,0Z" style="opacity: 1; stroke-width: 0px; fill: rgb(69, 91, 145); fill-opacity: 1;"/><path class="point" transform="translate(608.08,306.27)" d="M2.5,0A2.5,2.5 0 1,1 0,-2.5A2.5,2.5 0 0,1 2.5,0Z" style="opacity: 1; stroke-width: 0px; fill: rgb(69, 91, 145); fill-opacity: 1;"/><path class="point" transform="translate(630.27,305.34)" d="M2.5,0A2.5,2.5 0 1,1 0,-2.5A2.5,2.5 0 0,1 2.5,0Z" style="opacity: 1; stroke-width: 0px; fill: rgb(69, 91, 145); fill-opacity: 1;"/><path class="point" transform="translate(635.93,307.3)" d="M2.5,0A2.5,2.5 0 1,1 0,-2.5A2.5,2.5 0 0,1 2.5,0Z" style="opacity: 1; stroke-width: 0px; fill: rgb(69, 91, 145); fill-opacity: 1;"/><path class="point" transform="translate(643.99,308.71)" d="M2.5,0A2.5,2.5 0 1,1 0,-2.5A2.5,2.5 0 0,1 2.5,0Z" style="opacity: 1; stroke-width: 0px; fill: rgb(69, 91, 145); fill-opacity: 1;"/><path class="point" transform="translate(645.07,305.16)" d="M2.5,0A2.5,2.5 0 1,1 0,-2.5A2.5,2.5 0 0,1 2.5,0Z" style="opacity: 1; stroke-width: 0px; fill: rgb(69, 91, 145); fill-opacity: 1;"/><path class="point" transform="translate(654.43,307.89)" d="M2.5,0A2.5,2.5 0 1,1 0,-2.5A2.5,2.5 0 0,1 2.5,0Z" style="opacity: 1; stroke-width: 0px; fill: rgb(69, 91, 145); fill-opacity: 1;"/><path class="point" transform="translate(655.09,302.1)" d="M2.5,0A2.5,2.5 0 1,1 0,-2.5A2.5,2.5 0 0,1 2.5,0Z" style="opacity: 1; stroke-width: 0px; fill: rgb(69, 91, 145); fill-opacity: 1;"/><path class="point" transform="translate(660.31,312.22)" d="M2.5,0A2.5,2.5 0 1,1 0,-2.5A2.5,2.5 0 0,1 2.5,0Z" style="opacity: 1; stroke-width: 0px; fill: rgb(69, 91, 145); fill-opacity: 1;"/><path class="point" transform="translate(664.23,309.83)" d="M2.5,0A2.5,2.5 0 1,1 0,-2.5A2.5,2.5 0 0,1 2.5,0Z" style="opacity: 1; stroke-width: 0px; fill: rgb(69, 91, 145); fill-opacity: 1;"/><path class="point" transform="translate(665.31,300.94)" d="M2.5,0A2.5,2.5 0 1,1 0,-2.5A2.5,2.5 0 0,1 2.5,0Z" style="opacity: 1; stroke-width: 0px; fill: rgb(69, 91, 145); fill-opacity: 1;"/><path class="point" transform="translate(667.27,307.59)" d="M2.5,0A2.5,2.5 0 1,1 0,-2.5A2.5,2.5 0 0,1 2.5,0Z" style="opacity: 1; stroke-width: 0px; fill: rgb(69, 91, 145); fill-opacity: 1;"/><path class="point" transform="translate(668.36,309.45)" d="M2.5,0A2.5,2.5 0 1,1 0,-2.5A2.5,2.5 0 0,1 2.5,0Z" style="opacity: 1; stroke-width: 0px; fill: rgb(69, 91, 145); fill-opacity: 1;"/><path class="point" transform="translate(677.28,307.41)" d="M2.5,0A2.5,2.5 0 1,1 0,-2.5A2.5,2.5 0 0,1 2.5,0Z" style="opacity: 1; stroke-width: 0px; fill: rgb(69, 91, 145); fill-opacity: 1;"/><path class="point" transform="translate(684.03,306.27)" d="M2.5,0A2.5,2.5 0 1,1 0,-2.5A2.5,2.5 0 0,1 2.5,0Z" style="opacity: 1; stroke-width: 0px; fill: rgb(69, 91, 145); fill-opacity: 1;"/><path class="point" transform="translate(690.12,304.69)" d="M2.5,0A2.5,2.5 0 1,1 0,-2.5A2.5,2.5 0 0,1 2.5,0Z" style="opacity: 1; stroke-width: 0px; fill: rgb(69, 91, 145); fill-opacity: 1;"/><path class="point" transform="translate(705.58,305.84)" d="M2.5,0A2.5,2.5 0 1,1 0,-2.5A2.5,2.5 0 0,1 2.5,0Z" style="opacity: 1; stroke-width: 0px; fill: rgb(69, 91, 145); fill-opacity: 1;"/><path class="point" transform="translate(764.77,307)" d="M2.5,0A2.5,2.5 0 1,1 0,-2.5A2.5,2.5 0 0,1 2.5,0Z" style="opacity: 1; stroke-width: 0px; fill: rgb(69, 91, 145); fill-opacity: 1;"/></g></g><g class="trace violins" style="opacity: 1;"><path class="violin" d="M-64,280.39L-64,279.99Q-56.67,279.78 -53,279.65C-49.33,279.51 -45.67,279.35 -42,279.18C-38.33,279 -34.67,278.79 -31,278.6C-27.33,278.41 -23.67,278.2 -20,278.03C-16.33,277.86 -12.67,277.7 -9,277.6C-5.33,277.5 -1.67,277.43 2,277.43C5.67,277.43 9.33,277.48 13,277.57C16.67,277.66 20.33,277.82 24,277.99C27.66,278.15 31.33,278.37 34.99,278.56C38.66,278.75 42.32,278.96 45.99,279.14C49.66,279.32 53.32,279.48 56.99,279.62C60.66,279.76 64.32,279.88 67.99,279.97C71.66,280.06 75.32,280.12 78.99,280.18C82.66,280.23 86.32,280.27 89.99,280.3C93.66,280.33 97.32,280.34 100.99,280.35C104.66,280.36 108.32,280.36 111.99,280.37C115.66,280.37 119.32,280.38 122.99,280.38C126.66,280.38 130.32,280.39 133.99,280.39C137.65,280.39 141.32,280.39 144.98,280.39C148.65,280.39 152.31,280.39 155.98,280.39C159.65,280.39 163.31,280.39 166.98,280.39C170.65,280.39 174.31,280.39 177.98,280.39C181.65,280.39 185.31,280.39 188.98,280.39C192.65,280.39 196.31,280.39 199.98,280.39C203.65,280.39 207.31,280.39 210.98,280.39C214.65,280.39 218.31,280.39 221.98,280.39C225.65,280.39 229.31,280.39 232.98,280.39C236.65,280.39 240.31,280.39 243.98,280.39C247.64,280.39 251.31,280.38 254.97,280.38C258.64,280.38 262.3,280.37 265.97,280.37C269.64,280.36 273.3,280.36 276.97,280.35C280.64,280.34 284.3,280.32 287.97,280.29C291.64,280.26 295.3,280.22 298.97,280.17C302.64,280.11 306.3,280.05 309.97,279.96C313.64,279.86 317.3,279.74 320.97,279.6C324.64,279.46 328.3,279.29 331.97,279.11C335.64,278.93 339.3,278.71 342.97,278.5C346.63,278.3 350.3,278.07 353.96,277.88C357.63,277.69 361.29,277.5 364.96,277.35C368.63,277.2 372.29,277.07 375.96,276.98C379.63,276.89 383.29,276.84 386.96,276.79C390.63,276.74 394.29,276.73 397.96,276.7C401.63,276.67 405.29,276.64 408.96,276.6C412.63,276.55 416.29,276.5 419.96,276.43C423.63,276.36 427.29,276.27 430.96,276.19C434.63,276.11 438.29,276.01 441.96,275.93C445.63,275.85 449.29,275.78 452.96,275.73C456.62,275.68 460.29,275.65 463.95,275.63C467.62,275.61 471.28,275.63 474.95,275.64C478.62,275.65 482.28,275.69 485.95,275.72C489.62,275.75 493.28,275.81 496.95,275.82C500.62,275.83 504.28,275.85 507.95,275.81C511.62,275.77 515.28,275.71 518.95,275.57C522.62,275.43 526.29,275.24 529.95,274.95C533.62,274.66 537.29,274.3 540.95,273.84C544.62,273.37 548.29,272.81 551.95,272.16C555.62,271.5 559.29,270.74 562.95,269.91C566.62,269.08 570.28,268.14 573.94,267.18C577.61,266.22 581.27,265.18 584.94,264.16C588.61,263.14 592.27,262.08 595.94,261.07C599.6,260.06 603.27,259.05 606.94,258.09C610.6,257.13 614.27,256.2 617.94,255.29C621.6,254.39 625.27,253.49 628.94,252.66C632.6,251.83 636.26,250.99 639.94,250.32C643.6,249.65 647.26,248.99 650.94,248.63C654.6,248.27 658.28,248.02 661.94,248.13C665.61,248.24 669.29,248.63 672.93,249.3C676.62,249.98 680.29,251.04 683.93,252.21C687.63,253.4 691.28,254.94 694.93,256.41C698.61,257.89 702.25,259.58 705.93,261.07C709.58,262.55 713.24,264.05 716.93,265.31C720.57,266.55 724.24,267.66 727.93,268.57C731.58,269.47 735.25,270.15 738.93,270.75C742.59,271.35 746.26,271.74 749.93,272.16C753.59,272.57 757.26,272.88 760.93,273.24C764.6,273.61 768.27,273.96 771.93,274.35C775.6,274.74 779.26,275.18 782.92,275.6C786.59,276.03 790.25,276.48 793.92,276.9C797.59,277.31 801.25,277.74 804.92,278.09C808.58,278.44 812.25,278.76 815.92,279.02Q819.58,279.28 826.92,279.65L826.92,280.39" style="vector-effect: non-scaling-stroke; stroke-width: 2px; stroke: rgb(88, 86, 132); stroke-opacity: 1; fill: rgb(88, 86, 132); fill-opacity: 0.5;"/><g class="points"><path class="point" transform="translate(2.39,273.16)" d="M2.5,0A2.5,2.5 0 1,1 0,-2.5A2.5,2.5 0 0,1 2.5,0Z" style="opacity: 1; stroke-width: 0px; fill: rgb(88, 86, 132); fill-opacity: 1;"/><path class="point" transform="translate(375.21,274.97)" d="M2.5,0A2.5,2.5 0 1,1 0,-2.5A2.5,2.5 0 0,1 2.5,0Z" style="opacity: 1; stroke-width: 0px; fill: rgb(88, 86, 132); fill-opacity: 1;"/><path class="point" transform="translate(440.93,272.57)" d="M2.5,0A2.5,2.5 0 1,1 0,-2.5A2.5,2.5 0 0,1 2.5,0Z" style="opacity: 1; stroke-width: 0px; fill: rgb(88, 86, 132); fill-opacity: 1;"/><path class="point" transform="translate(488.92,275.5)" d="M2.5,0A2.5,2.5 0 1,1 0,-2.5A2.5,2.5 0 0,1 2.5,0Z" style="opacity: 1; stroke-width: 0px; fill: rgb(88, 86, 132); fill-opacity: 1;"/><path class="point" transform="translate(549.21,274.42)" d="M2.5,0A2.5,2.5 0 1,1 0,-2.5A2.5,2.5 0 0,1 2.5,0Z" style="opacity: 1; stroke-width: 0px; fill: rgb(88, 86, 132); fill-opacity: 1;"/><path class="point" transform="translate(587.51,272.85)" d="M2.5,0A2.5,2.5 0 1,1 0,-2.5A2.5,2.5 0 0,1 2.5,0Z" style="opacity: 1; stroke-width: 0px; fill: rgb(88, 86, 132); fill-opacity: 1;"/><path class="point" transform="translate(600.68,274.05)" d="M2.5,0A2.5,2.5 0 1,1 0,-2.5A2.5,2.5 0 0,1 2.5,0Z" style="opacity: 1; stroke-width: 0px; fill: rgb(88, 86, 132); fill-opacity: 1;"/><path class="point" transform="translate(601.55,272.93)" d="M2.5,0A2.5,2.5 0 1,1 0,-2.5A2.5,2.5 0 0,1 2.5,0Z" style="opacity: 1; stroke-width: 0px; fill: rgb(88, 86, 132); fill-opacity: 1;"/><path class="point" transform="translate(618.74,275.18)" d="M2.5,0A2.5,2.5 0 1,1 0,-2.5A2.5,2.5 0 0,1 2.5,0Z" style="opacity: 1; stroke-width: 0px; fill: rgb(88, 86, 132); fill-opacity: 1;"/><path class="point" transform="translate(621.03,277.4)" d="M2.5,0A2.5,2.5 0 1,1 0,-2.5A2.5,2.5 0 0,1 2.5,0Z" style="opacity: 1; stroke-width: 0px; fill: rgb(88, 86, 132); fill-opacity: 1;"/><path class="point" transform="translate(621.57,272.4)" d="M2.5,0A2.5,2.5 0 1,1 0,-2.5A2.5,2.5 0 0,1 2.5,0Z" style="opacity: 1; stroke-width: 0px; fill: rgb(88, 86, 132); fill-opacity: 1;"/><path class="point" transform="translate(655.52,275.97)" d="M2.5,0A2.5,2.5 0 1,1 0,-2.5A2.5,2.5 0 0,1 2.5,0Z" style="opacity: 1; stroke-width: 0px; fill: rgb(88, 86, 132); fill-opacity: 1;"/><path class="point" transform="translate(659.66,270)" d="M2.5,0A2.5,2.5 0 1,1 0,-2.5A2.5,2.5 0 0,1 2.5,0Z" style="opacity: 1; stroke-width: 0px; fill: rgb(88, 86, 132); fill-opacity: 1;"/><path class="point" transform="translate(662.59,280.22)" d="M2.5,0A2.5,2.5 0 1,1 0,-2.5A2.5,2.5 0 0,1 2.5,0Z" style="opacity: 1; stroke-width: 0px; fill: rgb(88, 86, 132); fill-opacity: 1;"/><path class="point" transform="translate(667.27,277.59)" d="M2.5,0A2.5,2.5 0 1,1 0,-2.5A2.5,2.5 0 0,1 2.5,0Z" style="opacity: 1; stroke-width: 0px; fill: rgb(88, 86, 132); fill-opacity: 1;"/><path class="point" transform="translate(667.38,268.73)" d="M2.5,0A2.5,2.5 0 1,1 0,-2.5A2.5,2.5 0 0,1 2.5,0Z" style="opacity: 1; stroke-width: 0px; fill: rgb(88, 86, 132); fill-opacity: 1;"/><path class="point" transform="translate(669.88,275.21)" d="M2.5,0A2.5,2.5 0 1,1 0,-2.5A2.5,2.5 0 0,1 2.5,0Z" style="opacity: 1; stroke-width: 0px; fill: rgb(88, 86, 132); fill-opacity: 1;"/><path class="point" transform="translate(669.99,278.32)" d="M2.5,0A2.5,2.5 0 1,1 0,-2.5A2.5,2.5 0 0,1 2.5,0Z" style="opacity: 1; stroke-width: 0px; fill: rgb(88, 86, 132); fill-opacity: 1;"/><path class="point" transform="translate(682.07,275.56)" d="M2.5,0A2.5,2.5 0 1,1 0,-2.5A2.5,2.5 0 0,1 2.5,0Z" style="opacity: 1; stroke-width: 0px; fill: rgb(88, 86, 132); fill-opacity: 1;"/><path class="point" transform="translate(687.08,274.04)" d="M2.5,0A2.5,2.5 0 1,1 0,-2.5A2.5,2.5 0 0,1 2.5,0Z" style="opacity: 1; stroke-width: 0px; fill: rgb(88, 86, 132); fill-opacity: 1;"/><path class="point" transform="translate(697.63,271.93)" d="M2.5,0A2.5,2.5 0 1,1 0,-2.5A2.5,2.5 0 0,1 2.5,0Z" style="opacity: 1; stroke-width: 0px; fill: rgb(88, 86, 132); fill-opacity: 1;"/><path class="point" transform="translate(757.37,273.47)" d="M2.5,0A2.5,2.5 0 1,1 0,-2.5A2.5,2.5 0 0,1 2.5,0Z" style="opacity: 1; stroke-width: 0px; fill: rgb(88, 86, 132); fill-opacity: 1;"/><path class="point" transform="translate(760.53,275.01)" d="M2.5,0A2.5,2.5 0 1,1 0,-2.5A2.5,2.5 0 0,1 2.5,0Z" style="opacity: 1; stroke-width: 0px; fill: rgb(88, 86, 132); fill-opacity: 1;"/></g></g><g class="trace violins" style="opacity: 1;"><path class="violin" d="M666.34,248.13L666.34,246.95Q671.81,246.26 674.52,245.7C677.26,245.14 680,244.45 682.7,243.57C685.45,242.67 688.19,241.59 690.88,240.34C693.64,239.06 696.36,237.54 699.06,235.96C701.82,234.34 704.53,232.5 707.25,230.73C709.99,228.95 712.68,227 715.43,225.28C718.13,223.59 720.83,221.85 723.61,220.48C726.29,219.16 729.02,217.95 731.79,217.18C734.48,216.43 737.25,215.97 739.98,215.88C742.7,215.79 745.46,216.11 748.16,216.62C750.91,217.14 753.64,218.05 756.34,218.99C759.09,219.95 761.8,221.17 764.52,222.32C767.26,223.48 769.97,224.76 772.71,225.92C775.43,227.07 778.15,228.23 780.89,229.24C783.6,230.24 786.33,231.16 789.07,231.97C791.78,232.77 794.52,233.46 797.25,234.09C799.97,234.72 802.7,235.23 805.43,235.76C808.16,236.29 810.89,236.74 813.62,237.25C816.35,237.76 819.08,238.26 821.8,238.8C824.53,239.34 827.25,239.92 829.98,240.5C832.71,241.08 835.43,241.7 838.16,242.28C840.89,242.86 843.62,243.45 846.35,243.97C849.07,244.49 851.8,245 854.53,245.42C857.25,245.84 859.98,246.2 862.71,246.51C865.43,246.81 868.16,247.05 870.89,247.25C873.62,247.45 876.35,247.59 879.08,247.7C881.81,247.81 884.53,247.87 887.26,247.93C889.99,247.99 892.71,248.02 895.44,248.04C898.17,248.06 900.89,248.06 903.62,248.06C906.35,248.06 909.07,248.04 911.8,248.02C914.53,248 917.26,247.97 919.99,247.92C922.72,247.87 925.44,247.8 928.17,247.71C930.9,247.62 933.62,247.52 936.35,247.39C939.08,247.26 941.8,247.11 944.53,246.94C947.26,246.77 949.99,246.57 952.72,246.38C955.45,246.19 958.17,245.97 960.9,245.78C963.63,245.59 966.35,245.39 969.08,245.22C971.81,245.05 974.53,244.9 977.26,244.78C979.99,244.66 982.71,244.57 985.44,244.51C988.17,244.45 990.9,244.44 993.63,244.45C996.36,244.46 999.08,244.51 1001.81,244.59C1004.54,244.67 1007.26,244.8 1009.99,244.94C1012.72,245.08 1015.44,245.26 1018.17,245.44C1020.9,245.62 1023.63,245.82 1026.36,246.02C1029.09,246.22 1031.81,246.43 1034.54,246.62C1037.27,246.81 1039.99,246.99 1042.72,247.14C1045.45,247.29 1048.17,247.43 1050.9,247.54Q1053.63,247.65 1059.09,247.81L1059.09,248.13" style="vector-effect: non-scaling-stroke; stroke-width: 2px; stroke: rgb(106, 80, 119); stroke-opacity: 1; fill: rgb(106, 80, 119); fill-opacity: 0.5;"/><g class="points"><path class="point" transform="translate(716.46,238.8)" d="M2.5,0A2.5,2.5 0 1,1 0,-2.5A2.5,2.5 0 0,1 2.5,0Z" style="opacity: 1; stroke-width: 0px; fill: rgb(106, 80, 119); fill-opacity: 1;"/><path class="point" transform="translate(719.29,245.35)" d="M2.5,0A2.5,2.5 0 1,1 0,-2.5A2.5,2.5 0 0,1 2.5,0Z" style="opacity: 1; stroke-width: 0px; fill: rgb(106, 80, 119); fill-opacity: 1;"/><path class="point" transform="translate(725.6,237.07)" d="M2.5,0A2.5,2.5 0 1,1 0,-2.5A2.5,2.5 0 0,1 2.5,0Z" style="opacity: 1; stroke-width: 0px; fill: rgb(106, 80, 119); fill-opacity: 1;"/><path class="point" transform="translate(727.88,246.83)" d="M2.5,0A2.5,2.5 0 1,1 0,-2.5A2.5,2.5 0 0,1 2.5,0Z" style="opacity: 1; stroke-width: 0px; fill: rgb(106, 80, 119); fill-opacity: 1;"/><path class="point" transform="translate(731.91,243.27)" d="M2.5,0A2.5,2.5 0 1,1 0,-2.5A2.5,2.5 0 0,1 2.5,0Z" style="opacity: 1; stroke-width: 0px; fill: rgb(106, 80, 119); fill-opacity: 1;"/><path class="point" transform="translate(732.56,238.53)" d="M2.5,0A2.5,2.5 0 1,1 0,-2.5A2.5,2.5 0 0,1 2.5,0Z" style="opacity: 1; stroke-width: 0px; fill: rgb(106, 80, 119); fill-opacity: 1;"/><path class="point" transform="translate(734.52,241.89)" d="M2.5,0A2.5,2.5 0 1,1 0,-2.5A2.5,2.5 0 0,1 2.5,0Z" style="opacity: 1; stroke-width: 0px; fill: rgb(106, 80, 119); fill-opacity: 1;"/><path class="point" transform="translate(736.16,239.95)" d="M2.5,0A2.5,2.5 0 1,1 0,-2.5A2.5,2.5 0 0,1 2.5,0Z" style="opacity: 1; stroke-width: 0px; fill: rgb(106, 80, 119); fill-opacity: 1;"/><path class="point" transform="translate(738,243.37)" d="M2.5,0A2.5,2.5 0 1,1 0,-2.5A2.5,2.5 0 0,1 2.5,0Z" style="opacity: 1; stroke-width: 0px; fill: rgb(106, 80, 119); fill-opacity: 1;"/><path class="point" transform="translate(738,245.54)" d="M2.5,0A2.5,2.5 0 1,1 0,-2.5A2.5,2.5 0 0,1 2.5,0Z" style="opacity: 1; stroke-width: 0px; fill: rgb(106, 80, 119); fill-opacity: 1;"/><path class="point" transform="translate(744.1,240.28)" d="M2.5,0A2.5,2.5 0 1,1 0,-2.5A2.5,2.5 0 0,1 2.5,0Z" style="opacity: 1; stroke-width: 0px; fill: rgb(106, 80, 119); fill-opacity: 1;"/><path class="point" transform="translate(749.54,243.29)" d="M2.5,0A2.5,2.5 0 1,1 0,-2.5A2.5,2.5 0 0,1 2.5,0Z" style="opacity: 1; stroke-width: 0px; fill: rgb(106, 80, 119); fill-opacity: 1;"/><path class="point" transform="translate(753.46,239.14)" d="M2.5,0A2.5,2.5 0 1,1 0,-2.5A2.5,2.5 0 0,1 2.5,0Z" style="opacity: 1; stroke-width: 0px; fill: rgb(106, 80, 119); fill-opacity: 1;"/><path class="point" transform="translate(763.25,245.35)" d="M2.5,0A2.5,2.5 0 1,1 0,-2.5A2.5,2.5 0 0,1 2.5,0Z" style="opacity: 1; stroke-width: 0px; fill: rgb(106, 80, 119); fill-opacity: 1;"/><path class="point" transform="translate(767.82,243.7)" d="M2.5,0A2.5,2.5 0 1,1 0,-2.5A2.5,2.5 0 0,1 2.5,0Z" style="opacity: 1; stroke-width: 0px; fill: rgb(106, 80, 119); fill-opacity: 1;"/><path class="point" transform="translate(768.69,238.58)" d="M2.5,0A2.5,2.5 0 1,1 0,-2.5A2.5,2.5 0 0,1 2.5,0Z" style="opacity: 1; stroke-width: 0px; fill: rgb(106, 80, 119); fill-opacity: 1;"/><path class="point" transform="translate(776.09,242.21)" d="M2.5,0A2.5,2.5 0 1,1 0,-2.5A2.5,2.5 0 0,1 2.5,0Z" style="opacity: 1; stroke-width: 0px; fill: rgb(106, 80, 119); fill-opacity: 1;"/><path class="point" transform="translate(798.4,243.38)" d="M2.5,0A2.5,2.5 0 1,1 0,-2.5A2.5,2.5 0 0,1 2.5,0Z" style="opacity: 1; stroke-width: 0px; fill: rgb(106, 80, 119); fill-opacity: 1;"/><path class="point" transform="translate(808.08,242.31)" d="M2.5,0A2.5,2.5 0 1,1 0,-2.5A2.5,2.5 0 0,1 2.5,0Z" style="opacity: 1; stroke-width: 0px; fill: rgb(106, 80, 119); fill-opacity: 1;"/><path class="point" transform="translate(820.05,241.72)" d="M2.5,0A2.5,2.5 0 1,1 0,-2.5A2.5,2.5 0 0,1 2.5,0Z" style="opacity: 1; stroke-width: 0px; fill: rgb(106, 80, 119); fill-opacity: 1;"/><path class="point" transform="translate(825.28,240.91)" d="M2.5,0A2.5,2.5 0 1,1 0,-2.5A2.5,2.5 0 0,1 2.5,0Z" style="opacity: 1; stroke-width: 0px; fill: rgb(106, 80, 119); fill-opacity: 1;"/><path class="point" transform="translate(975.01,241.5)" d="M2.5,0A2.5,2.5 0 1,1 0,-2.5A2.5,2.5 0 0,1 2.5,0Z" style="opacity: 1; stroke-width: 0px; fill: rgb(106, 80, 119); fill-opacity: 1;"/><path class="point" transform="translate(1008.96,242.11)" d="M2.5,0A2.5,2.5 0 1,1 0,-2.5A2.5,2.5 0 0,1 2.5,0Z" style="opacity: 1; stroke-width: 0px; fill: rgb(106, 80, 119); fill-opacity: 1;"/></g></g><g class="trace violins" style="opacity: 1;"><path class="violin" d="M670.79,215.88L670.79,215.15Q675.54,214.72 677.91,214.36C680.29,214 682.66,213.57 685.02,212.99C687.41,212.4 689.79,211.7 692.14,210.84C694.54,209.96 696.91,208.92 699.25,207.76C701.65,206.57 704.02,205.2 706.37,203.78C708.77,202.33 711.12,200.72 713.48,199.15C715.86,197.57 718.21,195.88 720.6,194.32C722.96,192.78 725.3,191.21 727.71,189.87C730.05,188.57 732.42,187.31 734.83,186.36C737.17,185.44 739.55,184.68 741.95,184.22C744.3,183.77 746.69,183.57 749.06,183.62C751.44,183.67 753.83,184.03 756.18,184.54C758.57,185.06 760.95,185.86 763.29,186.75C765.69,187.66 768.06,188.79 770.41,189.94C772.8,191.11 775.15,192.44 777.52,193.72C779.9,195.01 782.26,196.38 784.64,197.65C787,198.91 789.36,200.18 791.75,201.29C794.1,202.38 796.47,203.42 798.87,204.28C801.22,205.13 803.59,205.84 805.98,206.43C808.34,207.01 810.72,207.42 813.1,207.78C815.46,208.13 817.84,208.35 820.21,208.57C822.58,208.79 824.96,208.93 827.33,209.11C829.7,209.29 832.08,209.46 834.45,209.65C836.82,209.84 839.19,210.06 841.56,210.27C843.93,210.49 846.31,210.73 848.68,210.94C851.05,211.15 853.42,211.35 855.79,211.51C858.16,211.67 860.54,211.8 862.91,211.91C865.28,212.02 867.65,212.09 870.02,212.15C872.39,212.21 874.77,212.24 877.14,212.28C879.51,212.32 881.88,212.35 884.25,212.37C886.62,212.4 889,212.41 891.37,212.43C893.74,212.45 896.11,212.46 898.48,212.48C900.85,212.5 903.23,212.52 905.6,212.56C907.97,212.6 910.34,212.64 912.71,212.72C915.08,212.8 917.46,212.9 919.83,213.02C922.2,213.14 924.58,213.29 926.95,213.46C929.32,213.62 931.69,213.83 934.06,214.01C936.43,214.19 938.81,214.39 941.18,214.56C943.55,214.73 945.92,214.9 948.29,215.03C950.66,215.16 953.04,215.27 955.41,215.36C957.78,215.45 960.15,215.51 962.52,215.55C964.89,215.59 967.27,215.59 969.64,215.57C972.01,215.55 974.38,215.52 976.75,215.45C979.12,215.38 981.5,215.29 983.87,215.17C986.24,215.06 988.61,214.91 990.98,214.76C993.35,214.61 995.73,214.43 998.1,214.26C1000.47,214.1 1002.85,213.91 1005.22,213.77C1007.59,213.63 1009.96,213.49 1012.33,213.41C1014.7,213.33 1017.08,213.28 1019.45,213.29C1021.82,213.3 1024.19,213.36 1026.56,213.45C1028.93,213.54 1031.31,213.68 1033.68,213.83C1036.05,213.98 1038.42,214.17 1040.79,214.33C1043.16,214.5 1045.54,214.67 1047.91,214.82C1050.28,214.97 1052.65,215.12 1055.02,215.24Q1057.39,215.36 1062.14,215.53L1062.14,215.88" style="vector-effect: non-scaling-stroke; stroke-width: 2px; stroke: rgb(124, 75, 106); stroke-opacity: 1; fill: rgb(124, 75, 106); fill-opacity: 0.5;"/><g class="points"><path class="point" transform="translate(713.96,206.66)" d="M2.5,0A2.5,2.5 0 1,1 0,-2.5A2.5,2.5 0 0,1 2.5,0Z" style="opacity: 1; stroke-width: 0px; fill: rgb(124, 75, 106); fill-opacity: 1;"/><path class="point" transform="translate(722.66,212.78)" d="M2.5,0A2.5,2.5 0 1,1 0,-2.5A2.5,2.5 0 0,1 2.5,0Z" style="opacity: 1; stroke-width: 0px; fill: rgb(124, 75, 106); fill-opacity: 1;"/><path class="point" transform="translate(728.1,205.02)" d="M2.5,0A2.5,2.5 0 1,1 0,-2.5A2.5,2.5 0 0,1 2.5,0Z" style="opacity: 1; stroke-width: 0px; fill: rgb(124, 75, 106); fill-opacity: 1;"/><path class="point" transform="translate(728.32,214.33)" d="M2.5,0A2.5,2.5 0 1,1 0,-2.5A2.5,2.5 0 0,1 2.5,0Z" style="opacity: 1; stroke-width: 0px; fill: rgb(124, 75, 106); fill-opacity: 1;"/><path class="point" transform="translate(734.2,210.94)" d="M2.5,0A2.5,2.5 0 1,1 0,-2.5A2.5,2.5 0 0,1 2.5,0Z" style="opacity: 1; stroke-width: 0px; fill: rgb(124, 75, 106); fill-opacity: 1;"/><path class="point" transform="translate(738,206.38)" d="M2.5,0A2.5,2.5 0 1,1 0,-2.5A2.5,2.5 0 0,1 2.5,0Z" style="opacity: 1; stroke-width: 0px; fill: rgb(124, 75, 106); fill-opacity: 1;"/><path class="point" transform="translate(743.55,209.66)" d="M2.5,0A2.5,2.5 0 1,1 0,-2.5A2.5,2.5 0 0,1 2.5,0Z" style="opacity: 1; stroke-width: 0px; fill: rgb(124, 75, 106); fill-opacity: 1;"/><path class="point" transform="translate(743.66,207.6)" d="M2.5,0A2.5,2.5 0 1,1 0,-2.5A2.5,2.5 0 0,1 2.5,0Z" style="opacity: 1; stroke-width: 0px; fill: rgb(124, 75, 106); fill-opacity: 1;"/><path class="point" transform="translate(746.49,211.24)" d="M2.5,0A2.5,2.5 0 1,1 0,-2.5A2.5,2.5 0 0,1 2.5,0Z" style="opacity: 1; stroke-width: 0px; fill: rgb(124, 75, 106); fill-opacity: 1;"/><path class="point" transform="translate(746.71,213.76)" d="M2.5,0A2.5,2.5 0 1,1 0,-2.5A2.5,2.5 0 0,1 2.5,0Z" style="opacity: 1; stroke-width: 0px; fill: rgb(124, 75, 106); fill-opacity: 1;"/><path class="point" transform="translate(754.65,207.79)" d="M2.5,0A2.5,2.5 0 1,1 0,-2.5A2.5,2.5 0 0,1 2.5,0Z" style="opacity: 1; stroke-width: 0px; fill: rgb(124, 75, 106); fill-opacity: 1;"/><path class="point" transform="translate(757.92,211.55)" d="M2.5,0A2.5,2.5 0 1,1 0,-2.5A2.5,2.5 0 0,1 2.5,0Z" style="opacity: 1; stroke-width: 0px; fill: rgb(124, 75, 106); fill-opacity: 1;"/><path class="point" transform="translate(762.6,206.18)" d="M2.5,0A2.5,2.5 0 1,1 0,-2.5A2.5,2.5 0 0,1 2.5,0Z" style="opacity: 1; stroke-width: 0px; fill: rgb(124, 75, 106); fill-opacity: 1;"/><path class="point" transform="translate(770.87,213.38)" d="M2.5,0A2.5,2.5 0 1,1 0,-2.5A2.5,2.5 0 0,1 2.5,0Z" style="opacity: 1; stroke-width: 0px; fill: rgb(124, 75, 106); fill-opacity: 1;"/><path class="point" transform="translate(773.26,211.76)" d="M2.5,0A2.5,2.5 0 1,1 0,-2.5A2.5,2.5 0 0,1 2.5,0Z" style="opacity: 1; stroke-width: 0px; fill: rgb(124, 75, 106); fill-opacity: 1;"/><path class="point" transform="translate(774.57,206.45)" d="M2.5,0A2.5,2.5 0 1,1 0,-2.5A2.5,2.5 0 0,1 2.5,0Z" style="opacity: 1; stroke-width: 0px; fill: rgb(124, 75, 106); fill-opacity: 1;"/><path class="point" transform="translate(776.42,210.16)" d="M2.5,0A2.5,2.5 0 1,1 0,-2.5A2.5,2.5 0 0,1 2.5,0Z" style="opacity: 1; stroke-width: 0px; fill: rgb(124, 75, 106); fill-opacity: 1;"/><path class="point" transform="translate(795.68,211.41)" d="M2.5,0A2.5,2.5 0 1,1 0,-2.5A2.5,2.5 0 0,1 2.5,0Z" style="opacity: 1; stroke-width: 0px; fill: rgb(124, 75, 106); fill-opacity: 1;"/><path class="point" transform="translate(829.52,210.16)" d="M2.5,0A2.5,2.5 0 1,1 0,-2.5A2.5,2.5 0 0,1 2.5,0Z" style="opacity: 1; stroke-width: 0px; fill: rgb(124, 75, 106); fill-opacity: 1;"/><path class="point" transform="translate(830.83,209.47)" d="M2.5,0A2.5,2.5 0 1,1 0,-2.5A2.5,2.5 0 0,1 2.5,0Z" style="opacity: 1; stroke-width: 0px; fill: rgb(124, 75, 106); fill-opacity: 1;"/><path class="point" transform="translate(875.66,208.54)" d="M2.5,0A2.5,2.5 0 1,1 0,-2.5A2.5,2.5 0 0,1 2.5,0Z" style="opacity: 1; stroke-width: 0px; fill: rgb(124, 75, 106); fill-opacity: 1;"/><path class="point" transform="translate(915.71,209.22)" d="M2.5,0A2.5,2.5 0 1,1 0,-2.5A2.5,2.5 0 0,1 2.5,0Z" style="opacity: 1; stroke-width: 0px; fill: rgb(124, 75, 106); fill-opacity: 1;"/><path class="point" transform="translate(1018.97,209.92)" d="M2.5,0A2.5,2.5 0 1,1 0,-2.5A2.5,2.5 0 0,1 2.5,0Z" style="opacity: 1; stroke-width: 0px; fill: rgb(124, 75, 106); fill-opacity: 1;"/></g></g><g class="trace violins" style="opacity: 1;"><path class="violin" d="M648.31,183.62L648.31,181.94Q656.58,180.98 660.69,180.24C664.83,179.49 668.96,178.59 673.06,177.46C677.21,176.32 681.34,174.94 685.44,173.42C689.6,171.88 693.71,170.07 697.82,168.26C701.96,166.44 706.06,164.39 710.19,162.54C714.31,160.69 718.4,158.73 722.57,157.16C726.66,155.62 730.78,154.15 734.95,153.18C739.04,152.23 743.19,151.57 747.32,151.37C751.44,151.17 755.6,151.45 759.7,151.99C763.85,152.54 767.98,153.58 772.08,154.66C776.23,155.76 780.33,157.2 784.45,158.55C788.58,159.9 792.69,161.42 796.83,162.76C800.95,164.1 805.07,165.43 809.21,166.6C813.32,167.76 817.44,168.82 821.58,169.77C825.69,170.72 829.83,171.53 833.96,172.29C838.08,173.05 842.21,173.71 846.34,174.32C850.46,174.93 854.58,175.47 858.71,175.97C862.83,176.47 866.96,176.91 871.09,177.3C875.21,177.69 879.34,178.03 883.47,178.32C887.59,178.61 891.71,178.85 895.84,179.05C899.96,179.25 904.09,179.39 908.22,179.52C912.35,179.64 916.47,179.73 920.6,179.8C924.72,179.87 928.85,179.9 932.97,179.93C937.1,179.96 941.22,179.96 945.35,179.96C949.48,179.96 953.6,179.95 957.73,179.95C961.85,179.95 965.98,179.94 970.1,179.94C974.23,179.94 978.35,179.94 982.48,179.96C986.61,179.98 990.73,180.01 994.86,180.06C998.98,180.11 1003.11,180.17 1007.23,180.25C1011.36,180.34 1015.48,180.44 1019.61,180.57C1023.74,180.7 1027.86,180.85 1031.99,181.02C1036.11,181.18 1040.24,181.38 1044.36,181.56C1048.49,181.74 1052.61,181.94 1056.74,182.12C1060.87,182.3 1064.99,182.48 1069.12,182.63C1073.24,182.78 1077.37,182.92 1081.49,183.03Q1085.62,183.14 1093.87,183.3L1093.87,183.62" style="vector-effect: non-scaling-stroke; stroke-width: 2px; stroke: rgb(142, 70, 92); stroke-opacity: 1; fill: rgb(142, 70, 92); fill-opacity: 0.5;"/><g class="points"><path class="point" transform="translate(723.42,173.82)" d="M2.5,0A2.5,2.5 0 1,1 0,-2.5A2.5,2.5 0 0,1 2.5,0Z" style="opacity: 1; stroke-width: 0px; fill: rgb(142, 70, 92); fill-opacity: 1;"/><path class="point" transform="translate(725.38,180.53)" d="M2.5,0A2.5,2.5 0 1,1 0,-2.5A2.5,2.5 0 0,1 2.5,0Z" style="opacity: 1; stroke-width: 0px; fill: rgb(142, 70, 92); fill-opacity: 1;"/><path class="point" transform="translate(727.67,172.78)" d="M2.5,0A2.5,2.5 0 1,1 0,-2.5A2.5,2.5 0 0,1 2.5,0Z" style="opacity: 1; stroke-width: 0px; fill: rgb(142, 70, 92); fill-opacity: 1;"/><path class="point" transform="translate(733.22,181.95)" d="M2.5,0A2.5,2.5 0 1,1 0,-2.5A2.5,2.5 0 0,1 2.5,0Z" style="opacity: 1; stroke-width: 0px; fill: rgb(142, 70, 92); fill-opacity: 1;"/><path class="point" transform="translate(734.96,178.58)" d="M2.5,0A2.5,2.5 0 1,1 0,-2.5A2.5,2.5 0 0,1 2.5,0Z" style="opacity: 1; stroke-width: 0px; fill: rgb(142, 70, 92); fill-opacity: 1;"/><path class="point" transform="translate(736.26,174.38)" d="M2.5,0A2.5,2.5 0 1,1 0,-2.5A2.5,2.5 0 0,1 2.5,0Z" style="opacity: 1; stroke-width: 0px; fill: rgb(142, 70, 92); fill-opacity: 1;"/><path class="point" transform="translate(746.49,177.37)" d="M2.5,0A2.5,2.5 0 1,1 0,-2.5A2.5,2.5 0 0,1 2.5,0Z" style="opacity: 1; stroke-width: 0px; fill: rgb(142, 70, 92); fill-opacity: 1;"/><path class="point" transform="translate(746.71,175.72)" d="M2.5,0A2.5,2.5 0 1,1 0,-2.5A2.5,2.5 0 0,1 2.5,0Z" style="opacity: 1; stroke-width: 0px; fill: rgb(142, 70, 92); fill-opacity: 1;"/><path class="point" transform="translate(750.19,178.85)" d="M2.5,0A2.5,2.5 0 1,1 0,-2.5A2.5,2.5 0 0,1 2.5,0Z" style="opacity: 1; stroke-width: 0px; fill: rgb(142, 70, 92); fill-opacity: 1;"/><path class="point" transform="translate(752.7,180.64)" d="M2.5,0A2.5,2.5 0 1,1 0,-2.5A2.5,2.5 0 0,1 2.5,0Z" style="opacity: 1; stroke-width: 0px; fill: rgb(142, 70, 92); fill-opacity: 1;"/><path class="point" transform="translate(761.29,176.23)" d="M2.5,0A2.5,2.5 0 1,1 0,-2.5A2.5,2.5 0 0,1 2.5,0Z" style="opacity: 1; stroke-width: 0px; fill: rgb(142, 70, 92); fill-opacity: 1;"/><path class="point" transform="translate(764.67,178.35)" d="M2.5,0A2.5,2.5 0 1,1 0,-2.5A2.5,2.5 0 0,1 2.5,0Z" style="opacity: 1; stroke-width: 0px; fill: rgb(142, 70, 92); fill-opacity: 1;"/><path class="point" transform="translate(770.11,175.04)" d="M2.5,0A2.5,2.5 0 1,1 0,-2.5A2.5,2.5 0 0,1 2.5,0Z" style="opacity: 1; stroke-width: 0px; fill: rgb(142, 70, 92); fill-opacity: 1;"/><path class="point" transform="translate(771.74,179.78)" d="M2.5,0A2.5,2.5 0 1,1 0,-2.5A2.5,2.5 0 0,1 2.5,0Z" style="opacity: 1; stroke-width: 0px; fill: rgb(142, 70, 92); fill-opacity: 1;"/><path class="point" transform="translate(782.62,178.48)" d="M2.5,0A2.5,2.5 0 1,1 0,-2.5A2.5,2.5 0 0,1 2.5,0Z" style="opacity: 1; stroke-width: 0px; fill: rgb(142, 70, 92); fill-opacity: 1;"/><path class="point" transform="translate(821.9,175.37)" d="M2.5,0A2.5,2.5 0 1,1 0,-2.5A2.5,2.5 0 0,1 2.5,0Z" style="opacity: 1; stroke-width: 0px; fill: rgb(142, 70, 92); fill-opacity: 1;"/><path class="point" transform="translate(829.85,177.66)" d="M2.5,0A2.5,2.5 0 1,1 0,-2.5A2.5,2.5 0 0,1 2.5,0Z" style="opacity: 1; stroke-width: 0px; fill: rgb(142, 70, 92); fill-opacity: 1;"/><path class="point" transform="translate(840.84,178.76)" d="M2.5,0A2.5,2.5 0 1,1 0,-2.5A2.5,2.5 0 0,1 2.5,0Z" style="opacity: 1; stroke-width: 0px; fill: rgb(142, 70, 92); fill-opacity: 1;"/><path class="point" transform="translate(898.62,177.75)" d="M2.5,0A2.5,2.5 0 1,1 0,-2.5A2.5,2.5 0 0,1 2.5,0Z" style="opacity: 1; stroke-width: 0px; fill: rgb(142, 70, 92); fill-opacity: 1;"/><path class="point" transform="translate(960.97,177.21)" d="M2.5,0A2.5,2.5 0 1,1 0,-2.5A2.5,2.5 0 0,1 2.5,0Z" style="opacity: 1; stroke-width: 0px; fill: rgb(142, 70, 92); fill-opacity: 1;"/><path class="point" transform="translate(1018.76,176.43)" d="M2.5,0A2.5,2.5 0 1,1 0,-2.5A2.5,2.5 0 0,1 2.5,0Z" style="opacity: 1; stroke-width: 0px; fill: rgb(142, 70, 92); fill-opacity: 1;"/></g></g><g class="trace violins" style="opacity: 1;"><path class="violin" d="M666.02,151.37L666.02,150.45Q671.65,149.9 674.45,149.46C677.27,149.01 680.08,148.48 682.87,147.77C685.7,147.05 688.51,146.17 691.29,145.14C694.13,144.08 696.94,142.83 699.72,141.48C702.56,140.1 705.35,138.51 708.14,136.92C710.96,135.31 713.75,133.54 716.56,131.88C719.36,130.22 722.14,128.48 724.98,126.97C727.76,125.49 730.56,124.04 733.41,122.91C736.18,121.81 738.99,120.85 741.83,120.22C744.61,119.6 747.44,119.24 750.25,119.11C753.05,118.98 755.88,119.16 758.68,119.46C761.5,119.76 764.31,120.31 767.1,120.9C769.92,121.5 772.72,122.26 775.52,123.05C778.34,123.84 781.14,124.73 783.94,125.64C786.76,126.55 789.57,127.52 792.37,128.52C795.18,129.52 797.99,130.58 800.79,131.63C803.6,132.68 806.4,133.78 809.21,134.83C812.02,135.88 814.82,136.96 817.64,137.95C820.44,138.93 823.24,139.88 826.06,140.73C828.86,141.57 831.66,142.35 834.48,143.01C837.28,143.67 840.09,144.22 842.91,144.7C845.71,145.17 848.52,145.54 851.33,145.86C854.13,146.17 856.94,146.39 859.75,146.59C862.56,146.79 865.36,146.91 868.17,147.04C870.98,147.17 873.79,147.26 876.6,147.35C879.41,147.44 882.21,147.52 885.02,147.6C887.83,147.68 890.63,147.76 893.44,147.83C896.25,147.9 899.06,147.96 901.87,148C904.68,148.04 907.48,148.06 910.29,148.05C913.1,148.04 915.9,147.98 918.71,147.91C921.52,147.84 924.33,147.73 927.14,147.62C929.95,147.51 932.75,147.36 935.56,147.25C938.37,147.14 941.17,147.01 943.98,146.94C946.79,146.87 949.59,146.82 952.4,146.82C955.21,146.82 958.02,146.87 960.83,146.96C963.64,147.05 966.44,147.21 969.25,147.38C972.06,147.56 974.86,147.78 977.67,148.01C980.48,148.24 983.29,148.51 986.1,148.76C988.91,149.01 991.71,149.28 994.52,149.52C997.33,149.75 1000.13,149.98 1002.94,150.17C1005.75,150.36 1008.56,150.52 1011.37,150.66Q1014.18,150.8 1019.79,150.99L1019.79,151.37" style="vector-effect: non-scaling-stroke; stroke-width: 2px; stroke: rgb(160, 64, 79); stroke-opacity: 1; fill: rgb(160, 64, 79); fill-opacity: 0.5;"/><g class="points"><path class="point" transform="translate(716.79,141.85)" d="M2.5,0A2.5,2.5 0 1,1 0,-2.5A2.5,2.5 0 0,1 2.5,0Z" style="opacity: 1; stroke-width: 0px; fill: rgb(160, 64, 79); fill-opacity: 1;"/><path class="point" transform="translate(721.79,148.84)" d="M2.5,0A2.5,2.5 0 1,1 0,-2.5A2.5,2.5 0 0,1 2.5,0Z" style="opacity: 1; stroke-width: 0px; fill: rgb(160, 64, 79); fill-opacity: 1;"/><path class="point" transform="translate(729.84,140.02)" d="M2.5,0A2.5,2.5 0 1,1 0,-2.5A2.5,2.5 0 0,1 2.5,0Z" style="opacity: 1; stroke-width: 0px; fill: rgb(160, 64, 79); fill-opacity: 1;"/><path class="point" transform="translate(736.37,150.21)" d="M2.5,0A2.5,2.5 0 1,1 0,-2.5A2.5,2.5 0 0,1 2.5,0Z" style="opacity: 1; stroke-width: 0px; fill: rgb(160, 64, 79); fill-opacity: 1;"/><path class="point" transform="translate(738,146.47)" d="M2.5,0A2.5,2.5 0 1,1 0,-2.5A2.5,2.5 0 0,1 2.5,0Z" style="opacity: 1; stroke-width: 0px; fill: rgb(160, 64, 79); fill-opacity: 1;"/><path class="point" transform="translate(739.96,141.9)" d="M2.5,0A2.5,2.5 0 1,1 0,-2.5A2.5,2.5 0 0,1 2.5,0Z" style="opacity: 1; stroke-width: 0px; fill: rgb(160, 64, 79); fill-opacity: 1;"/><path class="point" transform="translate(742.36,145.14)" d="M2.5,0A2.5,2.5 0 1,1 0,-2.5A2.5,2.5 0 0,1 2.5,0Z" style="opacity: 1; stroke-width: 0px; fill: rgb(160, 64, 79); fill-opacity: 1;"/><path class="point" transform="translate(745.19,143.05)" d="M2.5,0A2.5,2.5 0 1,1 0,-2.5A2.5,2.5 0 0,1 2.5,0Z" style="opacity: 1; stroke-width: 0px; fill: rgb(160, 64, 79); fill-opacity: 1;"/><path class="point" transform="translate(749.76,146.91)" d="M2.5,0A2.5,2.5 0 1,1 0,-2.5A2.5,2.5 0 0,1 2.5,0Z" style="opacity: 1; stroke-width: 0px; fill: rgb(160, 64, 79); fill-opacity: 1;"/><path class="point" transform="translate(753.46,149.11)" d="M2.5,0A2.5,2.5 0 1,1 0,-2.5A2.5,2.5 0 0,1 2.5,0Z" style="opacity: 1; stroke-width: 0px; fill: rgb(160, 64, 79); fill-opacity: 1;"/><path class="point" transform="translate(765.64,143.42)" d="M2.5,0A2.5,2.5 0 1,1 0,-2.5A2.5,2.5 0 0,1 2.5,0Z" style="opacity: 1; stroke-width: 0px; fill: rgb(160, 64, 79); fill-opacity: 1;"/><path class="point" transform="translate(765.64,146.64)" d="M2.5,0A2.5,2.5 0 1,1 0,-2.5A2.5,2.5 0 0,1 2.5,0Z" style="opacity: 1; stroke-width: 0px; fill: rgb(160, 64, 79); fill-opacity: 1;"/><path class="point" transform="translate(768.69,141.51)" d="M2.5,0A2.5,2.5 0 1,1 0,-2.5A2.5,2.5 0 0,1 2.5,0Z" style="opacity: 1; stroke-width: 0px; fill: rgb(160, 64, 79); fill-opacity: 1;"/><path class="point" transform="translate(777.94,149.88)" d="M2.5,0A2.5,2.5 0 1,1 0,-2.5A2.5,2.5 0 0,1 2.5,0Z" style="opacity: 1; stroke-width: 0px; fill: rgb(160, 64, 79); fill-opacity: 1;"/><path class="point" transform="translate(787.52,147.34)" d="M2.5,0A2.5,2.5 0 1,1 0,-2.5A2.5,2.5 0 0,1 2.5,0Z" style="opacity: 1; stroke-width: 0px; fill: rgb(160, 64, 79); fill-opacity: 1;"/><path class="point" transform="translate(791.43,141.68)" d="M2.5,0A2.5,2.5 0 1,1 0,-2.5A2.5,2.5 0 0,1 2.5,0Z" style="opacity: 1; stroke-width: 0px; fill: rgb(160, 64, 79); fill-opacity: 1;"/><path class="point" transform="translate(801.01,145.68)" d="M2.5,0A2.5,2.5 0 1,1 0,-2.5A2.5,2.5 0 0,1 2.5,0Z" style="opacity: 1; stroke-width: 0px; fill: rgb(160, 64, 79); fill-opacity: 1;"/><path class="point" transform="translate(801.12,147.36)" d="M2.5,0A2.5,2.5 0 1,1 0,-2.5A2.5,2.5 0 0,1 2.5,0Z" style="opacity: 1; stroke-width: 0px; fill: rgb(160, 64, 79); fill-opacity: 1;"/><path class="point" transform="translate(812,145.83)" d="M2.5,0A2.5,2.5 0 1,1 0,-2.5A2.5,2.5 0 0,1 2.5,0Z" style="opacity: 1; stroke-width: 0px; fill: rgb(160, 64, 79); fill-opacity: 1;"/><path class="point" transform="translate(845.3,144.97)" d="M2.5,0A2.5,2.5 0 1,1 0,-2.5A2.5,2.5 0 0,1 2.5,0Z" style="opacity: 1; stroke-width: 0px; fill: rgb(160, 64, 79); fill-opacity: 1;"/><path class="point" transform="translate(886,143.78)" d="M2.5,0A2.5,2.5 0 1,1 0,-2.5A2.5,2.5 0 0,1 2.5,0Z" style="opacity: 1; stroke-width: 0px; fill: rgb(160, 64, 79); fill-opacity: 1;"/><path class="point" transform="translate(939.54,144.65)" d="M2.5,0A2.5,2.5 0 1,1 0,-2.5A2.5,2.5 0 0,1 2.5,0Z" style="opacity: 1; stroke-width: 0px; fill: rgb(160, 64, 79); fill-opacity: 1;"/><path class="point" transform="translate(969.03,145.54)" d="M2.5,0A2.5,2.5 0 1,1 0,-2.5A2.5,2.5 0 0,1 2.5,0Z" style="opacity: 1; stroke-width: 0px; fill: rgb(160, 64, 79); fill-opacity: 1;"/></g></g><g class="trace violins" style="opacity: 1;"><path class="violin" d="M674.98,119.11L674.98,118.55Q679.68,118.24 682.02,117.98C684.37,117.72 686.71,117.4 689.05,116.98C691.4,116.55 693.76,116.06 696.09,115.43C698.45,114.79 700.8,114.04 703.13,113.17C705.5,112.28 707.85,111.25 710.17,110.13C712.54,108.99 714.87,107.69 717.2,106.36C719.56,105.01 721.9,103.52 724.24,102.06C726.59,100.59 728.92,99.02 731.28,97.56C733.61,96.12 735.94,94.64 738.31,93.36C740.63,92.11 742.97,90.9 745.35,89.95C747.66,89.03 750.02,88.23 752.39,87.71C754.71,87.21 757.07,86.91 759.42,86.86C761.76,86.81 764.13,87.03 766.46,87.43C768.82,87.83 771.18,88.51 773.5,89.28C775.87,90.07 778.21,91.1 780.53,92.15C782.9,93.22 785.23,94.46 787.57,95.65C789.92,96.85 792.25,98.13 794.61,99.31C796.95,100.48 799.29,101.66 801.65,102.71C803.98,103.75 806.32,104.72 808.68,105.6C811.01,106.47 813.36,107.23 815.72,107.95C818.06,108.66 820.41,109.29 822.76,109.88C825.1,110.47 827.44,111 829.79,111.5C832.13,112 834.48,112.47 836.83,112.89C839.17,113.31 841.52,113.68 843.87,114C846.21,114.32 848.55,114.58 850.9,114.81C853.24,115.03 855.59,115.19 857.94,115.35C860.29,115.5 862.63,115.61 864.98,115.74C867.32,115.87 869.67,115.98 872.01,116.12C874.36,116.26 876.7,116.41 879.05,116.58C881.4,116.75 883.74,116.94 886.09,117.12C888.44,117.31 890.78,117.51 893.13,117.69C895.47,117.87 897.82,118.04 900.16,118.19C902.51,118.34 904.85,118.47 907.2,118.58C909.55,118.69 911.89,118.76 914.24,118.83C916.58,118.9 918.93,118.94 921.27,118.98C923.62,119.02 925.96,119.04 928.31,119.05C930.66,119.06 933,119.07 935.35,119.07C937.69,119.07 940.04,119.06 942.38,119.04C944.73,119.02 947.07,119 949.42,118.96C951.77,118.92 954.11,118.87 956.46,118.79C958.8,118.71 961.15,118.62 963.49,118.5C965.84,118.38 968.18,118.23 970.53,118.06C972.88,117.89 975.22,117.68 977.57,117.46C979.92,117.24 982.26,116.99 984.61,116.75C986.95,116.51 989.3,116.25 991.64,116.03C993.99,115.8 996.33,115.58 998.68,115.4C1001.03,115.22 1003.37,115.06 1005.72,114.96C1008.06,114.86 1010.41,114.79 1012.75,114.78C1015.1,114.77 1017.44,114.82 1019.79,114.9C1022.14,114.98 1024.49,115.13 1026.83,115.29C1029.18,115.46 1031.52,115.67 1033.86,115.89C1036.21,116.11 1038.55,116.36 1040.9,116.6C1043.25,116.84 1045.59,117.09 1047.94,117.32C1050.28,117.54 1052.62,117.77 1054.97,117.95C1057.31,118.13 1059.66,118.29 1062.01,118.42Q1064.36,118.55 1069.05,118.75L1069.05,119.11" style="vector-effect: non-scaling-stroke; stroke-width: 2px; stroke: rgb(179, 59, 66); stroke-opacity: 1; fill: rgb(179, 59, 66); fill-opacity: 0.5;"/><g class="points"><path class="point" transform="translate(717.44,110.08)" d="M2.5,0A2.5,2.5 0 1,1 0,-2.5A2.5,2.5 0 0,1 2.5,0Z" style="opacity: 1; stroke-width: 0px; fill: rgb(179, 59, 66); fill-opacity: 1;"/><path class="point" transform="translate(727.01,115.99)" d="M2.5,0A2.5,2.5 0 1,1 0,-2.5A2.5,2.5 0 0,1 2.5,0Z" style="opacity: 1; stroke-width: 0px; fill: rgb(179, 59, 66); fill-opacity: 1;"/><path class="point" transform="translate(740.18,108.33)" d="M2.5,0A2.5,2.5 0 1,1 0,-2.5A2.5,2.5 0 0,1 2.5,0Z" style="opacity: 1; stroke-width: 0px; fill: rgb(179, 59, 66); fill-opacity: 1;"/><path class="point" transform="translate(741.92,117.32)" d="M2.5,0A2.5,2.5 0 1,1 0,-2.5A2.5,2.5 0 0,1 2.5,0Z" style="opacity: 1; stroke-width: 0px; fill: rgb(179, 59, 66); fill-opacity: 1;"/><path class="point" transform="translate(745.73,113.99)" d="M2.5,0A2.5,2.5 0 1,1 0,-2.5A2.5,2.5 0 0,1 2.5,0Z" style="opacity: 1; stroke-width: 0px; fill: rgb(179, 59, 66); fill-opacity: 1;"/><path class="point" transform="translate(746.6,109.77)" d="M2.5,0A2.5,2.5 0 1,1 0,-2.5A2.5,2.5 0 0,1 2.5,0Z" style="opacity: 1; stroke-width: 0px; fill: rgb(179, 59, 66); fill-opacity: 1;"/><path class="point" transform="translate(749.32,112.88)" d="M2.5,0A2.5,2.5 0 1,1 0,-2.5A2.5,2.5 0 0,1 2.5,0Z" style="opacity: 1; stroke-width: 0px; fill: rgb(179, 59, 66); fill-opacity: 1;"/><path class="point" transform="translate(749.76,110.82)" d="M2.5,0A2.5,2.5 0 1,1 0,-2.5A2.5,2.5 0 0,1 2.5,0Z" style="opacity: 1; stroke-width: 0px; fill: rgb(179, 59, 66); fill-opacity: 1;"/><path class="point" transform="translate(755.63,114.71)" d="M2.5,0A2.5,2.5 0 1,1 0,-2.5A2.5,2.5 0 0,1 2.5,0Z" style="opacity: 1; stroke-width: 0px; fill: rgb(179, 59, 66); fill-opacity: 1;"/><path class="point" transform="translate(762.27,117.3)" d="M2.5,0A2.5,2.5 0 1,1 0,-2.5A2.5,2.5 0 0,1 2.5,0Z" style="opacity: 1; stroke-width: 0px; fill: rgb(179, 59, 66); fill-opacity: 1;"/><path class="point" transform="translate(764.99,110.98)" d="M2.5,0A2.5,2.5 0 1,1 0,-2.5A2.5,2.5 0 0,1 2.5,0Z" style="opacity: 1; stroke-width: 0px; fill: rgb(179, 59, 66); fill-opacity: 1;"/><path class="point" transform="translate(770.76,114.79)" d="M2.5,0A2.5,2.5 0 1,1 0,-2.5A2.5,2.5 0 0,1 2.5,0Z" style="opacity: 1; stroke-width: 0px; fill: rgb(179, 59, 66); fill-opacity: 1;"/><path class="point" transform="translate(775.98,109.35)" d="M2.5,0A2.5,2.5 0 1,1 0,-2.5A2.5,2.5 0 0,1 2.5,0Z" style="opacity: 1; stroke-width: 0px; fill: rgb(179, 59, 66); fill-opacity: 1;"/><path class="point" transform="translate(776.85,117.23)" d="M2.5,0A2.5,2.5 0 1,1 0,-2.5A2.5,2.5 0 0,1 2.5,0Z" style="opacity: 1; stroke-width: 0px; fill: rgb(179, 59, 66); fill-opacity: 1;"/><path class="point" transform="translate(781.75,115.44)" d="M2.5,0A2.5,2.5 0 1,1 0,-2.5A2.5,2.5 0 0,1 2.5,0Z" style="opacity: 1; stroke-width: 0px; fill: rgb(179, 59, 66); fill-opacity: 1;"/><path class="point" transform="translate(782.84,109.37)" d="M2.5,0A2.5,2.5 0 1,1 0,-2.5A2.5,2.5 0 0,1 2.5,0Z" style="opacity: 1; stroke-width: 0px; fill: rgb(179, 59, 66); fill-opacity: 1;"/><path class="point" transform="translate(784.04,113.29)" d="M2.5,0A2.5,2.5 0 1,1 0,-2.5A2.5,2.5 0 0,1 2.5,0Z" style="opacity: 1; stroke-width: 0px; fill: rgb(179, 59, 66); fill-opacity: 1;"/><path class="point" transform="translate(802.53,114.72)" d="M2.5,0A2.5,2.5 0 1,1 0,-2.5A2.5,2.5 0 0,1 2.5,0Z" style="opacity: 1; stroke-width: 0px; fill: rgb(179, 59, 66); fill-opacity: 1;"/><path class="point" transform="translate(821.36,113.42)" d="M2.5,0A2.5,2.5 0 1,1 0,-2.5A2.5,2.5 0 0,1 2.5,0Z" style="opacity: 1; stroke-width: 0px; fill: rgb(179, 59, 66); fill-opacity: 1;"/><path class="point" transform="translate(825.17,112.71)" d="M2.5,0A2.5,2.5 0 1,1 0,-2.5A2.5,2.5 0 0,1 2.5,0Z" style="opacity: 1; stroke-width: 0px; fill: rgb(179, 59, 66); fill-opacity: 1;"/><path class="point" transform="translate(869.35,111.75)" d="M2.5,0A2.5,2.5 0 1,1 0,-2.5A2.5,2.5 0 0,1 2.5,0Z" style="opacity: 1; stroke-width: 0px; fill: rgb(179, 59, 66); fill-opacity: 1;"/><path class="point" transform="translate(1000.37,112.45)" d="M2.5,0A2.5,2.5 0 1,1 0,-2.5A2.5,2.5 0 0,1 2.5,0Z" style="opacity: 1; stroke-width: 0px; fill: rgb(179, 59, 66); fill-opacity: 1;"/><path class="point" transform="translate(1026.59,113.17)" d="M2.5,0A2.5,2.5 0 1,1 0,-2.5A2.5,2.5 0 0,1 2.5,0Z" style="opacity: 1; stroke-width: 0px; fill: rgb(179, 59, 66); fill-opacity: 1;"/></g></g><g class="trace violins" style="opacity: 1;"><path class="violin" d="M671.13,86.86L671.13,86.04Q676.79,85.57 679.61,85.17C682.45,84.77 685.28,84.29 688.1,83.65C690.94,83 693.78,82.23 696.59,81.31C699.44,80.37 702.27,79.27 705.07,78.06C707.92,76.83 710.75,75.43 713.56,74C716.4,72.56 719.21,70.96 722.04,69.44C724.87,67.92 727.69,66.33 730.53,64.87C733.34,63.43 736.16,61.99 739.01,60.75C741.81,59.53 744.64,58.39 747.5,57.49C750.3,56.61 753.13,55.86 755.98,55.38C758.79,54.9 761.64,54.62 764.47,54.6C767.3,54.58 770.15,54.81 772.96,55.25C775.81,55.69 778.64,56.42 781.44,57.27C784.3,58.14 787.12,59.27 789.93,60.43C792.78,61.61 795.59,62.99 798.41,64.32C801.25,65.65 804.06,67.08 806.9,68.4C809.72,69.71 812.53,71.03 815.38,72.19C818.19,73.33 821.02,74.4 823.87,75.31C826.68,76.2 829.51,76.96 832.35,77.6C835.17,78.23 838,78.7 840.84,79.11C843.66,79.52 846.49,79.79 849.32,80.04C852.15,80.29 854.98,80.45 857.81,80.62C860.64,80.79 863.47,80.91 866.3,81.05C869.13,81.19 871.95,81.31 874.78,81.44C877.61,81.57 880.44,81.71 883.27,81.84C886.1,81.97 888.92,82.1 891.75,82.23C894.58,82.36 897.41,82.49 900.24,82.6C903.07,82.71 905.89,82.83 908.72,82.91C911.55,82.99 914.38,83.07 917.21,83.1C920.04,83.13 922.86,83.12 925.69,83.07C928.52,83.02 931.35,82.91 934.18,82.78C937.01,82.65 939.84,82.46 942.67,82.3C945.5,82.14 948.32,81.94 951.15,81.81C953.98,81.68 956.81,81.56 959.64,81.54C962.47,81.52 965.29,81.56 968.12,81.68C970.95,81.8 973.78,82.01 976.61,82.26C979.44,82.51 982.26,82.84 985.09,83.16C987.92,83.48 990.75,83.85 993.58,84.18C996.41,84.5 999.23,84.83 1002.06,85.11C1004.89,85.38 1007.72,85.63 1010.55,85.83Q1013.38,86.03 1019.04,86.32L1019.04,86.86" style="vector-effect: non-scaling-stroke; stroke-width: 2px; stroke: rgb(197, 53, 52); stroke-opacity: 1; fill: rgb(197, 53, 52); fill-opacity: 0.5;"/><g class="points"><path class="point" transform="translate(722.55,77.3)" d="M2.5,0A2.5,2.5 0 1,1 0,-2.5A2.5,2.5 0 0,1 2.5,0Z" style="opacity: 1; stroke-width: 0px; fill: rgb(197, 53, 52); fill-opacity: 1;"/><path class="point" transform="translate(732.78,84.42)" d="M2.5,0A2.5,2.5 0 1,1 0,-2.5A2.5,2.5 0 0,1 2.5,0Z" style="opacity: 1; stroke-width: 0px; fill: rgb(197, 53, 52); fill-opacity: 1;"/><path class="point" transform="translate(735.83,76.48)" d="M2.5,0A2.5,2.5 0 1,1 0,-2.5A2.5,2.5 0 0,1 2.5,0Z" style="opacity: 1; stroke-width: 0px; fill: rgb(197, 53, 52); fill-opacity: 1;"/><path class="point" transform="translate(739.75,84.94)" d="M2.5,0A2.5,2.5 0 1,1 0,-2.5A2.5,2.5 0 0,1 2.5,0Z" style="opacity: 1; stroke-width: 0px; fill: rgb(197, 53, 52); fill-opacity: 1;"/><path class="point" transform="translate(742.58,81.79)" d="M2.5,0A2.5,2.5 0 1,1 0,-2.5A2.5,2.5 0 0,1 2.5,0Z" style="opacity: 1; stroke-width: 0px; fill: rgb(197, 53, 52); fill-opacity: 1;"/><path class="point" transform="translate(745.4,77.37)" d="M2.5,0A2.5,2.5 0 1,1 0,-2.5A2.5,2.5 0 0,1 2.5,0Z" style="opacity: 1; stroke-width: 0px; fill: rgb(197, 53, 52); fill-opacity: 1;"/><path class="point" transform="translate(747.36,80.65)" d="M2.5,0A2.5,2.5 0 1,1 0,-2.5A2.5,2.5 0 0,1 2.5,0Z" style="opacity: 1; stroke-width: 0px; fill: rgb(197, 53, 52); fill-opacity: 1;"/><path class="point" transform="translate(767.28,78.62)" d="M2.5,0A2.5,2.5 0 1,1 0,-2.5A2.5,2.5 0 0,1 2.5,0Z" style="opacity: 1; stroke-width: 0px; fill: rgb(197, 53, 52); fill-opacity: 1;"/><path class="point" transform="translate(768.26,82.43)" d="M2.5,0A2.5,2.5 0 1,1 0,-2.5A2.5,2.5 0 0,1 2.5,0Z" style="opacity: 1; stroke-width: 0px; fill: rgb(197, 53, 52); fill-opacity: 1;"/><path class="point" transform="translate(769.34,85.06)" d="M2.5,0A2.5,2.5 0 1,1 0,-2.5A2.5,2.5 0 0,1 2.5,0Z" style="opacity: 1; stroke-width: 0px; fill: rgb(197, 53, 52); fill-opacity: 1;"/><path class="point" transform="translate(771.52,78.95)" d="M2.5,0A2.5,2.5 0 1,1 0,-2.5A2.5,2.5 0 0,1 2.5,0Z" style="opacity: 1; stroke-width: 0px; fill: rgb(197, 53, 52); fill-opacity: 1;"/><path class="point" transform="translate(772.17,82.22)" d="M2.5,0A2.5,2.5 0 1,1 0,-2.5A2.5,2.5 0 0,1 2.5,0Z" style="opacity: 1; stroke-width: 0px; fill: rgb(197, 53, 52); fill-opacity: 1;"/><path class="point" transform="translate(778.7,76.44)" d="M2.5,0A2.5,2.5 0 1,1 0,-2.5A2.5,2.5 0 0,1 2.5,0Z" style="opacity: 1; stroke-width: 0px; fill: rgb(197, 53, 52); fill-opacity: 1;"/><path class="point" transform="translate(780.44,84.89)" d="M2.5,0A2.5,2.5 0 1,1 0,-2.5A2.5,2.5 0 0,1 2.5,0Z" style="opacity: 1; stroke-width: 0px; fill: rgb(197, 53, 52); fill-opacity: 1;"/><path class="point" transform="translate(783.27,82.77)" d="M2.5,0A2.5,2.5 0 1,1 0,-2.5A2.5,2.5 0 0,1 2.5,0Z" style="opacity: 1; stroke-width: 0px; fill: rgb(197, 53, 52); fill-opacity: 1;"/><path class="point" transform="translate(800.47,77.3)" d="M2.5,0A2.5,2.5 0 1,1 0,-2.5A2.5,2.5 0 0,1 2.5,0Z" style="opacity: 1; stroke-width: 0px; fill: rgb(197, 53, 52); fill-opacity: 1;"/><path class="point" transform="translate(801.34,81.15)" d="M2.5,0A2.5,2.5 0 1,1 0,-2.5A2.5,2.5 0 0,1 2.5,0Z" style="opacity: 1; stroke-width: 0px; fill: rgb(197, 53, 52); fill-opacity: 1;"/><path class="point" transform="translate(809.17,82.94)" d="M2.5,0A2.5,2.5 0 1,1 0,-2.5A2.5,2.5 0 0,1 2.5,0Z" style="opacity: 1; stroke-width: 0px; fill: rgb(197, 53, 52); fill-opacity: 1;"/><path class="point" transform="translate(845.73,81.34)" d="M2.5,0A2.5,2.5 0 1,1 0,-2.5A2.5,2.5 0 0,1 2.5,0Z" style="opacity: 1; stroke-width: 0px; fill: rgb(197, 53, 52); fill-opacity: 1;"/><path class="point" transform="translate(867.72,80.47)" d="M2.5,0A2.5,2.5 0 1,1 0,-2.5A2.5,2.5 0 0,1 2.5,0Z" style="opacity: 1; stroke-width: 0px; fill: rgb(197, 53, 52); fill-opacity: 1;"/><path class="point" transform="translate(904.28,79.23)" d="M2.5,0A2.5,2.5 0 1,1 0,-2.5A2.5,2.5 0 0,1 2.5,0Z" style="opacity: 1; stroke-width: 0px; fill: rgb(197, 53, 52); fill-opacity: 1;"/><path class="point" transform="translate(960.21,80.14)" d="M2.5,0A2.5,2.5 0 1,1 0,-2.5A2.5,2.5 0 0,1 2.5,0Z" style="opacity: 1; stroke-width: 0px; fill: rgb(197, 53, 52); fill-opacity: 1;"/><path class="point" transform="translate(967.61,81.05)" d="M2.5,0A2.5,2.5 0 1,1 0,-2.5A2.5,2.5 0 0,1 2.5,0Z" style="opacity: 1; stroke-width: 0px; fill: rgb(197, 53, 52); fill-opacity: 1;"/></g></g><g class="trace violins" style="opacity: 1;"><path class="violin" d="M628.34,54.6L628.34,53.66Q636.01,53.13 639.83,52.7C643.67,52.27 647.51,51.76 651.33,51.1C655.17,50.43 659.01,49.64 662.83,48.71C666.68,47.77 670.51,46.66 674.33,45.46C678.18,44.25 682.01,42.86 685.83,41.45C689.67,40.03 693.49,38.47 697.32,36.97C701.15,35.47 704.97,33.9 708.82,32.46C712.64,31.03 716.47,29.6 720.32,28.38C724.13,27.17 727.97,26.05 731.82,25.17C735.63,24.3 739.47,23.59 743.31,23.12C747.13,22.65 750.98,22.4 754.81,22.35C758.64,22.3 762.48,22.47 766.31,22.8C770.15,23.13 773.99,23.68 777.81,24.34C781.65,25 785.48,25.84 789.3,26.75C793.15,27.67 796.98,28.75 800.8,29.84C804.64,30.94 808.47,32.15 812.3,33.33C816.14,34.51 819.96,35.75 823.8,36.9C827.63,38.04 831.46,39.2 835.3,40.21C839.12,41.21 842.95,42.15 846.79,42.94C850.61,43.72 854.45,44.39 858.29,44.93C862.11,45.47 865.95,45.87 869.79,46.18C873.62,46.49 877.46,46.67 881.29,46.81C885.12,46.95 888.95,46.99 892.78,47.03C896.61,47.07 900.45,47.03 904.28,47.02C908.11,47.01 911.95,46.96 915.78,46.95C919.61,46.94 923.45,46.91 927.28,46.95C931.11,46.99 934.94,47.04 938.77,47.17C942.6,47.3 946.44,47.48 950.27,47.72C954.11,47.96 957.94,48.27 961.77,48.62C965.61,48.97 969.44,49.39 973.27,49.8C977.1,50.21 980.94,50.65 984.77,51.06C988.6,51.46 992.43,51.88 996.26,52.23C1000.09,52.58 1003.93,52.9 1007.76,53.16C1011.59,53.42 1015.43,53.63 1019.26,53.81C1023.09,53.98 1026.93,54.11 1030.76,54.21C1034.59,54.31 1038.42,54.38 1042.25,54.43C1046.08,54.48 1049.92,54.51 1053.75,54.53C1057.58,54.55 1061.42,54.57 1065.25,54.57C1069.08,54.57 1072.92,54.57 1076.75,54.56C1080.58,54.55 1084.41,54.54 1088.24,54.51C1092.07,54.48 1095.91,54.45 1099.74,54.4C1103.57,54.35 1107.41,54.28 1111.24,54.19C1115.07,54.1 1118.91,53.98 1122.74,53.85C1126.57,53.72 1130.4,53.56 1134.23,53.4C1138.06,53.23 1141.9,53.04 1145.73,52.86C1149.56,52.68 1153.4,52.48 1157.23,52.33C1161.06,52.18 1164.9,52.04 1168.73,51.96C1172.56,51.88 1176.4,51.83 1180.23,51.84C1184.06,51.85 1187.89,51.92 1191.72,52.01C1195.55,52.11 1199.39,52.25 1203.22,52.41C1207.05,52.57 1210.89,52.77 1214.72,52.95C1218.55,53.13 1222.39,53.32 1226.22,53.48C1230.05,53.64 1233.88,53.8 1237.71,53.92Q1241.54,54.05 1249.21,54.23L1249.21,54.6" style="vector-effect: non-scaling-stroke; stroke-width: 2px; stroke: rgb(215, 48, 39); stroke-opacity: 1; fill: rgb(215, 48, 39); fill-opacity: 0.5;"/><g class="points"><path class="point" transform="translate(698.29,45.3)" d="M2.5,0A2.5,2.5 0 1,1 0,-2.5A2.5,2.5 0 0,1 2.5,0Z" style="opacity: 1; stroke-width: 0px; fill: rgb(215, 48, 39); fill-opacity: 1;"/><path class="point" transform="translate(706.99,51.9)" d="M2.5,0A2.5,2.5 0 1,1 0,-2.5A2.5,2.5 0 0,1 2.5,0Z" style="opacity: 1; stroke-width: 0px; fill: rgb(215, 48, 39); fill-opacity: 1;"/><path class="point" transform="translate(707.32,43.55)" d="M2.5,0A2.5,2.5 0 1,1 0,-2.5A2.5,2.5 0 0,1 2.5,0Z" style="opacity: 1; stroke-width: 0px; fill: rgb(215, 48, 39); fill-opacity: 1;"/><path class="point" transform="translate(725.6,53.52)" d="M2.5,0A2.5,2.5 0 1,1 0,-2.5A2.5,2.5 0 0,1 2.5,0Z" style="opacity: 1; stroke-width: 0px; fill: rgb(215, 48, 39); fill-opacity: 1;"/><path class="point" transform="translate(736.7,49.67)" d="M2.5,0A2.5,2.5 0 1,1 0,-2.5A2.5,2.5 0 0,1 2.5,0Z" style="opacity: 1; stroke-width: 0px; fill: rgb(215, 48, 39); fill-opacity: 1;"/><path class="point" transform="translate(739.09,45.12)" d="M2.5,0A2.5,2.5 0 1,1 0,-2.5A2.5,2.5 0 0,1 2.5,0Z" style="opacity: 1; stroke-width: 0px; fill: rgb(215, 48, 39); fill-opacity: 1;"/><path class="point" transform="translate(741.16,48.37)" d="M2.5,0A2.5,2.5 0 1,1 0,-2.5A2.5,2.5 0 0,1 2.5,0Z" style="opacity: 1; stroke-width: 0px; fill: rgb(215, 48, 39); fill-opacity: 1;"/><path class="point" transform="translate(747.15,46.48)" d="M2.5,0A2.5,2.5 0 1,1 0,-2.5A2.5,2.5 0 0,1 2.5,0Z" style="opacity: 1; stroke-width: 0px; fill: rgb(215, 48, 39); fill-opacity: 1;"/><path class="point" transform="translate(747.25,50.21)" d="M2.5,0A2.5,2.5 0 1,1 0,-2.5A2.5,2.5 0 0,1 2.5,0Z" style="opacity: 1; stroke-width: 0px; fill: rgb(215, 48, 39); fill-opacity: 1;"/><path class="point" transform="translate(756.94,52.77)" d="M2.5,0A2.5,2.5 0 1,1 0,-2.5A2.5,2.5 0 0,1 2.5,0Z" style="opacity: 1; stroke-width: 0px; fill: rgb(215, 48, 39); fill-opacity: 1;"/><path class="point" transform="translate(772.07,46.52)" d="M2.5,0A2.5,2.5 0 1,1 0,-2.5A2.5,2.5 0 0,1 2.5,0Z" style="opacity: 1; stroke-width: 0px; fill: rgb(215, 48, 39); fill-opacity: 1;"/><path class="point" transform="translate(780.23,49.99)" d="M2.5,0A2.5,2.5 0 1,1 0,-2.5A2.5,2.5 0 0,1 2.5,0Z" style="opacity: 1; stroke-width: 0px; fill: rgb(215, 48, 39); fill-opacity: 1;"/><path class="point" transform="translate(780.88,44.56)" d="M2.5,0A2.5,2.5 0 1,1 0,-2.5A2.5,2.5 0 0,1 2.5,0Z" style="opacity: 1; stroke-width: 0px; fill: rgb(215, 48, 39); fill-opacity: 1;"/><path class="point" transform="translate(784.8,52.43)" d="M2.5,0A2.5,2.5 0 1,1 0,-2.5A2.5,2.5 0 0,1 2.5,0Z" style="opacity: 1; stroke-width: 0px; fill: rgb(215, 48, 39); fill-opacity: 1;"/><path class="point" transform="translate(798.73,50.53)" d="M2.5,0A2.5,2.5 0 1,1 0,-2.5A2.5,2.5 0 0,1 2.5,0Z" style="opacity: 1; stroke-width: 0px; fill: rgb(215, 48, 39); fill-opacity: 1;"/><path class="point" transform="translate(805.36,44.82)" d="M2.5,0A2.5,2.5 0 1,1 0,-2.5A2.5,2.5 0 0,1 2.5,0Z" style="opacity: 1; stroke-width: 0px; fill: rgb(215, 48, 39); fill-opacity: 1;"/><path class="point" transform="translate(820.49,49.1)" d="M2.5,0A2.5,2.5 0 1,1 0,-2.5A2.5,2.5 0 0,1 2.5,0Z" style="opacity: 1; stroke-width: 0px; fill: rgb(215, 48, 39); fill-opacity: 1;"/><path class="point" transform="translate(823.86,50.29)" d="M2.5,0A2.5,2.5 0 1,1 0,-2.5A2.5,2.5 0 0,1 2.5,0Z" style="opacity: 1; stroke-width: 0px; fill: rgb(215, 48, 39); fill-opacity: 1;"/><path class="point" transform="translate(875.12,48.94)" d="M2.5,0A2.5,2.5 0 1,1 0,-2.5A2.5,2.5 0 0,1 2.5,0Z" style="opacity: 1; stroke-width: 0px; fill: rgb(215, 48, 39); fill-opacity: 1;"/><path class="point" transform="translate(902.97,48.2)" d="M2.5,0A2.5,2.5 0 1,1 0,-2.5A2.5,2.5 0 0,1 2.5,0Z" style="opacity: 1; stroke-width: 0px; fill: rgb(215, 48, 39); fill-opacity: 1;"/><path class="point" transform="translate(945.19,47.19)" d="M2.5,0A2.5,2.5 0 1,1 0,-2.5A2.5,2.5 0 0,1 2.5,0Z" style="opacity: 1; stroke-width: 0px; fill: rgb(215, 48, 39); fill-opacity: 1;"/><path class="point" transform="translate(954.01,47.93)" d="M2.5,0A2.5,2.5 0 1,1 0,-2.5A2.5,2.5 0 0,1 2.5,0Z" style="opacity: 1; stroke-width: 0px; fill: rgb(215, 48, 39); fill-opacity: 1;"/><path class="point" transform="translate(1179.26,48.68)" d="M2.5,0A2.5,2.5 0 1,1 0,-2.5A2.5,2.5 0 0,1 2.5,0Z" style="opacity: 1; stroke-width: 0px; fill: rgb(215, 48, 39); fill-opacity: 1;"/></g></g></g></g><g class="overplot"/><path class="xlines-above crisp" d="M0,0" style="fill: none;"/><path class="ylines-above crisp" d="M0,0" style="fill: none;"/><g class="overlines-above"/><g class="xaxislayer-above"><g class="xtick"><text text-anchor="middle" x="0" y="460" transform="translate(188.29000000000002,0)" style="font-family: 'Open Sans', verdana, arial, sans-serif; font-size: 12px; fill: rgb(42, 63, 95); fill-opacity: 1; white-space: pre;">30</text></g><g class="xtick"><text text-anchor="middle" x="0" y="460" transform="translate(405.93,0)" style="font-family: 'Open Sans', verdana, arial, sans-serif; font-size: 12px; fill: rgb(42, 63, 95); fill-opacity: 1; white-space: pre;">20</text></g><g class="xtick"><text text-anchor="middle" x="0" y="460" transform="translate(623.56,0)" style="font-family: 'Open Sans', verdana, arial, sans-serif; font-size: 12px; fill: rgb(42, 63, 95); fill-opacity: 1; white-space: pre;">10</text></g><g class="xtick"><text text-anchor="middle" x="0" y="460" transform="translate(841.2,0)" style="font-family: 'Open Sans', verdana, arial, sans-serif; font-size: 12px; fill: rgb(42, 63, 95); fill-opacity: 1; white-space: pre;">0</text></g><g class="xtick"><text text-anchor="middle" x="0" y="460" transform="translate(1058.8400000000001,0)" style="font-family: 'Open Sans', verdana, arial, sans-serif; font-size: 12px; fill: rgb(42, 63, 95); fill-opacity: 1; white-space: pre;">10</text></g><g class="xtick"><text text-anchor="middle" x="0" y="460" transform="translate(1276.47,0)" style="font-family: 'Open Sans', verdana, arial, sans-serif; font-size: 12px; fill: rgb(42, 63, 95); fill-opacity: 1; white-space: pre;">20</text></g></g><g class="yaxislayer-above"><g class="ytick"><text text-anchor="end" x="122" y="4.199999999999999" transform="translate(0,427.15)" style="font-family: 'Open Sans', verdana, arial, sans-serif; font-size: 12px; fill: rgb(42, 63, 95); fill-opacity: 1; white-space: pre;">Sample 4-1_B2</text></g><g class="ytick"><text text-anchor="end" x="122" y="4.199999999999999" transform="translate(0,394.9)" style="font-family: 'Open Sans', verdana, arial, sans-serif; font-size: 12px; fill: rgb(42, 63, 95); fill-opacity: 1; white-space: pre;">Sample 79-2_G3</text></g><g class="ytick"><text text-anchor="end" x="122" y="4.199999999999999" transform="translate(0,362.64)" style="font-family: 'Open Sans', verdana, arial, sans-serif; font-size: 12px; fill: rgb(42, 63, 95); fill-opacity: 1; white-space: pre;">Sample 134-1_H4</text></g><g class="ytick"><text text-anchor="end" x="122" y="4.199999999999999" transform="translate(0,330.39)" style="font-family: 'Open Sans', verdana, arial, sans-serif; font-size: 12px; fill: rgb(42, 63, 95); fill-opacity: 1; white-space: pre;">Sample 134-2_A5</text></g><g class="ytick"><text text-anchor="end" x="122" y="4.199999999999999" transform="translate(0,298.13)" style="font-family: 'Open Sans', verdana, arial, sans-serif; font-size: 12px; fill: rgb(42, 63, 95); fill-opacity: 1; white-space: pre;">Sample 7-2_F2</text></g><g class="ytick"><text text-anchor="end" x="122" y="4.199999999999999" transform="translate(0,265.88)" style="font-family: 'Open Sans', verdana, arial, sans-serif; font-size: 12px; fill: rgb(42, 63, 95); fill-opacity: 1; white-space: pre;">Sample 4-2_B2</text></g><g class="ytick"><text text-anchor="end" x="122" y="4.199999999999999" transform="translate(0,233.62)" style="font-family: 'Open Sans', verdana, arial, sans-serif; font-size: 12px; fill: rgb(42, 63, 95); fill-opacity: 1; white-space: pre;">Sample 7-1_E2</text></g><g class="ytick"><text text-anchor="end" x="122" y="4.199999999999999" transform="translate(0,201.37)" style="font-family: 'Open Sans', verdana, arial, sans-serif; font-size: 12px; fill: rgb(42, 63, 95); fill-opacity: 1; white-space: pre;">Sample 117-2_C4</text></g><g class="ytick"><text text-anchor="end" x="122" y="4.199999999999999" transform="translate(0,169.11)" style="font-family: 'Open Sans', verdana, arial, sans-serif; font-size: 12px; fill: rgb(42, 63, 95); fill-opacity: 1; white-space: pre;">Sample 80-1_H3</text></g><g class="ytick"><text text-anchor="end" x="122" y="4.199999999999999" transform="translate(0,136.86)" style="font-family: 'Open Sans', verdana, arial, sans-serif; font-size: 12px; fill: rgb(42, 63, 95); fill-opacity: 1; white-space: pre;">Sample 131-1_F4</text></g><g class="ytick"><text text-anchor="end" x="122" y="4.199999999999999" transform="translate(0,104.6)" style="font-family: 'Open Sans', verdana, arial, sans-serif; font-size: 12px; fill: rgb(42, 63, 95); fill-opacity: 1; white-space: pre;">Sample 69-1_F3</text></g></g><g class="overaxes-above"/></g></g><g class="polarlayer"/><g class="ternarylayer"/><g class="geolayer"/><g class="funnelarealayer"/><g class="pielayer"/><g class="treemaplayer"/><g class="sunburstlayer"/><g class="glimages"/><defs id="topdefs-59d325"><g class="clips"/></defs><g class="layer-above"><g class="imagelayer"/><g class="shapelayer"/></g><g class="infolayer"><g class="g-gtitle"/><g class="g-xtitle"><text class="xtitle" x="721.5" y="487.8" text-anchor="middle" style="font-family: 'Open Sans', verdana, arial, sans-serif; font-size: 14px; fill: rgb(42, 63, 95); opacity: 1; font-weight: normal; white-space: pre;">CpG median log likelihood ratio</text></g><g class="g-ytitle"/><g class="annotation" data-index="0" style="opacity: 1;"><g class="annotation-text-g" transform="rotate(0,841.2,35.67999999999998)"><g class="cursor-pointer" transform="translate(805, 26)"><rect class="bg" x="0.5" y="0.5" width="72" height="18" style="stroke-width: 1px; stroke: rgb(0, 0, 0); stroke-opacity: 0; fill: rgb(0, 0, 0); fill-opacity: 0;"/><text class="annotation-text" text-anchor="middle" x="36.421875" y="14" style="font-family: 'Open Sans', verdana, arial, sans-serif; font-size: 12px; fill: rgb(100, 100, 100); fill-opacity: 1; white-space: pre;">Ambiguous</text></g></g></g><g class="annotation" data-index="1" style="opacity: 1;"><g class="annotation-text-g" transform="rotate(0,471.22,35.67999999999998)"><g class="cursor-pointer" transform="translate(427, 26)"><rect class="bg" x="0.5" y="0.5" width="88" height="18" style="stroke-width: 1px; stroke: rgb(0, 0, 0); stroke-opacity: 0; fill: rgb(0, 0, 0); fill-opacity: 0;"/><text class="annotation-text" text-anchor="middle" x="44.1875" y="14" style="font-family: 'Open Sans', verdana, arial, sans-serif; font-size: 12px; fill: rgb(33, 102, 172); fill-opacity: 1; white-space: pre;">Unmethylated</text></g></g></g><g class="annotation" data-index="2" style="opacity: 1;"><g class="annotation-text-g" transform="rotate(0,1091.48,35.67999999999998)"><g class="cursor-pointer" transform="translate(1056, 26)"><rect class="bg" x="0.5" y="0.5" width="70" height="18" style="stroke-width: 1px; stroke: rgb(0, 0, 0); stroke-opacity: 0; fill: rgb(0, 0, 0); fill-opacity: 0;"/><text class="annotation-text" text-anchor="middle" x="35.21875" y="14" style="font-family: 'Open Sans', verdana, arial, sans-serif; font-size: 12px; fill: rgb(215, 48, 39); fill-opacity: 1; white-space: pre;">Methylated</text></g></g></g></g></svg>