<svg class="main-svg" xmlns="http://www.w3.org/2000/svg" xmlns:xlink="http://www.w3.org/1999/xlink" width="1400" height="500" style="" viewBox="0 0 1400 500"><rect x="0" y="0" width="1400" height="500" style="fill: rgb(255, 255, 255); fill-opacity: 1;"/><defs id="defs-e37192"><g class="clips"><clipPath id="clipe37192xyplot" class="plotclip"><rect width="1195" height="395"/></clipPath><clipPath class="axesclip" id="clipe37192x"><rect x="125" y="0" width="1195" height="500"/></clipPath><clipPath class="axesclip" id="clipe37192y"><rect x="0" y="50" width="1400" height="395"/></clipPath><clipPath class="axesclip" id="clipe37192xy"><rect x="125" y="50" width="1195" height="395"/></clipPath></g><g class="gradients"/></defs><g class="bglayer"><rect class="bg" x="125" y="50" width="1195" height="395" style="fill: rgb(0, 0, 0); fill-opacity: 0; stroke-width: 0;"/></g><g class="layer-below"><g class="imagelayer"/><g class="shapelayer"><path data-index="0" fill-rule="evenodd" d="M833.15,445H877.41V50H833.15Z" clip-path="url('#clipe37192x')" style="opacity: 0.25; stroke: rgb(0, 0, 0); stroke-opacity: 0; fill: rgb(100, 100, 100); fill-opacity: 1; stroke-width: 0px;"/></g></g><g class="cartesianlayer"><g class="subplot xy"><g class="layer-subplot"><g class="shapelayer"/><g class="imagelayer"/></g><g class="gridlayer"><g class="x"/><g class="y"><path class="ygrid crisp" transform="translate(0,425.25)" d="M125,0h1195" style="stroke: rgb(211, 211, 211); stroke-opacity: 1; stroke-width: 1px;"/><path class="ygrid crisp" transform="translate(0,393.16)" d="M125,0h1195" style="stroke: rgb(211, 211, 211); stroke-opacity: 1; stroke-width: 1px;"/><path class="ygrid crisp" transform="translate(0,361.07)" d="M125,0h1195" style="stroke: rgb(211, 211, 211); stroke-opacity: 1; stroke-width: 1px;"/><path class="ygrid crisp" transform="translate(0,328.98)" d="M125,0h1195" style="stroke: rgb(211, 211, 211); stroke-opacity: 1; stroke-width: 1px;"/><path class="ygrid crisp" transform="translate(0,296.89)" d="M125,0h1195" style="stroke: rgb(211, 211, 211); stroke-opacity: 1; stroke-width: 1px;"/><path class="ygrid crisp" transform="translate(0,264.8)" d="M125,0h1195" style="stroke: rgb(211, 211, 211); stroke-opacity: 1; stroke-width: 1px;"/><path class="ygrid crisp" transform="translate(0,232.7)" d="M125,0h1195" style="stroke: rgb(211, 211, 211); stroke-opacity: 1; stroke-width: 1px;"/><path class="ygrid crisp" transform="translate(0,200.61)" d="M125,0h1195" style="stroke: rgb(211, 211, 211); stroke-opacity: 1; stroke-width: 1px;"/><path class="ygrid crisp" transform="translate(0,168.51999999999998)" d="M125,0h1195" style="stroke: rgb(211, 211, 211); stroke-opacity: 1; stroke-width: 1px;"/><path class="ygrid crisp" transform="translate(0,136.43)" d="M125,0h1195" style="stroke: rgb(211, 211, 211); stroke-opacity: 1; stroke-width: 1px;"/><path class="ygrid crisp" transform="translate(0,104.34)" d="M125,0h1195" style="stroke: rgb(211, 211, 211); stroke-opacity: 1; stroke-width: 1px;"/></g></g><g class="zerolinelayer"/><path class="xlines-below"/><path class="ylines-below"/><g class="overlines-below"/><g class="xaxislayer-below"/><g class="yaxislayer-below"/><g class="overaxes-below"/><g class="plot" transform="translate(125, 50)" clip-path="url('#clipe37192xyplot')"><g class="violinlayer mlayer"><g class="trace violins" style="opacity: 1;"><path class="violin" d="M121.26,375.25L121.26,374.87Q126.54,374.69 129.18,374.56C131.82,374.44 134.45,374.28 137.09,374.12C139.73,373.96 142.37,373.76 145.01,373.58C147.65,373.4 150.28,373.2 152.92,373.04C155.56,372.88 158.19,372.73 160.83,372.63C163.47,372.53 166.11,372.47 168.75,372.46C171.39,372.45 174.02,372.51 176.66,372.59C179.3,372.68 181.94,372.82 184.58,372.97C187.22,373.12 189.85,373.32 192.49,373.5C195.13,373.68 197.77,373.88 200.41,374.05C203.05,374.22 205.68,374.38 208.32,374.51C210.96,374.64 213.59,374.75 216.23,374.84C218.87,374.93 221.51,374.99 224.15,375.04C226.79,375.09 229.42,375.13 232.06,375.16C234.7,375.19 237.34,375.2 239.98,375.21C242.62,375.22 245.25,375.23 247.89,375.24C250.53,375.25 253.16,375.25 255.8,375.25C258.44,375.25 261.08,375.25 263.72,375.25C266.36,375.25 268.99,375.25 271.63,375.25C274.27,375.25 276.91,375.25 279.55,375.25C282.19,375.25 284.82,375.25 287.46,375.25C290.1,375.25 292.73,375.25 295.37,375.25C298.01,375.25 300.65,375.25 303.29,375.25C305.93,375.25 308.56,375.25 311.2,375.25C313.84,375.25 316.48,375.25 319.12,375.25C321.76,375.25 324.39,375.25 327.03,375.25C329.67,375.25 332.3,375.25 334.94,375.25C337.58,375.25 340.22,375.25 342.86,375.25C345.5,375.25 348.13,375.25 350.77,375.25C353.41,375.25 356.05,375.25 358.69,375.25C361.33,375.25 363.96,375.25 366.6,375.25C369.24,375.25 371.87,375.25 374.51,375.25C377.15,375.25 379.79,375.25 382.43,375.25C385.07,375.25 387.7,375.25 390.34,375.25C392.98,375.25 395.62,375.25 398.26,375.25C400.9,375.25 403.53,375.25 406.17,375.25C408.81,375.25 411.44,375.24 414.08,375.24C416.72,375.23 419.36,375.23 422,375.22C424.64,375.21 427.27,375.2 429.91,375.18C432.55,375.16 435.19,375.13 437.83,375.08C440.47,375.03 443.1,374.97 445.74,374.89C448.38,374.81 451.01,374.71 453.65,374.58C456.29,374.45 458.93,374.29 461.57,374.1C464.21,373.91 466.84,373.69 469.48,373.46C472.12,373.23 474.76,372.97 477.4,372.72C480.04,372.47 482.67,372.2 485.31,371.97C487.95,371.74 490.58,371.5 493.22,371.32C495.86,371.14 498.5,370.98 501.14,370.87C503.78,370.76 506.41,370.7 509.05,370.68C511.69,370.66 514.33,370.7 516.97,370.77C519.61,370.84 522.24,370.97 524.88,371.11C527.52,371.25 530.16,371.43 532.8,371.59C535.44,371.75 538.07,371.94 540.71,372.07C543.35,372.2 545.98,372.32 548.62,372.35C551.26,372.38 553.9,372.37 556.54,372.25C559.18,372.13 561.82,371.92 564.45,371.64C567.09,371.36 569.74,370.98 572.37,370.56C575.01,370.14 577.65,369.63 580.28,369.12C582.92,368.61 585.55,368.06 588.19,367.51C590.83,366.96 593.47,366.41 596.11,365.84C598.75,365.27 601.39,364.71 604.02,364.08C606.66,363.45 609.31,362.8 611.94,362.04C614.59,361.27 617.23,360.43 619.85,359.47C622.5,358.5 625.14,357.39 627.76,356.24C630.41,355.07 633.04,353.76 635.68,352.51C638.32,351.26 640.93,349.89 643.59,348.72C646.21,347.57 648.84,346.4 651.51,345.53C654.12,344.68 656.76,343.94 659.42,343.55C662.04,343.16 664.7,343.03 667.33,343.16C669.98,343.3 672.63,343.77 675.25,344.37C677.91,344.99 680.54,345.91 683.16,346.84C685.82,347.79 688.45,348.94 691.08,350.02C693.72,351.11 696.35,352.28 698.99,353.36C701.62,354.43 704.25,355.49 706.9,356.46C709.53,357.42 712.17,358.31 714.82,359.13C717.45,359.94 720.09,360.67 722.73,361.36C725.36,362.04 728.01,362.65 730.65,363.24C733.28,363.83 735.92,364.36 738.56,364.9C741.2,365.44 743.83,365.96 746.47,366.48C749.11,367.01 751.75,367.53 754.39,368.05C757.03,368.57 759.66,369.11 762.3,369.62C764.94,370.13 767.58,370.65 770.22,371.12C772.86,371.59 775.49,372.05 778.13,372.45C780.76,372.85 783.4,373.2 786.04,373.5C788.68,373.8 791.32,374.04 793.96,374.25Q796.6,374.45 801.87,374.73L801.87,375.25" style="vector-effect: non-scaling-stroke; stroke-width: 2px; stroke: rgb(33, 102, 172); stroke-opacity: 1; fill: rgb(33, 102, 172); fill-opacity: 0.5;"/><g class="points"><path class="point" transform="translate(169.29,368.2)" d="M2.5,0A2.5,2.5 0 1,1 0,-2.5A2.5,2.5 0 0,1 2.5,0Z" style="opacity: 1; stroke-width: 0px; fill: rgb(33, 102, 172); fill-opacity: 1;"/><path class="point" transform="translate(494.82,369.66)" d="M2.5,0A2.5,2.5 0 1,1 0,-2.5A2.5,2.5 0 0,1 2.5,0Z" style="opacity: 1; stroke-width: 0px; fill: rgb(33, 102, 172); fill-opacity: 1;"/><path class="point" transform="translate(525.25,367.75)" d="M2.5,0A2.5,2.5 0 1,1 0,-2.5A2.5,2.5 0 0,1 2.5,0Z" style="opacity: 1; stroke-width: 0px; fill: rgb(33, 102, 172); fill-opacity: 1;"/><path class="point" transform="translate(593.96,370.09)" d="M2.5,0A2.5,2.5 0 1,1 0,-2.5A2.5,2.5 0 0,1 2.5,0Z" style="opacity: 1; stroke-width: 0px; fill: rgb(33, 102, 172); fill-opacity: 1;"/><path class="point" transform="translate(595.62,369.22)" d="M2.5,0A2.5,2.5 0 1,1 0,-2.5A2.5,2.5 0 0,1 2.5,0Z" style="opacity: 1; stroke-width: 0px; fill: rgb(33, 102, 172); fill-opacity: 1;"/><path class="point" transform="translate(616.75,367.96)" d="M2.5,0A2.5,2.5 0 1,1 0,-2.5A2.5,2.5 0 0,1 2.5,0Z" style="opacity: 1; stroke-width: 0px; fill: rgb(33, 102, 172); fill-opacity: 1;"/><path class="point" transform="translate(635.01,368.94)" d="M2.5,0A2.5,2.5 0 1,1 0,-2.5A2.5,2.5 0 0,1 2.5,0Z" style="opacity: 1; stroke-width: 0px; fill: rgb(33, 102, 172); fill-opacity: 1;"/><path class="point" transform="translate(648.18,367.94)" d="M2.5,0A2.5,2.5 0 1,1 0,-2.5A2.5,2.5 0 0,1 2.5,0Z" style="opacity: 1; stroke-width: 0px; fill: rgb(33, 102, 172); fill-opacity: 1;"/><path class="point" transform="translate(648.18,370.18)" d="M2.5,0A2.5,2.5 0 1,1 0,-2.5A2.5,2.5 0 0,1 2.5,0Z" style="opacity: 1; stroke-width: 0px; fill: rgb(33, 102, 172); fill-opacity: 1;"/><path class="point" transform="translate(650.83,371.94)" d="M2.5,0A2.5,2.5 0 1,1 0,-2.5A2.5,2.5 0 0,1 2.5,0Z" style="opacity: 1; stroke-width: 0px; fill: rgb(33, 102, 172); fill-opacity: 1;"/><path class="point" transform="translate(652.16,367.57)" d="M2.5,0A2.5,2.5 0 1,1 0,-2.5A2.5,2.5 0 0,1 2.5,0Z" style="opacity: 1; stroke-width: 0px; fill: rgb(33, 102, 172); fill-opacity: 1;"/><path class="point" transform="translate(660.35,370.62)" d="M2.5,0A2.5,2.5 0 1,1 0,-2.5A2.5,2.5 0 0,1 2.5,0Z" style="opacity: 1; stroke-width: 0px; fill: rgb(33, 102, 172); fill-opacity: 1;"/><path class="point" transform="translate(663.89,364.76)" d="M2.5,0A2.5,2.5 0 1,1 0,-2.5A2.5,2.5 0 0,1 2.5,0Z" style="opacity: 1; stroke-width: 0px; fill: rgb(33, 102, 172); fill-opacity: 1;"/><path class="point" transform="translate(668.31,374.51)" d="M2.5,0A2.5,2.5 0 1,1 0,-2.5A2.5,2.5 0 0,1 2.5,0Z" style="opacity: 1; stroke-width: 0px; fill: rgb(33, 102, 172); fill-opacity: 1;"/><path class="point" transform="translate(669.09,371.71)" d="M2.5,0A2.5,2.5 0 1,1 0,-2.5A2.5,2.5 0 0,1 2.5,0Z" style="opacity: 1; stroke-width: 0px; fill: rgb(33, 102, 172); fill-opacity: 1;"/><path class="point" transform="translate(676.06,364.79)" d="M2.5,0A2.5,2.5 0 1,1 0,-2.5A2.5,2.5 0 0,1 2.5,0Z" style="opacity: 1; stroke-width: 0px; fill: rgb(33, 102, 172); fill-opacity: 1;"/><path class="point" transform="translate(679.82,370.06)" d="M2.5,0A2.5,2.5 0 1,1 0,-2.5A2.5,2.5 0 0,1 2.5,0Z" style="opacity: 1; stroke-width: 0px; fill: rgb(33, 102, 172); fill-opacity: 1;"/><path class="point" transform="translate(680.26,372.36)" d="M2.5,0A2.5,2.5 0 1,1 0,-2.5A2.5,2.5 0 0,1 2.5,0Z" style="opacity: 1; stroke-width: 0px; fill: rgb(33, 102, 172); fill-opacity: 1;"/><path class="point" transform="translate(687.01,370.13)" d="M2.5,0A2.5,2.5 0 1,1 0,-2.5A2.5,2.5 0 0,1 2.5,0Z" style="opacity: 1; stroke-width: 0px; fill: rgb(33, 102, 172); fill-opacity: 1;"/><path class="point" transform="translate(704.28,368.91)" d="M2.5,0A2.5,2.5 0 1,1 0,-2.5A2.5,2.5 0 0,1 2.5,0Z" style="opacity: 1; stroke-width: 0px; fill: rgb(33, 102, 172); fill-opacity: 1;"/><path class="point" transform="translate(715.45,367.17)" d="M2.5,0A2.5,2.5 0 1,1 0,-2.5A2.5,2.5 0 0,1 2.5,0Z" style="opacity: 1; stroke-width: 0px; fill: rgb(33, 102, 172); fill-opacity: 1;"/><path class="point" transform="translate(715.67,368.44)" d="M2.5,0A2.5,2.5 0 1,1 0,-2.5A2.5,2.5 0 0,1 2.5,0Z" style="opacity: 1; stroke-width: 0px; fill: rgb(33, 102, 172); fill-opacity: 1;"/><path class="point" transform="translate(742.34,369.76)" d="M2.5,0A2.5,2.5 0 1,1 0,-2.5A2.5,2.5 0 0,1 2.5,0Z" style="opacity: 1; stroke-width: 0px; fill: rgb(33, 102, 172); fill-opacity: 1;"/><path class="point" transform="translate(753.85,371.46)" d="M2.5,0A2.5,2.5 0 1,1 0,-2.5A2.5,2.5 0 0,1 2.5,0Z" style="opacity: 1; stroke-width: 0px; fill: rgb(33, 102, 172); fill-opacity: 1;"/></g></g><g class="trace violins" style="opacity: 1;"><path class="violin" d="M-37.71,343.16L-37.71,342.86Q-29.93,342.71 -26.04,342.61C-22.15,342.51 -18.27,342.38 -14.38,342.25C-10.49,342.12 -6.61,341.96 -2.72,341.82C1.17,341.68 5.05,341.52 8.94,341.39C12.83,341.26 16.71,341.14 20.6,341.06C24.49,340.98 28.38,340.93 32.27,340.93C36.16,340.93 40.04,340.97 43.93,341.04C47.82,341.11 51.7,341.23 55.59,341.35C59.48,341.47 63.36,341.63 67.25,341.77C71.14,341.91 75.02,342.08 78.91,342.21C82.8,342.34 86.69,342.46 90.58,342.57C94.47,342.67 98.35,342.77 102.24,342.84C106.13,342.91 110.01,342.96 113.9,343C117.79,343.04 121.67,343.07 125.56,343.09C129.45,343.11 133.33,343.12 137.22,343.13C141.11,343.14 144.99,343.15 148.88,343.15C152.77,343.16 156.66,343.16 160.55,343.16C164.44,343.16 168.32,343.16 172.21,343.16C176.1,343.16 179.98,343.16 183.87,343.16C187.76,343.16 191.64,343.16 195.53,343.16C199.42,343.16 203.3,343.16 207.19,343.16C211.08,343.16 214.97,343.16 218.86,343.16C222.75,343.16 226.63,343.16 230.52,343.16C234.41,343.16 238.29,343.16 242.18,343.16C246.07,343.16 249.95,343.16 253.84,343.16C257.73,343.16 261.61,343.16 265.5,343.16C269.39,343.16 273.28,343.16 277.17,343.16C281.06,343.16 284.94,343.16 288.83,343.16C292.72,343.16 296.6,343.16 300.49,343.16C304.38,343.16 308.26,343.16 312.15,343.16C316.04,343.16 319.92,343.16 323.81,343.16C327.7,343.16 331.59,343.16 335.48,343.16C339.37,343.16 343.25,343.16 347.14,343.16C351.03,343.16 354.91,343.16 358.8,343.16C362.69,343.16 366.57,343.16 370.46,343.16C374.35,343.16 378.23,343.16 382.12,343.16C386.01,343.16 389.9,343.16 393.79,343.15C397.68,343.15 401.56,343.14 405.45,343.13C409.34,343.12 413.22,343.11 417.11,343.09C421,343.07 424.88,343.05 428.77,343C432.66,342.95 436.54,342.9 440.43,342.81C444.32,342.72 448.2,342.62 452.09,342.47C455.98,342.32 459.87,342.15 463.76,341.93C467.65,341.71 471.54,341.45 475.42,341.14C479.31,340.83 483.2,340.47 487.08,340.08C490.97,339.69 494.85,339.24 498.74,338.78C502.63,338.32 506.51,337.82 510.4,337.33C514.29,336.84 518.18,336.33 522.07,335.86C525.96,335.39 529.84,334.93 533.73,334.53C537.61,334.13 541.5,333.77 545.39,333.48C549.27,333.19 553.16,332.97 557.05,332.78C560.94,332.59 564.82,332.49 568.71,332.33C572.6,332.17 576.49,332.07 580.38,331.83C584.27,331.59 588.16,331.33 592.04,330.87C595.93,330.41 599.83,329.84 603.7,329.06C607.6,328.28 611.49,327.3 615.36,326.19C619.27,325.07 623.14,323.72 627.02,322.38C630.92,321.04 634.79,319.5 638.69,318.15C642.57,316.81 646.44,315.39 650.35,314.31C654.21,313.25 658.1,312.26 662.01,311.72C665.88,311.19 669.79,310.93 673.67,311.07C677.56,311.21 681.47,311.77 685.33,312.58C689.25,313.4 693.14,314.67 697,316C700.92,317.35 704.79,319.04 708.66,320.66C712.56,322.29 716.42,324.11 720.32,325.76C724.2,327.41 728.07,329.08 731.98,330.56C735.85,332.03 739.73,333.41 743.64,334.61C747.51,335.8 751.4,336.83 755.31,337.72C759.18,338.6 763.07,339.31 766.97,339.92C770.85,340.52 774.74,340.97 778.63,341.35C782.51,341.73 786.4,341.99 790.29,342.22Q794.17,342.45 801.95,342.71L801.95,343.16" style="vector-effect: non-scaling-stroke; stroke-width: 2px; stroke: rgb(51, 97, 159); stroke-opacity: 1; fill: rgb(51, 97, 159); fill-opacity: 0.5;"/><g class="points"><path class="point" transform="translate(32.86,336.12)" d="M2.5,0A2.5,2.5 0 1,1 0,-2.5A2.5,2.5 0 0,1 2.5,0Z" style="opacity: 1; stroke-width: 0px; fill: rgb(51, 97, 159); fill-opacity: 1;"/><path class="point" transform="translate(511.19,337.55)" d="M2.5,0A2.5,2.5 0 1,1 0,-2.5A2.5,2.5 0 0,1 2.5,0Z" style="opacity: 1; stroke-width: 0px; fill: rgb(51, 97, 159); fill-opacity: 1;"/><path class="point" transform="translate(544.39,335.7)" d="M2.5,0A2.5,2.5 0 1,1 0,-2.5A2.5,2.5 0 0,1 2.5,0Z" style="opacity: 1; stroke-width: 0px; fill: rgb(51, 97, 159); fill-opacity: 1;"/><path class="point" transform="translate(548.81,337.95)" d="M2.5,0A2.5,2.5 0 1,1 0,-2.5A2.5,2.5 0 0,1 2.5,0Z" style="opacity: 1; stroke-width: 0px; fill: rgb(51, 97, 159); fill-opacity: 1;"/><path class="point" transform="translate(571.39,337.11)" d="M2.5,0A2.5,2.5 0 1,1 0,-2.5A2.5,2.5 0 0,1 2.5,0Z" style="opacity: 1; stroke-width: 0px; fill: rgb(51, 97, 159); fill-opacity: 1;"/><path class="point" transform="translate(574.26,335.91)" d="M2.5,0A2.5,2.5 0 1,1 0,-2.5A2.5,2.5 0 0,1 2.5,0Z" style="opacity: 1; stroke-width: 0px; fill: rgb(51, 97, 159); fill-opacity: 1;"/><path class="point" transform="translate(614.32,336.86)" d="M2.5,0A2.5,2.5 0 1,1 0,-2.5A2.5,2.5 0 0,1 2.5,0Z" style="opacity: 1; stroke-width: 0px; fill: rgb(51, 97, 159); fill-opacity: 1;"/><path class="point" transform="translate(638.22,335.71)" d="M2.5,0A2.5,2.5 0 1,1 0,-2.5A2.5,2.5 0 0,1 2.5,0Z" style="opacity: 1; stroke-width: 0px; fill: rgb(51, 97, 159); fill-opacity: 1;"/><path class="point" transform="translate(639.99,337.89)" d="M2.5,0A2.5,2.5 0 1,1 0,-2.5A2.5,2.5 0 0,1 2.5,0Z" style="opacity: 1; stroke-width: 0px; fill: rgb(51, 97, 159); fill-opacity: 1;"/><path class="point" transform="translate(650.17,339.66)" d="M2.5,0A2.5,2.5 0 1,1 0,-2.5A2.5,2.5 0 0,1 2.5,0Z" style="opacity: 1; stroke-width: 0px; fill: rgb(51, 97, 159); fill-opacity: 1;"/><path class="point" transform="translate(651.05,335.69)" d="M2.5,0A2.5,2.5 0 1,1 0,-2.5A2.5,2.5 0 0,1 2.5,0Z" style="opacity: 1; stroke-width: 0px; fill: rgb(51, 97, 159); fill-opacity: 1;"/><path class="point" transform="translate(659.24,338.39)" d="M2.5,0A2.5,2.5 0 1,1 0,-2.5A2.5,2.5 0 0,1 2.5,0Z" style="opacity: 1; stroke-width: 0px; fill: rgb(51, 97, 159); fill-opacity: 1;"/><path class="point" transform="translate(668.09,332.68)" d="M2.5,0A2.5,2.5 0 1,1 0,-2.5A2.5,2.5 0 0,1 2.5,0Z" style="opacity: 1; stroke-width: 0px; fill: rgb(51, 97, 159); fill-opacity: 1;"/><path class="point" transform="translate(669.86,342.67)" d="M2.5,0A2.5,2.5 0 1,1 0,-2.5A2.5,2.5 0 0,1 2.5,0Z" style="opacity: 1; stroke-width: 0px; fill: rgb(51, 97, 159); fill-opacity: 1;"/><path class="point" transform="translate(669.86,340.3)" d="M2.5,0A2.5,2.5 0 1,1 0,-2.5A2.5,2.5 0 0,1 2.5,0Z" style="opacity: 1; stroke-width: 0px; fill: rgb(51, 97, 159); fill-opacity: 1;"/><path class="point" transform="translate(675.84,331.31)" d="M2.5,0A2.5,2.5 0 1,1 0,-2.5A2.5,2.5 0 0,1 2.5,0Z" style="opacity: 1; stroke-width: 0px; fill: rgb(51, 97, 159); fill-opacity: 1;"/><path class="point" transform="translate(676.17,338.28)" d="M2.5,0A2.5,2.5 0 1,1 0,-2.5A2.5,2.5 0 0,1 2.5,0Z" style="opacity: 1; stroke-width: 0px; fill: rgb(51, 97, 159); fill-opacity: 1;"/><path class="point" transform="translate(676.28,342.25)" d="M2.5,0A2.5,2.5 0 1,1 0,-2.5A2.5,2.5 0 0,1 2.5,0Z" style="opacity: 1; stroke-width: 0px; fill: rgb(51, 97, 159); fill-opacity: 1;"/><path class="point" transform="translate(682.04,338.4)" d="M2.5,0A2.5,2.5 0 1,1 0,-2.5A2.5,2.5 0 0,1 2.5,0Z" style="opacity: 1; stroke-width: 0px; fill: rgb(51, 97, 159); fill-opacity: 1;"/><path class="point" transform="translate(691.33,336.84)" d="M2.5,0A2.5,2.5 0 1,1 0,-2.5A2.5,2.5 0 0,1 2.5,0Z" style="opacity: 1; stroke-width: 0px; fill: rgb(51, 97, 159); fill-opacity: 1;"/><path class="point" transform="translate(692.44,334.61)" d="M2.5,0A2.5,2.5 0 1,1 0,-2.5A2.5,2.5 0 0,1 2.5,0Z" style="opacity: 1; stroke-width: 0px; fill: rgb(51, 97, 159); fill-opacity: 1;"/><path class="point" transform="translate(700.85,336.25)" d="M2.5,0A2.5,2.5 0 1,1 0,-2.5A2.5,2.5 0 0,1 2.5,0Z" style="opacity: 1; stroke-width: 0px; fill: rgb(51, 97, 159); fill-opacity: 1;"/><path class="point" transform="translate(705.94,337.9)" d="M2.5,0A2.5,2.5 0 1,1 0,-2.5A2.5,2.5 0 0,1 2.5,0Z" style="opacity: 1; stroke-width: 0px; fill: rgb(51, 97, 159); fill-opacity: 1;"/><path class="point" transform="translate(731.38,340.06)" d="M2.5,0A2.5,2.5 0 1,1 0,-2.5A2.5,2.5 0 0,1 2.5,0Z" style="opacity: 1; stroke-width: 0px; fill: rgb(51, 97, 159); fill-opacity: 1;"/></g></g><g class="trace violins" style="opacity: 1;"><path class="violin" d="M-37.59,311.07L-37.59,310.71Q-32.28,310.54 -29.63,310.42C-26.98,310.3 -24.32,310.15 -21.67,310C-19.01,309.85 -16.36,309.67 -13.7,309.5C-11.05,309.33 -8.39,309.14 -5.74,308.99C-3.09,308.84 -0.43,308.7 2.22,308.61C4.87,308.52 7.53,308.46 10.18,308.46C12.83,308.46 15.49,308.5 18.14,308.58C20.8,308.66 23.45,308.8 26.11,308.94C28.76,309.08 31.42,309.27 34.07,309.44C36.72,309.61 39.38,309.79 42.03,309.95C44.68,310.11 47.34,310.26 49.99,310.38C52.64,310.5 55.3,310.61 57.95,310.69C60.6,310.77 63.26,310.83 65.91,310.88C68.57,310.93 71.22,310.95 73.88,310.98C76.53,311 79.19,311.02 81.84,311.03C84.49,311.04 87.15,311.06 89.8,311.06C92.45,311.06 95.11,311.06 97.76,311.06C100.41,311.06 103.07,311.07 105.72,311.07C108.37,311.07 111.03,311.07 113.68,311.07C116.34,311.07 118.99,311.07 121.65,311.07C124.3,311.07 126.96,311.07 129.61,311.07C132.26,311.07 134.92,311.07 137.57,311.07C140.22,311.07 142.88,311.07 145.53,311.07C148.18,311.07 150.84,311.07 153.49,311.07C156.15,311.07 158.8,311.07 161.46,311.07C164.11,311.07 166.77,311.07 169.42,311.07C172.07,311.07 174.73,311.07 177.38,311.07C180.03,311.07 182.69,311.07 185.34,311.07C187.99,311.07 190.65,311.07 193.3,311.07C195.95,311.07 198.61,311.07 201.26,311.07C203.92,311.07 206.57,311.07 209.23,311.07C211.88,311.07 214.54,311.07 217.19,311.07C219.84,311.07 222.5,311.07 225.15,311.07C227.8,311.07 230.46,311.07 233.11,311.07C235.76,311.07 238.42,311.07 241.07,311.07C243.72,311.07 246.38,311.07 249.03,311.07C251.69,311.07 254.34,311.07 257,311.07C259.65,311.07 262.31,311.07 264.96,311.07C267.61,311.07 270.27,311.07 272.92,311.07C275.57,311.07 278.23,311.07 280.88,311.07C283.53,311.07 286.19,311.07 288.84,311.07C291.49,311.07 294.15,311.07 296.8,311.07C299.46,311.07 302.11,311.07 304.77,311.07C307.42,311.07 310.08,311.07 312.73,311.07C315.38,311.07 318.04,311.07 320.69,311.07C323.34,311.07 326,311.07 328.65,311.07C331.3,311.07 333.96,311.07 336.61,311.07C339.27,311.07 341.92,311.07 344.58,311.07C347.23,311.07 349.89,311.07 352.54,311.07C355.19,311.07 357.85,311.07 360.5,311.07C363.15,311.07 365.81,311.07 368.46,311.07C371.11,311.07 373.77,311.07 376.42,311.07C379.07,311.07 381.73,311.07 384.38,311.07C387.04,311.07 389.69,311.07 392.35,311.07C395,311.07 397.66,311.07 400.31,311.07C402.96,311.07 405.62,311.07 408.27,311.07C410.92,311.07 413.58,311.07 416.23,311.07C418.88,311.07 421.54,311.07 424.19,311.07C426.84,311.07 429.5,311.07 432.15,311.07C434.81,311.07 437.46,311.06 440.12,311.06C442.77,311.06 445.43,311.06 448.08,311.06C450.73,311.06 453.39,311.04 456.04,311.03C458.69,311.02 461.35,311 464,310.98C466.65,310.95 469.31,310.93 471.96,310.88C474.62,310.83 477.27,310.77 479.93,310.68C482.58,310.6 485.24,310.49 487.89,310.37C490.54,310.25 493.2,310.1 495.85,309.94C498.5,309.78 501.16,309.59 503.81,309.42C506.46,309.24 509.12,309.05 511.77,308.89C514.42,308.73 517.08,308.58 519.73,308.47C522.39,308.36 525.04,308.28 527.7,308.23C530.35,308.18 533.01,308.17 535.66,308.16C538.31,308.15 540.97,308.17 543.62,308.16C546.27,308.15 548.93,308.15 551.58,308.09C554.23,308.03 556.89,307.95 559.54,307.8C562.19,307.65 564.85,307.45 567.5,307.17C570.16,306.89 572.82,306.56 575.47,306.14C578.13,305.72 580.79,305.22 583.43,304.63C586.09,304.04 588.75,303.36 591.39,302.6C594.06,301.83 596.71,300.95 599.35,300.02C602.01,299.08 604.66,298.04 607.31,297C609.97,295.95 612.62,294.83 615.28,293.75C617.93,292.67 620.58,291.55 623.24,290.51C625.89,289.47 628.54,288.45 631.2,287.5C633.85,286.55 636.5,285.64 639.16,284.8C641.8,283.96 644.46,283.16 647.12,282.45C649.76,281.74 652.42,281.06 655.08,280.53C657.73,280 660.39,279.51 663.05,279.25C665.7,278.99 668.36,278.85 671.01,278.98C673.67,279.11 676.34,279.46 678.97,280.03C681.65,280.61 684.31,281.49 686.93,282.47C689.61,283.48 692.25,284.76 694.89,286.02C697.56,287.3 700.19,288.75 702.85,290.1C705.5,291.45 708.15,292.85 710.82,294.11C713.46,295.35 716.11,296.55 718.78,297.62C721.42,298.68 724.07,299.64 726.74,300.52C729.38,301.39 732.04,302.17 734.7,302.9C737.35,303.63 740,304.28 742.66,304.9C745.31,305.52 747.97,306.08 750.63,306.61C753.28,307.13 755.93,307.62 758.59,308.05C761.24,308.48 763.89,308.87 766.55,309.19C769.2,309.51 771.85,309.77 774.51,309.99Q777.16,310.21 782.47,310.51L782.47,311.07" style="vector-effect: non-scaling-stroke; stroke-width: 2px; stroke: rgb(69, 91, 145); stroke-opacity: 1; fill: rgb(69, 91, 145); fill-opacity: 0.5;"/><g class="points"><path class="point" transform="translate(10.62,304.05)" d="M2.5,0A2.5,2.5 0 1,1 0,-2.5A2.5,2.5 0 0,1 2.5,0Z" style="opacity: 1; stroke-width: 0px; fill: rgb(69, 91, 145); fill-opacity: 1;"/><path class="point" transform="translate(527.13,305.45)" d="M2.5,0A2.5,2.5 0 1,1 0,-2.5A2.5,2.5 0 0,1 2.5,0Z" style="opacity: 1; stroke-width: 0px; fill: rgb(69, 91, 145); fill-opacity: 1;"/><path class="point" transform="translate(581.35,303.61)" d="M2.5,0A2.5,2.5 0 1,1 0,-2.5A2.5,2.5 0 0,1 2.5,0Z" style="opacity: 1; stroke-width: 0px; fill: rgb(69, 91, 145); fill-opacity: 1;"/><path class="point" transform="translate(612.77,305.86)" d="M2.5,0A2.5,2.5 0 1,1 0,-2.5A2.5,2.5 0 0,1 2.5,0Z" style="opacity: 1; stroke-width: 0px; fill: rgb(69, 91, 145); fill-opacity: 1;"/><path class="point" transform="translate(622.06,305.02)" d="M2.5,0A2.5,2.5 0 1,1 0,-2.5A2.5,2.5 0 0,1 2.5,0Z" style="opacity: 1; stroke-width: 0px; fill: rgb(69, 91, 145); fill-opacity: 1;"/><path class="point" transform="translate(622.73,303.81)" d="M2.5,0A2.5,2.5 0 1,1 0,-2.5A2.5,2.5 0 0,1 2.5,0Z" style="opacity: 1; stroke-width: 0px; fill: rgb(69, 91, 145); fill-opacity: 1;"/><path class="point" transform="translate(626.93,304.78)" d="M2.5,0A2.5,2.5 0 1,1 0,-2.5A2.5,2.5 0 0,1 2.5,0Z" style="opacity: 1; stroke-width: 0px; fill: rgb(69, 91, 145); fill-opacity: 1;"/><path class="point" transform="translate(638.66,303.4)" d="M2.5,0A2.5,2.5 0 1,1 0,-2.5A2.5,2.5 0 0,1 2.5,0Z" style="opacity: 1; stroke-width: 0px; fill: rgb(69, 91, 145); fill-opacity: 1;"/><path class="point" transform="translate(643.53,306.32)" d="M2.5,0A2.5,2.5 0 1,1 0,-2.5A2.5,2.5 0 0,1 2.5,0Z" style="opacity: 1; stroke-width: 0px; fill: rgb(69, 91, 145); fill-opacity: 1;"/><path class="point" transform="translate(646.19,308.75)" d="M2.5,0A2.5,2.5 0 1,1 0,-2.5A2.5,2.5 0 0,1 2.5,0Z" style="opacity: 1; stroke-width: 0px; fill: rgb(69, 91, 145); fill-opacity: 1;"/><path class="point" transform="translate(648.84,303.16)" d="M2.5,0A2.5,2.5 0 1,1 0,-2.5A2.5,2.5 0 0,1 2.5,0Z" style="opacity: 1; stroke-width: 0px; fill: rgb(69, 91, 145); fill-opacity: 1;"/><path class="point" transform="translate(659.91,306.47)" d="M2.5,0A2.5,2.5 0 1,1 0,-2.5A2.5,2.5 0 0,1 2.5,0Z" style="opacity: 1; stroke-width: 0px; fill: rgb(69, 91, 145); fill-opacity: 1;"/><path class="point" transform="translate(668.76,300.8)" d="M2.5,0A2.5,2.5 0 1,1 0,-2.5A2.5,2.5 0 0,1 2.5,0Z" style="opacity: 1; stroke-width: 0px; fill: rgb(69, 91, 145); fill-opacity: 1;"/><path class="point" transform="translate(671.97,310.9)" d="M2.5,0A2.5,2.5 0 1,1 0,-2.5A2.5,2.5 0 0,1 2.5,0Z" style="opacity: 1; stroke-width: 0px; fill: rgb(69, 91, 145); fill-opacity: 1;"/><path class="point" transform="translate(673.85,308.25)" d="M2.5,0A2.5,2.5 0 1,1 0,-2.5A2.5,2.5 0 0,1 2.5,0Z" style="opacity: 1; stroke-width: 0px; fill: rgb(69, 91, 145); fill-opacity: 1;"/><path class="point" transform="translate(675.06,299.13)" d="M2.5,0A2.5,2.5 0 1,1 0,-2.5A2.5,2.5 0 0,1 2.5,0Z" style="opacity: 1; stroke-width: 0px; fill: rgb(69, 91, 145); fill-opacity: 1;"/><path class="point" transform="translate(679.71,306.2)" d="M2.5,0A2.5,2.5 0 1,1 0,-2.5A2.5,2.5 0 0,1 2.5,0Z" style="opacity: 1; stroke-width: 0px; fill: rgb(69, 91, 145); fill-opacity: 1;"/><path class="point" transform="translate(682.7,309.17)" d="M2.5,0A2.5,2.5 0 1,1 0,-2.5A2.5,2.5 0 0,1 2.5,0Z" style="opacity: 1; stroke-width: 0px; fill: rgb(69, 91, 145); fill-opacity: 1;"/><path class="point" transform="translate(682.92,306.34)" d="M2.5,0A2.5,2.5 0 1,1 0,-2.5A2.5,2.5 0 0,1 2.5,0Z" style="opacity: 1; stroke-width: 0px; fill: rgb(69, 91, 145); fill-opacity: 1;"/><path class="point" transform="translate(688.01,304.76)" d="M2.5,0A2.5,2.5 0 1,1 0,-2.5A2.5,2.5 0 0,1 2.5,0Z" style="opacity: 1; stroke-width: 0px; fill: rgb(69, 91, 145); fill-opacity: 1;"/><path class="point" transform="translate(690.56,302.54)" d="M2.5,0A2.5,2.5 0 1,1 0,-2.5A2.5,2.5 0 0,1 2.5,0Z" style="opacity: 1; stroke-width: 0px; fill: rgb(69, 91, 145); fill-opacity: 1;"/><path class="point" transform="translate(702.39,304.14)" d="M2.5,0A2.5,2.5 0 1,1 0,-2.5A2.5,2.5 0 0,1 2.5,0Z" style="opacity: 1; stroke-width: 0px; fill: rgb(69, 91, 145); fill-opacity: 1;"/><path class="point" transform="translate(727.18,305.88)" d="M2.5,0A2.5,2.5 0 1,1 0,-2.5A2.5,2.5 0 0,1 2.5,0Z" style="opacity: 1; stroke-width: 0px; fill: rgb(69, 91, 145); fill-opacity: 1;"/><path class="point" transform="translate(734.26,307.97)" d="M2.5,0A2.5,2.5 0 1,1 0,-2.5A2.5,2.5 0 0,1 2.5,0Z" style="opacity: 1; stroke-width: 0px; fill: rgb(69, 91, 145); fill-opacity: 1;"/></g></g><g class="trace violins" style="opacity: 1;"><path class="violin" d="M71.94,278.98L71.94,278.65Q77.56,278.48 80.37,278.37C83.18,278.26 86,278.12 88.81,277.98C91.62,277.84 94.43,277.67 97.24,277.51C100.05,277.35 102.86,277.17 105.67,277.03C108.48,276.89 111.29,276.76 114.1,276.68C116.91,276.6 119.73,276.54 122.54,276.54C125.35,276.54 128.16,276.58 130.97,276.66C133.78,276.74 136.59,276.87 139.4,277C142.21,277.14 145.02,277.31 147.83,277.47C150.64,277.63 153.46,277.8 156.27,277.95C159.08,278.1 161.89,278.24 164.7,278.35C167.51,278.46 170.32,278.55 173.13,278.63C175.94,278.71 178.75,278.77 181.56,278.81C184.37,278.86 187.19,278.88 190,278.9C192.81,278.92 195.62,278.94 198.43,278.95C201.24,278.96 204.05,278.97 206.86,278.97C209.67,278.97 212.48,278.97 215.29,278.97C218.1,278.97 220.92,278.98 223.73,278.98C226.54,278.98 229.35,278.98 232.16,278.98C234.97,278.98 237.78,278.98 240.59,278.98C243.4,278.98 246.21,278.98 249.02,278.98C251.83,278.98 254.65,278.98 257.46,278.98C260.27,278.98 263.08,278.98 265.89,278.98C268.7,278.98 271.51,278.98 274.32,278.98C277.13,278.98 279.94,278.98 282.75,278.98C285.56,278.98 288.38,278.98 291.19,278.98C294,278.98 296.81,278.98 299.62,278.98C302.43,278.98 305.24,278.98 308.05,278.98C310.86,278.98 313.67,278.98 316.48,278.98C319.29,278.98 322.11,278.98 324.92,278.98C327.73,278.98 330.54,278.98 333.35,278.98C336.16,278.98 338.97,278.98 341.78,278.98C344.59,278.98 347.4,278.98 350.21,278.98C353.02,278.98 355.84,278.98 358.65,278.98C361.46,278.98 364.27,278.98 367.08,278.98C369.89,278.98 372.7,278.98 375.51,278.98C378.32,278.98 381.13,278.98 383.94,278.98C386.75,278.98 389.57,278.98 392.38,278.98C395.19,278.98 398,278.98 400.81,278.98C403.62,278.98 406.43,278.98 409.24,278.98C412.05,278.98 414.86,278.98 417.67,278.98C420.48,278.98 423.3,278.98 426.11,278.98C428.92,278.98 431.73,278.98 434.54,278.98C437.35,278.98 440.16,278.98 442.97,278.98C445.78,278.98 448.59,278.97 451.4,278.97C454.21,278.97 457.03,278.98 459.84,278.97C462.65,278.96 465.46,278.95 468.27,278.94C471.08,278.93 473.89,278.92 476.7,278.89C479.51,278.86 482.32,278.82 485.13,278.76C487.94,278.69 490.76,278.62 493.57,278.5C496.38,278.38 499.19,278.24 502,278.04C504.81,277.84 507.62,277.6 510.43,277.3C513.24,277 516.05,276.64 518.86,276.25C521.68,275.86 524.49,275.4 527.3,274.96C530.11,274.52 532.92,274.02 535.73,273.59C538.54,273.16 541.35,272.73 544.16,272.4C546.97,272.07 549.78,271.79 552.59,271.6C555.4,271.42 558.22,271.33 561.03,271.29C563.84,271.25 566.65,271.31 569.46,271.35C572.27,271.39 575.08,271.51 577.89,271.54C580.7,271.57 583.51,271.62 586.32,271.56C589.13,271.5 591.95,271.39 594.76,271.17C597.57,270.95 600.39,270.65 603.19,270.24C606.01,269.83 608.82,269.33 611.62,268.72C614.44,268.11 617.25,267.4 620.05,266.59C622.88,265.77 625.69,264.84 628.49,263.83C631.32,262.81 634.12,261.66 636.92,260.49C639.74,259.31 642.54,258.01 645.35,256.77C648.16,255.52 650.95,254.19 653.78,253.02C656.58,251.86 659.38,250.67 662.22,249.76C665.01,248.86 667.82,248.05 670.65,247.57C673.44,247.1 676.27,246.83 679.08,246.89C681.89,246.95 684.73,247.32 687.51,247.92C690.35,248.53 693.17,249.5 695.95,250.56C698.8,251.65 701.59,253.03 704.38,254.4C707.21,255.79 710,257.36 712.81,258.86C715.62,260.36 718.42,261.94 721.24,263.39C724.04,264.83 726.85,266.26 729.68,267.54C732.47,268.81 735.28,270 738.11,271.05C740.9,272.08 743.71,273 746.54,273.79C749.33,274.57 752.15,275.23 754.97,275.79C757.77,276.35 760.59,276.78 763.41,277.15C766.22,277.52 769.03,277.78 771.84,278.01Q774.65,278.23 780.27,278.5L780.27,278.98" style="vector-effect: non-scaling-stroke; stroke-width: 2px; stroke: rgb(88, 86, 132); stroke-opacity: 1; fill: rgb(88, 86, 132); fill-opacity: 0.5;"/><g class="points"><path class="point" transform="translate(122.82,271.97)" d="M2.5,0A2.5,2.5 0 1,1 0,-2.5A2.5,2.5 0 0,1 2.5,0Z" style="opacity: 1; stroke-width: 0px; fill: rgb(88, 86, 132); fill-opacity: 1;"/><path class="point" transform="translate(544.83,273.32)" d="M2.5,0A2.5,2.5 0 1,1 0,-2.5A2.5,2.5 0 0,1 2.5,0Z" style="opacity: 1; stroke-width: 0px; fill: rgb(88, 86, 132); fill-opacity: 1;"/><path class="point" transform="translate(559.33,271.56)" d="M2.5,0A2.5,2.5 0 1,1 0,-2.5A2.5,2.5 0 0,1 2.5,0Z" style="opacity: 1; stroke-width: 0px; fill: rgb(88, 86, 132); fill-opacity: 1;"/><path class="point" transform="translate(561.98,273.73)" d="M2.5,0A2.5,2.5 0 1,1 0,-2.5A2.5,2.5 0 0,1 2.5,0Z" style="opacity: 1; stroke-width: 0px; fill: rgb(88, 86, 132); fill-opacity: 1;"/><path class="point" transform="translate(608.01,272.92)" d="M2.5,0A2.5,2.5 0 1,1 0,-2.5A2.5,2.5 0 0,1 2.5,0Z" style="opacity: 1; stroke-width: 0px; fill: rgb(88, 86, 132); fill-opacity: 1;"/><path class="point" transform="translate(611.44,271.77)" d="M2.5,0A2.5,2.5 0 1,1 0,-2.5A2.5,2.5 0 0,1 2.5,0Z" style="opacity: 1; stroke-width: 0px; fill: rgb(88, 86, 132); fill-opacity: 1;"/><path class="point" transform="translate(644.19,272.68)" d="M2.5,0A2.5,2.5 0 1,1 0,-2.5A2.5,2.5 0 0,1 2.5,0Z" style="opacity: 1; stroke-width: 0px; fill: rgb(88, 86, 132); fill-opacity: 1;"/><path class="point" transform="translate(644.41,271.6)" d="M2.5,0A2.5,2.5 0 1,1 0,-2.5A2.5,2.5 0 0,1 2.5,0Z" style="opacity: 1; stroke-width: 0px; fill: rgb(88, 86, 132); fill-opacity: 1;"/><path class="point" transform="translate(646.96,273.62)" d="M2.5,0A2.5,2.5 0 1,1 0,-2.5A2.5,2.5 0 0,1 2.5,0Z" style="opacity: 1; stroke-width: 0px; fill: rgb(88, 86, 132); fill-opacity: 1;"/><path class="point" transform="translate(651.94,275.72)" d="M2.5,0A2.5,2.5 0 1,1 0,-2.5A2.5,2.5 0 0,1 2.5,0Z" style="opacity: 1; stroke-width: 0px; fill: rgb(88, 86, 132); fill-opacity: 1;"/><path class="point" transform="translate(668.76,271.41)" d="M2.5,0A2.5,2.5 0 1,1 0,-2.5A2.5,2.5 0 0,1 2.5,0Z" style="opacity: 1; stroke-width: 0px; fill: rgb(88, 86, 132); fill-opacity: 1;"/><path class="point" transform="translate(672.3,274.45)" d="M2.5,0A2.5,2.5 0 1,1 0,-2.5A2.5,2.5 0 0,1 2.5,0Z" style="opacity: 1; stroke-width: 0px; fill: rgb(88, 86, 132); fill-opacity: 1;"/><path class="point" transform="translate(673.4,269.04)" d="M2.5,0A2.5,2.5 0 1,1 0,-2.5A2.5,2.5 0 0,1 2.5,0Z" style="opacity: 1; stroke-width: 0px; fill: rgb(88, 86, 132); fill-opacity: 1;"/><path class="point" transform="translate(673.96,277.62)" d="M2.5,0A2.5,2.5 0 1,1 0,-2.5A2.5,2.5 0 0,1 2.5,0Z" style="opacity: 1; stroke-width: 0px; fill: rgb(88, 86, 132); fill-opacity: 1;"/><path class="point" transform="translate(675.06,275.59)" d="M2.5,0A2.5,2.5 0 1,1 0,-2.5A2.5,2.5 0 0,1 2.5,0Z" style="opacity: 1; stroke-width: 0px; fill: rgb(88, 86, 132); fill-opacity: 1;"/><path class="point" transform="translate(678.61,267.1)" d="M2.5,0A2.5,2.5 0 1,1 0,-2.5A2.5,2.5 0 0,1 2.5,0Z" style="opacity: 1; stroke-width: 0px; fill: rgb(88, 86, 132); fill-opacity: 1;"/><path class="point" transform="translate(682.04,274.17)" d="M2.5,0A2.5,2.5 0 1,1 0,-2.5A2.5,2.5 0 0,1 2.5,0Z" style="opacity: 1; stroke-width: 0px; fill: rgb(88, 86, 132); fill-opacity: 1;"/><path class="point" transform="translate(684.91,277.35)" d="M2.5,0A2.5,2.5 0 1,1 0,-2.5A2.5,2.5 0 0,1 2.5,0Z" style="opacity: 1; stroke-width: 0px; fill: rgb(88, 86, 132); fill-opacity: 1;"/><path class="point" transform="translate(693.1,274.13)" d="M2.5,0A2.5,2.5 0 1,1 0,-2.5A2.5,2.5 0 0,1 2.5,0Z" style="opacity: 1; stroke-width: 0px; fill: rgb(88, 86, 132); fill-opacity: 1;"/><path class="point" transform="translate(697.53,272.66)" d="M2.5,0A2.5,2.5 0 1,1 0,-2.5A2.5,2.5 0 0,1 2.5,0Z" style="opacity: 1; stroke-width: 0px; fill: rgb(88, 86, 132); fill-opacity: 1;"/><path class="point" transform="translate(701.51,270.56)" d="M2.5,0A2.5,2.5 0 1,1 0,-2.5A2.5,2.5 0 0,1 2.5,0Z" style="opacity: 1; stroke-width: 0px; fill: rgb(88, 86, 132); fill-opacity: 1;"/><path class="point" transform="translate(702.62,272.08)" d="M2.5,0A2.5,2.5 0 1,1 0,-2.5A2.5,2.5 0 0,1 2.5,0Z" style="opacity: 1; stroke-width: 0px; fill: rgb(88, 86, 132); fill-opacity: 1;"/><path class="point" transform="translate(713.46,273.72)" d="M2.5,0A2.5,2.5 0 1,1 0,-2.5A2.5,2.5 0 0,1 2.5,0Z" style="opacity: 1; stroke-width: 0px; fill: rgb(88, 86, 132); fill-opacity: 1;"/><path class="point" transform="translate(729.39,276.03)" d="M2.5,0A2.5,2.5 0 1,1 0,-2.5A2.5,2.5 0 0,1 2.5,0Z" style="opacity: 1; stroke-width: 0px; fill: rgb(88, 86, 132); fill-opacity: 1;"/></g></g><g class="trace violins" style="opacity: 1;"><path class="violin" d="M138.73,246.89L138.73,246.52Q142.94,246.33 145.04,246.21C147.15,246.08 149.25,245.93 151.36,245.77C153.46,245.61 155.57,245.42 157.67,245.24C159.78,245.06 161.88,244.87 163.99,244.71C166.1,244.56 168.2,244.4 170.31,244.31C172.41,244.22 174.52,244.16 176.62,244.16C178.73,244.16 180.83,244.21 182.94,244.3C185.04,244.39 187.15,244.53 189.25,244.68C191.36,244.83 193.46,245.03 195.57,245.21C197.68,245.39 199.78,245.58 201.89,245.74C203.99,245.9 206.1,246.05 208.2,246.18C210.31,246.31 212.41,246.41 214.52,246.5C216.62,246.59 218.73,246.65 220.83,246.7C222.94,246.75 225.04,246.77 227.15,246.8C229.26,246.82 231.36,246.84 233.47,246.85C235.57,246.86 237.68,246.87 239.78,246.87C241.89,246.88 243.99,246.88 246.1,246.88C248.2,246.88 250.31,246.89 252.41,246.89C254.52,246.89 256.62,246.89 258.73,246.89C260.83,246.89 262.94,246.89 265.04,246.89C267.15,246.89 269.25,246.89 271.36,246.89C273.47,246.89 275.57,246.89 277.68,246.89C279.78,246.89 281.89,246.89 283.99,246.89C286.1,246.89 288.2,246.89 290.31,246.89C292.41,246.89 294.52,246.89 296.62,246.89C298.73,246.89 300.83,246.89 302.94,246.89C305.05,246.89 307.15,246.89 309.26,246.89C311.36,246.89 313.47,246.89 315.57,246.89C317.68,246.89 319.78,246.89 321.89,246.89C323.99,246.89 326.1,246.89 328.2,246.89C330.31,246.89 332.41,246.89 334.52,246.89C336.63,246.89 338.73,246.89 340.84,246.89C342.94,246.89 345.05,246.89 347.15,246.89C349.26,246.89 351.36,246.89 353.47,246.89C355.57,246.89 357.68,246.89 359.78,246.89C361.89,246.89 363.99,246.89 366.1,246.89C368.21,246.89 370.31,246.89 372.42,246.89C374.52,246.89 376.63,246.89 378.73,246.89C380.84,246.89 382.94,246.89 385.05,246.89C387.15,246.89 389.26,246.89 391.36,246.89C393.47,246.89 395.57,246.89 397.68,246.89C399.79,246.89 401.89,246.89 404,246.89C406.1,246.89 408.21,246.89 410.31,246.89C412.42,246.89 414.52,246.89 416.63,246.89C418.73,246.89 420.84,246.89 422.94,246.89C425.05,246.89 427.15,246.89 429.26,246.89C431.37,246.89 433.47,246.89 435.58,246.89C437.68,246.89 439.79,246.89 441.89,246.89C444,246.89 446.1,246.89 448.21,246.89C450.31,246.89 452.42,246.89 454.52,246.89C456.63,246.89 458.73,246.89 460.84,246.89C462.95,246.89 465.05,246.89 467.16,246.89C469.26,246.89 471.37,246.89 473.47,246.89C475.58,246.89 477.68,246.89 479.79,246.89C481.89,246.89 484,246.89 486.1,246.89C488.21,246.89 490.31,246.89 492.42,246.89C494.53,246.89 496.63,246.89 498.74,246.89C500.84,246.89 502.95,246.89 505.05,246.89C507.16,246.89 509.26,246.89 511.37,246.89C513.47,246.89 515.58,246.89 517.68,246.89C519.79,246.89 521.89,246.89 524,246.89C526.11,246.89 528.21,246.89 530.32,246.89C532.42,246.89 534.53,246.89 536.63,246.89C538.74,246.89 540.84,246.89 542.95,246.89C545.05,246.89 547.16,246.88 549.26,246.88C551.37,246.88 553.47,246.88 555.58,246.88C557.69,246.88 559.79,246.88 561.9,246.87C564,246.86 566.11,246.85 568.21,246.83C570.32,246.81 572.42,246.8 574.53,246.75C576.63,246.7 578.74,246.64 580.84,246.54C582.95,246.44 585.06,246.32 587.16,246.13C589.27,245.94 591.38,245.71 593.48,245.38C595.59,245.05 597.7,244.65 599.79,244.14C601.91,243.63 604.02,243.01 606.11,242.31C608.23,241.6 610.33,240.77 612.42,239.89C614.54,239 616.64,237.99 618.74,236.99C620.85,235.98 622.95,234.88 625.06,233.84C627.16,232.8 629.26,231.73 631.37,230.73C633.47,229.74 635.57,228.77 637.69,227.87C639.78,226.98 641.89,226.15 644,225.35C646.1,224.55 648.21,223.82 650.32,223.08C652.42,222.34 654.53,221.64 656.64,220.91C658.74,220.19 660.84,219.43 662.95,218.73C665.05,218.03 667.15,217.3 669.27,216.71C671.36,216.13 673.46,215.55 675.58,215.23C677.67,214.92 679.8,214.71 681.9,214.8C684.01,214.89 686.14,215.22 688.22,215.75C690.35,216.3 692.46,217.15 694.53,218.08C696.67,219.04 698.76,220.24 700.85,221.43C702.97,222.63 705.05,223.99 707.16,225.26C709.26,226.53 711.36,227.84 713.48,229.03C715.57,230.21 717.67,231.36 719.8,232.37C721.88,233.36 723.99,234.27 726.11,235.05C728.2,235.81 730.31,236.46 732.43,237.01C734.52,237.55 736.63,237.97 738.74,238.34C740.84,238.71 742.95,238.96 745.06,239.24C747.17,239.52 749.28,239.73 751.38,240C753.49,240.27 755.59,240.53 757.69,240.84C759.8,241.15 761.91,241.51 764.01,241.87C766.12,242.24 768.22,242.65 770.32,243.03C772.43,243.41 774.53,243.82 776.64,244.17C778.74,244.52 780.85,244.86 782.96,245.15C785.06,245.43 787.16,245.68 789.27,245.88Q791.37,246.08 795.59,246.36L795.59,246.89" style="vector-effect: non-scaling-stroke; stroke-width: 2px; stroke: rgb(106, 80, 119); stroke-opacity: 1; fill: rgb(106, 80, 119); fill-opacity: 0.5;"/><g class="points"><path class="point" transform="translate(176.82,239.89)" d="M2.5,0A2.5,2.5 0 1,1 0,-2.5A2.5,2.5 0 0,1 2.5,0Z" style="opacity: 1; stroke-width: 0px; fill: rgb(106, 80, 119); fill-opacity: 1;"/><path class="point" transform="translate(625.38,241.25)" d="M2.5,0A2.5,2.5 0 1,1 0,-2.5A2.5,2.5 0 0,1 2.5,0Z" style="opacity: 1; stroke-width: 0px; fill: rgb(106, 80, 119); fill-opacity: 1;"/><path class="point" transform="translate(629.37,239.45)" d="M2.5,0A2.5,2.5 0 1,1 0,-2.5A2.5,2.5 0 0,1 2.5,0Z" style="opacity: 1; stroke-width: 0px; fill: rgb(106, 80, 119); fill-opacity: 1;"/><path class="point" transform="translate(636.45,241.65)" d="M2.5,0A2.5,2.5 0 1,1 0,-2.5A2.5,2.5 0 0,1 2.5,0Z" style="opacity: 1; stroke-width: 0px; fill: rgb(106, 80, 119); fill-opacity: 1;"/><path class="point" transform="translate(643.75,240.83)" d="M2.5,0A2.5,2.5 0 1,1 0,-2.5A2.5,2.5 0 0,1 2.5,0Z" style="opacity: 1; stroke-width: 0px; fill: rgb(106, 80, 119); fill-opacity: 1;"/><path class="point" transform="translate(649.5,239.66)" d="M2.5,0A2.5,2.5 0 1,1 0,-2.5A2.5,2.5 0 0,1 2.5,0Z" style="opacity: 1; stroke-width: 0px; fill: rgb(106, 80, 119); fill-opacity: 1;"/><path class="point" transform="translate(652.93,240.64)" d="M2.5,0A2.5,2.5 0 1,1 0,-2.5A2.5,2.5 0 0,1 2.5,0Z" style="opacity: 1; stroke-width: 0px; fill: rgb(106, 80, 119); fill-opacity: 1;"/><path class="point" transform="translate(655.04,239.08)" d="M2.5,0A2.5,2.5 0 1,1 0,-2.5A2.5,2.5 0 0,1 2.5,0Z" style="opacity: 1; stroke-width: 0px; fill: rgb(106, 80, 119); fill-opacity: 1;"/><path class="point" transform="translate(660.57,242.1)" d="M2.5,0A2.5,2.5 0 1,1 0,-2.5A2.5,2.5 0 0,1 2.5,0Z" style="opacity: 1; stroke-width: 0px; fill: rgb(106, 80, 119); fill-opacity: 1;"/><path class="point" transform="translate(677.83,244.55)" d="M2.5,0A2.5,2.5 0 1,1 0,-2.5A2.5,2.5 0 0,1 2.5,0Z" style="opacity: 1; stroke-width: 0px; fill: rgb(106, 80, 119); fill-opacity: 1;"/><path class="point" transform="translate(678.05,238.93)" d="M2.5,0A2.5,2.5 0 1,1 0,-2.5A2.5,2.5 0 0,1 2.5,0Z" style="opacity: 1; stroke-width: 0px; fill: rgb(106, 80, 119); fill-opacity: 1;"/><path class="point" transform="translate(680.04,242.34)" d="M2.5,0A2.5,2.5 0 1,1 0,-2.5A2.5,2.5 0 0,1 2.5,0Z" style="opacity: 1; stroke-width: 0px; fill: rgb(106, 80, 119); fill-opacity: 1;"/><path class="point" transform="translate(680.49,237.02)" d="M2.5,0A2.5,2.5 0 1,1 0,-2.5A2.5,2.5 0 0,1 2.5,0Z" style="opacity: 1; stroke-width: 0px; fill: rgb(106, 80, 119); fill-opacity: 1;"/><path class="point" transform="translate(681.81,245.86)" d="M2.5,0A2.5,2.5 0 1,1 0,-2.5A2.5,2.5 0 0,1 2.5,0Z" style="opacity: 1; stroke-width: 0px; fill: rgb(106, 80, 119); fill-opacity: 1;"/><path class="point" transform="translate(681.81,244.18)" d="M2.5,0A2.5,2.5 0 1,1 0,-2.5A2.5,2.5 0 0,1 2.5,0Z" style="opacity: 1; stroke-width: 0px; fill: rgb(106, 80, 119); fill-opacity: 1;"/><path class="point" transform="translate(684.91,235.47)" d="M2.5,0A2.5,2.5 0 1,1 0,-2.5A2.5,2.5 0 0,1 2.5,0Z" style="opacity: 1; stroke-width: 0px; fill: rgb(106, 80, 119); fill-opacity: 1;"/><path class="point" transform="translate(689.34,241.8)" d="M2.5,0A2.5,2.5 0 1,1 0,-2.5A2.5,2.5 0 0,1 2.5,0Z" style="opacity: 1; stroke-width: 0px; fill: rgb(106, 80, 119); fill-opacity: 1;"/><path class="point" transform="translate(694.98,244.01)" d="M2.5,0A2.5,2.5 0 1,1 0,-2.5A2.5,2.5 0 0,1 2.5,0Z" style="opacity: 1; stroke-width: 0px; fill: rgb(106, 80, 119); fill-opacity: 1;"/><path class="point" transform="translate(699.08,241.77)" d="M2.5,0A2.5,2.5 0 1,1 0,-2.5A2.5,2.5 0 0,1 2.5,0Z" style="opacity: 1; stroke-width: 0px; fill: rgb(106, 80, 119); fill-opacity: 1;"/><path class="point" transform="translate(706.49,240.55)" d="M2.5,0A2.5,2.5 0 1,1 0,-2.5A2.5,2.5 0 0,1 2.5,0Z" style="opacity: 1; stroke-width: 0px; fill: rgb(106, 80, 119); fill-opacity: 1;"/><path class="point" transform="translate(715.01,238.85)" d="M2.5,0A2.5,2.5 0 1,1 0,-2.5A2.5,2.5 0 0,1 2.5,0Z" style="opacity: 1; stroke-width: 0px; fill: rgb(106, 80, 119); fill-opacity: 1;"/><path class="point" transform="translate(722.09,240.08)" d="M2.5,0A2.5,2.5 0 1,1 0,-2.5A2.5,2.5 0 0,1 2.5,0Z" style="opacity: 1; stroke-width: 0px; fill: rgb(106, 80, 119); fill-opacity: 1;"/><path class="point" transform="translate(749.75,241.42)" d="M2.5,0A2.5,2.5 0 1,1 0,-2.5A2.5,2.5 0 0,1 2.5,0Z" style="opacity: 1; stroke-width: 0px; fill: rgb(106, 80, 119); fill-opacity: 1;"/><path class="point" transform="translate(757.5,243.13)" d="M2.5,0A2.5,2.5 0 1,1 0,-2.5A2.5,2.5 0 0,1 2.5,0Z" style="opacity: 1; stroke-width: 0px; fill: rgb(106, 80, 119); fill-opacity: 1;"/></g></g><g class="trace violins" style="opacity: 1;"><path class="violin" d="M657.99,214.8L657.99,214.07Q661.35,213.64 663.01,213.3C664.69,212.96 666.37,212.55 668.02,212.01C669.71,211.46 671.39,210.81 673.04,210.04C674.74,209.25 676.41,208.31 678.06,207.3C679.76,206.25 681.43,205.06 683.08,203.83C684.77,202.57 686.43,201.18 688.09,199.8C689.77,198.4 691.43,196.92 693.11,195.49C694.78,194.07 696.44,192.6 698.13,191.26C699.78,189.95 701.44,188.64 703.15,187.53C704.79,186.46 706.46,185.44 708.17,184.68C709.81,183.95 711.49,183.35 713.18,183.02C714.83,182.7 716.53,182.59 718.2,182.7C719.88,182.81 721.57,183.19 723.22,183.7C724.92,184.23 726.59,185.01 728.24,185.84C729.94,186.7 731.6,187.75 733.25,188.8C734.94,189.87 736.6,191.07 738.27,192.2C739.94,193.33 741.6,194.51 743.29,195.58C744.95,196.63 746.61,197.66 748.31,198.54C749.96,199.39 751.63,200.16 753.32,200.79C754.97,201.4 756.66,201.88 758.34,202.28C760,202.68 761.68,202.94 763.36,203.21C765.03,203.48 766.71,203.67 768.38,203.92C770.05,204.17 771.72,204.4 773.39,204.7C775.07,205 776.74,205.34 778.41,205.71C780.09,206.08 781.76,206.5 783.43,206.91C785.11,207.33 786.78,207.78 788.45,208.2C790.12,208.62 791.8,209.05 793.47,209.45C795.14,209.85 796.81,210.24 798.48,210.61C800.15,210.97 801.82,211.32 803.5,211.64C805.17,211.96 806.84,212.26 808.52,212.53C810.19,212.79 811.87,213.03 813.54,213.23C815.21,213.43 816.88,213.59 818.55,213.71C820.22,213.83 821.9,213.9 823.57,213.93C825.24,213.96 826.92,213.93 828.59,213.88C830.26,213.83 831.94,213.72 833.61,213.6C835.28,213.48 836.95,213.31 838.62,213.16C840.29,213.01 841.97,212.82 843.64,212.68C845.31,212.54 846.99,212.39 848.66,212.31C850.33,212.23 852.01,212.18 853.68,212.18C855.35,212.18 857.02,212.23 858.69,212.32C860.36,212.41 862.04,212.55 863.71,212.7C865.38,212.85 867.06,213.04 868.73,213.21C870.4,213.38 872.08,213.56 873.75,213.72C875.42,213.87 877.09,214.02 878.76,214.14Q880.43,214.26 883.78,214.44L883.78,214.8" style="vector-effect: non-scaling-stroke; stroke-width: 2px; stroke: rgb(124, 75, 106); stroke-opacity: 1; fill: rgb(124, 75, 106); fill-opacity: 0.5;"/><g class="points"><path class="point" transform="translate(688.12,206.09)" d="M2.5,0A2.5,2.5 0 1,1 0,-2.5A2.5,2.5 0 0,1 2.5,0Z" style="opacity: 1; stroke-width: 0px; fill: rgb(124, 75, 106); fill-opacity: 1;"/><path class="point" transform="translate(692.99,211.45)" d="M2.5,0A2.5,2.5 0 1,1 0,-2.5A2.5,2.5 0 0,1 2.5,0Z" style="opacity: 1; stroke-width: 0px; fill: rgb(124, 75, 106); fill-opacity: 1;"/><path class="point" transform="translate(697.53,204.43)" d="M2.5,0A2.5,2.5 0 1,1 0,-2.5A2.5,2.5 0 0,1 2.5,0Z" style="opacity: 1; stroke-width: 0px; fill: rgb(124, 75, 106); fill-opacity: 1;"/><path class="point" transform="translate(697.64,212.95)" d="M2.5,0A2.5,2.5 0 1,1 0,-2.5A2.5,2.5 0 0,1 2.5,0Z" style="opacity: 1; stroke-width: 0px; fill: rgb(124, 75, 106); fill-opacity: 1;"/><path class="point" transform="translate(707.71,209.7)" d="M2.5,0A2.5,2.5 0 1,1 0,-2.5A2.5,2.5 0 0,1 2.5,0Z" style="opacity: 1; stroke-width: 0px; fill: rgb(124, 75, 106); fill-opacity: 1;"/><path class="point" transform="translate(711.03,205.45)" d="M2.5,0A2.5,2.5 0 1,1 0,-2.5A2.5,2.5 0 0,1 2.5,0Z" style="opacity: 1; stroke-width: 0px; fill: rgb(124, 75, 106); fill-opacity: 1;"/><path class="point" transform="translate(711.14,208.59)" d="M2.5,0A2.5,2.5 0 1,1 0,-2.5A2.5,2.5 0 0,1 2.5,0Z" style="opacity: 1; stroke-width: 0px; fill: rgb(124, 75, 106); fill-opacity: 1;"/><path class="point" transform="translate(712.13,206.85)" d="M2.5,0A2.5,2.5 0 1,1 0,-2.5A2.5,2.5 0 0,1 2.5,0Z" style="opacity: 1; stroke-width: 0px; fill: rgb(124, 75, 106); fill-opacity: 1;"/><path class="point" transform="translate(712.46,210.01)" d="M2.5,0A2.5,2.5 0 1,1 0,-2.5A2.5,2.5 0 0,1 2.5,0Z" style="opacity: 1; stroke-width: 0px; fill: rgb(124, 75, 106); fill-opacity: 1;"/><path class="point" transform="translate(715.89,212.77)" d="M2.5,0A2.5,2.5 0 1,1 0,-2.5A2.5,2.5 0 0,1 2.5,0Z" style="opacity: 1; stroke-width: 0px; fill: rgb(124, 75, 106); fill-opacity: 1;"/><path class="point" transform="translate(716.67,206.66)" d="M2.5,0A2.5,2.5 0 1,1 0,-2.5A2.5,2.5 0 0,1 2.5,0Z" style="opacity: 1; stroke-width: 0px; fill: rgb(124, 75, 106); fill-opacity: 1;"/><path class="point" transform="translate(719.54,210.48)" d="M2.5,0A2.5,2.5 0 1,1 0,-2.5A2.5,2.5 0 0,1 2.5,0Z" style="opacity: 1; stroke-width: 0px; fill: rgb(124, 75, 106); fill-opacity: 1;"/><path class="point" transform="translate(729.5,204.93)" d="M2.5,0A2.5,2.5 0 1,1 0,-2.5A2.5,2.5 0 0,1 2.5,0Z" style="opacity: 1; stroke-width: 0px; fill: rgb(124, 75, 106); fill-opacity: 1;"/><path class="point" transform="translate(731.38,212.97)" d="M2.5,0A2.5,2.5 0 1,1 0,-2.5A2.5,2.5 0 0,1 2.5,0Z" style="opacity: 1; stroke-width: 0px; fill: rgb(124, 75, 106); fill-opacity: 1;"/><path class="point" transform="translate(732.49,210.78)" d="M2.5,0A2.5,2.5 0 1,1 0,-2.5A2.5,2.5 0 0,1 2.5,0Z" style="opacity: 1; stroke-width: 0px; fill: rgb(124, 75, 106); fill-opacity: 1;"/><path class="point" transform="translate(732.6,204.84)" d="M2.5,0A2.5,2.5 0 1,1 0,-2.5A2.5,2.5 0 0,1 2.5,0Z" style="opacity: 1; stroke-width: 0px; fill: rgb(124, 75, 106); fill-opacity: 1;"/><path class="point" transform="translate(732.82,209.39)" d="M2.5,0A2.5,2.5 0 1,1 0,-2.5A2.5,2.5 0 0,1 2.5,0Z" style="opacity: 1; stroke-width: 0px; fill: rgb(124, 75, 106); fill-opacity: 1;"/><path class="point" transform="translate(742.23,211.52)" d="M2.5,0A2.5,2.5 0 1,1 0,-2.5A2.5,2.5 0 0,1 2.5,0Z" style="opacity: 1; stroke-width: 0px; fill: rgb(124, 75, 106); fill-opacity: 1;"/><path class="point" transform="translate(752.41,209.27)" d="M2.5,0A2.5,2.5 0 1,1 0,-2.5A2.5,2.5 0 0,1 2.5,0Z" style="opacity: 1; stroke-width: 0px; fill: rgb(124, 75, 106); fill-opacity: 1;"/><path class="point" transform="translate(767.34,208.43)" d="M2.5,0A2.5,2.5 0 1,1 0,-2.5A2.5,2.5 0 0,1 2.5,0Z" style="opacity: 1; stroke-width: 0px; fill: rgb(124, 75, 106); fill-opacity: 1;"/><path class="point" transform="translate(772.1,207.29)" d="M2.5,0A2.5,2.5 0 1,1 0,-2.5A2.5,2.5 0 0,1 2.5,0Z" style="opacity: 1; stroke-width: 0px; fill: rgb(124, 75, 106); fill-opacity: 1;"/><path class="point" transform="translate(774.09,208.13)" d="M2.5,0A2.5,2.5 0 1,1 0,-2.5A2.5,2.5 0 0,1 2.5,0Z" style="opacity: 1; stroke-width: 0px; fill: rgb(124, 75, 106); fill-opacity: 1;"/><path class="point" transform="translate(795.89,208.99)" d="M2.5,0A2.5,2.5 0 1,1 0,-2.5A2.5,2.5 0 0,1 2.5,0Z" style="opacity: 1; stroke-width: 0px; fill: rgb(124, 75, 106); fill-opacity: 1;"/><path class="point" transform="translate(853.65,210.13)" d="M2.5,0A2.5,2.5 0 1,1 0,-2.5A2.5,2.5 0 0,1 2.5,0Z" style="opacity: 1; stroke-width: 0px; fill: rgb(124, 75, 106); fill-opacity: 1;"/></g></g><g class="trace violins" style="opacity: 1;"><path class="violin" d="M610.4,182.7L610.4,182.14Q616.24,181.82 619.15,181.56C622.07,181.3 624.98,180.99 627.89,180.56C630.81,180.13 633.73,179.62 636.63,179C639.56,178.37 642.48,177.64 645.38,176.8C648.31,175.96 651.22,174.99 654.12,173.96C657.05,172.92 659.96,171.76 662.86,170.58C665.78,169.39 668.69,168.11 671.6,166.85C674.52,165.58 677.43,164.26 680.35,162.99C683.26,161.72 686.17,160.42 689.09,159.22C691.99,158.02 694.9,156.83 697.83,155.79C700.73,154.76 703.64,153.76 706.58,152.99C709.47,152.23 712.39,151.56 715.32,151.16C718.22,150.77 721.15,150.55 724.06,150.61C726.98,150.67 729.91,151 732.81,151.51C735.74,152.02 738.66,152.83 741.55,153.69C744.48,154.57 747.38,155.68 750.29,156.74C753.21,157.81 756.11,158.99 759.03,160.07C761.94,161.15 764.85,162.24 767.78,163.22C770.68,164.2 773.6,165.11 776.52,165.96C779.43,166.81 782.34,167.57 785.26,168.33C788.17,169.09 791.09,169.79 794.01,170.51C796.92,171.23 799.84,171.95 802.75,172.66C805.66,173.37 808.58,174.09 811.49,174.79C814.4,175.49 817.31,176.2 820.23,176.84C823.14,177.48 826.06,178.1 828.98,178.65C831.89,179.19 834.8,179.69 837.72,180.11C840.63,180.53 843.54,180.88 846.46,181.17C849.37,181.46 852.29,181.69 855.21,181.87C858.12,182.05 861.04,182.17 863.95,182.26C866.86,182.35 869.78,182.4 872.69,182.43C875.6,182.46 878.52,182.45 881.43,182.43C884.35,182.41 887.26,182.36 890.18,182.29C893.09,182.22 896.01,182.11 898.92,181.99C901.83,181.87 904.75,181.71 907.66,181.55C910.58,181.39 913.49,181.2 916.41,181.01C919.32,180.83 922.24,180.62 925.15,180.44C928.06,180.26 930.98,180.08 933.89,179.93C936.8,179.78 939.72,179.64 942.63,179.53C945.55,179.42 948.46,179.35 951.38,179.29C954.29,179.23 957.21,179.2 960.12,179.18C963.03,179.16 965.95,179.17 968.86,179.19C971.78,179.21 974.69,179.26 977.61,179.33C980.52,179.4 983.44,179.48 986.35,179.6C989.26,179.72 992.18,179.87 995.09,180.03C998,180.19 1000.92,180.38 1003.83,180.56C1006.75,180.74 1009.66,180.95 1012.58,181.13C1015.49,181.31 1018.41,181.5 1021.32,181.66C1024.23,181.82 1027.15,181.95 1030.06,182.07Q1032.98,182.19 1038.81,182.36L1038.81,182.7" style="vector-effect: non-scaling-stroke; stroke-width: 2px; stroke: rgb(142, 70, 92); stroke-opacity: 1; fill: rgb(142, 70, 92); fill-opacity: 0.5;"/><g class="points"><path class="point" transform="translate(663.45,174.04)" d="M2.5,0A2.5,2.5 0 1,1 0,-2.5A2.5,2.5 0 0,1 2.5,0Z" style="opacity: 1; stroke-width: 0px; fill: rgb(142, 70, 92); fill-opacity: 1;"/><path class="point" transform="translate(678.49,179.04)" d="M2.5,0A2.5,2.5 0 1,1 0,-2.5A2.5,2.5 0 0,1 2.5,0Z" style="opacity: 1; stroke-width: 0px; fill: rgb(142, 70, 92); fill-opacity: 1;"/><path class="point" transform="translate(683.14,172.67)" d="M2.5,0A2.5,2.5 0 1,1 0,-2.5A2.5,2.5 0 0,1 2.5,0Z" style="opacity: 1; stroke-width: 0px; fill: rgb(142, 70, 92); fill-opacity: 1;"/><path class="point" transform="translate(685.13,180.29)" d="M2.5,0A2.5,2.5 0 1,1 0,-2.5A2.5,2.5 0 0,1 2.5,0Z" style="opacity: 1; stroke-width: 0px; fill: rgb(142, 70, 92); fill-opacity: 1;"/><path class="point" transform="translate(696.53,177.41)" d="M2.5,0A2.5,2.5 0 1,1 0,-2.5A2.5,2.5 0 0,1 2.5,0Z" style="opacity: 1; stroke-width: 0px; fill: rgb(142, 70, 92); fill-opacity: 1;"/><path class="point" transform="translate(702.62,173.77)" d="M2.5,0A2.5,2.5 0 1,1 0,-2.5A2.5,2.5 0 0,1 2.5,0Z" style="opacity: 1; stroke-width: 0px; fill: rgb(142, 70, 92); fill-opacity: 1;"/><path class="point" transform="translate(710.47,176.48)" d="M2.5,0A2.5,2.5 0 1,1 0,-2.5A2.5,2.5 0 0,1 2.5,0Z" style="opacity: 1; stroke-width: 0px; fill: rgb(142, 70, 92); fill-opacity: 1;"/><path class="point" transform="translate(710.69,174.71)" d="M2.5,0A2.5,2.5 0 1,1 0,-2.5A2.5,2.5 0 0,1 2.5,0Z" style="opacity: 1; stroke-width: 0px; fill: rgb(142, 70, 92); fill-opacity: 1;"/><path class="point" transform="translate(715.89,178.03)" d="M2.5,0A2.5,2.5 0 1,1 0,-2.5A2.5,2.5 0 0,1 2.5,0Z" style="opacity: 1; stroke-width: 0px; fill: rgb(142, 70, 92); fill-opacity: 1;"/><path class="point" transform="translate(726.52,180.77)" d="M2.5,0A2.5,2.5 0 1,1 0,-2.5A2.5,2.5 0 0,1 2.5,0Z" style="opacity: 1; stroke-width: 0px; fill: rgb(142, 70, 92); fill-opacity: 1;"/><path class="point" transform="translate(727.51,174.57)" d="M2.5,0A2.5,2.5 0 1,1 0,-2.5A2.5,2.5 0 0,1 2.5,0Z" style="opacity: 1; stroke-width: 0px; fill: rgb(142, 70, 92); fill-opacity: 1;"/><path class="point" transform="translate(732.49,178.34)" d="M2.5,0A2.5,2.5 0 1,1 0,-2.5A2.5,2.5 0 0,1 2.5,0Z" style="opacity: 1; stroke-width: 0px; fill: rgb(142, 70, 92); fill-opacity: 1;"/><path class="point" transform="translate(732.93,172.92)" d="M2.5,0A2.5,2.5 0 1,1 0,-2.5A2.5,2.5 0 0,1 2.5,0Z" style="opacity: 1; stroke-width: 0px; fill: rgb(142, 70, 92); fill-opacity: 1;"/><path class="point" transform="translate(734.04,181.02)" d="M2.5,0A2.5,2.5 0 1,1 0,-2.5A2.5,2.5 0 0,1 2.5,0Z" style="opacity: 1; stroke-width: 0px; fill: rgb(142, 70, 92); fill-opacity: 1;"/><path class="point" transform="translate(735.81,179.22)" d="M2.5,0A2.5,2.5 0 1,1 0,-2.5A2.5,2.5 0 0,1 2.5,0Z" style="opacity: 1; stroke-width: 0px; fill: rgb(142, 70, 92); fill-opacity: 1;"/><path class="point" transform="translate(738.24,172.12)" d="M2.5,0A2.5,2.5 0 1,1 0,-2.5A2.5,2.5 0 0,1 2.5,0Z" style="opacity: 1; stroke-width: 0px; fill: rgb(142, 70, 92); fill-opacity: 1;"/><path class="point" transform="translate(747.98,177.39)" d="M2.5,0A2.5,2.5 0 1,1 0,-2.5A2.5,2.5 0 0,1 2.5,0Z" style="opacity: 1; stroke-width: 0px; fill: rgb(142, 70, 92); fill-opacity: 1;"/><path class="point" transform="translate(762.81,178.56)" d="M2.5,0A2.5,2.5 0 1,1 0,-2.5A2.5,2.5 0 0,1 2.5,0Z" style="opacity: 1; stroke-width: 0px; fill: rgb(142, 70, 92); fill-opacity: 1;"/><path class="point" transform="translate(777.86,177.08)" d="M2.5,0A2.5,2.5 0 1,1 0,-2.5A2.5,2.5 0 0,1 2.5,0Z" style="opacity: 1; stroke-width: 0px; fill: rgb(142, 70, 92); fill-opacity: 1;"/><path class="point" transform="translate(783.72,176.34)" d="M2.5,0A2.5,2.5 0 1,1 0,-2.5A2.5,2.5 0 0,1 2.5,0Z" style="opacity: 1; stroke-width: 0px; fill: rgb(142, 70, 92); fill-opacity: 1;"/><path class="point" transform="translate(793.79,175.31)" d="M2.5,0A2.5,2.5 0 1,1 0,-2.5A2.5,2.5 0 0,1 2.5,0Z" style="opacity: 1; stroke-width: 0px; fill: rgb(142, 70, 92); fill-opacity: 1;"/><path class="point" transform="translate(808.84,176.06)" d="M2.5,0A2.5,2.5 0 1,1 0,-2.5A2.5,2.5 0 0,1 2.5,0Z" style="opacity: 1; stroke-width: 0px; fill: rgb(142, 70, 92); fill-opacity: 1;"/><path class="point" transform="translate(941.39,176.85)" d="M2.5,0A2.5,2.5 0 1,1 0,-2.5A2.5,2.5 0 0,1 2.5,0Z" style="opacity: 1; stroke-width: 0px; fill: rgb(142, 70, 92); fill-opacity: 1;"/><path class="point" transform="translate(985.76,177.86)" d="M2.5,0A2.5,2.5 0 1,1 0,-2.5A2.5,2.5 0 0,1 2.5,0Z" style="opacity: 1; stroke-width: 0px; fill: rgb(142, 70, 92); fill-opacity: 1;"/></g></g><g class="trace violins" style="opacity: 1;"><path class="violin" d="M636.27,150.61L636.27,150.14Q640.68,149.88 642.88,149.69C645.08,149.5 647.28,149.27 649.48,148.98C651.69,148.69 653.89,148.35 656.09,147.95C658.3,147.55 660.5,147.09 662.7,146.58C664.91,146.07 667.11,145.51 669.3,144.9C671.51,144.29 673.71,143.62 675.91,142.91C678.12,142.19 680.33,141.42 682.52,140.6C684.73,139.77 686.94,138.88 689.13,137.94C691.34,136.99 693.54,135.96 695.73,134.91C697.94,133.85 700.14,132.72 702.34,131.59C704.55,130.45 706.74,129.25 708.95,128.11C711.15,126.97 713.34,125.8 715.56,124.75C717.75,123.71 719.94,122.68 722.16,121.83C724.34,120.99 726.55,120.22 728.77,119.67C730.95,119.13 733.17,118.72 735.38,118.53C737.58,118.34 739.79,118.34 741.99,118.52C744.2,118.7 746.4,119.09 748.59,119.59C750.81,120.09 753.01,120.78 755.2,121.53C757.42,122.29 759.62,123.21 761.81,124.15C764.03,125.11 766.22,126.17 768.42,127.23C770.63,128.3 772.82,129.44 775.02,130.53C777.22,131.62 779.42,132.75 781.63,133.79C783.82,134.82 786.02,135.83 788.24,136.74C790.43,137.64 792.63,138.47 794.85,139.21C797.04,139.94 799.24,140.6 801.45,141.18C803.64,141.76 805.85,142.25 808.06,142.71C810.26,143.17 812.46,143.56 814.67,143.93C816.87,144.29 819.07,144.62 821.28,144.9C823.48,145.18 825.68,145.42 827.88,145.63C830.08,145.84 832.29,146.01 834.49,146.18C836.69,146.35 838.9,146.49 841.1,146.64C843.3,146.8 845.51,146.94 847.71,147.11C849.91,147.28 852.11,147.48 854.31,147.68C856.51,147.88 858.72,148.1 860.92,148.32C863.12,148.54 865.33,148.77 867.53,148.98C869.73,149.18 871.94,149.38 874.14,149.55C876.34,149.72 878.54,149.87 880.74,149.99C882.94,150.11 885.15,150.21 887.35,150.29C889.55,150.37 891.76,150.42 893.96,150.46C896.16,150.5 898.37,150.53 900.57,150.55C902.77,150.57 904.97,150.57 907.17,150.58C909.37,150.59 911.58,150.59 913.78,150.59C915.98,150.59 918.19,150.58 920.39,150.57C922.59,150.56 924.8,150.54 927,150.5C929.2,150.47 931.4,150.42 933.6,150.36C935.8,150.3 938.01,150.22 940.21,150.12C942.41,150.02 944.62,149.89 946.82,149.74C949.02,149.59 951.23,149.41 953.43,149.23C955.63,149.05 957.83,148.84 960.03,148.66C962.23,148.47 964.44,148.27 966.64,148.12C968.84,147.97 971.05,147.83 973.25,147.75C975.45,147.67 977.66,147.64 979.86,147.65C982.06,147.66 984.26,147.72 986.46,147.79C988.66,147.86 990.87,147.97 993.07,148.06C995.27,148.14 997.48,148.25 999.68,148.3C1001.88,148.35 1004.09,148.38 1006.29,148.37C1008.49,148.36 1010.69,148.3 1012.89,148.23C1015.09,148.16 1017.3,148.05 1019.5,147.96C1021.7,147.88 1023.91,147.77 1026.11,147.72C1028.31,147.67 1030.52,147.63 1032.72,147.65C1034.92,147.67 1037.12,147.74 1039.32,147.85C1041.52,147.96 1043.73,148.12 1045.93,148.29C1048.13,148.46 1050.34,148.67 1052.54,148.86C1054.74,149.05 1056.95,149.26 1059.15,149.43C1061.35,149.6 1063.55,149.76 1065.75,149.89Q1067.95,150.02 1072.36,150.22L1072.36,150.61" style="vector-effect: non-scaling-stroke; stroke-width: 2px; stroke: rgb(160, 64, 79); stroke-opacity: 1; fill: rgb(160, 64, 79); fill-opacity: 0.5;"/><g class="points"><path class="point" transform="translate(676.06,141.9)" d="M2.5,0A2.5,2.5 0 1,1 0,-2.5A2.5,2.5 0 0,1 2.5,0Z" style="opacity: 1; stroke-width: 0px; fill: rgb(160, 64, 79); fill-opacity: 1;"/><path class="point" transform="translate(690.22,146.77)" d="M2.5,0A2.5,2.5 0 1,1 0,-2.5A2.5,2.5 0 0,1 2.5,0Z" style="opacity: 1; stroke-width: 0px; fill: rgb(160, 64, 79); fill-opacity: 1;"/><path class="point" transform="translate(708.15,140.85)" d="M2.5,0A2.5,2.5 0 1,1 0,-2.5A2.5,2.5 0 0,1 2.5,0Z" style="opacity: 1; stroke-width: 0px; fill: rgb(160, 64, 79); fill-opacity: 1;"/><path class="point" transform="translate(711.47,148.01)" d="M2.5,0A2.5,2.5 0 1,1 0,-2.5A2.5,2.5 0 0,1 2.5,0Z" style="opacity: 1; stroke-width: 0px; fill: rgb(160, 64, 79); fill-opacity: 1;"/><path class="point" transform="translate(713.02,145.36)" d="M2.5,0A2.5,2.5 0 1,1 0,-2.5A2.5,2.5 0 0,1 2.5,0Z" style="opacity: 1; stroke-width: 0px; fill: rgb(160, 64, 79); fill-opacity: 1;"/><path class="point" transform="translate(714.12,141.63)" d="M2.5,0A2.5,2.5 0 1,1 0,-2.5A2.5,2.5 0 0,1 2.5,0Z" style="opacity: 1; stroke-width: 0px; fill: rgb(160, 64, 79); fill-opacity: 1;"/><path class="point" transform="translate(730.72,144.4)" d="M2.5,0A2.5,2.5 0 1,1 0,-2.5A2.5,2.5 0 0,1 2.5,0Z" style="opacity: 1; stroke-width: 0px; fill: rgb(160, 64, 79); fill-opacity: 1;"/><path class="point" transform="translate(732.05,142.33)" d="M2.5,0A2.5,2.5 0 1,1 0,-2.5A2.5,2.5 0 0,1 2.5,0Z" style="opacity: 1; stroke-width: 0px; fill: rgb(160, 64, 79); fill-opacity: 1;"/><path class="point" transform="translate(734.37,146.23)" d="M2.5,0A2.5,2.5 0 1,1 0,-2.5A2.5,2.5 0 0,1 2.5,0Z" style="opacity: 1; stroke-width: 0px; fill: rgb(160, 64, 79); fill-opacity: 1;"/><path class="point" transform="translate(735.59,148.25)" d="M2.5,0A2.5,2.5 0 1,1 0,-2.5A2.5,2.5 0 0,1 2.5,0Z" style="opacity: 1; stroke-width: 0px; fill: rgb(160, 64, 79); fill-opacity: 1;"/><path class="point" transform="translate(738.47,142.78)" d="M2.5,0A2.5,2.5 0 1,1 0,-2.5A2.5,2.5 0 0,1 2.5,0Z" style="opacity: 1; stroke-width: 0px; fill: rgb(160, 64, 79); fill-opacity: 1;"/><path class="point" transform="translate(741.56,146.26)" d="M2.5,0A2.5,2.5 0 1,1 0,-2.5A2.5,2.5 0 0,1 2.5,0Z" style="opacity: 1; stroke-width: 0px; fill: rgb(160, 64, 79); fill-opacity: 1;"/><path class="point" transform="translate(744.22,140.16)" d="M2.5,0A2.5,2.5 0 1,1 0,-2.5A2.5,2.5 0 0,1 2.5,0Z" style="opacity: 1; stroke-width: 0px; fill: rgb(160, 64, 79); fill-opacity: 1;"/><path class="point" transform="translate(747.87,150.32)" d="M2.5,0A2.5,2.5 0 1,1 0,-2.5A2.5,2.5 0 0,1 2.5,0Z" style="opacity: 1; stroke-width: 0px; fill: rgb(160, 64, 79); fill-opacity: 1;"/><path class="point" transform="translate(761.59,147.02)" d="M2.5,0A2.5,2.5 0 1,1 0,-2.5A2.5,2.5 0 0,1 2.5,0Z" style="opacity: 1; stroke-width: 0px; fill: rgb(160, 64, 79); fill-opacity: 1;"/><path class="point" transform="translate(767.46,140.17)" d="M2.5,0A2.5,2.5 0 1,1 0,-2.5A2.5,2.5 0 0,1 2.5,0Z" style="opacity: 1; stroke-width: 0px; fill: rgb(160, 64, 79); fill-opacity: 1;"/><path class="point" transform="translate(768.34,145.14)" d="M2.5,0A2.5,2.5 0 1,1 0,-2.5A2.5,2.5 0 0,1 2.5,0Z" style="opacity: 1; stroke-width: 0px; fill: rgb(160, 64, 79); fill-opacity: 1;"/><path class="point" transform="translate(768.67,146.36)" d="M2.5,0A2.5,2.5 0 1,1 0,-2.5A2.5,2.5 0 0,1 2.5,0Z" style="opacity: 1; stroke-width: 0px; fill: rgb(160, 64, 79); fill-opacity: 1;"/><path class="point" transform="translate(771.88,144.95)" d="M2.5,0A2.5,2.5 0 1,1 0,-2.5A2.5,2.5 0 0,1 2.5,0Z" style="opacity: 1; stroke-width: 0px; fill: rgb(160, 64, 79); fill-opacity: 1;"/><path class="point" transform="translate(797.99,144.24)" d="M2.5,0A2.5,2.5 0 1,1 0,-2.5A2.5,2.5 0 0,1 2.5,0Z" style="opacity: 1; stroke-width: 0px; fill: rgb(160, 64, 79); fill-opacity: 1;"/><path class="point" transform="translate(810.06,143.24)" d="M2.5,0A2.5,2.5 0 1,1 0,-2.5A2.5,2.5 0 0,1 2.5,0Z" style="opacity: 1; stroke-width: 0px; fill: rgb(160, 64, 79); fill-opacity: 1;"/><path class="point" transform="translate(845.68,143.98)" d="M2.5,0A2.5,2.5 0 1,1 0,-2.5A2.5,2.5 0 0,1 2.5,0Z" style="opacity: 1; stroke-width: 0px; fill: rgb(160, 64, 79); fill-opacity: 1;"/><path class="point" transform="translate(977.69,144.71)" d="M2.5,0A2.5,2.5 0 1,1 0,-2.5A2.5,2.5 0 0,1 2.5,0Z" style="opacity: 1; stroke-width: 0px; fill: rgb(160, 64, 79); fill-opacity: 1;"/><path class="point" transform="translate(1032.57,145.61)" d="M2.5,0A2.5,2.5 0 1,1 0,-2.5A2.5,2.5 0 0,1 2.5,0Z" style="opacity: 1; stroke-width: 0px; fill: rgb(160, 64, 79); fill-opacity: 1;"/></g></g><g class="trace violins" style="opacity: 1;"><path class="violin" d="M646.6,118.52L646.6,117.5Q652.1,116.92 654.83,116.45C657.58,115.98 660.34,115.41 663.06,114.68C665.82,113.94 668.56,113.04 671.28,112.02C674.05,110.98 676.79,109.76 679.51,108.46C682.28,107.14 685.01,105.64 687.74,104.16C690.5,102.66 693.22,101.05 695.97,99.52C698.71,98 701.44,96.42 704.2,95.02C706.92,93.64 709.66,92.28 712.43,91.15C715.14,90.04 717.89,89.04 720.66,88.29C723.38,87.56 726.13,87 728.88,86.69C731.61,86.38 734.37,86.31 737.11,86.43C739.86,86.55 742.61,86.93 745.34,87.44C748.1,87.95 750.84,88.7 753.57,89.51C756.33,90.33 759.07,91.33 761.8,92.33C764.55,93.34 767.29,94.46 770.03,95.54C772.77,96.62 775.51,97.74 778.25,98.81C780.99,99.88 783.73,100.93 786.48,101.94C789.22,102.94 791.96,103.92 794.71,104.84C797.45,105.76 800.19,106.63 802.94,107.45C805.68,108.26 808.42,109.04 811.17,109.73C813.91,110.42 816.65,111.06 819.4,111.61C822.14,112.16 824.88,112.64 827.63,113.05C830.37,113.46 833.11,113.78 835.85,114.06C838.59,114.34 841.34,114.54 844.08,114.74C846.82,114.94 849.57,115.09 852.31,115.26C855.05,115.43 857.8,115.57 860.54,115.74C863.28,115.91 866.03,116.09 868.77,116.27C871.51,116.45 874.26,116.65 877,116.83C879.74,117.01 882.49,117.21 885.23,117.37C887.97,117.53 890.71,117.68 893.45,117.8C896.19,117.92 898.94,118.03 901.68,118.11C904.42,118.19 907.17,118.26 909.91,118.3C912.65,118.34 915.4,118.36 918.14,118.36C920.88,118.36 923.63,118.36 926.37,118.33C929.11,118.3 931.86,118.25 934.6,118.18C937.34,118.11 940.09,118.03 942.83,117.92C945.57,117.81 948.31,117.67 951.05,117.53C953.79,117.38 956.54,117.21 959.28,117.05C962.02,116.89 964.77,116.71 967.51,116.56C970.25,116.42 973,116.27 975.74,116.18C978.48,116.09 981.23,116.03 983.97,116.01C986.71,115.99 989.46,116.02 992.2,116.07C994.94,116.12 997.69,116.21 1000.43,116.3C1003.17,116.39 1005.91,116.51 1008.65,116.59C1011.39,116.67 1014.14,116.76 1016.88,116.79C1019.62,116.82 1022.37,116.82 1025.11,116.79C1027.85,116.76 1030.6,116.68 1033.34,116.6C1036.08,116.52 1038.83,116.41 1041.57,116.32C1044.31,116.23 1047.06,116.12 1049.8,116.07C1052.54,116.02 1055.29,115.98 1058.03,116C1060.77,116.02 1063.51,116.08 1066.25,116.17C1068.99,116.26 1071.74,116.4 1074.48,116.54C1077.22,116.68 1079.97,116.87 1082.71,117.03C1085.45,117.19 1088.2,117.36 1090.94,117.51C1093.68,117.66 1096.43,117.8 1099.17,117.91Q1101.91,118.02 1107.4,118.19L1107.4,118.52" style="vector-effect: non-scaling-stroke; stroke-width: 2px; stroke: rgb(179, 59, 66); stroke-opacity: 1; fill: rgb(179, 59, 66); fill-opacity: 0.5;"/><g class="points"><path class="point" transform="translate(696.42,109.15)" d="M2.5,0A2.5,2.5 0 1,1 0,-2.5A2.5,2.5 0 0,1 2.5,0Z" style="opacity: 1; stroke-width: 0px; fill: rgb(179, 59, 66); fill-opacity: 1;"/><path class="point" transform="translate(702.84,115.93)" d="M2.5,0A2.5,2.5 0 1,1 0,-2.5A2.5,2.5 0 0,1 2.5,0Z" style="opacity: 1; stroke-width: 0px; fill: rgb(179, 59, 66); fill-opacity: 1;"/><path class="point" transform="translate(704.39,107.77)" d="M2.5,0A2.5,2.5 0 1,1 0,-2.5A2.5,2.5 0 0,1 2.5,0Z" style="opacity: 1; stroke-width: 0px; fill: rgb(179, 59, 66); fill-opacity: 1;"/><path class="point" transform="translate(705.27,116.83)" d="M2.5,0A2.5,2.5 0 1,1 0,-2.5A2.5,2.5 0 0,1 2.5,0Z" style="opacity: 1; stroke-width: 0px; fill: rgb(179, 59, 66); fill-opacity: 1;"/><path class="point" transform="translate(711.91,113.55)" d="M2.5,0A2.5,2.5 0 1,1 0,-2.5A2.5,2.5 0 0,1 2.5,0Z" style="opacity: 1; stroke-width: 0px; fill: rgb(179, 59, 66); fill-opacity: 1;"/><path class="point" transform="translate(719.66,108.91)" d="M2.5,0A2.5,2.5 0 1,1 0,-2.5A2.5,2.5 0 0,1 2.5,0Z" style="opacity: 1; stroke-width: 0px; fill: rgb(179, 59, 66); fill-opacity: 1;"/><path class="point" transform="translate(721.54,112.34)" d="M2.5,0A2.5,2.5 0 1,1 0,-2.5A2.5,2.5 0 0,1 2.5,0Z" style="opacity: 1; stroke-width: 0px; fill: rgb(179, 59, 66); fill-opacity: 1;"/><path class="point" transform="translate(730.06,110.39)" d="M2.5,0A2.5,2.5 0 1,1 0,-2.5A2.5,2.5 0 0,1 2.5,0Z" style="opacity: 1; stroke-width: 0px; fill: rgb(179, 59, 66); fill-opacity: 1;"/><path class="point" transform="translate(734.93,113.91)" d="M2.5,0A2.5,2.5 0 1,1 0,-2.5A2.5,2.5 0 0,1 2.5,0Z" style="opacity: 1; stroke-width: 0px; fill: rgb(179, 59, 66); fill-opacity: 1;"/><path class="point" transform="translate(735.81,116.5)" d="M2.5,0A2.5,2.5 0 1,1 0,-2.5A2.5,2.5 0 0,1 2.5,0Z" style="opacity: 1; stroke-width: 0px; fill: rgb(179, 59, 66); fill-opacity: 1;"/><path class="point" transform="translate(737.14,110.54)" d="M2.5,0A2.5,2.5 0 1,1 0,-2.5A2.5,2.5 0 0,1 2.5,0Z" style="opacity: 1; stroke-width: 0px; fill: rgb(179, 59, 66); fill-opacity: 1;"/><path class="point" transform="translate(739.35,114.07)" d="M2.5,0A2.5,2.5 0 1,1 0,-2.5A2.5,2.5 0 0,1 2.5,0Z" style="opacity: 1; stroke-width: 0px; fill: rgb(179, 59, 66); fill-opacity: 1;"/><path class="point" transform="translate(747.21,108.4)" d="M2.5,0A2.5,2.5 0 1,1 0,-2.5A2.5,2.5 0 0,1 2.5,0Z" style="opacity: 1; stroke-width: 0px; fill: rgb(179, 59, 66); fill-opacity: 1;"/><path class="point" transform="translate(752.41,117.34)" d="M2.5,0A2.5,2.5 0 1,1 0,-2.5A2.5,2.5 0 0,1 2.5,0Z" style="opacity: 1; stroke-width: 0px; fill: rgb(179, 59, 66); fill-opacity: 1;"/><path class="point" transform="translate(753.74,115.01)" d="M2.5,0A2.5,2.5 0 1,1 0,-2.5A2.5,2.5 0 0,1 2.5,0Z" style="opacity: 1; stroke-width: 0px; fill: rgb(179, 59, 66); fill-opacity: 1;"/><path class="point" transform="translate(763.36,108.01)" d="M2.5,0A2.5,2.5 0 1,1 0,-2.5A2.5,2.5 0 0,1 2.5,0Z" style="opacity: 1; stroke-width: 0px; fill: rgb(179, 59, 66); fill-opacity: 1;"/><path class="point" transform="translate(763.69,113.01)" d="M2.5,0A2.5,2.5 0 1,1 0,-2.5A2.5,2.5 0 0,1 2.5,0Z" style="opacity: 1; stroke-width: 0px; fill: rgb(179, 59, 66); fill-opacity: 1;"/><path class="point" transform="translate(774.09,114.26)" d="M2.5,0A2.5,2.5 0 1,1 0,-2.5A2.5,2.5 0 0,1 2.5,0Z" style="opacity: 1; stroke-width: 0px; fill: rgb(179, 59, 66); fill-opacity: 1;"/><path class="point" transform="translate(786.93,112.84)" d="M2.5,0A2.5,2.5 0 1,1 0,-2.5A2.5,2.5 0 0,1 2.5,0Z" style="opacity: 1; stroke-width: 0px; fill: rgb(179, 59, 66); fill-opacity: 1;"/><path class="point" transform="translate(795.56,112.15)" d="M2.5,0A2.5,2.5 0 1,1 0,-2.5A2.5,2.5 0 0,1 2.5,0Z" style="opacity: 1; stroke-width: 0px; fill: rgb(179, 59, 66); fill-opacity: 1;"/><path class="point" transform="translate(807.51,111.19)" d="M2.5,0A2.5,2.5 0 1,1 0,-2.5A2.5,2.5 0 0,1 2.5,0Z" style="opacity: 1; stroke-width: 0px; fill: rgb(179, 59, 66); fill-opacity: 1;"/><path class="point" transform="translate(853.98,111.89)" d="M2.5,0A2.5,2.5 0 1,1 0,-2.5A2.5,2.5 0 0,1 2.5,0Z" style="opacity: 1; stroke-width: 0px; fill: rgb(179, 59, 66); fill-opacity: 1;"/><path class="point" transform="translate(984.77,112.61)" d="M2.5,0A2.5,2.5 0 1,1 0,-2.5A2.5,2.5 0 0,1 2.5,0Z" style="opacity: 1; stroke-width: 0px; fill: rgb(179, 59, 66); fill-opacity: 1;"/><path class="point" transform="translate(1057.58,113.5)" d="M2.5,0A2.5,2.5 0 1,1 0,-2.5A2.5,2.5 0 0,1 2.5,0Z" style="opacity: 1; stroke-width: 0px; fill: rgb(179, 59, 66); fill-opacity: 1;"/></g></g><g class="trace violins" style="opacity: 1;"><path class="violin" d="M654.54,86.43L654.54,86.07Q658.54,85.88 660.54,85.75C662.54,85.62 664.54,85.47 666.54,85.28C668.54,85.09 670.54,84.87 672.54,84.63C674.54,84.38 676.53,84.11 678.53,83.81C680.53,83.5 682.53,83.18 684.53,82.8C686.53,82.41 688.54,82.01 690.53,81.5C692.54,80.99 694.54,80.44 696.52,79.75C698.54,79.05 700.54,78.26 702.52,77.34C704.55,76.4 706.55,75.31 708.52,74.14C710.55,72.94 712.53,71.58 714.51,70.21C716.53,68.82 718.51,67.31 720.51,65.87C722.51,64.44 724.48,62.94 726.51,61.61C728.49,60.32 730.47,59.03 732.51,58C734.47,57.01 736.47,56.11 738.5,55.5C740.47,54.91 742.49,54.5 744.5,54.34C746.49,54.18 748.51,54.28 750.5,54.54C752.51,54.8 754.51,55.32 756.49,55.93C758.51,56.55 760.51,57.38 762.49,58.25C764.51,59.14 766.5,60.18 768.49,61.23C770.5,62.3 772.49,63.46 774.48,64.62C776.49,65.79 778.48,67.02 780.48,68.22C782.48,69.42 784.47,70.65 786.48,71.83C788.47,73 790.47,74.18 792.48,75.26C794.46,76.33 796.45,77.37 798.47,78.28C800.45,79.17 802.45,80 804.47,80.69C806.45,81.37 808.46,81.94 810.47,82.38C812.46,82.82 814.46,83.12 816.46,83.35C818.45,83.57 820.46,83.66 822.46,83.73C824.46,83.8 826.46,83.77 828.46,83.76C830.46,83.75 832.46,83.68 834.46,83.67C836.46,83.66 838.45,83.65 840.45,83.67C842.45,83.69 844.45,83.75 846.45,83.82C848.45,83.89 850.45,84 852.45,84.09C854.45,84.18 856.44,84.28 858.44,84.34C860.44,84.4 862.44,84.45 864.44,84.45C866.44,84.45 868.44,84.42 870.44,84.36C872.44,84.31 874.43,84.2 876.43,84.12C878.43,84.04 880.43,83.93 882.43,83.87C884.43,83.81 886.43,83.75 888.43,83.75C890.43,83.75 892.43,83.79 894.43,83.86C896.43,83.93 898.42,84.05 900.42,84.19C902.42,84.33 904.42,84.51 906.42,84.68C908.42,84.85 910.42,85.04 912.42,85.2C914.42,85.36 916.41,85.53 918.41,85.66C920.41,85.79 922.41,85.9 924.41,85.99C926.41,86.08 928.41,86.14 930.41,86.2C932.41,86.25 934.4,86.29 936.4,86.32C938.4,86.35 940.4,86.35 942.4,86.35C944.4,86.35 946.4,86.34 948.4,86.32C950.4,86.3 952.4,86.27 954.4,86.22C956.4,86.17 958.39,86.1 960.39,86.01C962.39,85.92 964.39,85.81 966.39,85.68C968.39,85.55 970.39,85.4 972.39,85.24C974.39,85.08 976.38,84.89 978.38,84.72C980.38,84.55 982.38,84.37 984.38,84.23C986.38,84.09 988.38,83.97 990.38,83.9C992.38,83.83 994.37,83.8 996.37,83.82C998.37,83.84 1000.37,83.91 1002.37,84.01C1004.37,84.11 1006.37,84.27 1008.37,84.42C1010.37,84.57 1012.37,84.76 1014.37,84.93C1016.37,85.1 1018.36,85.28 1020.36,85.43C1022.36,85.58 1024.36,85.72 1026.36,85.83C1028.36,85.94 1030.36,86.03 1032.36,86.11C1034.36,86.18 1036.35,86.24 1038.35,86.28C1040.35,86.32 1042.35,86.34 1044.35,86.36C1046.35,86.38 1048.35,86.4 1050.35,86.41C1052.35,86.42 1054.34,86.42 1056.34,86.42C1058.34,86.42 1060.34,86.43 1062.34,86.43C1064.34,86.43 1066.34,86.43 1068.34,86.43C1070.34,86.43 1072.34,86.43 1074.34,86.43C1076.34,86.43 1078.33,86.43 1080.33,86.43C1082.33,86.43 1084.33,86.43 1086.33,86.43C1088.33,86.43 1090.33,86.43 1092.33,86.43C1094.33,86.43 1096.32,86.43 1098.32,86.43C1100.32,86.43 1102.32,86.43 1104.32,86.43C1106.32,86.43 1108.32,86.43 1110.32,86.43C1112.32,86.43 1114.31,86.43 1116.31,86.43C1118.31,86.43 1120.31,86.43 1122.31,86.43C1124.31,86.43 1126.31,86.42 1128.31,86.42C1130.31,86.41 1132.31,86.41 1134.31,86.4C1136.31,86.39 1138.3,86.38 1140.3,86.35C1142.3,86.32 1144.3,86.29 1146.3,86.24C1148.3,86.19 1150.3,86.13 1152.3,86.05C1154.3,85.97 1156.29,85.86 1158.29,85.74C1160.29,85.62 1162.29,85.47 1164.29,85.31C1166.29,85.15 1168.29,84.96 1170.29,84.79C1172.29,84.62 1174.28,84.44 1176.28,84.3C1178.28,84.16 1180.28,84.01 1182.28,83.93C1184.28,83.85 1186.28,83.8 1188.28,83.81C1190.28,83.82 1192.28,83.88 1194.28,83.97C1196.28,84.06 1198.27,84.2 1200.27,84.35C1202.27,84.5 1204.27,84.69 1206.27,84.86C1208.27,85.03 1210.27,85.21 1212.27,85.36C1214.27,85.51 1216.26,85.66 1218.26,85.78Q1220.26,85.9 1224.26,86.08L1224.26,86.43" style="vector-effect: non-scaling-stroke; stroke-width: 2px; stroke: rgb(197, 53, 52); stroke-opacity: 1; fill: rgb(197, 53, 52); fill-opacity: 0.5;"/><g class="points"><path class="point" transform="translate(690.89,78.11)" d="M2.5,0A2.5,2.5 0 1,1 0,-2.5A2.5,2.5 0 0,1 2.5,0Z" style="opacity: 1; stroke-width: 0px; fill: rgb(197, 53, 52); fill-opacity: 1;"/><path class="point" transform="translate(718.77,82.51)" d="M2.5,0A2.5,2.5 0 1,1 0,-2.5A2.5,2.5 0 0,1 2.5,0Z" style="opacity: 1; stroke-width: 0px; fill: rgb(197, 53, 52); fill-opacity: 1;"/><path class="point" transform="translate(722.09,76.75)" d="M2.5,0A2.5,2.5 0 1,1 0,-2.5A2.5,2.5 0 0,1 2.5,0Z" style="opacity: 1; stroke-width: 0px; fill: rgb(197, 53, 52); fill-opacity: 1;"/><path class="point" transform="translate(728.73,83.76)" d="M2.5,0A2.5,2.5 0 1,1 0,-2.5A2.5,2.5 0 0,1 2.5,0Z" style="opacity: 1; stroke-width: 0px; fill: rgb(197, 53, 52); fill-opacity: 1;"/><path class="point" transform="translate(730.06,81.12)" d="M2.5,0A2.5,2.5 0 1,1 0,-2.5A2.5,2.5 0 0,1 2.5,0Z" style="opacity: 1; stroke-width: 0px; fill: rgb(197, 53, 52); fill-opacity: 1;"/><path class="point" transform="translate(735.59,77.69)" d="M2.5,0A2.5,2.5 0 1,1 0,-2.5A2.5,2.5 0 0,1 2.5,0Z" style="opacity: 1; stroke-width: 0px; fill: rgb(197, 53, 52); fill-opacity: 1;"/><path class="point" transform="translate(737.8,80.24)" d="M2.5,0A2.5,2.5 0 1,1 0,-2.5A2.5,2.5 0 0,1 2.5,0Z" style="opacity: 1; stroke-width: 0px; fill: rgb(197, 53, 52); fill-opacity: 1;"/><path class="point" transform="translate(738.47,78.24)" d="M2.5,0A2.5,2.5 0 1,1 0,-2.5A2.5,2.5 0 0,1 2.5,0Z" style="opacity: 1; stroke-width: 0px; fill: rgb(197, 53, 52); fill-opacity: 1;"/><path class="point" transform="translate(740.01,82.06)" d="M2.5,0A2.5,2.5 0 1,1 0,-2.5A2.5,2.5 0 0,1 2.5,0Z" style="opacity: 1; stroke-width: 0px; fill: rgb(197, 53, 52); fill-opacity: 1;"/><path class="point" transform="translate(744.66,84.5)" d="M2.5,0A2.5,2.5 0 1,1 0,-2.5A2.5,2.5 0 0,1 2.5,0Z" style="opacity: 1; stroke-width: 0px; fill: rgb(197, 53, 52); fill-opacity: 1;"/><path class="point" transform="translate(752.08,78.32)" d="M2.5,0A2.5,2.5 0 1,1 0,-2.5A2.5,2.5 0 0,1 2.5,0Z" style="opacity: 1; stroke-width: 0px; fill: rgb(197, 53, 52); fill-opacity: 1;"/><path class="point" transform="translate(752.41,81.98)" d="M2.5,0A2.5,2.5 0 1,1 0,-2.5A2.5,2.5 0 0,1 2.5,0Z" style="opacity: 1; stroke-width: 0px; fill: rgb(197, 53, 52); fill-opacity: 1;"/><path class="point" transform="translate(754.4,76.54)" d="M2.5,0A2.5,2.5 0 1,1 0,-2.5A2.5,2.5 0 0,1 2.5,0Z" style="opacity: 1; stroke-width: 0px; fill: rgb(197, 53, 52); fill-opacity: 1;"/><path class="point" transform="translate(757.94,85.21)" d="M2.5,0A2.5,2.5 0 1,1 0,-2.5A2.5,2.5 0 0,1 2.5,0Z" style="opacity: 1; stroke-width: 0px; fill: rgb(197, 53, 52); fill-opacity: 1;"/><path class="point" transform="translate(762.14,82.99)" d="M2.5,0A2.5,2.5 0 1,1 0,-2.5A2.5,2.5 0 0,1 2.5,0Z" style="opacity: 1; stroke-width: 0px; fill: rgb(197, 53, 52); fill-opacity: 1;"/><path class="point" transform="translate(765.69,76.73)" d="M2.5,0A2.5,2.5 0 1,1 0,-2.5A2.5,2.5 0 0,1 2.5,0Z" style="opacity: 1; stroke-width: 0px; fill: rgb(197, 53, 52); fill-opacity: 1;"/><path class="point" transform="translate(771.66,80.76)" d="M2.5,0A2.5,2.5 0 1,1 0,-2.5A2.5,2.5 0 0,1 2.5,0Z" style="opacity: 1; stroke-width: 0px; fill: rgb(197, 53, 52); fill-opacity: 1;"/><path class="point" transform="translate(778.52,81.93)" d="M2.5,0A2.5,2.5 0 1,1 0,-2.5A2.5,2.5 0 0,1 2.5,0Z" style="opacity: 1; stroke-width: 0px; fill: rgb(197, 53, 52); fill-opacity: 1;"/><path class="point" transform="translate(782.28,80.57)" d="M2.5,0A2.5,2.5 0 1,1 0,-2.5A2.5,2.5 0 0,1 2.5,0Z" style="opacity: 1; stroke-width: 0px; fill: rgb(197, 53, 52); fill-opacity: 1;"/><path class="point" transform="translate(790.03,80.05)" d="M2.5,0A2.5,2.5 0 1,1 0,-2.5A2.5,2.5 0 0,1 2.5,0Z" style="opacity: 1; stroke-width: 0px; fill: rgb(197, 53, 52); fill-opacity: 1;"/><path class="point" transform="translate(839.38,79.33)" d="M2.5,0A2.5,2.5 0 1,1 0,-2.5A2.5,2.5 0 0,1 2.5,0Z" style="opacity: 1; stroke-width: 0px; fill: rgb(197, 53, 52); fill-opacity: 1;"/><path class="point" transform="translate(890.05,79.86)" d="M2.5,0A2.5,2.5 0 1,1 0,-2.5A2.5,2.5 0 0,1 2.5,0Z" style="opacity: 1; stroke-width: 0px; fill: rgb(197, 53, 52); fill-opacity: 1;"/><path class="point" transform="translate(995.17,80.39)" d="M2.5,0A2.5,2.5 0 1,1 0,-2.5A2.5,2.5 0 0,1 2.5,0Z" style="opacity: 1; stroke-width: 0px; fill: rgb(197, 53, 52); fill-opacity: 1;"/><path class="point" transform="translate(1187.92,81.03)" d="M2.5,0A2.5,2.5 0 1,1 0,-2.5A2.5,2.5 0 0,1 2.5,0Z" style="opacity: 1; stroke-width: 0px; fill: rgb(197, 53, 52); fill-opacity: 1;"/></g></g><g class="trace violins" style="opacity: 1;"><path class="violin" d="M636.59,54.34L636.59,53.68Q642.27,53.33 645.11,53.08C647.95,52.83 650.79,52.52 653.63,52.16C656.47,51.79 659.31,51.37 662.15,50.89C664.99,50.41 667.83,49.87 670.67,49.29C673.51,48.71 676.35,48.09 679.19,47.43C682.03,46.77 684.88,46.07 687.71,45.32C690.56,44.57 693.4,43.79 696.23,42.93C699.08,42.07 701.93,41.16 704.76,40.17C707.61,39.17 710.45,38.09 713.28,36.97C716.13,35.84 718.96,34.61 721.8,33.4C724.64,32.19 727.47,30.9 730.32,29.72C733.15,28.55 735.98,27.34 738.84,26.34C741.66,25.35 744.5,24.41 747.36,23.73C750.18,23.06 753.03,22.54 755.88,22.29C758.71,22.05 761.57,22.03 764.4,22.25C767.25,22.47 770.1,22.97 772.92,23.63C775.78,24.3 778.62,25.23 781.44,26.24C784.3,27.27 787.13,28.51 789.96,29.75C792.81,31 795.64,32.39 798.48,33.73C801.32,35.07 804.15,36.48 807,37.77C809.83,39.05 812.67,40.33 815.53,41.46C818.35,42.58 821.19,43.63 824.05,44.53C826.87,45.42 829.72,46.19 832.57,46.84C835.4,47.48 838.24,47.99 841.09,48.41C843.92,48.83 846.77,49.11 849.61,49.36C852.45,49.61 855.29,49.75 858.13,49.89C860.97,50.03 863.81,50.1 866.65,50.19C869.49,50.27 872.33,50.33 875.17,50.4C878.01,50.47 880.85,50.54 883.69,50.63C886.53,50.72 889.37,50.83 892.21,50.96C895.05,51.09 897.89,51.24 900.73,51.4C903.57,51.56 906.41,51.74 909.25,51.91C912.09,52.07 914.93,52.25 917.77,52.39C920.61,52.53 923.46,52.66 926.3,52.74C929.14,52.82 931.98,52.85 934.82,52.85C937.66,52.85 940.5,52.79 943.34,52.71C946.18,52.63 949.02,52.5 951.86,52.39C954.7,52.28 957.54,52.14 960.38,52.04C963.22,51.94 966.06,51.83 968.9,51.79C971.74,51.75 974.58,51.74 977.42,51.77C980.26,51.8 983.1,51.89 985.94,52C988.78,52.11 991.62,52.27 994.46,52.42C997.3,52.57 1000.14,52.75 1002.98,52.9C1005.82,53.05 1008.66,53.21 1011.5,53.33C1014.34,53.45 1017.18,53.54 1020.02,53.6C1022.86,53.66 1025.7,53.68 1028.54,53.67C1031.38,53.66 1034.23,53.59 1037.07,53.51C1039.91,53.43 1042.75,53.3 1045.59,53.17C1048.43,53.03 1051.27,52.86 1054.11,52.7C1056.95,52.54 1059.79,52.37 1062.63,52.23C1065.47,52.09 1068.31,51.96 1071.15,51.88C1073.99,51.8 1076.83,51.76 1079.67,51.77C1082.51,51.78 1085.35,51.83 1088.19,51.92C1091.03,52.01 1093.87,52.15 1096.71,52.3C1099.55,52.45 1102.39,52.63 1105.23,52.8C1108.07,52.96 1110.91,53.14 1113.75,53.29C1116.59,53.44 1119.43,53.58 1122.27,53.7Q1125.11,53.82 1130.79,53.99L1130.79,54.34" style="vector-effect: non-scaling-stroke; stroke-width: 2px; stroke: rgb(215, 48, 39); stroke-opacity: 1; fill: rgb(215, 48, 39); fill-opacity: 0.5;"/><g class="points"><path class="point" transform="translate(688.34,45.89)" d="M2.5,0A2.5,2.5 0 1,1 0,-2.5A2.5,2.5 0 0,1 2.5,0Z" style="opacity: 1; stroke-width: 0px; fill: rgb(215, 48, 39); fill-opacity: 1;"/><path class="point" transform="translate(690.89,50.62)" d="M2.5,0A2.5,2.5 0 1,1 0,-2.5A2.5,2.5 0 0,1 2.5,0Z" style="opacity: 1; stroke-width: 0px; fill: rgb(215, 48, 39); fill-opacity: 1;"/><path class="point" transform="translate(717.44,44.59)" d="M2.5,0A2.5,2.5 0 1,1 0,-2.5A2.5,2.5 0 0,1 2.5,0Z" style="opacity: 1; stroke-width: 0px; fill: rgb(215, 48, 39); fill-opacity: 1;"/><path class="point" transform="translate(725.19,51.76)" d="M2.5,0A2.5,2.5 0 1,1 0,-2.5A2.5,2.5 0 0,1 2.5,0Z" style="opacity: 1; stroke-width: 0px; fill: rgb(215, 48, 39); fill-opacity: 1;"/><path class="point" transform="translate(736.7,49.06)" d="M2.5,0A2.5,2.5 0 1,1 0,-2.5A2.5,2.5 0 0,1 2.5,0Z" style="opacity: 1; stroke-width: 0px; fill: rgb(215, 48, 39); fill-opacity: 1;"/><path class="point" transform="translate(738.91,45.5)" d="M2.5,0A2.5,2.5 0 1,1 0,-2.5A2.5,2.5 0 0,1 2.5,0Z" style="opacity: 1; stroke-width: 0px; fill: rgb(215, 48, 39); fill-opacity: 1;"/><path class="point" transform="translate(740.68,48.09)" d="M2.5,0A2.5,2.5 0 1,1 0,-2.5A2.5,2.5 0 0,1 2.5,0Z" style="opacity: 1; stroke-width: 0px; fill: rgb(215, 48, 39); fill-opacity: 1;"/><path class="point" transform="translate(747.54,46.36)" d="M2.5,0A2.5,2.5 0 1,1 0,-2.5A2.5,2.5 0 0,1 2.5,0Z" style="opacity: 1; stroke-width: 0px; fill: rgb(215, 48, 39); fill-opacity: 1;"/><path class="point" transform="translate(748.87,49.73)" d="M2.5,0A2.5,2.5 0 1,1 0,-2.5A2.5,2.5 0 0,1 2.5,0Z" style="opacity: 1; stroke-width: 0px; fill: rgb(215, 48, 39); fill-opacity: 1;"/><path class="point" transform="translate(753.85,52.57)" d="M2.5,0A2.5,2.5 0 1,1 0,-2.5A2.5,2.5 0 0,1 2.5,0Z" style="opacity: 1; stroke-width: 0px; fill: rgb(215, 48, 39); fill-opacity: 1;"/><path class="point" transform="translate(761.7,46.21)" d="M2.5,0A2.5,2.5 0 1,1 0,-2.5A2.5,2.5 0 0,1 2.5,0Z" style="opacity: 1; stroke-width: 0px; fill: rgb(215, 48, 39); fill-opacity: 1;"/><path class="point" transform="translate(765.24,49.98)" d="M2.5,0A2.5,2.5 0 1,1 0,-2.5A2.5,2.5 0 0,1 2.5,0Z" style="opacity: 1; stroke-width: 0px; fill: rgb(215, 48, 39); fill-opacity: 1;"/><path class="point" transform="translate(771.33,44.5)" d="M2.5,0A2.5,2.5 0 1,1 0,-2.5A2.5,2.5 0 0,1 2.5,0Z" style="opacity: 1; stroke-width: 0px; fill: rgb(215, 48, 39); fill-opacity: 1;"/><path class="point" transform="translate(773.65,53.14)" d="M2.5,0A2.5,2.5 0 1,1 0,-2.5A2.5,2.5 0 0,1 2.5,0Z" style="opacity: 1; stroke-width: 0px; fill: rgb(215, 48, 39); fill-opacity: 1;"/><path class="point" transform="translate(775.42,51.12)" d="M2.5,0A2.5,2.5 0 1,1 0,-2.5A2.5,2.5 0 0,1 2.5,0Z" style="opacity: 1; stroke-width: 0px; fill: rgb(215, 48, 39); fill-opacity: 1;"/><path class="point" transform="translate(776.75,44.25)" d="M2.5,0A2.5,2.5 0 1,1 0,-2.5A2.5,2.5 0 0,1 2.5,0Z" style="opacity: 1; stroke-width: 0px; fill: rgb(215, 48, 39); fill-opacity: 1;"/><path class="point" transform="translate(780.4,48.8)" d="M2.5,0A2.5,2.5 0 1,1 0,-2.5A2.5,2.5 0 0,1 2.5,0Z" style="opacity: 1; stroke-width: 0px; fill: rgb(215, 48, 39); fill-opacity: 1;"/><path class="point" transform="translate(800.98,50.3)" d="M2.5,0A2.5,2.5 0 1,1 0,-2.5A2.5,2.5 0 0,1 2.5,0Z" style="opacity: 1; stroke-width: 0px; fill: rgb(215, 48, 39); fill-opacity: 1;"/><path class="point" transform="translate(803.08,48.67)" d="M2.5,0A2.5,2.5 0 1,1 0,-2.5A2.5,2.5 0 0,1 2.5,0Z" style="opacity: 1; stroke-width: 0px; fill: rgb(215, 48, 39); fill-opacity: 1;"/><path class="point" transform="translate(804.74,47.97)" d="M2.5,0A2.5,2.5 0 1,1 0,-2.5A2.5,2.5 0 0,1 2.5,0Z" style="opacity: 1; stroke-width: 0px; fill: rgb(215, 48, 39); fill-opacity: 1;"/><path class="point" transform="translate(851.99,47.01)" d="M2.5,0A2.5,2.5 0 1,1 0,-2.5A2.5,2.5 0 0,1 2.5,0Z" style="opacity: 1; stroke-width: 0px; fill: rgb(215, 48, 39); fill-opacity: 1;"/><path class="point" transform="translate(892.71,47.71)" d="M2.5,0A2.5,2.5 0 1,1 0,-2.5A2.5,2.5 0 0,1 2.5,0Z" style="opacity: 1; stroke-width: 0px; fill: rgb(215, 48, 39); fill-opacity: 1;"/><path class="point" transform="translate(974.48,48.44)" d="M2.5,0A2.5,2.5 0 1,1 0,-2.5A2.5,2.5 0 0,1 2.5,0Z" style="opacity: 1; stroke-width: 0px; fill: rgb(215, 48, 39); fill-opacity: 1;"/><path class="point" transform="translate(1079.04,49.33)" d="M2.5,0A2.5,2.5 0 1,1 0,-2.5A2.5,2.5 0 0,1 2.5,0Z" style="opacity: 1; stroke-width: 0px; fill: rgb(215, 48, 39); fill-opacity: 1;"/></g></g></g></g><g class="overplot"/><path class="xlines-above crisp" d="M124,445.5H1320" style="fill: none; stroke-width: 1px; stroke: rgb(255, 255, 255); stroke-opacity: 1;"/><path class="ylines-above crisp" d="M124.5,50V445" style="fill: none; stroke-width: 1px; stroke: rgb(255, 255, 255); stroke-opacity: 1;"/><g class="overlines-above"/><g class="xaxislayer-above"><g class="xtick"><text text-anchor="middle" x="0" y="460.4" transform="translate(191.39,0)" style="font-family: 'Open Sans', verdana, arial, sans-serif; font-size: 12px; fill: rgb(42, 63, 95); fill-opacity: 1; white-space: pre;">30</text></g><g class="xtick"><text text-anchor="middle" x="0" y="460.4" transform="translate(412.69,0)" style="font-family: 'Open Sans', verdana, arial, sans-serif; font-size: 12px; fill: rgb(42, 63, 95); fill-opacity: 1; white-space: pre;">20</text></g><g class="xtick"><text text-anchor="middle" x="0" y="460.4" transform="translate(633.98,0)" style="font-family: 'Open Sans', verdana, arial, sans-serif; font-size: 12px; fill: rgb(42, 63, 95); fill-opacity: 1; white-space: pre;">10</text></g><g class="xtick"><text text-anchor="middle" x="0" y="460.4" transform="translate(855.28,0)" style="font-family: 'Open Sans', verdana, arial, sans-serif; font-size: 12px; fill: rgb(42, 63, 95); fill-opacity: 1; white-space: pre;">0</text></g><g class="xtick"><text text-anchor="middle" x="0" y="460.4" transform="translate(1076.5700000000002,0)" style="font-family: 'Open Sans', verdana, arial, sans-serif; font-size: 12px; fill: rgb(42, 63, 95); fill-opacity: 1; white-space: pre;">10</text></g><g class="xtick"><text text-anchor="middle" x="0" y="460.4" transform="translate(1297.87,0)" style="font-family: 'Open Sans', verdana, arial, sans-serif; font-size: 12px; fill: rgb(42, 63, 95); fill-opacity: 1; white-space: pre;">20</text></g></g><g class="yaxislayer-above"><g class="ytick"><text text-anchor="end" x="121.6" y="4.199999999999999" transform="translate(0,425.25)" style="font-family: 'Open Sans', verdana, arial, sans-serif; font-size: 12px; fill: rgb(42, 63, 95); fill-opacity: 1; white-space: pre;">Sample 117-2_C4</text></g><g class="ytick"><text text-anchor="end" x="121.6" y="4.199999999999999" transform="translate(0,393.16)" style="font-family: 'Open Sans', verdana, arial, sans-serif; font-size: 12px; fill: rgb(42, 63, 95); fill-opacity: 1; white-space: pre;">Sample 7-2_F2</text></g><g class="ytick"><text text-anchor="end" x="121.6" y="4.199999999999999" transform="translate(0,361.07)" style="font-family: 'Open Sans', verdana, arial, sans-serif; font-size: 12px; fill: rgb(42, 63, 95); fill-opacity: 1; white-space: pre;">Sample 7-1_E2</text></g><g class="ytick"><text text-anchor="end" x="121.6" y="4.199999999999999" transform="translate(0,328.98)" style="font-family: 'Open Sans', verdana, arial, sans-serif; font-size: 12px; fill: rgb(42, 63, 95); fill-opacity: 1; white-space: pre;">Sample 69-1_F3</text></g><g class="ytick"><text text-anchor="end" x="121.6" y="4.199999999999999" transform="translate(0,296.89)" style="font-family: 'Open Sans', verdana, arial, sans-serif; font-size: 12px; fill: rgb(42, 63, 95); fill-opacity: 1; white-space: pre;">Sample 131-1_F4</text></g><g class="ytick"><text text-anchor="end" x="121.6" y="4.199999999999999" transform="translate(0,264.8)" style="font-family: 'Open Sans', verdana, arial, sans-serif; font-size: 12px; fill: rgb(42, 63, 95); fill-opacity: 1; white-space: pre;">Sample 11-1_A3</text></g><g class="ytick"><text text-anchor="end" x="121.6" y="4.199999999999999" transform="translate(0,232.7)" style="font-family: 'Open Sans', verdana, arial, sans-serif; font-size: 12px; fill: rgb(42, 63, 95); fill-opacity: 1; white-space: pre;">Sample 134-1_H4</text></g><g class="ytick"><text text-anchor="end" x="121.6" y="4.199999999999999" transform="translate(0,200.61)" style="font-family: 'Open Sans', verdana, arial, sans-serif; font-size: 12px; fill: rgb(42, 63, 95); fill-opacity: 1; white-space: pre;">Sample 79-2_G3</text></g><g class="ytick"><text text-anchor="end" x="121.6" y="4.199999999999999" transform="translate(0,168.51999999999998)" style="font-family: 'Open Sans', verdana, arial, sans-serif; font-size: 12px; fill: rgb(42, 63, 95); fill-opacity: 1; white-space: pre;">Sample 4-2_B2</text></g><g class="ytick"><text text-anchor="end" x="121.6" y="4.199999999999999" transform="translate(0,136.43)" style="font-family: 'Open Sans', verdana, arial, sans-serif; font-size: 12px; fill: rgb(42, 63, 95); fill-opacity: 1; white-space: pre;">Sample 4-1_B2</text></g><g class="ytick"><text text-anchor="end" x="121.6" y="4.199999999999999" transform="translate(0,104.34)" style="font-family: 'Open Sans', verdana, arial, sans-serif; font-size: 12px; fill: rgb(42, 63, 95); fill-opacity: 1; white-space: pre;">Sample 134-2_A5</text></g></g><g class="overaxes-above"/></g></g><g class="polarlayer"/><g class="ternarylayer"/><g class="geolayer"/><g class="funnelarealayer"/><g class="pielayer"/><g class="treemaplayer"/><g class="sunburstlayer"/><g class="glimages"/><defs id="topdefs-e37192"><g class="clips"/></defs><g class="layer-above"><g class="imagelayer"/><g class="shapelayer"/></g><g class="infolayer"><g class="g-gtitle"/><g class="g-xtitle"><text class="xtitle" x="722.5" y="488.20625" text-anchor="middle" style="font-family: 'Open Sans', verdana, arial, sans-serif; font-size: 14px; fill: rgb(42, 63, 95); opacity: 1; font-weight: normal; white-space: pre;">CpG median log likelihood ratio</text></g><g class="g-ytitle"/><g class="annotation" data-index="0" style="opacity: 1;"><g class="annotation-text-g" transform="rotate(0,855.28,35.79999999999998)"><g class="cursor-pointer" transform="translate(820, 26)"><rect class="bg" x="0.5" y="0.5" width="70" height="18" style="stroke-width: 1px; stroke: rgb(0, 0, 0); stroke-opacity: 0; fill: rgb(0, 0, 0); fill-opacity: 0;"/><text class="annotation-text" text-anchor="middle" x="35.421875" y="14" style="font-family: 'Open Sans', verdana, arial, sans-serif; font-size: 12px; fill: rgb(100, 100, 100); fill-opacity: 1; white-space: pre;">Ambiguous</text></g></g></g><g class="annotation" data-index="1" style="opacity: 1;"><g class="annotation-text-g" transform="rotate(0,479.07,35.79999999999998)"><g class="cursor-pointer" transform="translate(435, 26)"><rect class="bg" x="0.5" y="0.5" width="87" height="18" style="stroke-width: 1px; stroke: rgb(0, 0, 0); stroke-opacity: 0; fill: rgb(0, 0, 0); fill-opacity: 0;"/><text class="annotation-text" text-anchor="middle" x="44.1875" y="14" style="font-family: 'Open Sans', verdana, arial, sans-serif; font-size: 12px; fill: rgb(33, 102, 172); fill-opacity: 1; white-space: pre;">Unmethylated</text></g></g></g><g class="annotation" data-index="2" style="opacity: 1;"><g class="annotation-text-g" transform="rotate(0,1098.7,35.79999999999998)"><g class="cursor-pointer" transform="translate(1064, 26)"><rect class="bg" x="0.5" y="0.5" width="69" height="18" style="stroke-width: 1px; stroke: rgb(0, 0, 0); stroke-opacity: 0; fill: rgb(0, 0, 0); fill-opacity: 0;"/><text class="annotation-text" text-anchor="middle" x="35.21875" y="14" style="font-family: 'Open Sans', verdana, arial, sans-serif; font-size: 12px; fill: rgb(215, 48, 39); fill-opacity: 1; white-space: pre;">Methylated</text></g></g></g></g></svg>